<svg id="Layer_1" data-name="Layer 1" xmlns="http://www.w3.org/2000/svg" viewBox="0 0 600 400"><defs><style>.cls-1{fill:#ffcad8;}.cls-2{fill:#ffaec4;}.cls-3{fill:#c9476a;}.cls-4{fill:#ff5a86;}.cls-5{fill:#ff92af;}.cls-6{fill:#ff769b;}.cls-7{fill:#ffe600;}.cls-8{fill:#fff;}.cls-9{fill:#080808;}</style></defs><title>balance-sheet copy 2</title><rect class="cls-1" width="600" height="399"/><path class="cls-2" d="M240.45093,344.80062l-7.33887,8.82031a.2505.2505,0,0,1-.31714.05664l-86.00683-49.65539-4.33594,5.40765,98.165,59.48682c11.25781-23.23114,32.16845-47.30841,44.48486-57.51551l-5.939-3.42895A230.65771,230.65771,0,0,0,240.45093,344.80062Z"/><path class="cls-2" d="M327.36743,314.08614a16.80919,16.80919,0,0,1-8.3313-2.21014l-24.9602-14.23364q-7.66664,4.87061-14.91284,10.32983l5.939,3.42895,36.45166,21.04529a11.81725,11.81725,0,0,0,11.73535.04737l120.01563-68.0044a4.54562,4.54562,0,0,0,.03222-7.8916l-10.17846-5.87659-107.45874,61.1612A16.8311,16.8311,0,0,1,327.36743,314.08614Z"/><path class="cls-3" d="M384.03833,215.87874a10.80556,10.80556,0,0,0-5.55518,9.44367l.00025,20.84845,69.95434-40.06238-24.46215-12.42786Z"/><polygon class="cls-4" points="194.965 105.101 211.066 114.376 211.066 79.725 211.066 79.544 194.965 70.179 194.965 105.101"/><path class="cls-4" d="M394.83179,152.23165a22.35574,22.35574,0,0,1-11.40088-3.12488l-10.63111-6.302a48.14938,48.14938,0,0,1,1.33667,11.26569v28.4356l73.92847-26.65618L427.03711,143.71l-.11182-.06457-25.71338,7.65631A22.34922,22.34922,0,0,1,394.83179,152.23165Z"/><path class="cls-4" d="M357.02026,116.81045l.24634.435-34.14575,19.3465v34.02423l23.97827-13.17987.2478.00391.12256.21521v33.6875c0,.0495.00659.09655.00757.14569l.00415.0097a7.30229,7.30229,0,0,0,.07788.89.242.242,0,0,1,.07154.16314v.24445a7.14269,7.14269,0,0,0,6.97387,5.67676,6.94517,6.94517,0,0,0,1.80054-.23761,7.24626,7.24626,0,0,0,1.77539-.74475l6.44824-3.7666a18.17144,18.17144,0,0,0,9.00806-15.69281V154.07046A47.62743,47.62743,0,0,0,372.148,142.3124a48.41188,48.41188,0,0,0-1.57031-5.01794c-.05323-.14179-.11524-.28046-.16993-.42182-.2622-.681-.53173-1.35956-.82568-2.02881-.36377-.82464-.748-1.64123-1.15918-2.44629A65.265,65.265,0,0,0,344.89648,106.742q-1.00085-.62559-2.02636-1.21619L250.82935,52.52242a25.54721,25.54721,0,0,0-22.40381-1.51263c-.13648.05578-.26953.123-.40528.18127a25.51337,25.51337,0,0,0-2.61792,1.29315L201.991,65.87142l120.86059,70.29852ZM355.25879,193.546c-1.23047.71045-2.22852.14258-2.22852-1.26855a4.90919,4.90919,0,0,1,2.22852-3.8418c1.23047-.71045,2.22851-.14258,2.22851,1.26856A4.90918,4.90918,0,0,1,355.25879,193.546Z"/><path class="cls-4" d="M346.96948,158.07815l-30.28442,16.64611.00024.01233,30.29663,17.29932-.00048-.4621c-.0022-.07757-.01172-.15252-.01172-.23089Z"/><polygon class="cls-4" points="251.977 137.789 272.432 149.468 272.432 115.237 231.163 91.233 231.163 125.904 246.952 134.92 247.059 134.92 251.977 137.789"/><path class="cls-4" d="M374.13647,182.73165V200.526a18.52776,18.52776,0,0,1-8.76464,15.74665l-17.75342,11.00775-.01319,37.02105-.02172.038c-.00464.029.00463.05853-.01075.08557-.01562.02753-.04614.03491-.06933.05383l-.02173.03833-30.76587,18.00672,9.30347,30.99951c.44873.03723.89819.0628,1.34814.0628a16.3317,16.3317,0,0,0,8.085-2.1383l107.80835-61.36029a10.80391,10.80391,0,0,0,5.45313-9.38532l-.00049-34.17572-70.356,40.29254-.24951-.00067-.12451-.21625V225.32241a11.30524,11.30524,0,0,1,5.812-9.88068l64.66821-35.94452-.06518-23.236L374.23413,183.0024Z"/><path class="cls-4" d="M209.65991,221.68014l-.00342.00195-.11132-.06757-14.36939-8.21228,8.70166,24.48621c.68726-.40674,1.36914-.82172,2.06079-1.2215l9.12207-5.27148.00025.00006.125.21643.12475-.21655,96.16309,55.51953.125.21637-.12476.21661-.73462.42456a78.52826,78.52826,0,0,0-10.01855,13.08332l18.56348,10.58581a16.30456,16.30456,0,0,0,6.198,2.02985l-9.2727-30.89649Z"/><path class="cls-5" d="M253.68628,210.64022l93.41919,53.23114.01269-36.484a.24382.24382,0,0,1-.0957-.18628l-.03979-34.589-93.29639-53.255Zm68.65161-3.48773c0-1.93994,1.17969-2.832,2.63477-1.9917l10.88964,6.28711a6.31,6.31,0,0,1,2.63477,5.03418V227.985c0,1.94043-1.17969,2.832-2.63477,1.99218l-10.88964-6.28759a6.30906,6.30906,0,0,1-2.63477-5.03369Zm-.21655,20.32812a.24974.24974,0,0,1,.34131-.09155l14.68945,8.48047a.25.25,0,0,1-.24976.433l-14.68945-8.48047A.2499.2499,0,0,1,322.12134,227.48061ZM264.8252,167.34487a7.62505,7.62505,0,0,1,1.16308-4.41455,3.69061,3.69061,0,0,1,3.08716-1.6474,5.56452,5.56452,0,0,1,2.75928.82977l27.42382,15.833-.12475.21655.125-.21655c3.7688,2.19135,6.74878,7.90991,6.75952,12.89331v28.96875a7.62331,7.62331,0,0,1-1.16382,4.41449,3.69184,3.69184,0,0,1-3.0874,1.64746,5.562,5.562,0,0,1-2.7583-.82934l-27.42407-15.833c-3.7688-2.19135-6.74878-7.9104-6.75952-12.89374Z"/><polygon class="cls-5" points="225.979 123.541 225.985 194.856 233.591 199.19 233.591 127.886 225.979 123.541"/><path class="cls-6" d="M316.41846,282.11849,346.855,264.30428,253.28,211.06332l-29.97925,17.83679Zm-5.71534-20.9433a9.604,9.604,0,0,1,4.70484-1.12634,9.732,9.732,0,0,1,4.76392,1.1449,3.508,3.508,0,0,1,2.04956,2.89459,3.45912,3.45912,0,0,1-2.01734,2.86066l-.125-.21643.12476.21649a9.60236,9.60236,0,0,1-4.70459,1.1264,9.72805,9.72805,0,0,1-4.76392-1.145,3.5085,3.5085,0,0,1-2.05054-2.89435A3.45778,3.45778,0,0,1,310.70312,261.17519Z"/><polygon class="cls-6" points="225.646 195.341 195.217 212.85 203.065 217.335 233.257 199.671 225.646 195.341"/><path class="cls-5" d="M310.98511,266.49746a9.24386,9.24386,0,0,0,4.51416,1.07806,9.11817,9.11817,0,0,0,4.45459-1.05939v-.00006a2.97161,2.97161,0,0,0,1.76782-2.42773,3.02178,3.02178,0,0,0-1.7998-2.46155,9.2451,9.2451,0,0,0-4.51392-1.078,9.119,9.119,0,0,0-4.45508,1.05945,2.97016,2.97016,0,0,0-1.76831,2.42791A3.021,3.021,0,0,0,310.98511,266.49746Z"/><polygon class="cls-3" points="316.682 174.155 322.621 170.889 322.621 136.875 316.464 140.364 316.507 140.438 316.682 174.155"/><polygon class="cls-3" points="231.039 90.559 231.06 90.595 316.045 140.027 322.348 136.455 201.49 66.158 195.398 69.642 195.22 69.749 224.476 86.765 224.536 86.766 231.039 90.559"/><path class="cls-3" d="M461.48242,149.71633a12.37148,12.37148,0,0,0-.728-1.09473l-.011-.01483a8.49345,8.49345,0,0,0-2.428-2.29034l-21.72266-12.54151a3.6561,3.6561,0,0,0-1.80737-.5542,2.17535,2.17535,0,0,0-1.4646.54474l-.20142.17456-.04565.07868-.02734.03259a3.37945,3.37945,0,0,0-.602,1.043l-.01514.04-4.46436,7.95667,21.4314,12.37292.06665,23.71155,9.32666,3.99829.02588.01495a3.71807,3.71807,0,0,0,1.83667.56385,2.21856,2.21856,0,0,0,1.87549-1.01014,5.36481,5.36481,0,0,0,.7937-3.09387V155.92544a12.67148,12.67148,0,0,0-1.82349-6.1828Z"/><path class="cls-7" d="M271.83472,208.77431l27.42407,15.833a5.06935,5.06935,0,0,0,2.5083.76245,3.1866,3.1866,0,0,0,2.6792-1.43628,7.13947,7.13947,0,0,0,1.07226-4.12573V190.839c.01075-4.78815-2.95068-10.42017-6.51-12.46027v-.00012l-27.42382-15.83288a5.07181,5.07181,0,0,0-2.50928-.76288,3.18529,3.18529,0,0,0-2.679,1.43616,7.14146,7.14146,0,0,0-1.07153,4.12585v28.96875C265.31421,201.10171,268.27563,206.73421,271.83472,208.77431Zm.35644-32.26239a7.83979,7.83979,0,0,1,6.31934-2.94549,14.28459,14.28459,0,0,1,7.03638,2.14831c8.58886,4.97211,15.50146,16.8877,15.51245,26.74585a12.88766,12.88766,0,0,1-2.40821,8.17993,7.839,7.839,0,0,1-6.31884,2.94544,14.27783,14.27783,0,0,1-7.0354-2.14813c-8.59009-4.97211-15.50269-16.8877-15.51368-26.74579A12.88973,12.88973,0,0,1,272.19116,176.51192Z"/><path class="cls-8" d="M272.97363,176.38766c-.1333.14233-.26806.28241-.39258.43725A12.40117,12.40117,0,0,0,270.283,184.692c-.00855,7.43793,4.09155,16.17865,9.82812,22.01025Z"/><path class="cls-8" d="M280.29736,186.24935a3.12163,3.12163,0,0,1,2.511-1.172,5.32369,5.32369,0,0,1,2.37964.65039L282.63354,174.878a11.81184,11.81184,0,0,0-4.123-.81164,8.26469,8.26469,0,0,0-2.16382.28967l3.19019,13.54962A4.20256,4.20256,0,0,1,280.29736,186.24935Z"/><path class="cls-8" d="M288.03491,200.52181a5.55034,5.55034,0,0,1-2.738-.833,11.94954,11.94954,0,0,1-3.91529-3.94751l3.49341,14.83734c.22437.14057.44507.2956.67188.42615a14.4356,14.4356,0,0,0,6.07543,2.05255l-2.9663-12.59887A3.46307,3.46307,0,0,1,288.03491,200.52181Z"/><path class="cls-5" d="M285.54688,199.25582a5.06043,5.06043,0,0,0,2.488.76605,2.61678,2.61678,0,0,0,2.1211-.985,4.53608,4.53608,0,0,0,.8352-2.87751,12.58326,12.58326,0,0,0-5.69433-9.81573,5.06333,5.06333,0,0,0-2.48853-.7663,2.61664,2.61664,0,0,0-2.12109.98511,4.538,4.538,0,0,0-.835,2.87769A12.58307,12.58307,0,0,0,285.54688,199.25582Z"/><path class="cls-7" d="M330.324,221.47549a3.06009,3.06009,0,0,0,1.502.46417,1.53408,1.53408,0,0,0,1.24658-.57764,2.73272,2.73272,0,0,0,.49878-1.73151,7.74064,7.74064,0,0,0-3.49732-6.02716,3.05715,3.05715,0,0,0-1.50146-.46435,1.532,1.532,0,0,0-1.24585.57764,2.73177,2.73177,0,0,0-.49878,1.73175A7.74265,7.74265,0,0,0,330.324,221.47549Z"/><path class="cls-3" d="M364.88086,194.15591l-6.44824,3.76617a7.55329,7.55329,0,0,1-3.82813,1.05054,7.66563,7.66563,0,0,1-7.12036-4.89942l.0376,32.67871,17.58667-10.90423a18.02766,18.02766,0,0,0,8.52832-15.32166v-18.2453A18.66756,18.66756,0,0,1,364.88086,194.15591Z"/><path class="cls-6" d="M294.429,287.37331a238.42226,238.42226,0,0,0-60.54542,51.96247l-2.73437,3.28711a.23723.23723,0,0,1-.08691.05041c-.01856.00934-.031.02533-.05152.02979a.24373.24373,0,0,1-.17895-.02356l-81.14746-46.85059a.24315.24315,0,0,1-.11475-.16357l-.00635-.009.01489-.05645a.23242.23242,0,0,1,.0149-.11249c.00415-.00739.01391-.00763.0188-.01441l.00537-.02044.85449-1.02686a223.18758,223.18758,0,0,1,17.915-19.11536c.00268-.00543-.001-.01147.0022-.01678.019-.0332.05468-.04425.08422-.06464A221.99919,221.99919,0,0,1,210.208,244.06716l7.15429-4.34235-8.3916-4.23266-2.78222,1.60773a230.668,230.668,0,0,0-61.89966,52.18121l-7.15015,8.59283,95.72363,55.2652,7.20411-8.65826a231.18192,231.18192,0,0,1,62.03491-52.29438l8.74707-5.055-3.458-1.99646-4.52563-2.28265Z"/><path class="cls-8" d="M196.145,307.82265q4.91309-5.35162,10.146-10.3573l-37.63038-21.72613q-5.25366,4.99164-10.1875,10.33569l.00538.00067Z"/><path class="cls-8" d="M236.6499,273.15841l-37.41284-21.60047c-.02905-.01672-.03711-.0487-.0564-.07367q-5.25072,3.46546-10.28442,7.21228l37.55469,21.682Q231.44422,276.63314,236.6499,273.15841Zm-11.58935-.76782-.15406.11346-.1892-.02869a1.852,1.852,0,0,0-.99415-.293c-.50439-.00622-1.01464.20392-1.62817.24878-.061.00446-.11792.01581-.18115.01642h-.00025c-.02929.00012-.0603-.00458-.09008-.00561-.06763-.00238-.13477-.00379-.20459-.01276a2.42718,2.42718,0,0,1-.95728-.34637,2.67137,2.67137,0,0,1-1.23022-1.85175,2.1717,2.1717,0,0,0-1.00611-1.554,2.08539,2.08539,0,0,0-.52221-.23022l-.00122-.00025a1.71206,1.71206,0,0,0-.23682-.04724,1.89379,1.89379,0,0,0-.23047-.01446,8.2572,8.2572,0,0,0-1.3103.221,3.31257,3.31257,0,0,1-.50049.04565,2.23072,2.23072,0,0,1-.59961-.07983c-.04712-.01294-.09619-.03431-.144-.05079a2.56269,2.56269,0,0,1-.50464-.233,2.66552,2.66552,0,0,1-1.2273-1.85046,2.16562,2.16562,0,0,0-1.00317-1.55188,2.38258,2.38258,0,0,0-.27148-.14105,1.761,1.761,0,0,0-.72242-.152,8.24012,8.24012,0,0,0-1.30713.21948l-.00195.00037c-.06836.01105-.1438.012-.21509.01953-.094.01-.18506.02484-.28466.02582h-.00049c-.04761.00012-.09766-.00617-.14649-.00916-.04931-.003-.09765-.00274-.148-.00921a2.31878,2.31878,0,0,1-.53637-.1427c-.03052-.01178-.06006-.0188-.09082-.03217a2.71989,2.71989,0,0,1-.32984-.17151,2.67135,2.67135,0,0,1-1.23022-1.85174,2.17168,2.17168,0,0,0-1.00611-1.554,2.08487,2.08487,0,0,0-.52221-.23022l-.00122-.00025a1.71177,1.71177,0,0,0-.23682-.04724,1.89382,1.89382,0,0,0-.23047-.01447,8.25967,8.25967,0,0,0-1.3103.22095,3.31126,3.31126,0,0,1-.50049.04566,2.23035,2.23035,0,0,1-.59961-.07984c-.04712-.01294-.09619-.0343-.144-.05078a2.56269,2.56269,0,0,1-.50464-.233,2.66554,2.66554,0,0,1-1.2273-1.85046,2.16559,2.16559,0,0,0-1.00317-1.55188.25.25,0,0,1,.25855-.428,2.66434,2.66434,0,0,1,1.22729,1.85009,2.10051,2.10051,0,0,0,1.37939,1.73041,1.77172,1.77172,0,0,0,.61353.11341,2.83809,2.83809,0,0,0,.61646-.07917,5.76378,5.76378,0,0,1,1.1936-.18738,2.24371,2.24371,0,0,1,.29443.01838c.05811.0075.11841.02313.17774.0357.04321.00916.08545.014.12964.02606a2.54779,2.54779,0,0,1,.64819.284,2.67135,2.67135,0,0,1,1.23022,1.85175,2.1719,2.1719,0,0,0,1.00611,1.55407,2.084,2.084,0,0,0,.52319.23065c.0166.00452.032.00562.04834.00959a1.79886,1.79886,0,0,0,.42163.05255,3.09784,3.09784,0,0,0,.69458-.09522,5.24619,5.24619,0,0,1,1.11426-.17022,2.273,2.273,0,0,1,.866.17352,2.5965,2.5965,0,0,1,1.614,2.04175,2.1006,2.1006,0,0,0,1.37939,1.73041,1.7717,1.7717,0,0,0,.61353.1134,2.8379,2.8379,0,0,0,.61645-.07916,5.76265,5.76265,0,0,1,1.19361-.18738,2.24194,2.24194,0,0,1,.29443.01837c.05811.00751.11841.02313.17774.03571.04321.00915.08545.014.12963.02606a2.54744,2.54744,0,0,1,.6482.284,2.67135,2.67135,0,0,1,1.23022,1.85175,2.54846,2.54846,0,0,0,.57447,1.21527,2.18731,2.18731,0,0,0,.43164.33875,1.91806,1.91806,0,0,0,.7622.27832c.054.00677.10694.00805.15992.01007.02368.00091.04785.00433.07128.00445a2.64447,2.64447,0,0,0,.54517-.064,6.4077,6.4077,0,0,1,1.26392-.20142,2.27315,2.27315,0,0,1,.92285.19354,2.74488,2.74488,0,0,1,.33032.17163l.11353.15406Z"/><path class="cls-8" d="M216.47534,288.30514q4.66-3.934,9.54175-7.6l-37.55493-21.682q-4.916,3.679-9.62158,7.61676a.23776.23776,0,0,1,.1416.01868Zm-27.083-23.58612a.25.25,0,0,1,.34327-.08478,2.66475,2.66475,0,0,1,1.22729,1.85028,2.16581,2.16581,0,0,0,1.00317,1.55212,2.108,2.108,0,0,0,.43555.19934,1.77217,1.77217,0,0,0,.55469.09247,2.62014,2.62014,0,0,0,.54077-.06335,6.42694,6.42694,0,0,1,1.26929-.20325,2.23017,2.23017,0,0,1,.60132.0802,2.548,2.548,0,0,1,.64819.28369,2.67151,2.67151,0,0,1,1.23022,1.852,3.84553,3.84553,0,0,0,.30225.84717,1.88052,1.88052,0,0,0,.70386.70709,2.09089,2.09089,0,0,0,.523.23059,1.77118,1.77118,0,0,0,.46972.06195,8.28537,8.28537,0,0,0,1.30957-.22,3.31444,3.31444,0,0,1,.5-.04535,2.26739,2.26739,0,0,1,.71729.12085,2.55949,2.55949,0,0,1,.53515.244,2.66477,2.66477,0,0,1,1.2273,1.85028,2.16583,2.16583,0,0,0,1.00317,1.55213,2.109,2.109,0,0,0,.43555.19934,1.77275,1.77275,0,0,0,.55469.09247,2.62085,2.62085,0,0,0,.54077-.06336,6.42694,6.42694,0,0,1,1.26929-.20325,2.2301,2.2301,0,0,1,.60131.0802,2.54794,2.54794,0,0,1,.6482.2837,2.67149,2.67149,0,0,1,1.23022,1.852,3.84511,3.84511,0,0,0,.30225.84716,1.88054,1.88054,0,0,0,.70386.7071,2.09125,2.09125,0,0,0,.523.23059,1.77112,1.77112,0,0,0,.46972.062,8.28651,8.28651,0,0,0,1.30957-.22,3.31315,3.31315,0,0,1,.5-.04535,2.23277,2.23277,0,0,1,.60254.08032,2.553,2.553,0,0,1,.6499.28455l.11353.154-.02881.18921-.154.11352-.189-.02862V280.242h-.00024a2.11252,2.11252,0,0,0-.46118-.20855c-.02051-.00641-.04224-.01673-.0625-.02228a1.7708,1.7708,0,0,0-.47-.06207,2.53634,2.53634,0,0,0-.50684.056,6.81441,6.81441,0,0,1-1.30249.20947,2.27136,2.27136,0,0,1-.92187-.19318,2.73686,2.73686,0,0,1-.32984-.17144,2.67153,2.67153,0,0,1-1.23022-1.852,2.172,2.172,0,0,0-1.00586-1.5542,2.37863,2.37863,0,0,0-.27075-.14051c-.05372-.02343-.10425-.03814-.15577-.05542-.03149-.01062-.06469-.02551-.0957-.03405a1.76483,1.76483,0,0,0-.46826-.062,8.25948,8.25948,0,0,0-1.3103.221,3.31126,3.31126,0,0,1-.50049.04566,2.2294,2.2294,0,0,1-.60108-.08008,2.536,2.536,0,0,1-.6477-.28382,2.66473,2.66473,0,0,1-1.2273-1.85028,3.84653,3.84653,0,0,0-.301-.84631,1.87316,1.87316,0,0,0-.70215-.70575,2.11307,2.11307,0,0,0-.46118-.20856c-.02051-.0064-.04224-.01672-.0625-.02227a1.77082,1.77082,0,0,0-.47-.06208,2.53789,2.53789,0,0,0-.50684.056,6.81425,6.81425,0,0,1-1.30249.20948,2.27136,2.27136,0,0,1-.92187-.19318,2.737,2.737,0,0,1-.32984-.17145,2.67151,2.67151,0,0,1-1.23022-1.852,2.17209,2.17209,0,0,0-1.00586-1.5542,2.37848,2.37848,0,0,0-.27075-.1405c-.05371-.02344-.10425-.03815-.15577-.05542-.03149-.01062-.06469-.02551-.0957-.03406a1.76439,1.76439,0,0,0-.46826-.06195,8.2572,8.2572,0,0,0-1.3103.221,3.31128,3.31128,0,0,1-.50049.04565,2.229,2.229,0,0,1-.60108-.08008,2.536,2.536,0,0,1-.6477-.28381,2.66473,2.66473,0,0,1-1.2273-1.85028,2.16557,2.16557,0,0,0-1.00317-1.55206A.24992.24992,0,0,1,189.39233,264.719Z"/><path class="cls-8" d="M196.58936,308.07912l20.71948,11.96259q4.92078-5.34723,10.16284-10.34766l-20.72876-11.96777Q201.50647,302.7268,196.58936,308.07912Z"/><path class="cls-8" d="M216.07422,288.65084l-37.3418-21.5592a.23985.23985,0,0,1-.09961-.28052q-4.9215,4.13881-9.59228,8.57L206.6709,297.1072Q211.25513,292.74461,216.07422,288.65084Z"/><path class="cls-8" d="M216.53271,288.91561q-4.82519,4.08655-9.40966,8.45258L227.85156,309.336q4.59118-4.358,9.415-8.44971Z"/><path class="cls-8" d="M209.07251,329.48714l.85425-1.0263q3.4248-4.11585,7.03271-8.04328L196.24,308.455q-3.53283,3.86252-6.89941,7.89831l-.85352,1.02686.00024.00006a.25012.25012,0,1,1-.38476-.3197l.85351-1.02692q3.33363-4.00617,6.83985-7.83508l-37.56763-21.68988a.23478.23478,0,0,1-.07153-.09333q-3.74194,4.06953-7.30054,8.33014l-.66479.79877,11.92871,6.88709,46.93872,27.09991C209.06641,329.51711,209.06177,329.5,209.07251,329.48714Zm-22.84692-21.369-.15406.11347-.18921-.02869a2.38336,2.38336,0,0,0-.27148-.14105,1.76092,1.76092,0,0,0-.72241-.152,8.24134,8.24134,0,0,0-1.30713.21949l-.00195.00036c-.06836.011-.1438.012-.21509.01953-.094.01-.18506.02484-.28467.02582h-.00049c-.04761.00012-.09765-.00616-.14648-.00915-.04932-.003-.09766-.00275-.14795-.00922a2.31823,2.31823,0,0,1-.53638-.1427c-.03052-.01178-.06006-.0188-.09082-.03217a2.71836,2.71836,0,0,1-.32983-.17151,2.67135,2.67135,0,0,1-1.23023-1.85174,2.17169,2.17169,0,0,0-1.0061-1.554,2.08528,2.08528,0,0,0-.52222-.23022l-.00122-.00025a1.71177,1.71177,0,0,0-.23682-.04724,1.89363,1.89363,0,0,0-.23046-.01446,8.25836,8.25836,0,0,0-1.31031.22094,3.31126,3.31126,0,0,1-.50049.04566,2.23033,2.23033,0,0,1-.5996-.07984c-.04712-.01293-.0962-.0343-.144-.05078a2.563,2.563,0,0,1-.50464-.233,2.66475,2.66475,0,0,1-1.22729-1.85028,2.1656,2.1656,0,0,0-1.00317-1.55206,2.38267,2.38267,0,0,0-.27149-.14105,1.76076,1.76076,0,0,0-.72241-.152,7.09,7.09,0,0,0-1.24146.20618c-.02319.00415-.04443.00988-.06811.01367-.06128.01-.12964.01037-.19312.01751a2.92967,2.92967,0,0,1-.30664.02784h-.00049c-.04492.00012-.092-.006-.13794-.00861-.052-.003-.10327-.00293-.15649-.00976a2.43088,2.43088,0,0,1-.95752-.34638,2.67225,2.67225,0,0,1-1.22974-1.85175,3.85584,3.85584,0,0,0-.30224-.847,1.87871,1.87871,0,0,0-.70337-.707c-.03223-.01923-.06128-.03107-.09229-.048a1.75722,1.75722,0,0,0-.89868-.24414,4.63241,4.63241,0,0,0-1.00512.15924,3.91436,3.91436,0,0,1-.80567.10737,2.22954,2.22954,0,0,1-.59936-.07978c-.05982-.01629-.1211-.042-.18189-.06415-.04614-.01672-.09131-.02844-.13818-.04876a2.70224,2.70224,0,0,1-.32862-.1709,2.666,2.666,0,0,1-1.22778-1.85022,2.1664,2.1664,0,0,0-1.00268-1.55213.25.25,0,0,1,.25854-.428,2.6667,2.6667,0,0,1,1.227,1.85022c.043.15515.083.30267.12988.44342a1.873,1.873,0,0,0,.87354,1.1087,2.11245,2.11245,0,0,0,.4353.19916,1.77141,1.77141,0,0,0,.554.0924,4.27048,4.27048,0,0,0,.95044-.14825,4.09281,4.09281,0,0,1,.85986-.11829,2.24371,2.24371,0,0,1,.29443.01838,2.2936,2.2936,0,0,1,.259.052c.01635.00409.03174.00519.04809.0097a2.54214,2.54214,0,0,1,.64868.28406,2.67225,2.67225,0,0,1,1.22974,1.85174,2.17233,2.17233,0,0,0,1.00562,1.554,1.921,1.921,0,0,0,.75927.27771c.04615.00592.09131.00665.13672.009.03247.00171.06543.006.09766.00611a2.8244,2.8244,0,0,0,.60864-.07727,5.84339,5.84339,0,0,1,1.20068-.18817,2.273,2.273,0,0,1,.866.17352,2.5964,2.5964,0,0,1,1.614,2.04193,2.10056,2.10056,0,0,0,1.37939,1.73022,1.77171,1.77171,0,0,0,.61352.11341,2.838,2.838,0,0,0,.61646-.07916,5.76266,5.76266,0,0,1,1.1936-.18738,2.24209,2.24209,0,0,1,.29444.01837c.0581.00751.11841.02313.17773.0357.04321.00916.08545.014.12964.02607a2.54738,2.54738,0,0,1,.64819.284,2.67136,2.67136,0,0,1,1.23023,1.85175,2.1719,2.1719,0,0,0,1.0061,1.55408,2.08481,2.08481,0,0,0,.5232.23065c.0166.00451.032.00561.04833.00958a1.79888,1.79888,0,0,0,.42164.05255,3.09847,3.09847,0,0,0,.69458-.09521,5.24553,5.24553,0,0,1,1.11425-.17023,2.273,2.273,0,0,1,.866.17352,2.65914,2.65914,0,0,1,.38672.19165l.11352.15406Z"/><path class="cls-8" d="M227.92358,309.955q-5.24523,4.99557-10.17041,10.34314L238.62891,332.351a.25008.25008,0,0,1-.25025.433l-20.97485-12.11q-3.63354,3.96259-7.09277,8.10663l-.82862.99518,21.417,12.365L233.499,339.016q7.37512-8.8634,15.52051-16.92431a.23028.23028,0,0,1-.09692-.01276Zm12.42212,14.25311a.25.25,0,0,1-.34326.0846,1.85194,1.85194,0,0,0-.99414-.29328c-.55395-.00689-1.10913.25855-1.80859.26544a2.35449,2.35449,0,0,1-1.252-.36468,2.67059,2.67059,0,0,1-1.23022-1.85162,2.172,2.172,0,0,0-1.00586-1.55414,1.84822,1.84822,0,0,0-.99121-.29218c-.55444-.007-1.10986.25971-1.81006.26666a2.35023,2.35023,0,0,1-1.24878-.3637,2.66472,2.66472,0,0,1-1.22729-1.85028,2.1656,2.1656,0,0,0-1.00318-1.55207l.00025.00006a.25.25,0,1,1,.2583-.4281,2.66476,2.66476,0,0,1,1.22729,1.85028,2.1656,2.1656,0,0,0,1.00318,1.55207,1.84368,1.84368,0,0,0,.99023.29181c.554.007,1.10938-.25971,1.81006-.26667a2.35389,2.35389,0,0,1,1.24951.364,2.67154,2.67154,0,0,1,1.23023,1.85193,2.17112,2.17112,0,0,0,1.0061,1.55389,1.8492,1.8492,0,0,0,.99341.29279c.55371.00689,1.10888-.25855,1.80859-.26545a2.35822,2.35822,0,0,1,1.25293.36524A.25.25,0,0,1,240.3457,324.20815Z"/><path class="cls-8" d="M226.48755,280.97683q-4.879,3.67109-9.55322,7.59332l20.73608,11.972q4.66773-3.92991,9.55762-7.591Zm13.51489,13.33887a1.85194,1.85194,0,0,0-.99414-.29328c-.55395-.0069-1.10913.25855-1.80859.26544a2.35407,2.35407,0,0,1-1.252-.36474,2.67158,2.67158,0,0,1-1.23022-1.85193,2.17087,2.17087,0,0,0-1.0061-1.55383,1.84527,1.84527,0,0,0-.99146-.2923c-.55395-.007-1.10937.25964-1.80957.2666a2.34912,2.34912,0,0,1-1.24878-.364,2.66432,2.66432,0,0,1-1.22729-1.85,2.16562,2.16562,0,0,0-1.00318-1.55188l.00025.00006a.25.25,0,1,1,.2583-.4281,2.66436,2.66436,0,0,1,1.22729,1.85,2.16583,2.16583,0,0,0,1.00318,1.55194,1.843,1.843,0,0,0,.99023.292c.554.007,1.10938-.25964,1.80957-.2666a2.35234,2.35234,0,0,1,1.25.36413,2.67058,2.67058,0,0,1,1.23023,1.85163,2.17211,2.17211,0,0,0,1.0061,1.55426,1.8491,1.8491,0,0,0,.99341.29278c.55371.0069,1.10888-.25854,1.80859-.26544a2.35822,2.35822,0,0,1,1.25293.36524.25007.25007,0,0,1-.25879.428Z"/><path class="cls-8" d="M228.30371,309.597l20.86914,12.04895a.23722.23722,0,0,1,.11231.18151q4.50879-4.45833,9.23779-8.66888L237.7251,301.151Q232.89294,305.23254,228.30371,309.597Zm10.6665-2.32581a2.16651,2.16651,0,0,0,1.00269,1.55212,1.8436,1.8436,0,0,0,.99048.29193c.5542.007,1.10986-.25976,1.81079-.26672a2.35249,2.35249,0,0,1,1.24951.36389,2.67245,2.67245,0,0,1,1.22974,1.85193,2.17144,2.17144,0,0,0,1.00561,1.55383,1.85,1.85,0,0,0,.99366.29285c.55395.0069,1.10913-.25854,1.80883-.26544a2.35981,2.35981,0,0,1,1.25342.36523.25007.25007,0,0,1-.25879.428,1.85226,1.85226,0,0,0-.99463-.29327c-.554-.0069-1.10913.25854-1.80883.26544a2.35662,2.35662,0,0,1-1.2522-.36475,2.67133,2.67133,0,0,1-1.22974-1.85156,2.17275,2.17275,0,0,0-1.00537-1.55414,1.84675,1.84675,0,0,0-.99121-.29205c-.55469-.007-1.11035.25977-1.81079.26672a2.34851,2.34851,0,0,1-1.249-.36389,2.66562,2.66562,0,0,1-1.22681-1.85028,2.16626,2.16626,0,0,0-1.00269-1.55206l.00025.00006a.25.25,0,1,1,.2583-.4281A2.66557,2.66557,0,0,1,238.97021,307.27114Z"/><path class="cls-8" d="M238.13281,300.809l20.78711,12.00147q4.52271-4.00305,9.24439-7.77185L247.69824,293.2228Q242.81226,296.88894,238.13281,300.809Z"/><path class="cls-8" d="M248.13232,292.8962,268.582,304.70254q4.82483-3.83478,9.85108-7.4206l-20.06763-11.586Q253.14,289.15536,248.13232,292.8962Zm10.4607-2.80347a2.66532,2.66532,0,0,1,1.2268,1.85,2.16642,2.16642,0,0,0,1.00269,1.55194,1.84378,1.84378,0,0,0,.99048.292c.55395.007,1.10962-.25964,1.81006-.2666a2.3526,2.3526,0,0,1,1.25024.3642,2.67133,2.67133,0,0,1,1.22974,1.85156,2.17257,2.17257,0,0,0,1.00561,1.5542,1.85009,1.85009,0,0,0,.99365.29285c.554.00689,1.10914-.25855,1.80884-.26545a2.35983,2.35983,0,0,1,1.25342.36524.25007.25007,0,0,1-.25879.428,1.85236,1.85236,0,0,0-.99463-.29328c-.55395-.00689-1.10913.25855-1.80884.26545a2.35662,2.35662,0,0,1-1.25219-.36475,2.67243,2.67243,0,0,1-1.22974-1.85193,2.17146,2.17146,0,0,0-1.00561-1.55383,1.846,1.846,0,0,0-.9917-.2923c-.5542-.007-1.10987.25964-1.81006.2666a2.34991,2.34991,0,0,1-1.249-.36395,2.66539,2.66539,0,0,1-1.2268-1.85,2.16619,2.16619,0,0,0-1.00269-1.55188l.00025.00006a.25.25,0,1,1,.2583-.4281Z"/><path class="cls-8" d="M248.01758,266.075,210.522,244.46157l-.05444.033-.00464.00275q-5.53455,3.19848-10.84643,6.70208l37.50268,21.65235Q242.45923,269.31645,248.01758,266.075Z"/><path class="cls-8" d="M237.13525,273.43856q-5.21667,3.46418-10.21386,7.21161l20.74048,11.97436q5.00206-3.74121,10.2185-7.2088Z"/><path class="cls-8" d="M248.51123,265.78249c.061-.0354.12109-.07257.18213-.10791l9.13037-5.54107-39.9353-20.14319-6.87891,4.17523Z"/><polygon class="cls-8" points="269.771 278.037 280.458 271.55 258.35 260.399 249.008 266.069 269.771 278.037"/><path class="cls-8" d="M289.84644,289.609q2.14892-1.35489,4.32934-2.66693l.01074-.0061,8.13282-4.35889-21.335-10.76129-10.71924,6.5061Z"/><path class="cls-8" d="M258.83472,285.38924l20.04834,11.575q5.14563-3.65487,10.491-7.05041L269.77563,278.6169Q264.19239,281.84881,258.83472,285.38924Z"/><path class="cls-8" d="M248.51489,266.36159q-5.5664,3.23346-10.9104,6.77033l20.74488,11.97717q5.3562-3.53539,10.92919-6.77875Zm11.22779,12.54053a1.8523,1.8523,0,0,0-.99463-.29327c-.554-.0069-1.10913.25854-1.80884.26544a2.35662,2.35662,0,0,1-1.2522-.36475,2.67224,2.67224,0,0,1-1.22973-1.85174,2.17254,2.17254,0,0,0-1.00538-1.554,1.84775,1.84775,0,0,0-.99169-.29229c-.55469-.0069-1.11036.2597-1.8108.26666a2.35106,2.35106,0,0,1-1.24853-.36359,2.66562,2.66562,0,0,1-1.22681-1.85028,2.16628,2.16628,0,0,0-1.00268-1.55206l.00024.00006a.25.25,0,1,1,.2583-.4281,2.66562,2.66562,0,0,1,1.22681,1.85028,2.16628,2.16628,0,0,0,1.00268,1.55206,1.84326,1.84326,0,0,0,.99.29169c.5542.007,1.10987-.25977,1.8108-.26666a2.35336,2.35336,0,0,1,1.25.36413,2.67223,2.67223,0,0,1,1.22973,1.85175,2.17232,2.17232,0,0,0,1.00562,1.554,1.85,1.85,0,0,0,.99365.29285c.55395.0069,1.10913-.25854,1.80884-.26544a2.35978,2.35978,0,0,1,1.25341.36523.25007.25007,0,0,1-.25878.428Z"/><polygon class="cls-2" points="240.094 131.816 234.091 128.315 234.091 199.476 240.094 202.981 240.094 131.816"/><polygon class="cls-7" points="240.594 131.946 240.594 203.108 246.595 206.613 246.595 135.447 240.594 131.946"/><polygon class="cls-5" points="253.186 139.073 247.183 135.571 247.183 206.733 253.186 210.237 253.186 139.073"/><polygon class="cls-2" points="233.841 199.909 203.747 217.515 209.661 221.1 232.254 207.866 239.848 203.417 233.841 199.909"/><polygon class="cls-7" points="246.342 207.053 240.346 203.705 210.168 221.383 216.245 224.681 246.342 207.053"/><polygon class="cls-5" points="216.742 225.024 222.804 228.614 252.936 210.686 246.936 207.336 216.742 225.024"/><polygon class="cls-2" points="211.566 114.817 217.569 118.322 217.569 83.661 211.566 80.16 211.566 114.817"/><polygon class="cls-7" points="218.069 83.791 218.069 118.449 224.072 121.954 224.072 87.293 218.069 83.791"/><polygon class="cls-5" points="224.66 122.074 230.663 125.579 230.663 90.918 224.66 87.417 224.66 122.074"/><path class="cls-8" d="M296.63916,162.982l-2.27319-9.65473-10.3562-6.2301.00024-.00031a5.75336,5.75336,0,0,1-2.426-4.61816V132.41372a2.81113,2.81113,0,0,1,.4336-1.6283,1.44649,1.44649,0,0,1,1.20556-.64148,2.09748,2.09748,0,0,1,1.04029.31l.0039.00238L289.759,133.76l-2.30371-9.7843-14.28418-8.30835,9.22461,39.17908Z"/><path class="cls-8" d="M306.45874,157.03091a2.808,2.808,0,0,1-.43408,1.62774,1.44727,1.44727,0,0,1-1.20557.6413,2.09413,2.09413,0,0,1-1.03979-.30988l-.00391-.00232-3.81641-2.29583,2.22706,9.45831,8.30883,4.74585-4.03613-17.14234Z"/><polygon class="cls-8" points="303.73 142.165 301.351 132.058 293.018 127.211 295.352 137.125 303.73 142.165"/><polygon class="cls-5" points="300.765 140.964 296.445 138.366 296.445 153.995 300.765 156.593 300.765 140.964"/><polygon class="cls-5" points="286.808 132.568 286.808 148.11 286.662 148.11 291.127 150.795 291.127 135.166 286.808 132.568"/><path class="cls-5" d="M284.01367,130.88711a1.60393,1.60393,0,0,0-.79053-.24323.94066.94066,0,0,0-.79711.43006,2.32417,2.32417,0,0,0-.34229,1.33978v10.06494a5.28773,5.28773,0,0,0,2.17969,4.18774l.0039.00232,2.04029,1.22742V132.26705Z"/><polygon class="cls-5" points="296.081 138.147 291.627 135.467 291.627 151.096 295.945 153.694 295.945 138.147 296.081 138.147"/><path class="cls-5" d="M304.0293,158.55709a1.604,1.604,0,0,0,.78979.24292.94245.94245,0,0,0,.79737-.43,2.323,2.323,0,0,0,.34252-1.339V146.966a5.289,5.289,0,0,0-2.17993-4.18829l-.00366-.00232-2.51074-1.51044V156.894Z"/><path class="cls-9" d="M320.17188,261.19375a9.732,9.732,0,0,0-4.76392-1.1449,9.604,9.604,0,0,0-4.70484,1.12634,3.45778,3.45778,0,0,0-2.01831,2.861,3.5085,3.5085,0,0,0,2.05054,2.89435,9.72805,9.72805,0,0,0,4.76392,1.145,9.60236,9.60236,0,0,0,4.70459-1.1264l-.12476-.21649.125.21643a3.45912,3.45912,0,0,0,2.01734-2.86066A3.508,3.508,0,0,0,320.17188,261.19375Zm-.218,5.32232v.00006a9.11817,9.11817,0,0,1-4.45459,1.05939,9.24386,9.24386,0,0,1-4.51416-1.07806,3.021,3.021,0,0,1-1.80054-2.46131,2.97016,2.97016,0,0,1,1.76831-2.42791,9.119,9.119,0,0,1,4.45508-1.05945,9.2451,9.2451,0,0,1,4.51392,1.078,3.02178,3.02178,0,0,1,1.7998,2.46155A2.97161,2.97161,0,0,1,319.95386,266.51607Z"/><path class="cls-9" d="M355.25879,188.43569a4.90919,4.90919,0,0,0-2.22852,3.8418c0,1.41113.99805,1.979,2.22852,1.26855a4.90918,4.90918,0,0,0,2.22851-3.84179C357.4873,188.29311,356.48926,187.72524,355.25879,188.43569Z"/><path class="cls-9" d="M462.44434,149.39l.092-.74848-.43946.19531c-.07983-.12536-.16259-.248-.24585-.36969l.28321-.18206-.66407-.36884a9.35769,9.35769,0,0,0-2.655-2.466L437.09253,132.9089a4.64378,4.64378,0,0,0-2.30713-.68811,3.17228,3.17228,0,0,0-1.83276.5802l-.252-.13324-.46679.80688a4.37773,4.37773,0,0,0-.69507,1.204l-.00049-.0003-4.76416,8.49053-25.70508,7.65369a21.85579,21.85579,0,0,1-17.38305-2.14587l-11.07471-6.565c-.21338-.8316-.44458-1.6582-.70215-2.47766v-.00042c-.26563-.84485-.55078-1.68348-.863-2.51349-.05566-.148-.12036-.29279-.17749-.44025-.26465-.68323-.53271-1.36523-.82886-2.03686q-.5515-1.25043-1.17187-2.47284v-.00006c-.05469-.10694-.11426-.2107-.16943-.31727a65.75429,65.75429,0,0,0-21.54541-24.23919q-1.96582-1.33-4.03321-2.52106l-92.041-53.00342a26.04325,26.04325,0,0,0-25.92481-.03894L201.4917,65.581l-.03711-.02161-.25464.00195-6.05542,3.64917-.554.31671-.001.001h-.00073l-.001.00153a.24836.24836,0,0,0-.12231.21246l-.00074.00116.00025.00043-.00025.00042v35.50147l.125.21661,16.47657,9.491v.15076l7.00268,4.08892v-.16516l6.127,3.57734.155.00054,1.1272.64924v71.59472l-.01831.00006-.12524.03345-30.74512,17.751a.23722.23722,0,0,0-.10986.191l-.0149.02575.01465.02527c.002.01978-.00732.0387-.00024.05817l8.9602,25.21368a231.16284,231.16284,0,0,0-59.53515,50.81324l-7.33985,8.8208-.05371.20391.1211.17249,10.15625,5.86365,86.00683,49.65539a.2505.2505,0,0,0,.31714-.05664l7.33887-8.82031a230.65771,230.65771,0,0,1,38.71216-36.82843q7.24658-5.44794,14.91284-10.32983l24.9602,14.23364a16.83088,16.83088,0,0,0,16.66358.00641l107.45874-61.1612.34985-.19915a11.304,11.304,0,0,0,5.70532-9.81977V206.09536l-.00122-.00214.00122-.005a.24714.24714,0,0,0-.11914-.19977l-.00537-.00934h-.00488l-.00733-.00665-24.57446-12.48474,24.19946-13.45063,9.66065,4.14167a4.68066,4.68066,0,0,0,2.28955.67376,3.22858,3.22858,0,0,0,2.69189-1.43274,6.33321,6.33321,0,0,0,.977-3.6712V155.92544A13.58345,13.58345,0,0,0,462.44434,149.39Zm-79.01343-.28327a22.35709,22.35709,0,0,0,17.781,2.19495l25.71338-7.65631.11182.06457,21.02783,12.1399-73.92847,26.65618v-28.4356a48.14938,48.14938,0,0,0-1.33667-11.26569ZM225.40234,52.48421a25.51337,25.51337,0,0,1,2.61792-1.29315c.13575-.05823.2688-.12549.40528-.18127a25.6707,25.6707,0,0,1,22.40381,1.51263l92.04077,53.00342q1.02539.59043,2.02636,1.21619a65.265,65.265,0,0,1,23.52637,25.65551c.41113.80506.79541,1.62165,1.15918,2.44629.294.66925.56348,1.34778.82568,2.02881.05469.14136.1167.28.16993.42182a48.41188,48.41188,0,0,1,1.57031,5.01794,47.62743,47.62743,0,0,1,1.48877,11.75806v23.96045a18.17144,18.17144,0,0,1-9.00806,15.69281l-6.44824,3.7666a7.24626,7.24626,0,0,1-1.77539.74475,6.94517,6.94517,0,0,1-1.80054.23761,7.14269,7.14269,0,0,1-6.97387-5.67676v-.24445a.242.242,0,0,0-.07154-.16314,7.30229,7.30229,0,0,1-.07788-.89l-.00415-.0097c-.001-.04914-.00757-.09619-.00757-.14569v-33.6875l-.12256-.21521-.2478-.00391-23.97827,13.17987V136.59194l34.14575-19.3465-.24634-.435-34.1687,19.35949L201.991,65.87142Zm91.01612,229.63428-93.11768-53.21838L253.28,211.06332l93.575,53.241ZM195.22,69.7488l.178-.10718,6.0918-3.48352L322.3479,136.45534l-6.303,3.57117L231.05981,90.595l-.021-.03644-6.50293-3.793-.0603-.00019ZM322.62085,170.88912l-5.93872,3.266-.17554-33.71734-.04272-.074,6.15674-3.48834ZM209.66113,221.10018l-5.91406-3.58545,30.09351-17.60535,6.00781,3.50763-7.59473,4.44886Zm14.99878-99.02637V87.41671l6.00293,3.50134v34.66071ZM347.10547,263.87136l-93.41919-53.23114V139.35708l93.29639,53.255.03979,34.589a.24382.24382,0,0,0,.0957.18628ZM253.18628,139.07284v71.16461l-6.00293-3.505V135.571Zm-6.127-4.153-.10694-.00036-15.78955-9.01569V91.23342l41.2688,24.004V149.468l-20.45435-11.67932ZM225.97852,123.5411l7.6123,4.34521V199.1896l-7.60547-4.33362Zm20.61694,83.07147-6.00171-3.50494-.00024-71.16169,6.0017,3.50123ZM240.09351,131.816v71.165l-6.00293-3.50482v-71.1615Zm33.07763-16.14868,14.28418,8.30835L289.759,133.76l-5.4917-3.30365-.0039-.00238a2.09748,2.09748,0,0,0-1.04029-.31,1.44649,1.44649,0,0,0-1.20556.64148,2.81113,2.81113,0,0,0-.4336,1.6283v10.06494a5.75336,5.75336,0,0,0,2.426,4.61816l-.00024.00031,10.3562,6.2301,2.27319,9.65473-14.24341-8.13556Zm11.09619,31.0014-.0039-.00232a5.28773,5.28773,0,0,1-2.17969-4.18774V132.41372a2.32417,2.32417,0,0,1,.34229-1.33978.94066.94066,0,0,1,.79711-.43006,1.60393,1.60393,0,0,1,.79053.24323l2.29395,1.37994v15.62909Zm2.54029,1.4408V132.56783l4.31933,2.59845v15.629l-4.4646-2.68579Zm4.81933-12.64246,4.4541,2.67957h-.13574V153.694l-4.31836-2.59784Zm4.81836,2.89868,4.31934,2.59839v15.62909l-4.31934-2.59845Zm4.81934,2.89917,2.51074,1.51044.00366.00232A5.289,5.289,0,0,1,305.959,146.966v10.065a2.323,2.323,0,0,1-.34252,1.339.94245.94245,0,0,1-.79737.43,1.604,1.604,0,0,1-.78979-.24292l-2.76465-1.66309Zm2.46557.89985-8.37817-5.0401-2.334-9.91346,8.33252,4.84668ZM299.959,156.69192l3.81641,2.29583.00391.00232a2.09413,2.09413,0,0,0,1.03979.30988,1.44727,1.44727,0,0,0,1.20557-.6413,2.808,2.808,0,0,0,.43408-1.62774v-3.27717l4.03613,17.14234-8.30883-4.74585Zm-59.61254,47.01275,5.9956,3.34845-30.09692,17.62769L210.168,221.383Zm6.58984,3.63135,5.99951,3.35016L222.8042,228.61355l-6.06177-3.58972Zm100.04565-15.30011L316.6853,174.73659l-.00024-.01233,30.28442-16.64611.00025,33.26477c0,.07837.00952.15332.01172.23089ZM225.64624,195.3406l7.61108,4.33056L203.0647,217.33492l-7.84741-4.485Zm121.83789-1.2674a7.66563,7.66563,0,0,0,7.12036,4.89942,7.55329,7.55329,0,0,0,3.82813-1.05054l6.44824-3.76617a18.66756,18.66756,0,0,0,8.75586-11.87519V200.526a18.02766,18.02766,0,0,1-8.52832,15.32166l-17.58667,10.90423ZM211.06641,79.72475v34.65143l-16.10181-9.275V70.17873l16.10181,9.3656Zm6.50268,38.597-6.00268-3.5047-.00025-34.65723,6.00293,3.50135Zm.50025.12714-.00025-34.65772,6.00269,3.50171.00024,34.66083Zm21.99707,226.03192-7.20411,8.65826-95.72363-55.2652,7.15015-8.59283a230.668,230.668,0,0,1,61.89966-52.18121l2.78222-1.60773,8.3916,4.23266-7.15429,4.34235a221.99919,221.99919,0,0,0-41.73487,31.16174c-.02954.02039-.06518.03144-.08422.06464-.00318.00531.00048.01135-.0022.01678a223.18758,223.18758,0,0,0-17.915,19.11536l-.85449,1.02686-.00537.02044c-.00489.00678-.01465.007-.0188.01441a.23242.23242,0,0,0-.0149.11249l-.01489.05645.00635.009a.24315.24315,0,0,0,.11475.16357l81.14746,46.85059a.24373.24373,0,0,0,.17895.02356c.02051-.00446.033-.02045.05152-.02979a.23723.23723,0,0,0,.08691-.05041l2.73437-3.28711A238.42226,238.42226,0,0,1,294.429,287.37331l8.43579-4.521,4.52563,2.28265,3.458,1.99646-8.74707,5.055A231.18192,231.18192,0,0,0,240.06641,344.48086Zm-32.94336-47.11267q4.58788-4.3604,9.40966-8.45258l20.73389,11.97064q-4.82812,4.08472-9.415,8.44971Zm20.34863,12.32586q-5.24121,4.99824-10.16284,10.34766l-20.71948-11.96259q4.916-5.35006,10.15356-10.35284Zm-10.53735-21.1239q4.66479-3.93164,9.55322-7.59332L247.228,292.95119q-4.8816,3.66972-9.55762,7.591Zm9.98706-7.92q4.9995-3.74259,10.21386-7.21161l20.74512,11.97717q-5.2185,3.46317-10.2185,7.2088Zm10.6831-7.51825q5.34669-3.5311,10.9104-6.77033l20.76367,11.96875q-5.57592,3.23712-10.92919,6.77875Zm11.40332-7.06323,9.342-5.66974,22.1084,11.15149L269.771,278.037Zm-.31445-.39411c-.061.03534-.12109.07251-.18213.10791l-37.50171-21.61694,6.87891-4.17523,39.9353,20.14319Zm-38.23047-21.17724.00464-.00275.05444-.033L248.01758,266.075q-5.55872,3.2385-10.89844,6.77674l-37.50268-21.65235Q204.93494,247.70715,210.46289,244.49734Zm-11.28223,6.98693c.01929.025.02735.057.0564.07367l37.41284,21.60047q-5.20935,3.46793-10.199,7.22015l-37.55469-21.682Q193.92835,254.94994,199.18066,251.48427Zm-10.7185,7.53888,37.55493,21.682q-4.87353,3.67428-9.54175,7.6l-37.49316-21.64655a.23776.23776,0,0,0-.1416-.01868Q183.54016,262.69721,188.46216,259.02315Zm-9.72974,8.06849,37.3418,21.5592q-4.8208,4.08966-9.40332,8.45636l-37.63037-21.72607q4.67651-4.42237,9.59228-8.57A.23985.23985,0,0,0,178.73242,267.09164Zm-10.07178,8.64758L206.291,297.46535q-5.2328,5.00317-10.146,10.3573l-37.6665-21.74707-.00538-.00067Q163.406,280.73272,168.66064,275.73922Zm-10.5039,10.67608a.23478.23478,0,0,0,.07153.09333l37.56763,21.68988q-3.5017,3.8323-6.83985,7.83508l-.85351,1.02692a.25012.25012,0,1,0,.38476.3197l-.00024-.00006.85352-1.02686q3.36144-4.03976,6.89941-7.89831l20.71948,11.96258q-3.602,3.93239-7.03271,8.04328l-.85425,1.0263c-.01074.01282-.0061.03-.01367.04407L162.12012,302.4313l-11.92871-6.88709.66479-.79877Q154.407,290.47808,158.15674,286.4153Zm72.74267,55.72559-21.417-12.365.82862-.99518q3.45263-4.14963,7.09277-8.10663l20.97485,12.11a.25008.25008,0,0,0,.25025-.433l-20.87574-12.05279q4.92444-5.34558,10.17041-10.34314l20.999,12.1239a.23028.23028,0,0,0,.09692.01276q-8.13062,8.06543-15.52051,16.92431Zm18.27344-20.495L228.30371,309.597q4.59484-4.35563,9.42139-8.44593L258.523,313.15853q-4.73145,4.2063-9.23779,8.66888A.23722.23722,0,0,0,249.17285,321.6459Zm9.74707-8.83539L238.13281,300.809q4.67212-3.92706,9.56543-7.58624l20.46607,11.81586Q263.44422,308.80751,258.91992,312.81051Zm9.66211-8.108L248.13232,292.8962q5.00831-3.73838,10.23316-7.20026l20.06763,11.586Q273.4087,300.86807,268.582,304.70254Zm10.301-7.73829-20.04834-11.575q5.36279-3.53109,10.94091-6.77234L289.374,289.91384Q284.02588,293.3035,278.88306,296.96425Zm10.96338-7.35522-19.5813-11.28711,10.71924-6.5061,21.335,10.76129-8.13282,4.35889-.01074.0061Q291.995,288.25369,289.84644,289.609Zm29.4375,21.83258L300.72046,300.8558A78.52826,78.52826,0,0,1,310.739,287.77248l.73462-.42456.12476-.21661-.125-.21637L215.3103,231.39541l-.12475.21655-.125-.21643-.00025-.00006-9.12207,5.27148c-.69165.39978-1.37353.81476-2.06079,1.2215l-8.70166-24.48621,14.36939,8.21228.11132.06757.00342-.00195L316.20923,282.575l9.2727,30.89649A16.30456,16.30456,0,0,1,319.28394,311.44161Zm129.1538-105.33313L378.4834,246.17086l-.00025-20.84845a10.80556,10.80556,0,0,1,5.55518-9.44367l39.93726-22.19812Zm-64.64233,9.33325a11.30524,11.30524,0,0,0-5.812,9.88068v21.27978l.12451.21625.24951.00067,70.356-40.29254.00049,34.17572a10.80391,10.80391,0,0,1-5.45313,9.38532L335.45239,311.4479a16.3317,16.3317,0,0,1-8.085,2.1383c-.45,0-.89941-.02557-1.34814-.0628l-9.30347-30.99951,30.76587-18.00672.02173-.03833c.02319-.01892.05371-.0263.06933-.05383.01538-.027.00611-.05652.01075-.08557l.02172-.038.01319-37.021,17.75342-11.00775a18.52776,18.52776,0,0,0,8.76464-15.74665V182.73165l.09766.27075,74.16431-26.74121.06518,23.236Zm79.52588-35.79315a5.36481,5.36481,0,0,1-.7937,3.09387,2.21856,2.21856,0,0,1-1.87549,1.01014,3.71807,3.71807,0,0,1-1.83667-.56385l-.02588-.01495-9.32666-3.99829-.06665-23.71155L427.96484,143.091l4.46436-7.95667.01514-.04a3.37945,3.37945,0,0,1,.602-1.043l.02734-.03259.04565-.07868.20142-.17456a2.17535,2.17535,0,0,1,1.4646-.54474,3.6561,3.6561,0,0,1,1.80737.5542l21.72266,12.54151a8.49345,8.49345,0,0,1,2.428,2.29034l.011.01483a12.37148,12.37148,0,0,1,.728,1.09473l.01538.02631a12.67148,12.67148,0,0,1,1.82349,6.1828Z"/><path class="cls-9" d="M299.25879,177.9457l-.125.21655.12475-.21655-27.42382-15.833a5.56452,5.56452,0,0,0-2.75928-.82977,3.69061,3.69061,0,0,0-3.08716,1.6474,7.62505,7.62505,0,0,0-1.16308,4.41455v28.96875c.01074,4.98334,2.99072,10.70239,6.75952,12.89374l27.42407,15.833a5.562,5.562,0,0,0,2.7583.82934,3.69184,3.69184,0,0,0,3.0874-1.64746,7.62331,7.62331,0,0,0,1.16382-4.41449V190.839C306.00757,185.85561,303.02759,180.137,299.25879,177.9457Zm6.25976,41.86206a7.13947,7.13947,0,0,1-1.07226,4.12573,3.1866,3.1866,0,0,1-2.6792,1.43628,5.06935,5.06935,0,0,1-2.5083-.76245l-27.42407-15.833c-3.55909-2.0401-6.52051-7.6726-6.50977-12.46069V167.34487a7.14146,7.14146,0,0,1,1.07153-4.12585,3.18529,3.18529,0,0,1,2.679-1.43616,5.07181,5.07181,0,0,1,2.50928.76288l27.42382,15.83288v.00012c3.55933,2.0401,6.52076,7.67212,6.51,12.46027Z"/><path class="cls-9" d="M285.54688,175.71474a14.28459,14.28459,0,0,0-7.03638-2.14831,7.83979,7.83979,0,0,0-6.31934,2.94549,12.88973,12.88973,0,0,0-2.408,8.18012c.011,9.85809,6.92359,21.77368,15.51368,26.74579a14.27783,14.27783,0,0,0,7.0354,2.14813,7.839,7.839,0,0,0,6.31884-2.94544,12.88766,12.88766,0,0,0,2.40821-8.17993C301.04834,192.60244,294.13574,180.68685,285.54688,175.71474Zm5.44433,20.44458a4.53608,4.53608,0,0,1-.8352,2.87751,2.61678,2.61678,0,0,1-2.1211.985,5.06043,5.06043,0,0,1-2.488-.76605,12.58307,12.58307,0,0,1-5.69459-9.81573,4.538,4.538,0,0,1,.835-2.87769,2.61664,2.61664,0,0,1,2.12109-.98511,5.06333,5.06333,0,0,1,2.48853.7663A12.58326,12.58326,0,0,1,290.99121,196.15932Zm-12.48071-22.093a11.81184,11.81184,0,0,1,4.123.81164l2.55445,10.84973a5.32369,5.32369,0,0,0-2.37964-.65039,3.12163,3.12163,0,0,0-2.511,1.172,4.20256,4.20256,0,0,0-.76049,1.65631L276.34668,174.356A8.26469,8.26469,0,0,1,278.5105,174.06637ZM270.283,184.692a12.40117,12.40117,0,0,1,2.29809-7.86713c.12452-.15484.25928-.29492.39258-.43725l7.13745,30.31463C274.37451,200.87069,270.27441,192.13,270.283,184.692Zm15.26392,26.31274c-.22681-.13055-.44751-.28558-.67188-.42615l-3.49341-14.83734a11.94954,11.94954,0,0,0,3.91529,3.94751,5.55034,5.55034,0,0,0,2.738.833,3.46307,3.46307,0,0,0,.6211-.06335l2.9663,12.59887A14.4356,14.4356,0,0,1,285.54688,211.00478Z"/><path class="cls-9" d="M335.8623,211.4479l-10.88964-6.28711c-1.45508-.84033-2.63477.05176-2.63477,1.9917v11.50342a6.30906,6.30906,0,0,0,2.63477,5.03369l10.88964,6.28759c1.45508.83985,2.63477-.05175,2.63477-1.99218V216.48208A6.31,6.31,0,0,0,335.8623,211.4479Zm-4.03637,10.49176a3.06009,3.06009,0,0,1-1.502-.46417,7.74265,7.74265,0,0,1-3.49609-6.0271,2.73177,2.73177,0,0,1,.49878-1.73175,1.532,1.532,0,0,1,1.24585-.57764,3.05715,3.05715,0,0,1,1.50146.46435,7.74064,7.74064,0,0,1,3.49732,6.02716,2.73272,2.73272,0,0,1-.49878,1.73151A1.53408,1.53408,0,0,1,331.82593,221.93966Z"/><path class="cls-9" d="M322.46265,227.38906a.25.25,0,0,0-.24976.433l14.68945,8.48047a.25.25,0,0,0,.24976-.433Z"/><path class="cls-4" d="M260.00146,278.47414a2.35978,2.35978,0,0,0-1.25341-.36523c-.69971.0069-1.25489.27234-1.80884.26544a1.85,1.85,0,0,1-.99365-.29285,2.17232,2.17232,0,0,1-1.00562-1.554,2.67223,2.67223,0,0,0-1.22973-1.85175,2.35336,2.35336,0,0,0-1.25-.36413c-.70093.00689-1.2566.27362-1.8108.26666a1.84326,1.84326,0,0,1-.99-.29169,2.16628,2.16628,0,0,1-1.00268-1.55206,2.66562,2.66562,0,0,0-1.22681-1.85028.25.25,0,1,0-.2583.4281l-.00024-.00006a2.16628,2.16628,0,0,1,1.00268,1.55206,2.66562,2.66562,0,0,0,1.22681,1.85028,2.35106,2.35106,0,0,0,1.24853.36359c.70044-.007,1.25611-.27356,1.8108-.26666a1.84775,1.84775,0,0,1,.99169.29229,2.17254,2.17254,0,0,1,1.00538,1.554,2.67224,2.67224,0,0,0,1.22973,1.85174,2.35662,2.35662,0,0,0,1.2522.36475c.69971-.0069,1.25488-.27234,1.80884-.26544a1.8523,1.8523,0,0,1,.99463.29327.25007.25007,0,0,0,.25878-.428Z"/><path class="cls-4" d="M240.26123,293.88772a2.35822,2.35822,0,0,0-1.25293-.36524c-.69971.0069-1.25488.27234-1.80859.26544a1.8491,1.8491,0,0,1-.99341-.29278,2.17211,2.17211,0,0,1-1.0061-1.55426,2.67058,2.67058,0,0,0-1.23023-1.85163,2.35234,2.35234,0,0,0-1.25-.36413c-.70019.007-1.25561.27356-1.80957.2666a1.843,1.843,0,0,1-.99023-.292,2.16583,2.16583,0,0,1-1.00318-1.55194,2.66436,2.66436,0,0,0-1.22729-1.85.25.25,0,1,0-.2583.4281l-.00025-.00006a2.16562,2.16562,0,0,1,1.00318,1.55188,2.66432,2.66432,0,0,0,1.22729,1.85,2.34912,2.34912,0,0,0,1.24878.364c.7002-.007,1.25562-.27356,1.80957-.2666a1.84527,1.84527,0,0,1,.99146.2923,2.17087,2.17087,0,0,1,1.0061,1.55383,2.67158,2.67158,0,0,0,1.23022,1.85193,2.35407,2.35407,0,0,0,1.252.36474c.69946-.00689,1.25464-.27234,1.80859-.26544a1.85194,1.85194,0,0,1,.99414.29328.25007.25007,0,0,0,.25879-.428Z"/><path class="cls-1" d="M190.48022,266.61434a2.66473,2.66473,0,0,0,1.2273,1.85028,2.536,2.536,0,0,0,.6477.28381,2.229,2.229,0,0,0,.60108.08008,3.31128,3.31128,0,0,0,.50049-.04565,8.2572,8.2572,0,0,1,1.3103-.221,1.76439,1.76439,0,0,1,.46826.06195c.031.00855.06421.02344.0957.03406.05152.01727.10206.032.15577.05542a2.37848,2.37848,0,0,1,.27075.1405,2.17209,2.17209,0,0,1,1.00586,1.5542,2.67151,2.67151,0,0,0,1.23022,1.852,2.737,2.737,0,0,0,.32984.17145,2.27136,2.27136,0,0,0,.92187.19318,6.81425,6.81425,0,0,0,1.30249-.20948,2.53789,2.53789,0,0,1,.50684-.056,1.77082,1.77082,0,0,1,.47.06208c.02026.00555.042.01587.0625.02227a2.11307,2.11307,0,0,1,.46118.20856,1.87316,1.87316,0,0,1,.70215.70575,3.84653,3.84653,0,0,1,.301.84631,2.66473,2.66473,0,0,0,1.2273,1.85028,2.536,2.536,0,0,0,.6477.28382,2.2294,2.2294,0,0,0,.60108.08008,3.31126,3.31126,0,0,0,.50049-.04566,8.25948,8.25948,0,0,1,1.3103-.221,1.76483,1.76483,0,0,1,.46826.062c.031.00854.06421.02343.0957.03405.05152.01728.102.032.15577.05542a2.37863,2.37863,0,0,1,.27075.14051,2.172,2.172,0,0,1,1.00586,1.5542,2.67153,2.67153,0,0,0,1.23022,1.852,2.73686,2.73686,0,0,0,.32984.17144,2.27136,2.27136,0,0,0,.92187.19318,6.81441,6.81441,0,0,0,1.30249-.20947,2.53634,2.53634,0,0,1,.50684-.056,1.7708,1.7708,0,0,1,.47.06207c.02026.00555.042.01587.0625.02228a2.11252,2.11252,0,0,1,.46118.20855h.00024v.00007l.189.02862.154-.11352.02881-.18921-.11353-.154a2.553,2.553,0,0,0-.6499-.28455,2.23277,2.23277,0,0,0-.60254-.08032,3.31315,3.31315,0,0,0-.5.04535,8.28651,8.28651,0,0,1-1.30957.22,1.77112,1.77112,0,0,1-.46972-.062,2.09125,2.09125,0,0,1-.523-.23059,1.88054,1.88054,0,0,1-.70386-.7071,3.84511,3.84511,0,0,1-.30225-.84716,2.67149,2.67149,0,0,0-1.23022-1.852,2.54794,2.54794,0,0,0-.6482-.2837,2.2301,2.2301,0,0,0-.60131-.0802,6.42694,6.42694,0,0,0-1.26929.20325,2.62085,2.62085,0,0,1-.54077.06336,1.77275,1.77275,0,0,1-.55469-.09247,2.109,2.109,0,0,1-.43555-.19934,2.16583,2.16583,0,0,1-1.00317-1.55213,2.66477,2.66477,0,0,0-1.2273-1.85028,2.55949,2.55949,0,0,0-.53515-.244,2.26739,2.26739,0,0,0-.71729-.12085,3.31444,3.31444,0,0,0-.5.04535,8.28537,8.28537,0,0,1-1.30957.22,1.77118,1.77118,0,0,1-.46972-.06195,2.09089,2.09089,0,0,1-.523-.23059,1.88052,1.88052,0,0,1-.70386-.70709,3.84553,3.84553,0,0,1-.30225-.84717,2.67151,2.67151,0,0,0-1.23022-1.852,2.548,2.548,0,0,0-.64819-.28369,2.23017,2.23017,0,0,0-.60132-.0802,6.42694,6.42694,0,0,0-1.26929.20325,2.62014,2.62014,0,0,1-.54077.06335,1.77217,1.77217,0,0,1-.55469-.09247,2.108,2.108,0,0,1-.43555-.19934,2.16581,2.16581,0,0,1-1.00317-1.55212,2.66475,2.66475,0,0,0-1.22729-1.85028.25.25,0,0,0-.25855.428A2.16557,2.16557,0,0,1,190.48022,266.61434Z"/><path class="cls-1" d="M224.64551,271.87569a2.27315,2.27315,0,0,0-.92285-.19354,6.4077,6.4077,0,0,0-1.26392.20142,2.64447,2.64447,0,0,1-.54517.064c-.02343-.00012-.0476-.00354-.07128-.00445-.053-.002-.106-.0033-.15992-.01007a1.91806,1.91806,0,0,1-.7622-.27832,2.18731,2.18731,0,0,1-.43164-.33875,2.54846,2.54846,0,0,1-.57447-1.21527,2.67135,2.67135,0,0,0-1.23022-1.85175,2.54744,2.54744,0,0,0-.6482-.284c-.04418-.01209-.08642-.01691-.12963-.02606-.05933-.01258-.11963-.0282-.17774-.03571a2.24194,2.24194,0,0,0-.29443-.01837,5.76265,5.76265,0,0,0-1.19361.18738,2.8379,2.8379,0,0,1-.61645.07916,1.7717,1.7717,0,0,1-.61353-.1134,2.1006,2.1006,0,0,1-1.37939-1.73041,2.5965,2.5965,0,0,0-1.614-2.04175,2.273,2.273,0,0,0-.866-.17352,5.24619,5.24619,0,0,0-1.11426.17022,3.09784,3.09784,0,0,1-.69458.09522,1.79886,1.79886,0,0,1-.42163-.05255c-.01636-.004-.03174-.00507-.04834-.00959a2.084,2.084,0,0,1-.52319-.23065,2.1719,2.1719,0,0,1-1.00611-1.55407,2.67135,2.67135,0,0,0-1.23022-1.85175,2.54779,2.54779,0,0,0-.64819-.284c-.04419-.01208-.08643-.0169-.12964-.02606-.05933-.01257-.11963-.0282-.17774-.0357a2.24371,2.24371,0,0,0-.29443-.01838,5.76378,5.76378,0,0,0-1.1936.18738,2.83809,2.83809,0,0,1-.61646.07917,1.77172,1.77172,0,0,1-.61353-.11341,2.10051,2.10051,0,0,1-1.37939-1.73041,2.66434,2.66434,0,0,0-1.22729-1.85009.25.25,0,0,0-.25855.428,2.16559,2.16559,0,0,1,1.00317,1.55188,2.66554,2.66554,0,0,0,1.2273,1.85046,2.56269,2.56269,0,0,0,.50464.233c.04785.01648.09692.03784.144.05078a2.23035,2.23035,0,0,0,.59961.07984,3.31126,3.31126,0,0,0,.50049-.04566,8.25967,8.25967,0,0,1,1.3103-.22095,1.89382,1.89382,0,0,1,.23047.01447,1.71177,1.71177,0,0,1,.23682.04724l.00122.00025a2.08487,2.08487,0,0,1,.52221.23022,2.17168,2.17168,0,0,1,1.00611,1.554,2.67135,2.67135,0,0,0,1.23022,1.85174,2.71989,2.71989,0,0,0,.32984.17151c.03076.01337.0603.02039.09082.03217a2.31878,2.31878,0,0,0,.53637.1427c.0503.00647.09864.00622.148.00921.04883.003.09888.00928.14649.00916h.00049c.0996-.001.19067-.01587.28466-.02582.07129-.00751.14673-.00848.21509-.01953l.00195-.00037a8.24012,8.24012,0,0,1,1.30713-.21948,1.761,1.761,0,0,1,.72242.152,2.38258,2.38258,0,0,1,.27148.14105,2.16562,2.16562,0,0,1,1.00317,1.55188,2.66552,2.66552,0,0,0,1.2273,1.85046,2.56269,2.56269,0,0,0,.50464.233c.04785.01648.09692.03785.144.05079a2.23072,2.23072,0,0,0,.59961.07983,3.31257,3.31257,0,0,0,.50049-.04565,8.2572,8.2572,0,0,1,1.3103-.221,1.89379,1.89379,0,0,1,.23047.01446,1.71206,1.71206,0,0,1,.23682.04724l.00122.00025a2.08539,2.08539,0,0,1,.52221.23022,2.1717,2.1717,0,0,1,1.00611,1.554,2.67137,2.67137,0,0,0,1.23022,1.85175,2.42718,2.42718,0,0,0,.95728.34637c.06982.009.137.01038.20459.01276.02978.001.06079.00573.09008.00561h.00025c.06323-.00061.12012-.012.18115-.01642.61353-.04486,1.12378-.255,1.62817-.24878a1.852,1.852,0,0,1,.99415.293l.1892.02869.15406-.11346.02881-.18921-.11353-.15406A2.74488,2.74488,0,0,0,224.64551,271.87569Z"/><path class="cls-1" d="M185.75415,307.58321a2.273,2.273,0,0,0-.866-.17352,5.24553,5.24553,0,0,0-1.11425.17023,3.09847,3.09847,0,0,1-.69458.09521,1.79888,1.79888,0,0,1-.42164-.05255c-.01635-.004-.03173-.00507-.04833-.00958a2.08481,2.08481,0,0,1-.5232-.23065,2.1719,2.1719,0,0,1-1.0061-1.55408,2.67136,2.67136,0,0,0-1.23023-1.85175,2.54738,2.54738,0,0,0-.64819-.284c-.04419-.01209-.08643-.01691-.12964-.02607-.05932-.01257-.11963-.02819-.17773-.0357a2.24209,2.24209,0,0,0-.29444-.01837,5.76266,5.76266,0,0,0-1.1936.18738,2.838,2.838,0,0,1-.61646.07916,1.77171,1.77171,0,0,1-.61352-.11341,2.10056,2.10056,0,0,1-1.37939-1.73022,2.5964,2.5964,0,0,0-1.614-2.04193,2.273,2.273,0,0,0-.866-.17352,5.84339,5.84339,0,0,0-1.20068.18817,2.8244,2.8244,0,0,1-.60864.07727c-.03223-.00012-.06519-.0044-.09766-.00611-.04541-.00238-.09057-.00311-.13672-.009a1.921,1.921,0,0,1-.75927-.27771,2.17233,2.17233,0,0,1-1.00562-1.554,2.67225,2.67225,0,0,0-1.22974-1.85174,2.54214,2.54214,0,0,0-.64868-.28406c-.01635-.00451-.03174-.00561-.04809-.0097a2.2936,2.2936,0,0,0-.259-.052,2.24371,2.24371,0,0,0-.29443-.01838,4.09281,4.09281,0,0,0-.85986.11829,4.27048,4.27048,0,0,1-.95044.14825,1.77141,1.77141,0,0,1-.554-.0924,2.11245,2.11245,0,0,1-.4353-.19916,1.873,1.873,0,0,1-.87354-1.1087c-.04687-.14075-.08691-.28827-.12988-.44342a2.6667,2.6667,0,0,0-1.227-1.85022.25.25,0,0,0-.25854.428,2.1664,2.1664,0,0,1,1.00268,1.55213,2.666,2.666,0,0,0,1.22778,1.85022,2.70224,2.70224,0,0,0,.32862.1709c.04687.02032.092.032.13818.04876.06079.0221.12207.04786.18189.06415a2.22954,2.22954,0,0,0,.59936.07978,3.91436,3.91436,0,0,0,.80567-.10737,4.63241,4.63241,0,0,1,1.00512-.15924,1.75722,1.75722,0,0,1,.89868.24414c.031.017.06006.02881.09229.048a1.87871,1.87871,0,0,1,.70337.707,3.85584,3.85584,0,0,1,.30224.847,2.67225,2.67225,0,0,0,1.22974,1.85175,2.43088,2.43088,0,0,0,.95752.34638c.05322.00683.10449.00677.15649.00976.0459.00263.093.00873.13794.00861h.00049a2.92967,2.92967,0,0,0,.30664-.02784c.06348-.00714.13184-.00756.19312-.01751.02368-.00379.04492-.00952.06811-.01367a7.09,7.09,0,0,1,1.24146-.20618,1.76076,1.76076,0,0,1,.72241.152,2.38267,2.38267,0,0,1,.27149.14105,2.1656,2.1656,0,0,1,1.00317,1.55206,2.66475,2.66475,0,0,0,1.22729,1.85028,2.563,2.563,0,0,0,.50464.233c.04785.01648.09693.03785.144.05078a2.23033,2.23033,0,0,0,.5996.07984,3.31126,3.31126,0,0,0,.50049-.04566,8.25836,8.25836,0,0,1,1.31031-.22094,1.89363,1.89363,0,0,1,.23046.01446,1.71177,1.71177,0,0,1,.23682.04724l.00122.00025a2.08528,2.08528,0,0,1,.52222.23022,2.17169,2.17169,0,0,1,1.0061,1.554,2.67135,2.67135,0,0,0,1.23023,1.85174,2.71836,2.71836,0,0,0,.32983.17151c.03076.01337.0603.02039.09082.03217a2.31823,2.31823,0,0,0,.53638.1427c.05029.00647.09863.00622.14795.00922.04883.003.09887.00927.14648.00915h.00049c.09961-.001.19067-.01587.28467-.02582.07129-.0075.14673-.00848.21509-.01953l.00195-.00036a8.24134,8.24134,0,0,1,1.30713-.21949,1.76092,1.76092,0,0,1,.72241.152,2.38336,2.38336,0,0,1,.27148.14105l.18921.02869.15406-.11347.0288-.1892-.11352-.15406A2.65914,2.65914,0,0,0,185.75415,307.58321Z"/><path class="cls-4" d="M258.33472,290.52083l-.00025-.00006a2.16619,2.16619,0,0,1,1.00269,1.55188,2.66539,2.66539,0,0,0,1.2268,1.85,2.34991,2.34991,0,0,0,1.249.36395c.70019-.007,1.25586-.27356,1.81006-.2666a1.846,1.846,0,0,1,.9917.2923,2.17146,2.17146,0,0,1,1.00561,1.55383,2.67243,2.67243,0,0,0,1.22974,1.85193,2.35662,2.35662,0,0,0,1.25219.36475c.69971-.0069,1.25489-.27234,1.80884-.26545a1.85236,1.85236,0,0,1,.99463.29328.25007.25007,0,0,0,.25879-.428,2.35983,2.35983,0,0,0-1.25342-.36524c-.6997.0069-1.25488.27234-1.80884.26545a1.85009,1.85009,0,0,1-.99365-.29285,2.17257,2.17257,0,0,1-1.00561-1.5542,2.67133,2.67133,0,0,0-1.22974-1.85156,2.3526,2.3526,0,0,0-1.25024-.3642c-.70044.007-1.25611.27356-1.81006.2666a1.84378,1.84378,0,0,1-.99048-.292,2.16642,2.16642,0,0,1-1.00269-1.55194,2.66532,2.66532,0,0,0-1.2268-1.85.25.25,0,1,0-.2583.4281Z"/><path class="cls-4" d="M237.40015,305.50576a.24989.24989,0,0,0,.085.3432l-.00025-.00006a2.16626,2.16626,0,0,1,1.00269,1.55206,2.66562,2.66562,0,0,0,1.22681,1.85028,2.34851,2.34851,0,0,0,1.249.36389c.70044-.007,1.2561-.27368,1.81079-.26672a1.84675,1.84675,0,0,1,.99121.29205,2.17275,2.17275,0,0,1,1.00537,1.55414,2.67133,2.67133,0,0,0,1.22974,1.85156,2.35662,2.35662,0,0,0,1.2522.36475c.6997-.0069,1.25488-.27234,1.80883-.26544a1.85226,1.85226,0,0,1,.99463.29327.25007.25007,0,0,0,.25879-.428,2.35981,2.35981,0,0,0-1.25342-.36523c-.6997.0069-1.25488.27234-1.80883.26544a1.85,1.85,0,0,1-.99366-.29285,2.17144,2.17144,0,0,1-1.00561-1.55383,2.67245,2.67245,0,0,0-1.22974-1.85193,2.35249,2.35249,0,0,0-1.24951-.36389c-.70093.007-1.25659.27368-1.81079.26672a1.8436,1.8436,0,0,1-.99048-.29193,2.16651,2.16651,0,0,1-1.00269-1.55212,2.66557,2.66557,0,0,0-1.2268-1.85028A.25.25,0,0,0,237.40015,305.50576Z"/><path class="cls-5" d="M239.0083,323.49953c-.69971.0069-1.25488.27234-1.80859.26545a1.8492,1.8492,0,0,1-.99341-.29279,2.17112,2.17112,0,0,1-1.0061-1.55389,2.67154,2.67154,0,0,0-1.23023-1.85193,2.35389,2.35389,0,0,0-1.24951-.364c-.70068.007-1.2561.27362-1.81006.26667a1.84368,1.84368,0,0,1-.99023-.29181,2.1656,2.1656,0,0,1-1.00318-1.55207,2.66476,2.66476,0,0,0-1.22729-1.85028.25.25,0,1,0-.2583.4281l-.00025-.00006a2.1656,2.1656,0,0,1,1.00318,1.55207,2.66472,2.66472,0,0,0,1.22729,1.85028,2.35023,2.35023,0,0,0,1.24878.3637c.7002-.007,1.25562-.27362,1.81006-.26666a1.84822,1.84822,0,0,1,.99121.29218,2.172,2.172,0,0,1,1.00586,1.55414,2.67059,2.67059,0,0,0,1.23022,1.85162,2.35449,2.35449,0,0,0,1.252.36468c.69946-.00689,1.25464-.27233,1.80859-.26544a1.85194,1.85194,0,0,1,.99414.29328.25007.25007,0,0,0,.25879-.428A2.35822,2.35822,0,0,0,239.0083,323.49953Z"/></svg>