<?xml version="1.0" encoding="utf-8"?>
<!-- Generator: Adobe Illustrator 24.2.1, SVG Export Plug-In . SVG Version: 6.00 Build 0)  -->
<svg version="1.1" id="Layer_1" xmlns="http://www.w3.org/2000/svg" xmlns:xlink="http://www.w3.org/1999/xlink" x="0px" y="0px"
	 viewBox="0 0 1200 900" style="enable-background:new 0 0 1200 900;" xml:space="preserve">
<style type="text/css">
	.st0{opacity:0.2;enable-background:new    ;}
	.st1{fill:#039503;}
	.st2{fill:none;stroke:#000000;stroke-linecap:round;stroke-linejoin:round;}
	.st3{fill:#CDF4CD;stroke:#000000;stroke-linecap:round;stroke-linejoin:round;}
	.st4{fill:#D88D09;stroke:#000000;stroke-linecap:round;stroke-linejoin:round;}
	.st5{fill:#FFFFFF;stroke:#000000;stroke-linecap:round;stroke-linejoin:round;}
	.st6{opacity:0.2;stroke:#000000;stroke-linecap:round;stroke-linejoin:round;enable-background:new    ;}
	.st7{fill:#68DD68;stroke:#000000;stroke-linecap:round;stroke-linejoin:round;}
	.st8{opacity:0.3;fill:#04C604;enable-background:new    ;}
	.st9{stroke:#000000;stroke-linecap:round;stroke-linejoin:round;}
	.st10{fill:#026302;stroke:#000000;stroke-linecap:round;stroke-linejoin:round;}
	.st11{fill:#F5F9F4;}
	.st12{fill:#FFB531;stroke:#000000;stroke-linecap:round;stroke-linejoin:round;}
	.st13{fill:none;stroke:#FFF382;stroke-linecap:round;stroke-linejoin:round;}
	.st14{fill:none;stroke:#8C78C0;stroke-linecap:round;stroke-linejoin:round;}
	.st15{fill:#039503;stroke:#000000;stroke-linecap:round;stroke-linejoin:round;}
	.st16{fill:#CDF4CD;}
	.st17{fill:#9BE89B;}
	.st18{fill:#9BE89B;stroke:#000000;stroke-linecap:round;stroke-linejoin:round;}
	.st19{fill:#68DD68;}
	.st20{fill:#FFAA05;stroke:#000000;stroke-linecap:round;stroke-linejoin:round;}
	.st21{fill:#F4EDDA;}
	.st22{fill:#68DD68;stroke:#000000;stroke-width:0.9948;stroke-linecap:round;stroke-linejoin:round;}
	.st23{fill:#04C604;stroke:#000000;stroke-linecap:round;stroke-linejoin:round;}
	.st24{fill:#FFAA05;}
	.st25{fill:#966696;}
	.st26{fill:#FFF382;}
	.st27{fill:#FFF382;stroke:#000000;stroke-linecap:round;stroke-linejoin:round;}
	.st28{fill:#FFE600;stroke:#000000;stroke-linecap:round;stroke-linejoin:round;}
	.st29{fill:#FFFFFF;}
	.st30{fill:#026302;}
	.st31{fill:#AD9D6E;}
	.st32{fill:#04C604;}
	.st33{fill:#FDFBF8;}
	.st34{fill:#BF8004;}
	.st35{fill:#D88D09;}
	.st36{fill:#CBD6AF;}
	.st37{fill:#FFAA08;stroke:#000000;stroke-linecap:round;stroke-linejoin:round;}
</style>
<g>
	<path class="st0" d="M297.5,545c-8.5,17.3-27.5,32.3-55.6,31.8c-24-0.4-43.3-14.8-35.1-34.1c7.5-17.5,62-41.2,90.7-41.2
		S305.9,527.9,297.5,545z"/>
	<path class="st1" d="M196.5,525c0,0,1.8,43.6,47.5,43.6c42.4,0,52.9-30.6,58.1-43.6c5.2-13.1,13.6-24.7,12.5-32.6
		c-1.4-10.5-23-3.4-23-3.4"/>
	<path class="st2" d="M196.5,525c0,0,1.8,43.6,47.5,43.6c42.4,0,52.9-30.6,58.1-43.6c5.2-13.1,13.6-24.7,12.5-32.6
		c-1.4-10.5-23-3.4-23-3.4"/>
	<path class="st3" d="M309.7,501.6c9.7-8.8,5-20.3-10.6-25.8s-35.7-2.7-46,5.9c-25.2,21.1-39.1,20-49.3,29.2
		c-13.9,12.5-7.2,29,15.1,36.8c22.3,7.8,51.6,4,65.6-8.4C294.6,530.1,285.2,523.8,309.7,501.6z"/>
	<path class="st4" d="M269.1,524.4c-0.4-13.3-12-24.8-25.5-24.8s-24.2,11.3-24.7,24.5c0,0,0,1,0,1.1c0.1,4.6,4.2,9.1,11.8,11.8
		c11.8,4.1,27.2,2.1,34.6-4.5c2.5-2.3,3.7-4.8,3.8-7.3C269.2,525.2,269.1,524.5,269.1,524.4z"/>
	<path class="st5" d="M252.8,522.9c4.1,0,7.4-3.3,7.4-7.3s-3.3-7.3-7.4-7.3c-4.1,0-7.4,3.3-7.4,7.3S248.7,522.9,252.8,522.9z"/>
	<path class="st6" d="M433,354.8c24.6,0,44.5-10.3,44.5-22.9S457.6,309,433,309s-44.5,10.3-44.5,22.9
		C388.5,344.6,408.4,354.8,433,354.8z"/>
	<path class="st7" d="M437.7,344.7c-23.6,2.2-43.8-13.2-47.2-31.9c-3.1-17.1-3.6-33.4,8.4-44.3c11.8-10.8,23.9-5,33.5-6.9
		c17.2-3.4,27.2-1.7,36.3,8.5c7.2,8.1,10.5,21,8.2,33.8C472.8,326,464.7,342.2,437.7,344.7z"/>
	<path class="st8" d="M473.8,278.3c-0.1,2.2-0.4,4.4-0.8,6.5c-4.7,26.4-14.4,45.8-46.8,48.8c-9.5,0.9-19.1-0.6-27.9-4.4
		c8.7,10.4,23.2,17,39.3,15.5c27-2.5,35.1-18.7,39.1-40.8C478.4,295.3,477.3,286.4,473.8,278.3z"/>
	<path class="st9" d="M431.8,242.3h-0.7c-0.7,0-1.3,0.6-1.3,1.3v28.2c0,0.7,0.6,1.3,1.3,1.3h0.7c0.7,0,1.3-0.6,1.3-1.3v-28.2
		C433.1,242.9,432.5,242.3,431.8,242.3z"/>
	<path class="st9" d="M431.4,276.7c4,0,7.2-2.2,7.2-4.8c0-2.7-3.2-4.8-7.2-4.8s-7.2,2.2-7.2,4.8
		C424.1,274.5,427.4,276.7,431.4,276.7z"/>
	<path class="st10" d="M433.1,253.7c0,0,10.2-23.3,43.7-12.4C476.8,241.3,465.6,264.6,433.1,253.7z"/>
	<path class="st11" d="M409.1,272.5c-6.4,3.8-11.1,10.3-10.6,18c0.4,5.6,9.1,5.6,8.7,0c-0.3-4.6,2.4-8.2,6.3-10.4
		C418.4,277.2,414,269.6,409.1,272.5L409.1,272.5z"/>
	<path class="st0" d="M332.5,466c56.4,0,102.1-15.3,102.1-34.2c0-18.9-45.7-34.2-102.1-34.2s-102.1,15.3-102.1,34.2
		C230.4,450.7,276.2,466,332.5,466z"/>
	<path class="st12" d="M230.7,322.1c10.9,11.5,93.5,91.9,187.1-3c0.6-0.6,1.4-1,2.3-1.1s1.7,0.2,2.5,0.7l5.1,3.6
		c0.7,0.5,1.2,1.2,1.5,2s0.3,1.7,0,2.5c-4.6,15.8-30.3,91.5-103.2,90.4c-86.7-1.3-103.2-78.1-105.1-88.5c-0.1-0.8-0.1-1.5,0.2-2.2
		l1.3-3.4c0.2-0.5,0.5-0.9,0.9-1.2c0.4-0.3,0.9-0.5,1.4-0.6l2.9-0.3c0.6-0.1,1.1,0,1.7,0.2C229.9,321.3,230.3,321.7,230.7,322.1
		L230.7,322.1z"/>
	<path class="st4" d="M427.7,322.3l-3.8-2.7c-8.4,22.9-34.6,75.7-97.6,73.5c-60.8-2.1-87.3-38.6-98.4-63c-0.1-0.3-0.3-0.6-0.6-0.9
		c-0.3-0.3-0.6-0.5-0.9-0.6s-0.7-0.2-1.1-0.2c-0.4,0-0.7,0.1-1.1,0.2l-3.2,1.5c2.9,14.5,21.4,85.8,104.9,87.1
		c72.9,1.1,98.6-74.7,103.2-90.4c0.2-0.8,0.2-1.7,0-2.5C428.9,323.5,428.4,322.8,427.7,322.3L427.7,322.3z"/>
	<path class="st12" d="M238.3,382.4c14.1,8.5,119.1,65.7,189-58.4c0.4-0.7,1-1.3,1.8-1.6c0.8-0.3,1.6-0.3,2.4-0.1l6.8,2.4
		c0.7,0.3,1.3,0.8,1.8,1.4c0.4,0.6,0.6,1.4,0.6,2.2c-0.4,16.4-6.1,102-80.8,122.4c-88.1,24.1-125.1-48.7-129.8-58.8
		c-0.3-0.7-0.5-1.5-0.4-2.3l0.4-3.8c0.1-0.6,0.3-1.1,0.6-1.5c0.3-0.4,0.8-0.8,1.3-1l2.9-1.2c0.6-0.2,1.1-0.3,1.7-0.3
		C237.2,381.9,237.8,382,238.3,382.4L238.3,382.4z"/>
	<path class="st4" d="M438.3,324.8l-0.3-0.1l-1.6,6.3c0,0-22.2,78.3-80.3,96.5c-70.5,22-120.6-35.6-120.6-35.6l-0.7-0.7
		c-0.5-0.5-1.1-0.8-1.7-0.9c-0.7-0.1-1.3,0.1-1.9,0.4l-1.1,0.7l-0.1,0.4c4.4,9.6,41.3,83.1,129.8,58.9
		c74.7-20.5,80.4-106,80.8-122.4c0-0.8-0.2-1.5-0.6-2.2C439.6,325.5,439,325,438.3,324.8z"/>
	<path class="st13" d="M239.6,385.9c13.9,8.4,115.9,62.6,185.8-54.3"/>
	<path class="st9" d="M421.3,318.3l1.4,1.7c0.7,0.9,1.2,1.9,1.3,3l0.3,2.4c0,0.3,0.1,0.7,0.3,1c0.2,0.3,0.4,0.5,0.7,0.7
		c0.3,0.2,0.6,0.3,1,0.3c0.3,0,0.7-0.1,1-0.3l4.7-2.5c0.8-0.4,1.6-0.7,2.4-0.7c0.9-0.1,1.7,0.1,2.5,0.3l3.8,4.1
		c0,0,3.7-30.3,2.8-31.1l-4.7-2c-0.5-0.4-1.1-0.7-1.7-0.9l-16.7,20.5c-0.1,0.6-0.1,1.3,0.1,1.9C420.7,317.3,420.9,317.8,421.3,318.3
		L421.3,318.3z"/>
	<path class="st2" d="M410.3,384.4c11.3-16.4,20.1-34.5,26.1-53.5"/>
	<path class="st2" d="M235.5,391.8c12,12.7,26.4,23,42.3,30.2"/>
	<path class="st14" d="M436.9,306.1l-10.1,19.1"/>
	<path class="st2" d="M375.3,428.7l4.1-2.2"/>
	<path class="st2" d="M411.2,365.3l4.7-6.3"/>
	<path class="st2" d="M339.1,418.7l3.3-0.5"/>
	<path class="st2" d="M261,371.8c-16.7-12.5-26.8-28.2-32.6-40.9"/>
	<path class="st2" d="M350.8,391c-8,1.7-16.3,2.4-24.5,2.1c-18.6-0.6-33.9-4.5-46.6-10.2"/>
	<path class="st2" d="M421.1,326.7c-1.6,3.8-3.7,8.1-6.1,12.6"/>
	<path class="st2" d="M289.2,369.1c2.1,1,4.3,1.6,6.5,1.9"/>
	<path d="M398.3,353.7c1.4-1.2,1.9-2.7,1.3-3.5c-0.6-0.7-2.3-0.4-3.6,0.8c-1.4,1.2-1.9,2.7-1.3,3.5
		C395.3,355.2,396.9,354.9,398.3,353.7z"/>
	<path class="st0" d="M379.4,519.9c7.8,0,14.1-3.2,14.1-7.1c0-3.9-6.3-7.1-14.1-7.1s-14.1,3.2-14.1,7.1
		C365.3,516.7,371.6,519.9,379.4,519.9z"/>
	<path class="st15" d="M381.7,517.5c6.5,0,11.8-5.3,11.8-11.8c0-6.5-5.3-11.8-11.8-11.8s-11.8,5.3-11.8,11.8
		C369.9,512.2,375.2,517.5,381.7,517.5z"/>
	<path class="st2" d="M380.2,496.6c0.8,0.8,1.7,1.3,2.8,1.6c1,0.3,2.1,0.2,3.2-0.1"/>
	<path class="st0" d="M342.4,593.6c7.8,0,14.2-3.2,14.2-7.1c0-3.9-6.3-7.1-14.2-7.1c-7.8,0-14.1,3.2-14.1,7.1
		C328.3,590.5,334.6,593.6,342.4,593.6z"/>
	<path class="st15" d="M344.8,591.2c6.5,0,11.8-5.3,11.8-11.8s-5.3-11.8-11.8-11.8s-11.8,5.3-11.8,11.8
		C333,585.9,338.3,591.2,344.8,591.2z"/>
	<path class="st2" d="M343.3,570.3c0.8,0.8,1.7,1.3,2.8,1.6c1,0.3,2.1,0.2,3.2-0.1"/>
	<path class="st0" d="M371.3,632c7.8,0,14.1-3.2,14.1-7.1c0-3.9-6.3-7.1-14.1-7.1s-14.2,3.2-14.2,7.1
		C357.2,628.8,363.5,632,371.3,632z"/>
	<path class="st15" d="M371.3,629.5c6.5,0,11.8-5.3,11.8-11.8s-5.3-11.8-11.8-11.8s-11.8,5.3-11.8,11.8
		C359.5,624.3,364.8,629.5,371.3,629.5z"/>
	<path class="st2" d="M374.6,609.1c0.3,1,0.8,2,1.6,2.7s1.7,1.3,2.8,1.5"/>
	<path class="st0" d="M573.7,705.5l-65-37.5c-27.9-16.1-73.2-16.2-101-0.2c-13.8,8-20.7,18.5-20.7,29s7,21.2,21.1,29.3l62.2,35.9
		c27.9,16.1,73.2,16.2,101,0.2l132.3-77.6c1.5-0.9,2.8-2.1,3.7-3.5s1.5-3.1,1.8-4.8c0.2-1.7,0-3.4-0.6-5.1c-0.6-1.6-1.5-3.1-2.8-4.3
		l-68.5,0.2L573.7,705.5"/>
	<path class="st3" d="M432.8,574.9c-8.1,11.7-14.5,21.1-14.7,21.3c-11.4,17.7-17.2,36.3-17.3,52.4c0,17.2,6.8,31.4,19.8,38.8
		l59.8,37c25.1,14.2,69.1-0.3,95-35.2l24.4-45.2C574,676.3,432.8,574.9,432.8,574.9z"/>
	<path class="st16" d="M715.9,560.1c-27.1,16.2-106.4,64.8-107.3,65.3c-26.7,13.8-67.9,13.2-93.6-1.7l-62.1-35.8
		c-13.4-7.7-20.1-17.9-20.1-28c0-9.4,5.8-18.8,17.5-26.3c0.8-0.5,77.6-44.8,78.4-45.3c26.5-15.3,69.8-15.2,96.4,0.2l62,35.8
		c13.4,7.7,19.8,17.9,19.8,28"/>
	<path class="st2" d="M715.9,560.1c-27.1,16.2-106.4,64.8-107.3,65.3c-26.7,13.8-67.9,13.2-93.6-1.7l-62.1-35.8
		c-13.4-7.7-20.1-17.9-20.1-28c0-9.4,5.8-18.8,17.5-26.3c0.8-0.5,77.6-44.8,78.4-45.3c26.5-15.3,69.8-15.2,96.4,0.2l62,35.8
		c13.4,7.7,19.8,17.9,19.8,28"/>
	<path class="st17" d="M715.9,560.1c-10.9,6.5-30.1,18.2-49.4,29.9h-0.1l-2.3,1.4l-0.4,0.3l-5,3.1l-0.8,0.5l-4.7,2.9l-24,14.7
		l-1.2,0.7l-5.6,3.4l-0.9,0.6l-2.3,1.4l-0.2,0.2l-2,1.2l-1.7,1l-1.8,1.1l-0.3,0.2l-0.7,0.4l-0.3,0.2l-0.5,0.3l-1.4,0.9l-0.3,0.2
		l-0.3,0.2l-0.2,0.1l-0.2,0.1l-0.2,0.1l-0.2,0.1h-0.1l-0.1,0.1c-26.7,13.8-67.9,13.2-93.6-1.7l-39.4-22.8l-22.6-13
		c-13.4-7.7-20.1-17.9-20.1-28v18.3c0,10.1,6.7,20.3,20.1,28l62.1,35.8c22.2,12.8,55.8,15,81.8,6.6l-24.3,35.2
		c-26,34.9-66.2,51.7-91.3,37.6l-60.5-34.1c-11.2-6.3-17.8-17.7-19.4-31.7v31.3c0,10.1,6.7,20.3,20.1,28l62,35.8
		c25.8,14.9,67,15.5,93.6,1.7c1-0.5,128-74.9,131.5-76.9c21.8-12.6,32.6-29.1,32.6-45.6"/>
	<path class="st2" d="M715.9,560.1c-10.9,6.5-30.1,18.2-49.4,29.9h-0.1l-2.3,1.4l-0.4,0.3l-5,3.1l-0.8,0.5l-4.7,2.9l-24,14.7
		l-1.2,0.7l-5.6,3.4l-0.9,0.6l-2.3,1.4l-0.2,0.2l-2,1.2l-1.7,1l-1.8,1.1l-0.3,0.2l-0.7,0.4l-0.3,0.2l-0.5,0.3l-1.4,0.9l-0.3,0.2
		l-0.3,0.2l-0.2,0.1l-0.2,0.1l-0.2,0.1l-0.2,0.1h-0.1l-0.1,0.1c-26.7,13.8-67.9,13.2-93.6-1.7l-39.4-22.8l-22.6-13
		c-13.4-7.7-20.1-17.9-20.1-28v18.3c0,10.1,6.7,20.3,20.1,28l62.1,35.8c22.2,12.8,55.8,15,81.8,6.6l-24.3,35.2
		c-26,34.9-66.2,51.7-91.3,37.6l-60.5-34.1c-11.2-6.3-17.8-17.7-19.4-31.7v31.3c0,10.1,6.7,20.3,20.1,28l62,35.8
		c25.8,14.9,67,15.5,93.6,1.7c1-0.5,128-74.9,131.5-76.9c21.8-12.6,32.6-29.1,32.6-45.6"/>
	<path class="st16" d="M720.9,234.4c-5-6.3-12-12.2-20.9-17.4c-40.2-23.2-105.1-23.3-145-0.3c-8.8,5-15.6,10.8-20.5,16.9h-9.3v253
		c0,15.2,10.1,30.5,30.3,42.1c40.2,23.2,105.1,23.3,145.1,0.3c19.9-11.5,29.8-26.5,29.8-41.6v-253L720.9,234.4L720.9,234.4z"/>
	<path class="st18" d="M740,490.2v137.2c0,16.5-10.9-74.4-32.6-61.8c-23.8,13.8-55.8,20-87.1,18.7c-26.1-1.1-51.7-7.4-71.7-19
		c-22.1-12.8-33.1-29.5-33.1-46.1v-29.8h10.2c5.4-6.7,12.8-13,22.4-18.5c42.1-24.3,109.7-25.1,153.9-2.4c1.7,0.8,3.3,1.7,4.9,2.7
		c9.8,5.7,17.5,12.1,22.9,19L740,490.2z"/>
	<path class="st3" d="M740,488.9c0,5.1-1,10.1-3,14.8c-3.3,8.1-9.3,15.9-18,22.9c-3.7,2.9-7.6,5.6-11.7,7.9
		c-43.7,25.2-114.8,25.1-158.8-0.3c-22.1-12.8-33.1-29.5-33.1-46.1c0-16.2,10.4-32.4,31.3-44.8c0.4-0.3,0.9-0.5,1.3-0.8
		c10.4-5.9,21.5-10.3,33.1-13.2c41.3-10.7,91.7-6.2,125.7,13.5C728.9,455.5,740,472.2,740,488.9z"/>
	<path class="st3" d="M729.6,487.3c0,4.6-0.9,9.2-2.7,13.4c-3,7.4-8.4,14.4-16.4,20.8c-3.3,2.7-6.9,5.1-10.6,7.2
		c-39.7,22.9-104.2,22.8-144.1-0.3c-20-11.5-30-26.7-30-41.8c0-14.7,9.5-29.3,28.4-40.6c0.4-0.2,0.8-0.5,1.2-0.7
		c9.4-5.3,19.5-9.4,30-12c37.5-9.7,83.1-5.6,114,12.2C719.5,457.1,729.5,472.2,729.6,487.3z"/>
	<path class="st7" d="M554.2,460.2l1.2-0.7c9.4-5.3,19.5-9.4,30-12c37.5-9.7,83.1-5.6,114,12.2c16.9,9.8,26.7,22.1,29.3,34.7
		c0.5-2.3,0.7-4.7,0.8-7.1c0-15.1-10-30.2-30.1-41.8c-30.9-17.8-76.6-21.9-114-12.2c-10.5,2.6-20.6,6.7-30,12
		c-0.4,0.2-0.8,0.5-1.2,0.7c-19,11.3-28.4,25.9-28.4,40.6c0,2.4,0.2,4.8,0.7,7.1C529.1,481.5,538.3,469.6,554.2,460.2z"/>
	<path class="st19" d="M738.9,632.5V489.1v3.3c-0.2,4.6-1.2,9.2-2.9,13.5c-3.3,8.1-9.3,15.9-18,22.9c-3.7,2.9-7.6,5.6-11.7,7.9
		c-18.1,10.5-41,16.6-64.7,18.3v27.8c21.2-1.6,43.5-6.3,60.6-14.8c-9.6,7.7-53.3,34.4-55,35.4v106.3c30.1-17.6,58.7-34.3,60.4-35.3
		c21.8-12.6,32.6-29,32.6-45.6L738.9,632.5z"/>
	<path class="st7" d="M580.2,590.2c0-3.9-5.4-7.1-12.2-7.1s-12.3,3.1-12.3,7s5.4,7.1,12.2,7.1C574.7,597.3,580.2,594.1,580.2,590.2z
		"/>
	<path class="st9" d="M572.3,591.7l19.4-10.5l-11.3-2.9l-17.4,9L572.3,591.7z"/>
	<path d="M579.9,568.3v9.8l11.7,2.5v-17.5"/>
	<path class="st2" d="M579.9,568.3v9.8l11.7,2.5v-17.5"/>
	<path class="st20" d="M568,592.5c-3.7,0-6.8-1.2-6.8-5V571c0-1.2,0.3-2.4,0.9-3.4c0.6-1,1.5-1.9,2.5-2.5l18.2-10.4
		c3.2-1.9,7-0.5,8.8,2.7c1.9,3.2,1.2,7.1-2,9l-14.8,8.5v12.6C574.8,591.3,571.7,592.5,568,592.5z"/>
	<path class="st21" d="M585.9,556.9c-0.2-0.4-0.6-0.7-1-0.8s-0.9-0.1-1.2,0.2l-13.4,7.8c-0.3,0.2-0.6,0.5-0.7,0.8
		c-0.1,0.3-0.2,0.7-0.1,1.1c0.1,0.3,0.3,0.7,0.6,0.9s0.6,0.3,1,0.3c0.3,0,0.6-0.1,0.8-0.2l13.4-7.7c0.2-0.1,0.4-0.3,0.5-0.4
		s0.2-0.4,0.3-0.6c0.1-0.2,0.1-0.4,0-0.6C586.1,557.3,586,557.1,585.9,556.9z"/>
	<path class="st7" d="M514.6,555.7c0-3.9-5.4-7.1-12.2-7.1c-6.8,0-12.3,3.1-12.3,7s5.4,7.1,12.2,7.1
		C509.1,562.8,514.6,559.6,514.6,555.7z"/>
	<path class="st7" d="M473.2,553.9c0-3.9-5.4-7.1-12.2-7.1c-6.8,0-12.3,3.1-12.3,7s5.4,7.1,12.2,7.1
		C467.7,561,473.2,557.8,473.2,553.9z"/>
	<path class="st9" d="M506.7,557.2l19.4-10.5l-5.1-6.1l-23.6,12.2L506.7,557.2z"/>
	<path d="M520.3,530.4v9.8l5.7,5.9v-17.5"/>
	<path class="st2" d="M520.3,530.4v9.8l5.7,5.9v-17.5"/>
	<path class="st20" d="M502.4,558c-3.7,0-6.8-1.2-6.8-5v-16.5c0-1.2,0.3-2.4,0.9-3.4s1.4-1.9,2.5-2.5l18.2-10.4
		c3.2-1.9,7-0.5,8.9,2.7s1.2,7.1-2,9l-14.9,8.5V553C509.2,556.8,506.1,558,502.4,558z"/>
	<path class="st21" d="M520.3,522.4c-0.2-0.4-0.6-0.6-1-0.8c-0.4-0.1-0.9-0.1-1.2,0.2l-13.4,7.7c-0.2,0.1-0.4,0.2-0.5,0.4
		s-0.2,0.4-0.3,0.6c-0.1,0.2-0.1,0.4,0,0.6c0,0.2,0.1,0.4,0.2,0.6c0.1,0.2,0.3,0.4,0.4,0.5c0.2,0.1,0.4,0.2,0.6,0.3s0.4,0.1,0.6,0
		c0.2,0,0.4-0.1,0.6-0.2l13.4-7.8c0.4-0.2,0.7-0.6,0.8-1C520.6,523.3,520.5,522.8,520.3,522.4L520.3,522.4z"/>
	<path class="st2" d="M543.3,532v30.4L477.5,602v18.5l-31.2,81.3v27.4"/>
	<path class="st0" d="M729.7,664.8c10.8,6.2,16.1,14.4,16.1,22.5s-5.3,16.1-15.9,22.2c-21.3,12.3-56.1,12.3-77.5-0.1L729.7,664.8z"
		/>
	<path class="st7" d="M661.4,668.1v35.3c21.5,12.4,56.2,12.5,77.5,0.1c10.6-6.1,15.9-14.2,15.9-22.3v-35.3L661.4,668.1z"/>
	<path class="st17" d="M719.2,710.9c6.9-1.4,13.6-3.8,19.8-7.3c10.6-6.1,15.9-14.2,15.9-22.3V646l-35.7,8.5"/>
	<path class="st2" d="M719.2,710.9c6.9-1.4,13.6-3.8,19.8-7.3c10.6-6.1,15.9-14.2,15.9-22.3V646l-35.7,8.5"/>
	<path class="st3" d="M738.7,623.5c10.8,6.2,16.2,14.4,16.2,22.5s-5.3,16.1-15.9,22.3c-21.3,12.3-56,12.3-77.5-0.1L738.7,623.5z"/>
	<path class="st2" d="M661.4,685.4c21.5,12.4,56.2,12.5,77.5,0.1c10.6-6.1,15.9-14.2,15.9-22.2"/>
	<path class="st22" d="M743.6,686.4c3.7-6.3,3.7-13.2,0-15.3s-9.6,1.3-13.3,7.6s-3.7,13.2,0,15.3
		C733.9,696.1,739.9,692.7,743.6,686.4z"/>
	<path d="M717.7,615v20.5l-8.5,4.9v-23.8"/>
	<path class="st2" d="M717.7,615v20.5l-8.5,4.9v-23.8"/>
	<path class="st7" d="M729.2,652c6.8,0,12.2-3.2,12.2-7.1c0-3.9-5.5-7-12.3-7s-12.2,3.2-12.2,7.1C716.9,648.9,722.4,652,729.2,652z"
		/>
	<path d="M717.7,635.5l16.5,6.5l-9.9,5l-15.1-6.5"/>
	<path class="st2" d="M717.7,635.5l16.5,6.5l-9.9,5l-15.1-6.5"/>
	<path class="st20" d="M729.6,648.4c3.7,0,6.8-1.2,6.8-5v-18.7c0-1.2-0.3-2.4-0.9-3.4c-0.6-1-1.5-1.9-2.5-2.5l-16.5-9.5
		c-3.2-1.9-5.8,0.1-7.7,3.4s-2.3,6.5,0.9,8.3l13.2,7.5v14.8C722.8,647.1,725.8,648.4,729.6,648.4z"/>
	<path class="st21" d="M716.9,612.6c0.2-0.4,0.6-0.7,1-0.8s0.9-0.1,1.2,0.2l13.4,7.8c0.4,0.2,0.7,0.6,0.8,1s0.1,0.9-0.2,1.2
		c-0.2,0.4-0.6,0.7-1,0.8s-0.9,0.1-1.2-0.2l-13.4-7.8c-0.2-0.1-0.4-0.2-0.5-0.4s-0.2-0.4-0.3-0.6c-0.1-0.2-0.1-0.4,0-0.6
		C716.7,613,716.8,612.8,716.9,612.6z"/>
	<path d="M688.4,632.3v20.5l-8.5,4.9v-23.8"/>
	<path class="st2" d="M688.4,632.3v20.5l-8.5,4.9v-23.8"/>
	<path class="st7" d="M699.9,669.2c6.8,0,12.2-3.2,12.2-7.1c0-3.9-5.5-7-12.3-7s-12.2,3.2-12.2,7.1S693.1,669.3,699.9,669.2z"/>
	<path d="M688.4,652.8l16.5,6.5l-9.9,5l-15.1-6.5"/>
	<path class="st2" d="M688.4,652.8l16.5,6.5l-9.9,5l-15.1-6.5"/>
	<path class="st20" d="M700.3,665.6c3.7,0,6.8-1.2,6.8-5v-18.7c0-1.2-0.3-2.4-0.9-3.4c-0.6-1-1.4-1.9-2.5-2.5l-16.5-9.5
		c-3.2-1.9-5.8,0.1-7.7,3.4c-1.9,3.2-2.3,6.5,0.9,8.3l13.2,7.6v14.8C693.5,664.4,696.6,665.6,700.3,665.6z"/>
	<path class="st21" d="M687.6,629.9c0.2-0.4,0.6-0.6,1-0.7c0.4-0.1,0.9,0,1.2,0.2l13.4,7.8c0.2,0.1,0.4,0.2,0.5,0.4s0.2,0.4,0.3,0.6
		c0.1,0.2,0.1,0.4,0,0.6c0,0.2-0.1,0.4-0.2,0.6c-0.1,0.2-0.3,0.4-0.4,0.5c-0.2,0.1-0.4,0.2-0.6,0.3c-0.2,0.1-0.4,0.1-0.6,0
		c-0.2,0-0.4-0.1-0.6-0.2l-13.4-7.7c-0.2-0.1-0.4-0.3-0.5-0.4c-0.1-0.2-0.2-0.4-0.3-0.6c-0.1-0.2-0.1-0.4,0-0.7
		S687.5,630,687.6,629.9L687.6,629.9z"/>
	<path class="st2" d="M720.9,234.4c-5-6.3-12-12.2-20.9-17.4c-40.2-23.2-105.1-23.3-145-0.3c-8.8,5-15.6,10.8-20.5,16.9h-9.3v253
		c0,15.2,10.1,30.5,30.3,42.1c40.2,23.2,105.1,23.3,145.1,0.3c19.9-11.5,29.8-26.5,29.8-41.6v-253L720.9,234.4L720.9,234.4z"/>
	<path class="st9" d="M631,536.5c-22.5,0-44-4.9-60.4-13.9c-19.5-10.6-30.2-25.8-30.2-42.8c0-4.2,1.7-8.3,4.7-11.3s7.1-4.7,11.3-4.7
		s8.3,1.7,11.3,4.7s4.7,7.1,4.7,11.3c0,9.8,23.3,24.7,58.5,24.7s58.5-14.9,58.5-24.7c0-4.2,1.7-8.3,4.7-11.3s7.1-4.7,11.3-4.7
		s8.3,1.7,11.3,4.7s4.7,7.1,4.7,11.3c0,17-10.7,32.2-30.2,42.8C674.9,531.6,653.5,536.5,631,536.5z"/>
	<path class="st23" d="M603.5,354c6.5,0,11.8-5.3,11.8-11.8s-5.3-11.8-11.8-11.8s-11.8,5.3-11.8,11.8C591.7,348.7,597,354,603.5,354
		z"/>
	<path class="st2" d="M610.2,335.8c-0.2,1.1-0.1,2.1,0.2,3.2c0.4,1,1,1.9,1.8,2.6"/>
	<path class="st20" d="M725.8,283.3c-0.7-4.6-2.6-9.3-6.4-12.2l-4-2.6c-3-1.4-6.3-2-9.6-1.7c-26,0.4-64.2,3.1-85.2,7.6
		c-12.7,2.7-25.6,5.6-37.7,10.6c-6.5,2.7-12.8,5.9-18.8,9.6c-6,3.8-11.5,8.3-16.4,13.4c-2.1,2.1-4.1,4.4-5.7,6.9
		c-2.4,3.6-4.8,7.2-6.2,11.3c-1,2.7-1.8,5.4-2.4,8.2c-0.4,2.8-0.6,5.6-0.6,8.4c-0.1,2.4,0.2,4.7,0.7,7c0.7,3.8,1.8,7.5,3.3,11.1
		c1.6,3.6,3.6,7.1,5.8,10.4c2.3,3.2,4.9,6.1,7.6,9c1.3,1.4,2.6,2.6,4,3.9c-1.1,2.5-1.9,5.1-2.5,7.7c-1,5.4-0.5,11,1.4,16.2
		c2.1,5.2,5.4,9.8,9.7,13.5c2.6,2.1,5.4,4.1,8.3,5.7c-2.2,1-4.3,2.1-6.4,3.3c-1.3,0.7-2.5,1.5-3.7,2.5c-1.7,1.4-3.3,2.8-4.8,4.4
		c-0.5,0.5-0.9,1-1.3,1.5c-2.6,3.4-4.5,7.4-5.4,11.5c-0.1,0.6-0.2,1.1-0.2,1.7c-0.2,2.2-0.2,4.4,0,6.5c0.3,1.8,0.7,3.5,1.2,5.2
		c0.1,0.4,0.2,0.7,0.4,1.1c0.7,1.6,1.6,3.2,2.5,4.7c0.2,0.3,0.4,0.6,0.6,0.9c1.3,1.7,2.7,3.2,4.2,4.7c0.5,0.5,1.1,1,1.7,1.5
		c2.3,1.7,4.8,3.2,7.3,4.5c3.2,1.6,6.6,2.9,10,4.2c7.1,2.8,14.4,5.4,21.7,7.8c16,5.1,32.4,9.2,48.7,13.4l5.7,1.5
		c4.8,0.6,9.6-0.5,13.7-3.1c3.8-2.9,6.5-7.1,7.5-11.9c0.6-4.7-0.1-9.8-3.1-13.7l-3.2-3.5c-2.5-2.1-5.5-3.5-8.7-4
		c-15.3-3.9-30.8-7.6-45.9-12.2c-3.3-1.1-6.6-2.2-9.9-3.4c13.6-2.9,27.4-5.2,41.3-6.8c5,0.2,9.9,0.2,14.9-0.1
		c5.9-0.4,11.7-1.1,17.5-2.3c3.6-0.3,7-1.7,9.7-4c2.8-2.3,4.8-5.4,5.7-8.8c1-2.3,1.3-4.8,0.9-7.2c-0.7-4.6-2.6-9.3-6.4-12.2l-4-2.6
		c-3-1.4-6.3-2-9.6-1.6c-10.4,0.4-20.8,1.2-31.1,2.3c-1.7-0.1-3.5-0.3-5.2-0.5c7.4,0,14.8-0.6,22.1-1.9c12.1-2,23.9-5.7,34.9-10.9
		c3.8-1.8,7.4-3.7,11-5.9c3.7-2.4,7-5.2,10-8.4c1.7-2,3.3-4.2,4.6-6.6c1.4-2.6,2.5-5.3,3.1-8.2c1.5-5.2,0.8-11.2-1-16.3
		c-2.8-8.2-9.9-14.6-17.6-18.2c-5.8-2.5-11.9-4.1-18.1-4.8c-6.9-0.8-13.9-1.2-20.9-1.1c-5.5,0-10.9,0.3-16.3,1
		c-24.7,3.1-48.2,11.9-68.8,25.9c-0.3,0.2-0.5,0.4-0.8,0.6c-1.6-1.3-3.1-2.7-4.5-4.2c-1.5-1.8-2.9-3.7-4.1-5.8
		c-0.5-1.1-1-2.3-1.3-3.5c-0.1-0.8-0.2-1.6-0.2-2.4c0.1-0.6,0.2-1.3,0.3-1.9c0.4-1,0.8-1.9,1.3-2.8c1.5-2.1,3.2-4,5.1-5.8
		c3.8-3.2,7.9-6,12.2-8.5c9.8-4.7,20.1-8.3,30.6-10.8c15-3.4,46.8-7.7,62.9-8.1c9.1-0.2,18.2-0.4,27.3-0.5c3.6-0.3,7-1.7,9.8-4
		s4.8-5.4,5.8-8.8C725.8,288.2,726.1,285.7,725.8,283.3L725.8,283.3z M672.8,366.6c1.7,0.1,3.4,0.2,5.1,0.4
		c-5.8,2.6-11.9,4.7-18.1,6.2c-8.9,1.9-17.9,2.7-27,2.6c-2.9-0.2-5.7-0.4-8.6-0.8c5.5-2.2,11.1-4,16.8-5.4
		C651.5,367.4,662.1,366.4,672.8,366.6L672.8,366.6z"/>
	<path class="st24" d="M574.8,468.2c0,9.8,23.3,24.7,58.5,24.7s58.5-14.9,58.5-24.7c0-8.8-1.5-29.2,7.3-29.2
		c13.4,0,24.7,20.4,24.7,29.2c0,17-10.7,32.2-30.2,42.8c-16.4,9-37.8,13.9-60.4,13.9s-44-4.9-60.3-13.9
		c-19.5-10.6-41.7-29.1-23.5-58.8"/>
	<path class="st2" d="M574.8,468.2c0,9.8,23.3,24.7,58.5,24.7s58.5-14.9,58.5-24.7c0-8.8-1.5-29.2,7.3-29.2
		c13.4,0,24.7,20.4,24.7,29.2c0,17-10.7,32.2-30.2,42.8c-16.4,9-37.8,13.9-60.4,13.9s-44-4.9-60.3-13.9
		c-19.5-10.6-41.7-29.1-23.5-58.8"/>
	<path class="st23" d="M583.6,484.2c6.5,0,11.8-5.3,11.8-11.8s-5.3-11.8-11.8-11.8s-11.8,5.3-11.8,11.8S577.1,484.2,583.6,484.2z"/>
	<path class="st25" d="M582.1,463.3c0.8,0.8,1.7,1.3,2.8,1.6s2.1,0.2,3.2-0.1"/>
	<path class="st2" d="M582.1,463.3c0.8,0.8,1.7,1.3,2.8,1.6s2.1,0.2,3.2-0.1"/>
	<path class="st26" d="M622.7,361.4c0,0-16.2-4.9-21.4,3.6s5.5,44.1,24.9,42.9s30-33.7,23.2-41.8c-6.8-8-15.1-8.8-21-4.8"/>
	<path class="st2" d="M622.7,361.4c0,0-16.2-4.9-21.4,3.6s5.5,44.1,24.9,42.9s30-33.7,23.2-41.8c-6.8-8-15.1-8.8-21-4.8"/>
	<path class="st7" d="M607.1,357.7l6.6,3.8c-1.2,2.6-3.2,4.8-5.8,6.1c-1.2,0.7,3.8,1.9,7,1.3s5.5-1.1,6.9-0.4s2.2,8.1,4.9,7.9
		s2.3-9.5,3.8-9.8s10.5,0.2,12.7,0.6c2.1,0.4-0.4-2.9-4.1-5l-3.8-2c0,0,5.1-5.1,2.6-5.3c-2.5-0.2-11.7,4.1-14,4.1s-1.6-1.8-8.4-2.5
		C610.5,356,606.3,356.6,607.1,357.7z"/>
	<path class="st7" d="M626,362c0-2.3-0.5-4.6-1.5-6.6c-1-2.1-2.4-3.9-4.2-5.4c-1.1-0.9-2.6,0.7-1.5,1.6c1.6,1.3,2.8,2.9,3.6,4.7
		c0.8,1.8,1.3,3.8,1.3,5.8c0,0.2,0,0.3,0.1,0.4s0.1,0.3,0.3,0.4c0.1,0.1,0.2,0.2,0.4,0.2c0.1,0.1,0.3,0.1,0.4,0.1s0.3,0,0.4-0.1
		c0.1-0.1,0.3-0.2,0.3-0.3c0.1-0.1,0.2-0.3,0.2-0.4C626.1,362.3,626.1,362.2,626,362L626,362z"/>
	<path class="st9" d="M615.2,375.9c0.6,0,1.1-0.5,1.1-1.1s-0.5-1.1-1.1-1.1s-1.1,0.5-1.1,1.1S614.6,375.9,615.2,375.9z"/>
	<path class="st9" d="M608.9,390.2c0.6,0,1.1-0.5,1.1-1.1s-0.5-1.1-1.1-1.1s-1.1,0.5-1.1,1.1S608.3,390.2,608.9,390.2z"/>
	<path class="st9" d="M627.3,401.1c0.6,0,1.1-0.5,1.1-1.1s-0.5-1.1-1.1-1.1s-1.1,0.5-1.1,1.1S626.7,401.1,627.3,401.1z"/>
	<path class="st9" d="M642.8,386.2c0.6,0,1.1-0.5,1.1-1.1s-0.5-1.1-1.1-1.1s-1.1,0.5-1.1,1.1S642.2,386.2,642.8,386.2z"/>
	<path class="st24" d="M574.8,422.9c0,9.8,23.3,24.7,58.5,24.7s58.5-14.9,58.5-24.7c0-8.8,5-23.7,13.8-24.6
		c11.1-1.1,18.2,15.8,18.2,24.6c0,17-10.7,32.2-30.2,42.8c-16.4,9-37.8,13.9-60.4,13.9s-44-4.9-60.3-13.9
		c-19.5-10.6-42.7-34.3-21-62.4"/>
	<path class="st2" d="M574.8,422.9c0,9.8,23.3,24.7,58.5,24.7s58.5-14.9,58.5-24.7c0-8.8,5-23.7,13.8-24.6
		c11.1-1.1,18.2,15.8,18.2,24.6c0,17-10.7,32.2-30.2,42.8c-16.4,9-37.8,13.9-60.4,13.9s-44-4.9-60.3-13.9
		c-19.5-10.6-42.7-34.3-21-62.4"/>
	<path class="st24" d="M573.4,376.6c0,9.8,23.3,24.7,58.5,24.7s58.5-14.9,58.5-24.7c0-4.2,1.7-8.3,4.7-11.3s7.1-4.7,11.3-4.7
		s8.3,1.7,11.3,4.7s4.7,7.1,4.7,11.3c0,17-10.7,32.2-30.1,42.8c-16.4,9-37.8,13.9-60.4,13.9c-22.5,0-44-4.9-60.3-13.9
		c-19.5-10.6-42.7-34.3-21-62.4"/>
	<path class="st2" d="M573.4,376.6c0,9.8,23.3,24.7,58.5,24.7s58.5-14.9,58.5-24.7c0-4.2,1.7-8.3,4.7-11.3s7.1-4.7,11.3-4.7
		s8.3,1.7,11.3,4.7s4.7,7.1,4.7,11.3c0,17-10.7,32.2-30.1,42.8c-16.4,9-37.8,13.9-60.4,13.9c-22.5,0-44-4.9-60.3-13.9
		c-19.5-10.6-42.7-34.3-21-62.4"/>
	<path class="st15" d="M645.9,343.7c6.5,0,11.8-5.3,11.8-11.8s-5.3-11.8-11.8-11.8s-11.8,5.3-11.8,11.8
		C634.1,338.5,639.4,343.7,645.9,343.7z"/>
	<path class="st2" d="M644.4,322.8c0.8,0.8,1.7,1.3,2.7,1.6s2.1,0.2,3.2-0.1"/>
	<path class="st15" d="M677.9,488.1c6.5,0,11.8-5.3,11.8-11.8s-5.3-11.8-11.8-11.8s-11.8,5.3-11.8,11.8S671.4,488.1,677.9,488.1z"/>
	<path class="st15" d="M561.2,307.5c6.5,0,11.8-5.3,11.8-11.8s-5.3-11.8-11.8-11.8s-11.8,5.3-11.8,11.8
		C549.4,302.2,554.7,307.5,561.2,307.5z"/>
	<path class="st2" d="M559.7,286.5c0.8,0.8,1.7,1.3,2.8,1.6c1,0.3,2.1,0.2,3.2-0.1"/>
	<path class="st15" d="M702.9,376.1c6.5,0,11.8-5.3,11.8-11.8s-5.3-11.8-11.8-11.8s-11.8,5.3-11.8,11.8S696.4,376.1,702.9,376.1z"/>
	<path class="st27" d="M574.3,434.2c6.5,0,11.8-5.3,11.8-11.8s-5.3-11.8-11.8-11.8s-11.8,5.3-11.8,11.8
		C562.6,429,567.8,434.2,574.3,434.2z"/>
	<path class="st25" d="M565.9,418.6c1.1-0.2,2-0.7,2.8-1.4c0.8-0.7,1.4-1.6,1.7-2.7"/>
	<path class="st2" d="M565.9,418.6c1.1-0.2,2-0.7,2.8-1.4c0.8-0.7,1.4-1.6,1.7-2.7"/>
	<path class="st23" d="M645.9,443.2c6.5,0,11.8-5.3,11.8-11.8s-5.3-11.8-11.8-11.8s-11.8,5.3-11.8,11.8S639.4,443.2,645.9,443.2z"/>
	<path class="st26" d="M606.2,257.4c0,0-16.5-3.6-21.1,5.3c-4.6,8.8,8.9,43.5,28.2,40.8s27.2-36,19.8-43.5
		c-7.4-7.5-15.7-7.6-21.3-3.1"/>
	<path class="st2" d="M606.2,257.4c0,0-16.5-3.6-21.1,5.3c-4.6,8.8,8.9,43.5,28.2,40.8s27.2-36,19.8-43.5
		c-7.4-7.5-15.7-7.6-21.3-3.1"/>
	<path class="st28" d="M590.4,255l6.9,3.3c-1,2.7-2.9,5-5.3,6.6c-1.2,0.8,3.9,1.6,7,0.7c3.2-0.9,5.4-1.5,6.8-0.9s2.8,7.9,5.5,7.5
		c2.6-0.4,1.6-9.7,3-10.1c1.4-0.4,10.5-0.6,12.7-0.4s-0.6-2.8-4.5-4.6l-3.9-1.8c0,0,4.7-5.5,2.2-5.5c-2.5-0.1-11.3,5-13.6,5.2
		s-1.7-1.7-8.5-1.8C593.6,253,589.5,253.9,590.4,255z"/>
	<path class="st28" d="M609.6,257.7c-0.2-2.3-0.9-4.5-2-6.5s-2.7-3.7-4.6-5c-1.2-0.8-2.5,0.9-1.3,1.8c1.6,1.1,3,2.7,4,4.4
		s1.6,3.7,1.7,5.7c0,0.3,0.2,0.6,0.4,0.7c0.2,0.2,0.5,0.3,0.8,0.2c0.3,0,0.6-0.2,0.7-0.4C609.6,258.3,609.6,258,609.6,257.7z"/>
	<path class="st9" d="M599.8,272.4c0.6,0,1.1-0.5,1.1-1.1s-0.5-1.1-1.1-1.1s-1.1,0.5-1.1,1.1S599.2,272.4,599.8,272.4z"/>
	<path class="st9" d="M594.6,287.2c0.6,0,1.1-0.5,1.1-1.1s-0.5-1.1-1.1-1.1s-1.1,0.5-1.1,1.1S594,287.2,594.6,287.2z"/>
	<path class="st9" d="M613.9,296.6c0.6,0,1.1-0.5,1.1-1.1s-0.5-1.1-1.1-1.1s-1.1,0.5-1.1,1.1S613.3,296.6,613.9,296.6z"/>
	<path class="st9" d="M628.1,280.5c0.6,0,1.1-0.5,1.1-1.1s-0.5-1.1-1.1-1.1s-1.1,0.5-1.1,1.1S627.5,280.5,628.1,280.5z"/>
	<path class="st18" d="M730.2,163.8V191c0,15.1-9.9,30.1-29.8,41.6c-21.8,12.6-51,18.2-79.6,17.1c-23.8-1-47.2-6.8-65.5-17.3
		c-20.2-11.6-30.3-26.9-30.3-42.1v-27.2h9.3c4.9-6.1,11.7-11.9,20.5-16.9C593.3,124,655,123.3,695.4,144c1.5,0.8,3,1.6,4.5,2.4
		c9,5.2,15.9,11.1,20.9,17.3L730.2,163.8z"/>
	<path class="st19" d="M636.7,196.9l-15.9-53h74.6c1.5,0.8,3,1.6,4.5,2.4c9,5.2,15.9,11.1,20.9,17.4h9.3v27.2
		c0,15.1-9.9,30.1-29.8,41.6c-21.8,12.6-51,18.2-79.6,17.1v-0.5h16"/>
	<path class="st2" d="M636.7,196.9l-15.9-53h74.6c1.5,0.8,3,1.6,4.5,2.4c9,5.2,15.9,11.1,20.9,17.4h9.3v27.2
		c0,15.1-9.9,30.1-29.8,41.6c-21.8,12.6-51,18.2-79.6,17.1v-0.5h16"/>
	<path class="st3" d="M730.2,162.6c0,4.6-0.9,9.2-2.7,13.5c-3,7.4-8.5,14.5-16.5,20.9c-3.4,2.7-6.9,5.1-10.6,7.2
		c-39.9,23.1-104.9,22.9-145.1-0.3C535.1,192.3,525,177,525,161.8c0-14.8,9.5-29.5,28.6-40.9c0.4-0.2,0.8-0.5,1.2-0.7
		c9.5-5.4,19.7-9.4,30.2-12.1c37.7-9.8,83.7-5.6,114.8,12.3C720.1,132.1,730.2,147.4,730.2,162.6z"/>
	<path class="st18" d="M741.2,190.1v27.4c0,16.7-11,33.4-33,46.1c-9.8,5.6-20.2,9.8-31.1,12.8c-18.3,4.9-37.3,7-56.3,6.2
		c-26.6-1-52.8-7.4-73.2-19.2c-22.4-12.9-33.5-29.8-33.5-46.6v-27.5h10.3l0.5-0.6c0.3,15,10.4,30,30.3,41.4
		c40.2,23.2,105.3,23.4,145.3,0.3c19.6-11.3,29.5-26.1,29.8-41c0.2,0.2,0.3,0.4,0.5,0.6L741.2,190.1L741.2,190.1z"/>
	<path class="st19" d="M641.1,251.9l32.8-3.3l3.1,27.7c-11.8,3.2-23.8,5.2-36,5.9"/>
	<path class="st2" d="M641.1,251.9l32.8-3.3l3.1,27.7c-11.8,3.2-23.8,5.2-36,5.9"/>
	<path class="st2" d="M741.2,190.1v27.4c0,16.7-11,33.4-33,46.1c-9.8,5.6-20.2,9.8-31.1,12.8c-18.3,4.9-37.3,7-56.3,6.2
		c-26.6-1-52.8-7.4-73.2-19.2c-22.4-12.9-33.5-29.8-33.5-46.6v-27.5h10.3l0.5-0.6c0.3,15,10.4,30,30.3,41.4
		c40.2,23.2,105.3,23.4,145.3,0.3c19.6-11.3,29.5-26.1,29.8-41c0.2,0.2,0.3,0.4,0.5,0.6L741.2,190.1L741.2,190.1z"/>
	<path class="st3" d="M730.4,160.7v27.9c0,0.3,0,0.5,0,0.8c-0.3,14.9-10.3,29.6-29.9,41c-40,23.1-105.1,23-145.3-0.3
		c-19.9-11.5-30-26.4-30.3-41.4c0-0.2,0-0.5,0-0.8s0-0.5,0-0.7v-27.3c-7.2,8.8-10.8,18.4-10.8,27.9c0,0.5,0,0.9,0,1.4
		c0.6,16.4,11.7,32.7,33.5,45.3c44.5,25.7,116.4,25.8,160.6,0.3c21.4-12.4,32.4-28.5,33-44.8c0-0.4,0-0.9,0-1.3
		C741.2,179.2,737.6,169.6,730.4,160.7z"/>
	<path class="st23" d="M735.7,201.9v103.2c-0.1,0.8-0.3,1.5-0.8,2.2c-0.4,0.6-1.1,1.2-1.8,1.5l-43.9,25.4c-2,1-4.3,1.5-6.5,1.4
		c-2.8,0-5.5-0.7-8-2.1l-9.3-5.3v-49.1c2-0.4,8.6-2,8.6-2v-28.5l-8.6-5V225l9.3,3.6l8-3.5L735.7,201.9z"/>
	<path class="st19" d="M682.7,225.1l53-23.2v103.2c-0.1,0.8-0.3,1.5-0.8,2.2c-0.4,0.6-1.1,1.2-1.8,1.5l-43.9,25.4
		c-2,1-4.3,1.5-6.5,1.4"/>
	<path class="st2" d="M682.7,225.1l53-23.2v103.2c-0.1,0.8-0.3,1.5-0.8,2.2c-0.4,0.6-1.1,1.2-1.8,1.5l-43.9,25.4
		c-2,1-4.3,1.5-6.5,1.4"/>
	<path class="st23" d="M735.7,201.9c-0.1,0.8-0.3,1.5-0.8,2.2c-0.4,0.6-1.1,1.2-1.8,1.5l-10.2,5.9L689.2,231
		c-3.8,2.2-10.3,1.9-14.6-0.6l-5.2-3l-4-2.3l0.2-0.1c12.2-2.6,23.9-7.1,34.8-13.2C710.5,206,718,199.2,723,192h0.1l3.8,2.2l5.2,3
		C734.5,198.5,735.7,200.3,735.7,201.9z"/>
	<path class="st9" d="M732.4,299.8l-39.9,23v-82.9l39.9-23V299.8z"/>
	<path class="st23" d="M732.4,217v82.9l-39.9,23v-4.7l36.3-20.9v-78.2L732.4,217z"/>
	<path class="st20" d="M719.4,259.8l-1.8,1v-6.4c0-3.3-2.1-4.8-4.8-3.3l-3.4,2c-2.6,1.5-4.8,5.4-4.8,8.8v6.4l-1.9,1.1
		c-0.6,0.4-1.1,1-1.4,1.6c-0.3,0.6-0.5,1.4-0.6,2.1v15.1c0,1.4,0.9,2.1,2,1.5l16.7-9.7c0.6-0.4,1.1-1,1.4-1.6
		c0.3-0.6,0.5-1.4,0.5-2.1v-15C721.3,259.8,720.5,259.2,719.4,259.8z M708.2,259.9c0-0.5,0.1-0.9,0.3-1.4c0.2-0.4,0.5-0.8,0.9-1.1
		l3.4-2c0.6-0.4,1.1,0.2,1.1,1.2v6.4l-5.7,3.3V259.9z M712,278.7c0,0.4-0.1,0.8-0.3,1.2c-0.2,0.4-0.5,0.7-0.8,0.9l-0.2,0.1
		c-0.6,0.3-1.1,0-1.1-0.8v-7.5c0-0.4,0.1-0.8,0.3-1.2c0.2-0.4,0.5-0.7,0.8-0.9l0.2-0.1c0.6-0.3,1.1,0,1.1,0.8V278.7z"/>
	<path class="st17" d="M735.7,201.9c0-1.6-1.2-3.4-3.6-4.8l-5.2-3l-1.6-0.9l-2.2-1.3H723c-5,7.2-12.5,14-22.6,19.8
		c-10.9,6.1-22.6,10.5-34.8,13.2l-0.2,0.1l4,2.3"/>
	<path class="st2" d="M735.7,201.9c0-1.6-1.2-3.4-3.6-4.8l-5.2-3l-1.6-0.9l-2.2-1.3H723c-5,7.2-12.5,14-22.6,19.8
		c-10.9,6.1-22.6,10.5-34.8,13.2l-0.2,0.1l4,2.3"/>
	<path class="st29" d="M552.6,359.6c2.7,2,5,5.7,5,8.3v96.2c0,2.6-2.2,3.1-5,1.1c-2.7-2-4.9-5.7-4.9-8.3v-96.2
		C547.6,358.1,549.9,357.6,552.6,359.6z"/>
	<path class="st29" d="M552.6,276.9c2.7,2,5,5.7,5,8.3v63.3c0,2.6-2.2,3.1-5,1.1c-2.7-2-4.9-5.7-4.9-8.3V278
		C547.6,275.4,549.9,274.9,552.6,276.9z"/>
	<path d="M674,277.1l-8.6,18.6v-16.6L674,277.1z"/>
	<path class="st19" d="M662.2,125.4l21.9-12c5.3,1.9,10.4,4.2,15.3,7c4.1,2.3,8,5.1,11.6,8.2l-15.5,8.4c-0.1,0-0.1,0.1-0.2,0.1
		l-6.3,3.7c-0.2-3.9-2.9-7.8-8.1-10.8c-5.2-3-11.8-4.5-18.6-4.6L662.2,125.4L662.2,125.4z"/>
	<path class="st23" d="M715.8,144.4c3.1,5.2,4.8,11.2,4.8,17.2c0,14.4-9.6,27.9-27.1,38c-36.2,21-95.3,21-131.8,0
		c-17.8-10.2-27.6-23.9-27.7-38.4c0-14.5,9.6-27.9,27.1-38.1c36.2-21,95.3-21,131.8,0C703.5,129.3,711.2,136.5,715.8,144.4z"/>
	<path class="st19" d="M645.9,156.8l24-19.3l24.2,13.9c7.3,4.2,11.9,9.8,13.4,15.5c1.9,7-2.9,14.7-11.5,18.6L645.9,156.8z"/>
	<path class="st30" d="M646,150.3c-5.2-3-11.9-4.5-18.7-4.6l-0.1-23.1l23.4-1.9L654,138v23.1C653.8,157.2,651.1,153.3,646,150.3z"/>
	<path d="M650.9,120.5C650.9,120.6,650.9,120.6,650.9,120.5l3.4,17.4v23.2c0,0.1,0,0.2-0.1,0.2c-0.1,0.1-0.1,0.1-0.2,0.1
		c-0.1,0-0.2,0-0.2-0.1c-0.1-0.1-0.1-0.1-0.1-0.2c-0.2-4-3-7.7-7.9-10.5c-5-2.8-11.5-4.5-18.5-4.6h-0.1c0,0-0.1,0-0.1-0.1
		c0,0,0-0.1-0.1-0.1v-0.1v-23.1c0-0.1,0-0.2,0.1-0.2c0.1-0.1,0.1-0.1,0.2-0.1l23.4-1.9c0.1,0,0.1,0,0.2,0
		C650.8,120.4,650.9,120.5,650.9,120.5L650.9,120.5z M653.8,158.1V138l-3.3-17l-22.8,1.9v22.5c6.5,0,12.8,1.6,18.5,4.6
		C650,152.3,652.6,155.1,653.8,158.1z"/>
	<path class="st31" d="M627.3,122.6l20.1-11.7c0.4-0.2,0.9-0.5,1.3-0.7c5.9-3,11.1-3.3,14.8-1.2l26.7,15.3l-21.2,8.1l-2.2-1.8
		L654,138c0-0.5-0.1-1.1-0.2-1.6c-0.8-3.3-3.4-6.6-7.9-9.2C640.8,124.2,634.2,122.7,627.3,122.6L627.3,122.6L627.3,122.6
		L627.3,122.6L627.3,122.6z"/>
	<path d="M690.5,124.3c0,0.1,0,0.1,0,0.2s0,0.1-0.1,0.2l-0.1,0.1l-21.2,8c0,0-0.1,0-0.2,0s-0.1,0-0.2,0l-2.1-1.7l-12.5,7.3
		c0,0-0.1,0-0.2,0s-0.1,0-0.2,0l-0.1-0.1v-0.1c0-0.5-0.1-1-0.2-1.5c-0.8-3.4-3.4-6.5-7.7-9c-4.9-2.8-11.4-4.4-18.4-4.6
		c-0.1,0-0.1,0-0.2,0c-0.1,0-0.1,0-0.1-0.1c0,0-0.1,0-0.1-0.1c0,0,0-0.1-0.1-0.1c0-0.1,0-0.1,0-0.2s0.1-0.1,0.1-0.1l20.1-11.7
		c0.1,0,0.1,0,0.2,0c0.4-0.2,0.8-0.5,1.2-0.6c5.8-3,11.2-3.4,15.1-1.2l26.7,15.3C690.5,124.2,690.5,124.3,690.5,124.3L690.5,124.3z
		 M669.1,132.1l20.4-7.8l-26.1-15c-3.7-2.1-8.9-1.7-14.5,1.2c-0.4,0.2-0.9,0.4-1.3,0.7c-0.1,0-0.1,0-0.2,0l-19,11
		c6.2,0.1,12.3,1.7,17.7,4.6c4.4,2.6,7.2,5.8,8,9.4c0.1,0.4,0.1,0.8,0.2,1.1l12.3-7.1c0.1,0,0.1-0.1,0.2-0.1s0.1,0,0.2,0.1
		L669.1,132.1z"/>
	<path class="st32" d="M627.3,122.6l20.1-11.7l0.5-0.3l0.5-0.3h0.4c5.9-3,11.1-3.3,14.8-1.2l26.7,15.3l-21.2,8.1l-2.3-1.9l-6.2,3.6
		c-0.1,0-0.1,0.1-0.2,0.1l-6.3,3.6c-0.2-3.9-2.9-7.8-8.1-10.8c-5.2-3-11.8-4.5-18.6-4.6h-0.1h0.1h-0.1L627.3,122.6L627.3,122.6z"/>
	<path d="M690.5,124.3c0,0.1,0,0.1,0,0.2s0,0.1-0.1,0.2l-0.1,0.1l-21.2,8c0,0-0.1,0-0.2,0s-0.1,0-0.2,0l-2.1-1.7l-6,3.5
		c-0.1,0-0.1,0.1-0.2,0.1l-6.3,3.7c0,0-0.1,0-0.2,0s-0.1,0-0.2,0l-0.1-0.1v-0.1c-0.2-4-3-7.7-7.9-10.5s-11.4-4.4-18.4-4.6
		c-0.1,0-0.1,0-0.2,0c-0.1,0-0.1,0-0.1-0.1l-0.1-0.1c0,0,0-0.1-0.1-0.1c0-0.1,0-0.1,0-0.2s0.1-0.1,0.1-0.1l20.1-11.7
		c0.1,0,0.1,0,0.2,0l0.4-0.2l0.8-0.4c5.8-3,11.2-3.4,15.1-1.2l26.7,15.3C690.4,124.2,690.5,124.3,690.5,124.3L690.5,124.3z
		 M669.1,132.1l20.4-7.8l-26.1-15c-3.7-2.1-8.9-1.7-14.5,1.2l-0.8,0.4l-0.5,0.3c-0.1,0-0.1,0-0.2,0l-19,11
		c6.2,0.1,12.3,1.7,17.7,4.6c4.9,2.8,7.8,6.5,8.2,10.5l5.9-3.4c0.1-0.1,0.1-0.1,0.2-0.1l6.2-3.6c0.1,0,0.1-0.1,0.2-0.1
		s0.1,0,0.2,0.1L669.1,132.1z"/>
	<path class="st16" d="M627.6,122.5l20.1-11.7l0.5-0.3l0.5-0.3l0.3-0.2c4.8,0.3,9.4,1.6,13.6,3.8c4.6,2.6,6.9,6.1,6.9,9.6
		c0,3-1.7,5.9-5,8.4c-0.5,0.4-1.1,0.8-1.7,1.1c-0.6,0.4-1.2,0.7-1.9,1c-0.1,0-0.1,0.1-0.2,0.1l-6.3,3.7c-0.2-3.9-2.9-7.8-8.1-10.8
		C641,124.1,634.3,122.6,627.6,122.5L627.6,122.5L627.6,122.5z"/>
	<path d="M663.7,108.8l-0.3,0.5c-3.7-2.1-8.9-1.7-14.5,1.2l-0.8,0.4l-0.5,0.3l-0.3-0.5c0.2-0.1,0.3-0.2,0.5-0.3l0.8-0.4
		C654.4,107,659.8,106.6,663.7,108.8z"/>
	<path class="st31" d="M627.3,122.6l20.1-11.7h0.1"/>
	<path d="M647.6,110.7l-0.2,0.3l0.1,0.2l-20.1,11.7l-0.3-0.5l20.1-11.7c0.1,0,0.1,0,0.2,0S647.5,110.7,647.6,110.7L647.6,110.7z"/>
	<path class="st19" d="M654,160.9v-23.1l20-11.6c6.5-3.8,12.3-4.2,16.2-2c3.3,1.9,5.2,5.6,5.3,11v1.7L654,160.9z"/>
	<path d="M693.9,127.6c1.3,2.3,1.9,5,1.8,7.7v1.7c0,0.1,0,0.1,0,0.2l-0.1,0.1l-41.4,24c0,0-0.1,0-0.2,0s-0.1,0-0.2,0l-0.1-0.1
		c0,0,0-0.1,0-0.2v-23.1c0-0.1,0-0.1,0-0.2l0.1-0.1l20-11.6c6.3-3.7,12.3-4.4,16.5-2C691.8,124.8,693,126.1,693.9,127.6L693.9,127.6
		z M695.1,136.7v-1.5c0-5-1.8-8.9-5.1-10.7c-4-2.3-9.8-1.6-15.9,2L654.3,138v22.4L695.1,136.7z"/>
	<path class="st30" d="M653.5,138.7l29,5.3l-9.8,5.7L653.5,138.7z"/>
	<path class="st30" d="M578.1,148.8l36.2-29.3l11.6,3.2l0.1,23.1c-6.8,0.1-13.5,1.6-18.6,4.6s-7.8,6.9-7.9,10.8L578.1,148.8z"/>
	<path d="M626.2,122.5c0,0,0,0.1,0,0.2l0.1,23.1c0,0.1,0,0.2-0.1,0.2c-0.1,0.1-0.1,0.1-0.2,0.1c-7,0.1-13.6,1.7-18.5,4.6
		c-4.9,2.8-7.6,6.6-7.8,10.5c0,0.1,0,0.1-0.1,0.1s-0.1,0.1-0.1,0.1s-0.1,0-0.2,0s-0.1,0-0.2,0l-21.4-12.3l-0.1-0.1v-0.1
		c0-0.1,0-0.1,0-0.1l0.1-0.1l36.2-29.3h0.1h0.1l11.7,3.1c0,0,0.1,0,0.1,0.1C626.2,122.4,626.2,122.4,626.2,122.5L626.2,122.5z
		 M625.7,145.4l-0.1-22.5l-11.3-3.1l-35.8,28.9l20.6,11.8c0.3-4,3.2-7.7,8-10.5C612.1,147.2,618.8,145.5,625.7,145.4z"/>
	<path class="st3" d="M577.7,138.3c0,0,4,2.5,8.4-1.6l13.4,1.3c0.1-3.9,2.8-7.8,7.9-10.8c5.1-3,11.8-4.5,18.5-4.6h0.1l-14-8.1
		l-6-3.4c-6.5-3.7-12.3-4.2-16.2-1.9l-26.5,15.4L577.7,138.3z"/>
	<path class="st7" d="M599.5,161.1V138l-20-11.5c-6.5-3.7-12.3-4.2-16.2-1.9c-3.3,1.9-5.2,5.7-5.2,11v1.7L599.5,161.1z"/>
	<path class="st7" d="M603.2,161.4c0,3.5,2.3,7,6.9,9.6c9.2,5.3,24,5.3,33.1,0c4.5-2.6,6.8-6.1,6.8-9.5l-0.1-38.2l-46.8-0.1
		L603.2,161.4z"/>
	<path class="st3" d="M603.1,123.1c0-3.4,2.2-6.9,6.8-9.5c9.1-5.3,23.9-5.3,33.1,0c4.6,2.7,6.9,6.1,6.9,9.6s-2.2,6.9-6.8,9.5
		c-9.1,5.3-23.9,5.3-33.1,0C605.4,130.1,603.1,126.6,603.1,123.1z"/>
	<path class="st3" d="M654,138.8v0.8c-0.5,3.6-3.1,7.2-7.8,9.9c-5.1,3-11.9,4.5-18.6,4.6l14.4,14.6l27.1,32.4l26.5-15.4V184
		c0-11.8-9.7-27-21.5-33.8l-1.6-0.9l-0.1-0.1L654,138.8C654.1,138.7,654.1,138.7,654,138.8L654,138.8z"/>
	<path class="st7" d="M627.6,177.3v-23.1l20,11.5c11.9,6.8,21.5,21.9,21.5,33.8v1.7L627.6,177.3z"/>
	<path class="st3" d="M580.2,149.9l19.3-11.2v0.1v0.1c0.2,3.9,2.9,7.7,8,10.7s11.9,4.5,18.7,4.6l-10.3,9l-2.4,2l-7.6,9.5l-21,26.6
		l-26.7-15.4v-1.6c0-9.4,6-20.9,14.5-28.7c2.1-2,4.4-3.7,6.9-5.2L580.2,149.9L580.2,149.9z"/>
	<path class="st19" d="M565.9,165.8c8.3,4.8,23.5,13.5,32.8,18.8l-12.6,15.7L559.4,185v-1.7C559.4,176.9,561.7,170.7,565.9,165.8
		L565.9,165.8z"/>
	<path class="st10" d="M626.3,177.3v-23.1l-20,11.6c-11.8,6.9-21.4,22-21.4,33.9v1.7L626.3,177.3z"/>
	<path class="st23" d="M620.6,119.1c1.8-0.9,3.9-1.4,5.9-1.4s4.1,0.5,5.9,1.4c1.6,0.9,2.5,2.2,2.5,3.4c0,0.5-0.1,0.9-0.3,1.4
		c-0.5,0.9-1.2,1.5-2.1,2c-1.8,0.9-3.9,1.4-5.9,1.4s-4.1-0.5-5.9-1.4c-0.9-0.5-1.7-1.2-2.1-2.1c-0.2-0.4-0.3-0.9-0.3-1.3
		C618.2,121.3,619,120.1,620.6,119.1z"/>
	<path class="st3" d="M620.6,121.9c1.8-0.9,3.9-1.4,5.9-1.4s4.1,0.5,5.9,1.4c0.9,0.5,1.6,1.2,2.1,2.1c-0.5,0.9-1.2,1.5-2.1,2
		c-1.8,0.9-3.9,1.4-5.9,1.4s-4.1-0.5-5.9-1.4c-0.9-0.5-1.7-1.2-2.1-2.1C619,123,619.8,122.3,620.6,121.9L620.6,121.9z"/>
	<path class="st18" d="M441.3,483.1l23.9,67c0.3,0.8,0.3,1.7,0.2,2.5c-0.3,1.4-1.1,2.6-2.3,3.4c-1.2,0.8-2.6,1.2-4,1
		c-0.9-0.1-1.8-0.4-2.5-1s-1.3-1.3-1.6-2.2l-23.9-67c0.3,0.9,0.9,1.6,1.6,2.2s1.6,0.9,2.5,1c1.4,0.2,2.8-0.2,4-1s2-2,2.3-3.4
		C441.7,484.8,441.6,483.9,441.3,483.1L441.3,483.1z"/>
	<path d="M435.4,474.7c0.7,0.1,1.3,0.3,1.9,0.6c0.6,0.3,1.1,0.8,1.5,1.3s0.7,1.2,0.9,1.8c0.2,0.7,0.2,1.3,0.1,2
		c-0.3,1.4-1.1,2.6-2.3,3.4c-1.2,0.8-2.6,1.2-4,1c-0.7-0.1-1.3-0.3-1.9-0.6c-0.6-0.3-1.1-0.8-1.5-1.3s-0.7-1.2-0.9-1.8
		c-0.2-0.7-0.2-1.3-0.1-2c0.3-1.4,1.1-2.6,2.3-3.4C432.6,474.8,434,474.5,435.4,474.7L435.4,474.7z"/>
	<path d="M445.5,494.4l-5.9-16.6c0.3,0.8,0.4,1.7,0.2,2.5c-0.3,1.4-1.1,2.6-2.3,3.4c-1.2,0.8-2.6,1.2-4,1c-0.9-0.1-1.8-0.4-2.5-1
		s-1.3-1.3-1.6-2.2l6.2,17.1C439.2,498.4,442.8,496.9,445.5,494.4L445.5,494.4z"/>
	<path class="st3" d="M433,496.2c9.1,0,16.5-7.4,16.5-16.5s-7.4-16.5-16.5-16.5s-16.5,7.4-16.5,16.5S423.9,496.2,433,496.2z"/>
	<path class="st29" d="M429.4,477.3c2.8,0,5-2.2,5-5s-2.2-5-5-5s-5,2.2-5,5S426.6,477.3,429.4,477.3z"/>
	<path class="st23" d="M486.2,667.2c6.4-17.7-0.1-36.3-14.6-41.6c-14.5-5.2-31.4,4.9-37.8,22.6c-6.4,17.7,0.1,36.3,14.6,41.6
		S479.8,684.9,486.2,667.2z"/>
	<path class="st7" d="M482.5,668c5.3-14.5,0-29.8-11.9-34.2c-11.9-4.3-25.8,3.9-31.1,18.5c-5.3,14.5,0,29.8,11.9,34.2
		C463.2,690.8,477.2,682.5,482.5,668z"/>
	<path class="st18" d="M474.1,664c5.3-14.5,0-29.8-11.9-34.2c-11.9-4.3-25.8,3.9-31.1,18.5c-5.3,14.5,0,29.8,11.9,34.2
		C454.9,686.8,468.8,678.6,474.1,664z"/>
	<path class="st6" d="M915.7,781.3c29.5,0,53.4-13.8,53.4-30.8s-23.9-30.8-53.4-30.8s-53.4,13.8-53.4,30.8S886.2,781.3,915.7,781.3z
		"/>
	<path class="st33" d="M923.8,492.2c-37.8,0-68.5,30.4-68.5,68c0,21.8,30.7,39.5,68.5,39.5s68.5-17.7,68.5-39.5
		C992.3,522.6,961.6,492.2,923.8,492.2z"/>
	<path class="st3" d="M923.8,776.1c29.5,0,53.4-13.8,53.4-30.8s-23.9-30.8-53.4-30.8s-53.4,13.8-53.4,30.8
		C870.4,762.4,894.3,776.1,923.8,776.1z"/>
	<path class="st33" d="M1003.5,570.3c0-25.4-35.7-51.8-79.8-51.8s-79.8,26.4-79.8,51.8c0,7,2.8,13.7,7.6,19.7l18.7,149.5
		c0,17,23.9,30.8,53.4,30.8s53.4-13.8,53.4-30.8l19.9-151C1001.1,583.3,1003.4,576.9,1003.5,570.3L1003.5,570.3z"/>
	<path class="st24" d="M862.3,626.6l13.7,109c0,15.3,21.4,27.6,47.9,27.6s47.9-12.4,47.9-27.6l14.4-109H862.3z"/>
	<path class="st2" d="M923.8,708.8c16.4,0,31.1,4.3,40.9,11"/>
	<path class="st2" d="M850.8,583.2l19.6,156.4c0,17,23.9,30.8,53.4,30.8s53.4-13.8,53.4-30.8L998.6,577"/>
	<path class="st34" d="M924.2,660.8c34.2,0,61.9-15.7,61.9-35.1c0-19.4-27.7-35.1-61.9-35.1s-61.9,15.7-61.9,35.1
		S890,660.8,924.2,660.8z"/>
	<path class="st9" d="M996.5,577c-5.3,20.4-35.8,36-72.7,36c-35.5,0-65.2-14.5-72-33.9h-1.3c0,0.2,0,0.4-0.1,0.5l1.3,10.7
		c6.7,19.4,36.4,34,72.1,34c40.6,0,73.5-19,73.5-42.4c0-1.7-0.2-3.4-0.5-5L996.5,577z"/>
	<path class="st3" d="M1000.2,557.1c-3.4-22.6-36.3-40.4-76.4-40.4c-40.1,0-73,17.8-76.4,40.4c-2.2,4.1-3.3,8.6-3.4,13.2
		c0,25.4,35.7,46,79.8,46s79.8-20.6,79.8-46C1003.5,565.7,1002.3,561.2,1000.2,557.1L1000.2,557.1z M923.8,599.6
		c-37.8,0-68.5-17.7-68.5-39.5s30.7-39.5,68.5-39.5s68.5,17.7,68.5,39.5S961.6,599.6,923.8,599.6z"/>
	<path class="st2" d="M998.9,552.1c1,2.9,1.6,5.9,1.6,8.9c0,19.7-22.4,36.4-53.3,42.1c-7.7,1.4-15.5,2.1-23.3,2.1"/>
	<path class="st2" d="M856,581.7c-5.7-6.2-8.9-13.2-8.9-20.7c0-2.3,0.3-4.5,0.9-6.7"/>
	<path class="st2" d="M923.8,599.6c37.8,0,68.5-17.7,68.5-39.5s-30.7-39.5-68.5-39.5s-68.5,17.7-68.5,39.5S885.9,599.6,923.8,599.6z
		"/>
	<path class="st2" d="M923.8,492.2c-37.8,0-68.5,30.4-68.5,68c0,21.8,30.7,39.5,68.5,39.5s68.5-17.7,68.5-39.5
		C992.3,522.6,961.6,492.2,923.8,492.2z"/>
	<path class="st2" d="M923.8,514.1c8.5,0,15.4-4,15.4-8.9s-6.9-8.9-15.4-8.9s-15.3,4-15.3,8.9S915.3,514.1,923.8,514.1z"/>
	<path class="st25" d="M892.6,680.9c1.1-0.2,2-0.7,2.8-1.4s1.4-1.6,1.7-2.7"/>
	<path class="st2" d="M892.6,680.9c1.1-0.2,2-0.7,2.8-1.4s1.4-1.6,1.7-2.7"/>
	<path class="st25" d="M923.8,749.4c1.1-0.2,2-0.7,2.8-1.4s1.4-1.6,1.7-2.7"/>
	<path class="st2" d="M923.8,749.4c1.1-0.2,2-0.7,2.8-1.4s1.4-1.6,1.7-2.7"/>
	<path class="st4" d="M954.3,675.3l-0.2-0.2c-0.3-0.2-0.7-0.3-1.2-0.3c-0.4,0-0.8,0.2-1.1,0.4s-0.6,0.6-0.7,1
		c-0.1,0.4-0.1,0.8,0,1.2c0.8,2.4,2.4,4.4,4.5,5.8c1.3,0.8,2.7,1.4,4.2,1.8c0.4,0.1,0.7,0,1.1-0.1s0.6-0.3,0.9-0.6
		c0.2-0.3,0.4-0.6,0.4-1s0-0.7-0.2-1.1c-0.5-1-0.8-2.1-0.9-3.3c-0.1-0.4-0.3-0.8-0.6-1.2c-0.3-0.3-0.7-0.5-1.2-0.6
		C957.5,677,955.8,676.3,954.3,675.3L954.3,675.3z"/>
	<path class="st23" d="M911.7,738l0.3,0.1c0.4,0.1,0.8,0.1,1.2-0.1c0.4-0.1,0.7-0.4,1-0.7c0.2-0.3,0.4-0.7,0.4-1.2
		c0-0.4-0.1-0.8-0.4-1.1c-1.6-2-3.7-3.4-6.2-4c-1.5-0.4-3-0.5-4.5-0.3c-0.4,0.1-0.7,0.2-1,0.4s-0.5,0.5-0.6,0.9
		c-0.1,0.3-0.1,0.7-0.1,1.1c0.1,0.4,0.2,0.7,0.5,1c0.8,0.8,1.5,1.8,2,2.8c0.2,0.4,0.5,0.7,0.9,0.9s0.9,0.2,1.3,0.2
		C908.2,737.5,910,737.6,911.7,738L911.7,738z"/>
	<path class="st27" d="M892,669.3l0.3,0.1c0.4,0.1,0.8,0.1,1.2-0.1c0.4-0.1,0.7-0.4,1-0.7c0.2-0.3,0.4-0.7,0.4-1.2
		c0-0.4-0.1-0.8-0.4-1.1c-1.6-2-3.7-3.4-6.2-4c-1.5-0.4-3-0.5-4.5-0.3c-0.4,0.1-0.7,0.2-1,0.4s-0.5,0.5-0.6,0.9
		c-0.1,0.3-0.1,0.7-0.1,1.1c0.1,0.4,0.2,0.7,0.5,1c0.8,0.8,1.5,1.8,2,2.8c0.2,0.4,0.5,0.7,0.9,0.9s0.8,0.2,1.3,0.2
		C888.5,668.8,890.3,668.8,892,669.3z"/>
	<path class="st2" d="M920.1,692.3l4.5,2.7"/>
	<path class="st20" d="M762.1,500.2v94.1l-28.2-17.2c-2.8-1.6-6.1-2-9.2-1.2c-3.1,0.8-5.8,2.9-7.4,5.7c-1.6,2.8-2,6.1-1.2,9.2
		c0.8,3.1,2.9,5.8,5.7,7.4l46.4,27.6c1.9,1.1,4,1.6,6.1,1.6s4.2-0.6,6.1-1.6c1.8-1.1,3.4-2.6,4.4-4.5s1.6-4,1.6-6.1v-115
		L762.1,500.2L762.1,500.2z"/>
	<path class="st18" d="M757.5,523.3c0,2.5,1.6,4.9,4.9,6.8c6.5,3.7,16.9,3.7,23.4,0c3.2-1.9,4.8-4.3,4.8-6.7l-0.1-104.3h-33
		L757.5,523.3z"/>
	<path class="st19" d="M777.7,532.6c2.8-0.3,5.5-1.2,8-2.5c3.2-1.9,4.8-4.3,4.8-6.7l-0.1-104.3h-12.8"/>
	<path class="st2" d="M777.7,532.6c2.8-0.3,5.5-1.2,8-2.5c3.2-1.9,4.8-4.3,4.8-6.7l-0.1-104.3h-12.8"/>
	<path class="st9" d="M757.4,419c0-2.4,1.6-4.9,4.8-6.7c6.4-3.7,16.9-3.7,23.4,0c3.3,1.9,4.9,4.3,4.9,6.8s-1.6,4.9-4.8,6.7
		c-6.4,3.7-16.9,3.7-23.4,0C759.1,423.9,757.5,421.5,757.4,419z"/>
	<path class="st20" d="M923.1,357.6l-142.8-81.1c-1.8-1-3.9-1.6-6.1-1.6s-4.2,0.6-6,1.6s-3.4,2.6-4.4,4.4s-1.6,3.9-1.6,6.1v131.1
		c0.1,1.7,1.3,3.4,3.6,4.8c4.8,2.7,12.5,2.7,17.2,0c2.2-1.3,3.4-3,3.5-4.7V307.9l124.7,70.7c1.4,0.9,2.9,1.4,4.6,1.7
		c1.6,0.2,3.3,0.2,4.8-0.2c1.6-0.4,3.1-1.1,4.4-2.1c1.3-1,2.4-2.2,3.2-3.7c0.8-1.4,1.3-3,1.5-4.6s0-3.3-0.4-4.8
		c-0.5-1.6-1.2-3-2.3-4.3C925.8,359.4,924.5,358.3,923.1,357.6L923.1,357.6z"/>
	<path class="st21" d="M768.8,289.5h-0.5c-1.2,0-2.2,1-2.2,2.2v102.6c0,1.2,1,2.2,2.2,2.2h0.5c1.2,0,2.2-1,2.2-2.2V291.7
		C771,290.5,770,289.5,768.8,289.5z"/>
	<path class="st20" d="M908.8,383.3l7.4,120c0.1,0.7,0.3,1.3,0.7,1.9s0.9,1,1.5,1.3c1.7,0.8,3.5,1.3,5.4,1.3s3.7-0.4,5.4-1.3
		c0.6-0.3,1.1-0.7,1.5-1.3c0.4-0.5,0.6-1.2,0.7-1.8l7.4-120L908.8,383.3z"/>
	<path class="st34" d="M923.8,507.7c1.9,0,3.7-0.4,5.4-1.3c0.6-0.3,1.1-0.7,1.5-1.3c0.4-0.5,0.6-1.2,0.7-1.8l7.4-120h-15"/>
	<path class="st2" d="M923.8,507.7c1.9,0,3.7-0.4,5.4-1.3c0.6-0.3,1.1-0.7,1.5-1.3c0.4-0.5,0.6-1.2,0.7-1.8l7.4-120h-15"/>
	<path class="st7" d="M905.9,356.1v26.7c0,2.7,1.8,5.3,5.3,7.4c7,4,18.4,4.1,25.3,0c3.5-2,5.2-4.6,5.2-7.3v-26.6L905.9,356.1z"/>
	<path d="M931.5,374.7v17.6c1.7-0.4,3.4-1.1,5-2c3.5-2,5.2-4.6,5.2-7.3v-8.2L931.5,374.7z"/>
	<path class="st21" d="M941.7,356.3c0,2.6-1.7,5.3-5.2,7.3c-7,4-18.3,4-25.3-0.1c-3.5-2-5.3-4.6-5.3-7.3v-0.1c0-2.6,1.8-5.2,5.2-7.2
		c7-4,18.3-4,25.3,0.1C939.9,350.9,941.7,353.6,941.7,356.3L941.7,356.3z"/>
	<path class="st3" d="M939.7,366.8c-0.6-0.3-1.2-0.4-1.9-0.3c-0.6,0.1-1.2,0.3-1.8,0.7c-1.5,1-2.7,2.3-3.6,3.8
		c-0.9,1.5-1.4,3.3-1.5,5c-0.1,0.6,0,1.3,0.3,1.8c0.3,0.6,0.7,1.1,1.2,1.4l18.8,10.8l7.3-12.5L939.7,366.8z"/>
	<path class="st3" d="M965.9,374.3c0.3,0.8,0.2,1.7-0.1,2.5l-5.7,14.5c-0.3,0.8-0.9,1.5-1.6,1.9l-2.5,1.4l-2.2,4.7l-1.7,3.5l-7-4
		c-0.5-0.3-0.9-0.6-1.2-1.1l-3.7-5.3c-0.3-0.4-0.5-0.9-0.6-1.5c-0.1-0.7-0.1-1.4,0.2-2.1l5.7-14.5c0.3-0.8,0.9-1.5,1.6-1.9l9.6-5.6
		c0.6-0.3,1.2-0.5,1.9-0.5s1.3,0.2,1.9,0.5l7,4L965.9,374.3z"/>
	<path d="M953.8,399.3l-1.7,3.5l-7-4c-0.5-0.3-0.9-0.6-1.2-1.1l-3.7-5.3c-0.3-0.4-0.5-0.9-0.6-1.5C943.8,393.3,950,397,953.8,399.3z
		"/>
	<path class="st7" d="M967.5,371c-0.6-0.3-1.2-0.5-1.9-0.5s-1.3,0.2-1.9,0.5l-9.6,5.6c-0.7,0.4-1.3,1.1-1.6,1.9l-5.7,14.5
		c-0.2,0.6-0.3,1.2-0.2,1.8c0.1,0.6,0.3,1.2,0.7,1.7l3.7,5.3c0.3,0.4,0.7,0.8,1.2,1.1c0.6,0.3,1.2,0.5,1.9,0.5s1.3-0.2,1.9-0.5
		l9.6-5.6c0.7-0.4,1.3-1.1,1.6-1.9l5.6-14.5c0.2-0.6,0.3-1.2,0.2-1.8c-0.1-0.6-0.3-1.2-0.7-1.7l-3.7-5.3
		C968.3,371.6,967.9,371.2,967.5,371L967.5,371z"/>
	<path class="st23" d="M963.1,382.3c0.4,0.3,0.7,0.6,0.9,1s0.3,0.9,0.2,1.3c-0.1,1.3-0.4,2.5-1.1,3.6c-0.6,1.1-1.5,2-2.6,2.7
		c-0.4,0.3-0.8,0.4-1.3,0.5c-0.5,0-0.9,0-1.3-0.2c-0.4-0.3-0.7-0.6-0.9-1s-0.3-0.9-0.2-1.3c0.1-1.3,0.4-2.5,1.1-3.6
		c0.6-1.1,1.5-2,2.6-2.7c0.4-0.3,0.8-0.4,1.3-0.5C962.2,382,962.7,382.1,963.1,382.3L963.1,382.3z"/>
	<path class="st7" d="M898.4,347.3v7.2c0,3.8,2.5,7.5,7.5,10.4c9.9,5.7,26,5.8,35.9,0.1c4.9-2.8,7.4-6.6,7.4-10.3v-7.2L898.4,347.3z
		"/>
	<path class="st3" d="M949.1,347.5c0,3.7-2.5,7.5-7.4,10.3c-9.9,5.7-25.9,5.7-35.9-0.1c-4.9-2.9-7.4-6.6-7.5-10.3c0,0,0,0,0-0.1l0,0
		v-0.1c0-3.7,2.5-7.4,7.4-10.2c9.9-5.7,25.9-5.7,35.9,0.1C946.6,339.9,949.1,343.7,949.1,347.5L949.1,347.5z"/>
	<path class="st2" d="M777.7,311.8c0,0,0.8-8.2,8.7-3.7"/>
	<path class="st2" d="M750.2,597c0,0,11.9,3.9,11.9-2.6"/>
	<path class="st6" d="M627.4,796.1c27.1,0,49-10.8,49-24.2s-21.9-24.2-49-24.2s-49,10.8-49,24.2S600.3,796.1,627.4,796.1z"/>
	<path class="st12" d="M661.6,765.6c-6.2-9.9-24.8-17-46.8-17c-22.7,0-41.8,7.6-47.4,18h-1.6v6.2c0,13.4,21.9,24.2,49,24.2
		s49-10.8,49-24.2v-6.2L661.6,765.6z"/>
	<path class="st35" d="M614.8,796.9c27,0,49-10.8,49-24.2v-6.2l-2.2-1c-6.2-9.9-24.8-17-46.8-17"/>
	<path class="st2" d="M614.8,796.9c27,0,49-10.8,49-24.2v-6.2l-2.2-1c-6.2-9.9-24.8-17-46.8-17"/>
	<path class="st36" d="M570.9,783.4c-3.2-3.2-5-6.8-5-10.7v-6.2l5-2.3"/>
	<path class="st27" d="M570.9,783.4c-3.2-3.2-5-6.8-5-10.7v-6.2l5-2.3"/>
	<path class="st5" d="M614.8,790.8c27.1,0,49-10.8,49-24.2s-21.9-24.2-49-24.2s-49,10.8-49,24.2
		C565.8,779.9,587.7,790.8,614.8,790.8z"/>
	<path class="st37" d="M572.6,763.7c1-3.7,3.9-7,8.3-9.8c0.7-0.3,1.4-0.5,2.1-0.6c0.7,0,1.5,0.1,2.2,0.4l18.6,9.2
		c1.8,0.9,0.5,2.4-2,2.4h-26.4C573.8,765.3,572.4,764.6,572.6,763.7z M609,745.8c-6.8,0.4-13.5,1.8-19.9,4.1
		c-1.4,0.5-1.5,1.5-0.3,2.1l18.6,9.2c1.8,0.9,4.9,0.3,4.9-1v-13C612.3,746.3,610.8,745.7,609,745.8L609,745.8z M601.8,767.8h-26.3
		c-1.8,0-3.1,0.8-2.9,1.6c1,3.7,3.9,7,8.3,9.8c0.7,0.3,1.4,0.5,2.1,0.6c0.7,0,1.5-0.1,2.2-0.4l18.6-9.2
		C605.7,769.3,604.4,767.8,601.8,767.8L601.8,767.8z M617.3,747.1v13c0,1.3,3.1,1.9,4.9,1l18.6-9.2c1.2-0.6,1.1-1.6-0.3-2.1
		c-6.4-2.3-13.1-3.7-19.9-4.1C618.8,745.7,617.3,746.3,617.3,747.1L617.3,747.1z M625.7,770.2l18.6,9.2c0.7,0.3,1.4,0.4,2.2,0.4
		s1.5-0.2,2.1-0.6c4.3-2.8,7.3-6.2,8.3-9.8c0.2-0.9-1.1-1.6-2.9-1.6h-26.2C625.2,767.8,623.9,769.3,625.7,770.2L625.7,770.2z
		 M627.7,765.3h26.4c1.8,0,3.1-0.8,2.9-1.6c-1-3.7-3.9-7-8.3-9.8c-0.7-0.3-1.4-0.5-2.1-0.6s-1.5,0.1-2.2,0.4l-18.6,9.2
		C623.9,763.8,625.2,765.3,627.7,765.3L627.7,765.3z M607.4,771.9l-18.6,9.2c-1.2,0.6-1.1,1.6,0.3,2.1c6.4,2.3,13.1,3.7,19.9,4.1
		c1.7,0.1,3.3-0.5,3.3-1.4v-13C612.3,771.7,609.2,771.1,607.4,771.9L607.4,771.9z M617.3,772.9v13c0,0.9,1.6,1.5,3.3,1.4
		c6.8-0.4,13.5-1.7,20-4c1.4-0.5,1.5-1.5,0.3-2.1l-18.6-9.2C620.4,771.1,617.3,771.7,617.3,772.9L617.3,772.9z"/>
	<path class="st12" d="M669.2,750.7c-6.2-9.8-24.8-17-46.8-17c-22.7,0-41.8,7.6-47.4,18h-1.6v6.2c0,13.4,21.9,24.2,49,24.2
		s49-10.8,49-24.2v-6.2L669.2,750.7z"/>
	<path class="st35" d="M622.4,782c27,0,49-10.8,49-24.2v-6.2l-2.2-1c-6.2-9.8-24.8-17-46.8-17"/>
	<path class="st2" d="M622.4,782c27,0,49-10.8,49-24.2v-6.2l-2.2-1c-6.2-9.8-24.8-17-46.8-17"/>
	<path class="st36" d="M578.4,768.5c-3.2-3.2-5-6.8-5-10.7v-6.2l5-2.3"/>
	<path class="st2" d="M578.4,768.5c-3.2-3.2-5-6.8-5-10.7v-6.2l5-2.3"/>
	<path class="st5" d="M622.4,775.9c27.1,0,49-10.8,49-24.2s-21.9-24.2-49-24.2s-49,10.8-49,24.2S595.3,775.9,622.4,775.9z"/>
	<path class="st37" d="M580.2,748.8c1-3.7,3.9-7,8.3-9.8c0.7-0.3,1.4-0.5,2.1-0.6s1.5,0.1,2.2,0.4l18.6,9.2c1.8,0.9,0.5,2.4-2,2.4
		H583C581.3,750.5,580,749.7,580.2,748.8z M616.6,730.9c-6.8,0.4-13.5,1.8-19.9,4.1c-1.4,0.5-1.5,1.5-0.3,2.1l18.6,9.2
		c1.8,0.9,4.9,0.3,4.9-1v-13C619.9,731.4,618.3,730.8,616.6,730.9L616.6,730.9z M609.4,752.9h-26.3c-1.8,0-3.1,0.8-2.8,1.6
		c1,3.7,3.9,7,8.3,9.8c0.7,0.3,1.4,0.5,2.1,0.6c0.7,0,1.5-0.1,2.2-0.4l18.6-9.2C613.3,754.4,612,752.9,609.4,752.9L609.4,752.9z
		 M624.9,732.3v13c0,1.3,3.1,1.9,4.9,1l18.6-9.2c1.2-0.6,1.1-1.6-0.3-2.1c-6.4-2.3-13.1-3.7-19.9-4.1
		C626.4,730.8,624.9,731.4,624.9,732.3z M633.3,755.3l18.6,9.2c0.7,0.3,1.4,0.4,2.2,0.4c0.7,0,1.5-0.2,2.1-0.6
		c4.3-2.8,7.3-6.2,8.3-9.8c0.2-0.9-1.1-1.6-2.8-1.6h-26.3C632.8,752.9,631.5,754.4,633.3,755.3z M635.3,750.4h26.3
		c1.8,0,3.1-0.8,2.8-1.6c-1-3.7-3.9-7-8.3-9.8c-0.7-0.3-1.4-0.5-2.1-0.6c-0.7,0-1.5,0.1-2.2,0.4l-18.6,9.2
		C631.5,748.9,632.8,750.5,635.3,750.4L635.3,750.4z M614.9,757.1l-18.6,9.2c-1.2,0.6-1.1,1.6,0.3,2.1c6.4,2.3,13.1,3.7,19.9,4.1
		c1.7,0.1,3.3-0.5,3.3-1.4v-13C619.9,756.8,616.8,756.2,614.9,757.1L614.9,757.1z M624.8,758.1v13c0,0.9,1.6,1.5,3.3,1.4
		c6.8-0.4,13.5-1.8,19.9-4.1c1.4-0.5,1.5-1.5,0.3-2.1l-18.6-9.2C628,756.2,624.9,756.8,624.8,758.1L624.8,758.1z"/>
	<path class="st9" d="M573.7,748.9c5.7,10.2,24.7,17.7,47.2,17.7c25.1,0,45.8-9.3,48.7-21.4c-5.7-10.2-24.7-17.7-47.2-17.7
		C597.3,727.5,576.6,736.8,573.7,748.9z"/>
	<path class="st12" d="M664.1,733.9c-6.2-9.8-24.8-17-46.8-17c-22.7,0-41.8,7.6-47.4,18h-1.6v6.2c0,13.4,21.9,24.2,49,24.2
		s49-10.8,49-24.2v-6.2L664.1,733.9z"/>
	<path class="st35" d="M617.3,765.3c27,0,49-10.8,49-24.2v-6.2l-2.2-1c-6.2-9.8-24.8-17-46.8-17"/>
	<path class="st2" d="M617.3,765.3c27,0,49-10.8,49-24.2v-6.2l-2.2-1c-6.2-9.8-24.8-17-46.8-17"/>
	<path class="st26" d="M573.4,751.8c-3.2-3.2-5-6.8-5-10.7v-6.2l5-2.3"/>
	<path class="st2" d="M573.4,751.8c-3.2-3.2-5-6.8-5-10.7v-6.2l5-2.3"/>
	<path class="st5" d="M617.3,759.1c27.1,0,49-10.8,49-24.2s-21.9-24.2-49-24.2s-49,10.8-49,24.2S590.2,759.1,617.3,759.1z"/>
	<path class="st37" d="M575.1,732.1c1-3.7,3.9-7,8.3-9.8c0.7-0.3,1.4-0.5,2.1-0.6s1.5,0.1,2.2,0.4l18.6,9.2c1.8,0.9,0.5,2.4-2,2.4
		h-26.4C576.2,733.7,574.9,733,575.1,732.1z M611.5,714.1c-6.8,0.4-13.6,1.8-20,4.1c-1.4,0.5-1.5,1.5-0.3,2.1l18.6,9.2
		c1.8,0.9,4.9,0.3,4.9-1v-13C614.8,714.7,613.3,714,611.5,714.1L611.5,714.1z M604.3,736.1H578c-1.8,0-3.1,0.8-2.8,1.6
		c1,3.7,3.9,7,8.3,9.8c0.7,0.3,1.4,0.5,2.1,0.6s1.5-0.1,2.2-0.4l18.6-9.2C608.2,737.7,606.9,736.2,604.3,736.1L604.3,736.1z
		 M619.8,715.5v13c0,1.3,3.1,1.9,4.9,1l18.6-9.2c1.2-0.6,1.1-1.6-0.3-2.1c-6.4-2.3-13.1-3.7-19.9-4.1
		C621.3,714,619.8,714.7,619.8,715.5z M628.2,738.5l18.6,9.2c0.7,0.3,1.4,0.4,2.2,0.4s1.5-0.2,2.1-0.6c4.3-2.8,7.3-6.2,8.3-9.8
		c0.2-0.9-1.1-1.6-2.9-1.6h-26.3C627.7,736.2,626.4,737.7,628.2,738.5L628.2,738.5z M630.2,733.7h26.4c1.8,0,3.1-0.8,2.9-1.6
		c-1-3.7-3.9-7-8.3-9.8c-0.7-0.3-1.4-0.5-2.1-0.6c-0.7,0-1.5,0.1-2.2,0.4l-18.6,9.2C626.4,732.2,627.7,733.7,630.2,733.7
		L630.2,733.7z M609.9,740.3l-18.6,9.2c-1.2,0.6-1.1,1.6,0.3,2.1c6.4,2.3,13.2,3.7,20,4.1c1.7,0.1,3.3-0.5,3.3-1.4v-13
		C614.8,740.1,611.7,739.5,609.9,740.3z M619.8,741.3v13c0,0.9,1.5,1.5,3.3,1.4c6.8-0.4,13.5-1.8,19.9-4.1c1.4-0.5,1.5-1.5,0.3-2.1
		l-18.6-9.2C622.9,739.5,619.8,740.1,619.8,741.3z"/>
	<path class="st2" d="M694.5,360.4c1.1-0.2,2-0.7,2.8-1.4c0.8-0.7,1.4-1.6,1.7-2.7"/>
	<path class="st2" d="M637,434c0.7-0.8,1.1-1.8,1.3-2.9c0.1-1.1,0-2.2-0.4-3.1"/>
	<path class="st2" d="M676.4,467.2c0.8,0.8,1.7,1.3,2.7,1.6c1,0.3,2.1,0.2,3.2-0.1"/>
</g>
</svg>
