<svg id="Layer_1" data-name="Layer 1" xmlns="http://www.w3.org/2000/svg" viewBox="0 0 600 400"><defs><style>.cls-1{fill:#cdf4cd;}.cls-2{fill:none;}.cls-3{fill:#ffaa08;}.cls-4{fill:#026302;}.cls-5{fill:#9be89b;}.cls-6{fill:#68dd68;}.cls-7{fill:#039503;}.cls-8{fill:#04c604;}.cls-9{fill:#36d136;}.cls-10{fill:#212121;}</style></defs><title>IPO copy 2</title><rect class="cls-1" x="0.5" y="0.5" width="599" height="399"/><rect class="cls-2" x="383.76343" y="152.72957" width="5.52954" height="13.37115"/><path class="cls-2" d="M223.14258,338.66469v-.5h.56836V238.17586h-16.8501a18.0871,18.0871,0,0,1-7.06543,12.77253,25.07825,25.07825,0,0,1-6.95972,3.937,5.54191,5.54191,0,0,1-1.24951,3.40136,5.23886,5.23886,0,0,0,0,6.59137,5.73792,5.73792,0,0,1,0,7.16883,5.2417,5.2417,0,0,0,0,6.59338,5.73921,5.73921,0,0,1,0,7.16974,5.0039,5.0039,0,0,0-1.16626,3.297h-.5a5.51333,5.51333,0,0,1,1.25733-3.5849,5.24249,5.24249,0,0,0,0-6.59394,5.7386,5.7386,0,0,1,0-7.16931,5.24084,5.24084,0,0,0,0-6.59277,5.73591,5.73591,0,0,1,0-7.16742,5.02243,5.02243,0,0,0,1.1582-3.11914,25.08789,25.08789,0,0,1-6.94409-3.93121,18.08662,18.08662,0,0,1-7.06592-12.77253h-7.981V362.04653h27.89673c-3.071-3.25262-5.09155-9.09778-5.09473-15.78369v-.25h10.15137V328.73263a11.768,11.768,0,0,1-11.26123-14.35614l-.01733-.01746.02954-.02948a11.79238,11.79238,0,0,1,21.23364-4.04962l.05127-.05133.35376.35357-.13184.13184a11.77528,11.77528,0,0,1-9.75781,18.01862v17.28021h10.4978v.25c-.00317,6.68591-2.02368,12.53107-5.09472,15.78369h14.51V338.66469Z"/><path class="cls-2" d="M426.71753,351.86733h-.02075l-2.30689,10.1792h3.92993a1.385,1.385,0,0,1,1.00269-.5318Z"/><rect class="cls-2" x="389.79297" y="152.72957" width="5.67163" height="13.37115"/><path class="cls-3" d="M184.40479,249.42989a24.67663,24.67663,0,0,0,7.67382,4.82117c.2544.09863.42481.15832.5149.189.02246-.00763.04223-.01416.07568-.02594.10059-.0354.24951-.08935.43945-.163.38013-.1474.92456-.3736,1.57837-.6875a25.07239,25.07239,0,0,0,4.79566-3.00513,17.586,17.586,0,0,0,6.87573-12.38257H178.82715A17.19825,17.19825,0,0,0,184.40479,249.42989Z"/><path class="cls-4" d="M217.91113,152.33755c.00318-7.26844-5.1936-13.89966-13.6853-18.72461-7.62085-4.33014-17.87915-7.17719-29.29419-7.71381a63.687,63.687,0,0,1,23.52564,7.279c8.57543,4.87049,13.93481,11.6333,13.938,19.15937-.00317,7.526-5.36255,14.28881-13.938,19.1593a63.687,63.687,0,0,1-23.52564,7.27905c11.415-.53662,21.67334-3.38367,29.29419-7.71381C212.71753,166.23714,217.91431,159.60592,217.91113,152.33755Z"/><polygon class="cls-5" points="164.423 183.531 164.213 206.24 170.209 206.24 170.419 183.531 164.423 183.531"/><rect class="cls-5" x="163.84851" y="243.43569" width="5.99597" height="118.61084"/><polygon class="cls-4" points="223.711 232.707 184.281 232.707 184.281 211.709 223.711 211.709 223.711 206.74 178.508 206.74 178.508 237.676 223.711 237.676 223.711 232.707"/><path class="cls-6" d="M178.00781,237.67592l-.00049-30.9356H153.96167l.00024,30.9356h24.0459Zm-16.633-4.96881h-2.4441v-20.998h13.8584l.17676.0733.073.1767v20.498l-.073.1767-.17676.07324Z"/><path class="cls-7" d="M313.44434,72.16836a97.81876,97.81876,0,0,0-15.62647,4.53247,42.38764,42.38764,0,0,0-11.27051,28.59472h11.03809A42.9602,42.9602,0,0,1,313.44434,72.16836Z"/><path class="cls-7" d="M265.78906,74.12405q-.71265.65112-1.39721,1.332a42.41445,42.41445,0,0,0-12.45679,29.83947h11.03711a42.85123,42.85123,0,0,1,9.24951-26.4035A27.3773,27.3773,0,0,0,265.78906,74.12405Z"/><path class="cls-7" d="M279.08862,87.83919c-.13012.134-.18969.20124-.18994.20148l-.25439.28516a42.37667,42.37667,0,0,0-3.634,16.96972h11.03711A42.87336,42.87336,0,0,1,296.791,77.09933C285.46826,81.66244,280.12646,86.7734,279.08862,87.83919Z"/><path class="cls-7" d="M265.31689,73.88369a26.67542,26.67542,0,0,0-7.73388-2.5083,42.68017,42.68017,0,0,0-12.05689,13.887,42.35472,42.35472,0,0,0-5.12915,20.0332h11.03809A42.92813,42.92813,0,0,1,265.31689,73.88369Z"/><path class="cls-7" d="M278.21094,87.3467c-.18311-.3988-.46363-.97272-.85059-1.66919a30.78751,30.78751,0,0,0-3.67554-5.22687c-.34716-.398-.7207-.79876-1.1101-1.19891a42.35046,42.35046,0,0,0-9.10254,26.04382h11.03808a42.871,42.871,0,0,1,3.863-17.58355C278.3313,87.61416,278.28027,87.49752,278.21094,87.3467Z"/><polygon class="cls-1" points="209.863 232.207 211.41 232.207 209.863 230.66 209.863 232.207"/><polygon class="cls-1" points="201.224 222.02 201.224 225.375 204.578 225.375 201.224 222.02"/><polygon class="cls-1" points="205.078 225.875 201.224 225.875 201.224 232.207 209.363 232.207 209.363 230.16 205.078 225.875"/><polygon class="cls-1" points="223.711 212.544 223.711 212.209 223.376 212.209 223.711 212.544"/><polygon class="cls-1" points="223.711 222.524 223.711 219.042 220.228 219.042 223.711 222.524"/><polygon class="cls-1" points="218.004 212.209 213.396 212.209 218.004 216.817 218.004 212.209"/><polygon class="cls-1" points="192.083 212.88 191.413 212.209 184.781 212.209 184.781 218.542 192.083 218.542 192.083 212.88"/><polygon class="cls-1" points="192.583 219.042 192.583 225.375 200.724 225.375 200.724 221.52 198.245 219.042 192.583 219.042"/><polygon class="cls-1" points="192.583 213.38 192.583 218.542 197.745 218.542 192.583 213.38"/><polygon class="cls-1" points="218.504 212.209 218.504 217.317 219.728 218.542 223.711 218.542 223.711 213.251 222.669 212.209 218.504 212.209"/><rect class="cls-1" x="184.78125" y="219.04165" width="7.30176" height="6.33301"/><rect class="cls-1" x="192.58301" y="225.87466" width="8.14063" height="6.33252"/><rect class="cls-1" x="184.78137" y="225.87466" width="7.30164" height="6.33252"/><polygon class="cls-7" points="209.363 230.16 209.363 225.875 205.078 225.875 209.363 230.16"/><polygon class="cls-7" points="218.004 218.542 218.004 216.817 213.396 212.209 209.863 212.209 209.863 218.542 218.004 218.542"/><rect class="cls-7" x="209.86328" y="219.04165" width="8.14063" height="6.33301"/><polygon class="cls-7" points="219.728 218.542 218.504 217.317 218.504 218.542 219.728 218.542"/><rect class="cls-7" x="218.50391" y="225.87466" width="5.20703" height="6.33252"/><polygon class="cls-7" points="209.863 225.875 209.863 230.66 211.41 232.207 218.004 232.207 218.004 225.875 209.863 225.875"/><polygon class="cls-7" points="192.083 212.209 191.413 212.209 192.083 212.88 192.083 212.209"/><polygon class="cls-7" points="218.504 219.042 218.504 225.375 223.711 225.375 223.711 222.524 220.228 219.042 218.504 219.042"/><polygon class="cls-7" points="197.745 218.542 200.724 218.542 200.724 212.209 192.583 212.209 192.583 213.38 197.745 218.542"/><rect class="cls-7" x="201.22363" y="212.20907" width="8.13965" height="6.33258"/><polygon class="cls-7" points="201.224 222.02 204.578 225.375 209.363 225.375 209.363 219.042 201.224 219.042 201.224 222.02"/><polygon class="cls-7" points="200.724 221.52 200.724 219.042 198.245 219.042 200.724 221.52"/><polygon class="cls-8" points="222.669 212.209 223.711 213.251 223.711 212.544 223.376 212.209 222.669 212.209"/><polygon class="cls-4" points="326.023 206.24 326.023 201.35 332.907 201.35 332.907 195.648 339.792 195.648 339.792 189.945 346.677 189.945 346.677 184.242 353.562 184.242 353.562 178.54 360.445 178.54 360.445 172.367 366.817 172.367 366.817 166.601 356.051 166.601 356.051 166.63 327.575 166.63 327.575 166.601 325.997 166.601 325.747 166.601 312.949 166.601 312.949 206.24 326.023 206.24"/><polygon class="cls-4" points="387.117 311.566 387.117 317.22 387.117 317.47 380.477 317.47 380.477 322.855 380.477 323.105 373.838 323.105 373.838 328.489 373.838 328.739 367.575 328.739 367.575 362.047 395.465 362.047 395.465 311.566 387.117 311.566"/><polygon class="cls-4" points="336.23 295.402 335.817 295.402 335.169 299.835 337.079 299.835 336.23 295.402"/><polygon class="cls-4" points="387.366 172.867 380.995 172.867 380.995 178.779 380.995 179.029 373.639 179.029 373.639 184.482 373.639 184.732 367.225 184.732 367.225 190.185 367.225 190.435 360.341 190.435 360.341 195.887 360.341 196.137 353.457 196.137 353.457 201.59 353.457 201.84 346.572 201.84 346.572 206.24 395.464 206.24 395.464 166.601 387.366 166.601 387.366 172.617 387.366 172.867"/><polygon class="cls-4" points="395.465 272.53 387.117 272.53 387.117 277.831 387.117 278.081 380.404 278.081 380.404 283.392 380.404 283.642 373.69 283.642 373.69 288.953 373.69 289.203 367.575 289.203 367.575 311.066 395.465 311.066 395.465 272.53"/><path class="cls-4" d="M324.365,316.945a11.79163,11.79163,0,0,1-11.41577,11.78088v17.287h10.363v.25a31.903,31.903,0,0,1-.32471,4.52344h4.24v-5.63477h6.63965v-5.63428h6.16894v-5.63476h6.875v-5.63428h6.875v-5.63477h6.79395V311.56557h-37.521A11.73726,11.73726,0,0,1,324.365,316.945Z"/><polygon class="cls-4" points="353.918 345.393 353.918 345.643 347.278 345.643 347.278 351.027 347.278 351.277 340.638 351.277 340.638 356.662 340.638 356.912 333.998 356.912 333.998 362.047 360.58 362.047 360.58 340.008 353.918 340.008 353.918 345.393"/><path class="cls-4" d="M347.51245,272.61483H326.96387v-.0849H312.94922v32.63458a11.778,11.778,0,0,1,9.35034,5.11579l.05176-.0517.35376.35357-.13233.13233c.07251.11615.14478.23224.21338.35107h3.999v-5.66992h4.248a2.1352,2.1352,0,0,1,1.64453-.8208,1.98119,1.98119,0,0,1,.56348.08862l-.126-9.26147h-.00976v-.844l-3.50147-4.4768,2.6565-2.57459.001.001a2.76581,2.76581,0,0,1,1.66578-.90314,1.00372,1.00372,0,0,1,.227-.04577h3.78027a1.00145,1.00145,0,0,1,.27734.056,2.77279,2.77279,0,0,1,1.57227.89288l.001-.00092,2.65527,2.57489-3.45337,4.41425.12891,5.33929h1.09594v-5.561h6.71387v-5.561h6.71387v-5.561h6.94043V272.52993H347.51245ZM336.22754,285.586a2.68234,2.68234,0,1,1,2.68237-2.68256A2.6822,2.6822,0,0,1,336.22754,285.586Z"/><polygon class="cls-4" points="354.397 266.662 354.397 266.912 347.512 266.912 347.512 272.03 360.58 272.03 360.58 261.21 354.397 261.21 354.397 266.662"/><polygon class="cls-4" points="312.949 272.03 326.964 272.03 326.964 266.423 333.849 266.423 333.849 260.72 340.732 260.72 340.732 255.018 347.617 255.018 347.617 249.315 354.502 249.315 354.502 243.612 360.58 243.612 360.58 238.176 312.949 238.176 312.949 272.03"/><polygon class="cls-4" points="340.217 290.272 338.969 289.6 338.969 292.48 340.217 290.272"/><polygon class="cls-4" points="353.55 305.636 353.55 305.886 346.836 305.886 346.836 311.066 360.58 311.066 360.58 300.325 353.55 300.325 353.55 305.636"/><polygon class="cls-4" points="331.827 290.272 333.105 292.534 333.105 289.584 331.827 290.272"/><polygon class="cls-4" points="395.465 272.03 395.465 238.176 381.935 238.176 381.935 243.852 381.935 244.102 374.581 244.102 374.581 249.555 374.581 249.805 367.575 249.805 367.575 272.03 387.117 272.03 395.465 272.03"/><path class="cls-8" d="M224.21069,272.02993H280.5166v-5.25348h-9.35644V250.526a4.89734,4.89734,0,0,1,4.89746-4.897h1.84082a4.86218,4.86218,0,0,1,2.61816.77112V238.1979H224.21069Zm27.6272-21.50391a4.89734,4.89734,0,0,1,4.89746-4.897h1.8418a4.89634,4.89634,0,0,1,4.89624,4.897v16.25043h-11.6355Zm-19.32129,0a4.89676,4.89676,0,0,1,4.89746-4.897h1.84082a4.89729,4.89729,0,0,1,4.89722,4.897v16.25043H232.5166Z"/><path class="cls-8" d="M312.44873,166.60067h-88.238v39.49908h88.238ZM244.1521,197.76479v.24994H232.5166V181.7643a4.89718,4.89718,0,0,1,4.89746-4.89746h1.84082a4.8976,4.8976,0,0,1,4.89722,4.89746Zm19.32129,0v.24994h-11.6355V181.7643a4.89765,4.89765,0,0,1,4.89746-4.89746h1.8418a4.8968,4.8968,0,0,1,4.89624,4.89746Zm19.32226,0v.24994H271.16016V181.7643a4.89764,4.89764,0,0,1,4.89746-4.89746h1.84082a4.89712,4.89712,0,0,1,4.89721,4.89746Zm19.32227,0v.24994h-11.6355V181.7643a4.89765,4.89765,0,0,1,4.89746-4.89746h1.84082a4.8976,4.8976,0,0,1,4.89722,4.89746Z"/><path class="cls-8" d="M312.44873,238.1979H287.51245v33.832h24.93628Zm-10.33081,28.32861v.24994h-11.6355V250.526a4.89734,4.89734,0,0,1,4.89746-4.897h1.84082a4.89729,4.89729,0,0,1,4.89722,4.897Z"/><path class="cls-8" d="M302.16309,346.01284h10.15234v-7.34815h-24.803v23.38184h19.74536c-3.071-3.25262-5.09155-9.09778-5.09472-15.78369Z"/><path class="cls-8" d="M312.31543,328.73263a11.768,11.768,0,0,1-11.26221-14.35614l-.01733-.01746.02954-.02954a11.70914,11.70914,0,0,1,1.00537-2.76392H287.51245v26.59912h24.803Z"/><path class="cls-8" d="M312.449,305.151l-.00024-32.62109H287.51245v38.53564h14.8313A11.78554,11.78554,0,0,1,312.449,305.151Zm-10.33081-4.59375v.25H290.48242v-16.25a4.89744,4.89744,0,0,1,4.89746-4.89746h1.84082a4.89775,4.89775,0,0,1,4.89746,4.89746Z"/><path class="cls-8" d="M224.21069,311.06557H280.5166v-10.2583h-9.35644v-16.25a4.89744,4.89744,0,0,1,4.89746-4.89746h1.84082a4.86223,4.86223,0,0,1,2.61816.77118v-7.90106H224.21069Zm27.6272-26.5083a4.89744,4.89744,0,0,1,4.89746-4.89746h1.8418a4.89684,4.89684,0,0,1,4.89648,4.89746v16.25H251.83789Zm-19.32129,0a4.89691,4.89691,0,0,1,4.89746-4.89746h1.84082a4.89775,4.89775,0,0,1,4.89746,4.89746v16.25H232.5166Z"/><rect class="cls-8" x="224.21069" y="338.66469" width="32.52173" height="23.38184"/><polygon class="cls-8" points="224.211 338.165 256.732 338.165 256.732 329.351 256.732 329.227 256.805 329.05 256.982 328.977 280.517 328.977 280.517 311.566 224.211 311.566 224.211 338.165"/><path class="cls-8" d="M268.94531,206.59975H224.21069V237.6979h44.73462ZM244.1521,232.966v.24994H232.5166V216.96548a4.89719,4.89719,0,0,1,4.89746-4.89747h1.84082a4.8976,4.8976,0,0,1,4.89722,4.89747Zm19.32129,0v.24994h-11.6355V216.96548a4.89765,4.89765,0,0,1,4.89746-4.89747h1.8418a4.89681,4.89681,0,0,1,4.89624,4.89747Z"/><path class="cls-9" d="M297.65723,105.79549H240.39038l.00024,33.39411h57.26661Zm-36.627,27.42975v.24994H249.39453V117.22524a4.89685,4.89685,0,0,1,4.89649-4.89746h1.84179a4.898,4.898,0,0,1,4.89746,4.89746Zm24.35059,0v.24994H273.74512V117.22524a4.89764,4.89764,0,0,1,4.89746-4.89746h1.84082a4.89748,4.89748,0,0,1,4.89746,4.89746Z"/><path class="cls-9" d="M297.65723,152.22964v-12.54H240.39062v26.41113h57.26661V152.22964Zm-11.676,1.30175a5.55779,5.55779,0,0,1-5.55737,5.55854H253.31152a5.55784,5.55784,0,0,1-5.55761-5.55854v-2.10351a5.55755,5.55755,0,0,1,5.55761-5.55811h27.11231a5.5575,5.5575,0,0,1,5.55737,5.55811Z"/><rect class="cls-4" x="377.44922" y="152.72957" width="5.67188" height="13.37115"/><path class="cls-4" d="M325.49658,105.79549H298.157l.00025,33.39411h85.10595V105.79549h-57.7666ZM323.375,133.47518H311.73926V117.22524a4.89684,4.89684,0,0,1,4.89648-4.89746h1.8418a4.898,4.898,0,0,1,4.89746,4.89746Zm23.49219,0H335.23145V117.22524a4.89684,4.89684,0,0,1,4.89648-4.89746h1.8418a4.898,4.898,0,0,1,4.89746,4.89746Zm23.49219-16.24994v16.24994H358.72363V117.22524a4.89718,4.89718,0,0,1,4.89746-4.89746h1.84082A4.898,4.898,0,0,1,370.35938,117.22524Z"/><rect class="cls-4" x="358.93457" y="152.72957" width="5.67188" height="13.37115"/><rect class="cls-4" x="371.27734" y="152.72957" width="5.67188" height="13.37115"/><rect class="cls-4" x="356.05054" y="139.6896" width="27.21277" height="12.54004"/><rect class="cls-4" x="365.10645" y="152.72957" width="5.6709" height="13.37115"/><rect class="cls-4" x="356.05054" y="152.72957" width="2.38403" height="13.37115"/><path class="cls-4" d="M298.15723,139.6896v12.54h10.78125v-2.56318a7.54214,7.54214,0,0,1-3.17774-3.99627,9.612,9.612,0,0,1-.54858-3.087c0-.09881.00268-.15417.00293-.1582l.01245-.23682h.2373c.00049-.00006.00562-.00006.50879,0h.24976v.25a4.66054,4.66054,0,0,0,1.7019,3.64227,6.4698,6.4698,0,0,0,4.18018,1.41047H312.21a6.53747,6.53747,0,0,0,4.19849-1.41108,4.6488,4.6488,0,0,0,1.7185-3.64166v-.25h.25c.46973-.00006.47437-.00006.47461,0h.239l.01074.23914c0,.00329.0022.05749.0022.15478a9.61551,9.61551,0,0,1-.54859,3.08631,7.53031,7.53031,0,0,1-3.28271,4.06695v2.49433h12.303v-12.54Zm13.90332,6.82855a2.68235,2.68235,0,1,1,2.68237-2.68256A2.683,2.683,0,0,1,312.06055,146.51815Z"/><path class="cls-4" d="M314.70532,165.51131l-2.604-9.64746h-.02173l-2.31982,10.23688h3.90161A1.41389,1.41389,0,0,1,314.70532,165.51131Z"/><polygon class="cls-4" points="316.017 166.101 321.403 166.101 321.403 152.73 315.731 152.73 315.731 161.729 316.017 166.101"/><polygon class="cls-4" points="325.497 166.101 325.747 166.101 327.575 166.101 327.575 152.73 321.903 152.73 321.903 166.101 325.497 166.101"/><path class="cls-4" d="M308.416,165.506a1.12457,1.12457,0,0,1,.21362.0351l.30884-9.935v-2.87653h-5.54981v13.37116h3.95142A1.404,1.404,0,0,1,308.416,165.506Z"/><rect class="cls-4" x="298.15723" y="152.72957" width="4.73145" height="13.37115"/><rect class="cls-1" x="252.08105" y="127.12905" width="2.88086" height="5.84619"/><rect class="cls-1" x="252.08105" y="120.56655" width="2.88086" height="6.0625"/><path class="cls-1" d="M252.08105,117.22524v2.84131h2.88086v-6.95386a4.34535,4.34535,0,0,0-2.88086,4.11255Z"/><rect class="cls-1" x="255.46191" y="127.12905" width="5.06836" height="5.84619"/><rect class="cls-1" x="255.46191" y="120.56655" width="5.06836" height="6.0625"/><path class="cls-1" d="M259.24194,114.11587a3.8401,3.8401,0,0,0-3.78-1.15839v7.10907h5.06836v-2.84131A4.3826,4.3826,0,0,0,259.24194,114.11587Z"/><rect class="cls-1" x="238.58398" y="185.10561" width="5.06836" height="6.0625"/><path class="cls-1" d="M242.364,178.65493a3.8401,3.8401,0,0,0-3.78-1.15839v7.10907h5.06836V181.7643A4.3826,4.3826,0,0,0,242.364,178.65493Z"/><path class="cls-1" d="M235.20386,181.7643v2.84131H238.084v-6.95379a4.345,4.345,0,0,0-2.88012,4.11248Z"/><rect class="cls-1" x="235.20386" y="185.10561" width="2.88013" height="6.0625"/><rect class="cls-1" x="235.20386" y="191.66811" width="2.88013" height="5.84668"/><rect class="cls-1" x="238.58398" y="191.66811" width="5.06836" height="5.84668"/><rect class="cls-1" x="254.52515" y="191.66811" width="2.8811" height="5.84668"/><path class="cls-1" d="M254.52515,181.7643v2.84131h2.8811v-6.95386a4.34588,4.34588,0,0,0-2.8811,4.11255Z"/><rect class="cls-1" x="257.90625" y="185.10561" width="5.06738" height="6.0625"/><path class="cls-1" d="M261.68579,178.65487a3.83935,3.83935,0,0,0-3.77954-1.15833v7.10907h5.06738V181.7643A4.38325,4.38325,0,0,0,261.68579,178.65487Z"/><rect class="cls-1" x="257.90625" y="191.66811" width="5.06738" height="5.84668"/><rect class="cls-1" x="254.52515" y="185.10561" width="2.8811" height="6.0625"/><rect class="cls-1" x="273.84741" y="185.10561" width="2.8811" height="6.0625"/><rect class="cls-1" x="273.84741" y="191.66811" width="2.8811" height="5.84668"/><rect class="cls-1" x="277.22852" y="191.66811" width="5.06738" height="5.84668"/><rect class="cls-1" x="277.22852" y="185.10561" width="5.06738" height="6.0625"/><path class="cls-1" d="M273.84741,181.7643v2.84131h2.88111v-6.95386a4.34586,4.34586,0,0,0-2.88111,4.11255Z"/><path class="cls-1" d="M281.00806,178.65493a3.83916,3.83916,0,0,0-3.77954-1.15839v7.10907h5.06738V181.7643A4.383,4.383,0,0,0,281.00806,178.65493Z"/><rect class="cls-1" x="296.5498" y="191.66811" width="5.06836" height="5.84668"/><rect class="cls-1" x="293.16968" y="185.10561" width="2.88013" height="6.0625"/><path class="cls-1" d="M300.32983,178.65493a3.83827,3.83827,0,0,0-3.78-1.15814v7.10882h5.06836V181.7643A4.3826,4.3826,0,0,0,300.32983,178.65493Z"/><rect class="cls-1" x="293.16968" y="191.66811" width="2.88013" height="5.84668"/><path class="cls-1" d="M293.16968,181.7643v2.84131h2.88012V177.652a4.34455,4.34455,0,0,0-2.88012,4.1123Z"/><rect class="cls-1" x="296.5498" y="185.10561" width="5.06836" height="6.0625"/><path class="cls-1" d="M235.20386,216.96548v2.8413H238.084V212.853a4.345,4.345,0,0,0-2.88012,4.11249Z"/><rect class="cls-1" x="238.58398" y="226.86928" width="5.06836" height="5.84668"/><path class="cls-1" d="M242.364,213.8561a3.8401,3.8401,0,0,0-3.78-1.15839v7.10907h5.06836v-2.8413A4.3826,4.3826,0,0,0,242.364,213.8561Z"/><rect class="cls-1" x="238.58398" y="220.30678" width="5.06836" height="6.0625"/><rect class="cls-1" x="235.20386" y="226.86928" width="2.88013" height="5.84668"/><rect class="cls-1" x="235.20386" y="220.30678" width="2.88013" height="6.0625"/><path class="cls-1" d="M254.52515,216.96548v2.8413h2.8811v-6.95385a4.34584,4.34584,0,0,0-2.8811,4.11255Z"/><path class="cls-1" d="M261.68579,213.856a3.83935,3.83935,0,0,0-3.77954-1.15833v7.10907h5.06738v-2.8413A4.38326,4.38326,0,0,0,261.68579,213.856Z"/><rect class="cls-1" x="254.52515" y="220.30678" width="2.8811" height="6.0625"/><rect class="cls-1" x="257.90625" y="220.30678" width="5.06738" height="6.0625"/><rect class="cls-1" x="257.90625" y="226.86928" width="5.06738" height="5.84668"/><rect class="cls-1" x="254.52515" y="226.86928" width="2.8811" height="5.84668"/><rect class="cls-1" x="238.58398" y="253.86733" width="5.06836" height="6.0625"/><path class="cls-1" d="M238.584,253.36733h5.06836V250.526a4.11483,4.11483,0,0,0-5.06836-4.26727Z"/><rect class="cls-1" x="238.58398" y="260.42983" width="5.06836" height="5.84668"/><rect class="cls-1" x="235.20386" y="260.42983" width="2.88013" height="5.84668"/><path class="cls-1" d="M236.4917,247.41689a4.38223,4.38223,0,0,0-1.28784,3.10913v2.84131H238.084V246.414A4.39382,4.39382,0,0,0,236.4917,247.41689Z"/><rect class="cls-1" x="235.20386" y="253.86733" width="2.88013" height="6.0625"/><path class="cls-1" d="M257.90625,253.36733h5.06738V250.526a4.11424,4.11424,0,0,0-5.06738-4.26727Z"/><rect class="cls-1" x="257.90625" y="260.42983" width="5.06738" height="5.84668"/><path class="cls-1" d="M255.81348,247.41689a4.38182,4.38182,0,0,0-1.28833,3.10913v2.84131h2.8811V246.4139A4.393,4.393,0,0,0,255.81348,247.41689Z"/><rect class="cls-1" x="257.90625" y="253.86733" width="5.06738" height="6.0625"/><rect class="cls-1" x="254.52515" y="260.42983" width="2.8811" height="5.84668"/><rect class="cls-1" x="254.52515" y="253.86733" width="2.8811" height="6.0625"/><rect class="cls-1" x="277.22852" y="253.86733" width="3.28809" height="6.0625"/><path class="cls-1" d="M273.84741,250.526v2.84131h2.88111V246.4139a4.3452,4.3452,0,0,0-2.88111,4.11212Z"/><path class="cls-1" d="M277.22852,246.25875v7.10858h3.28808v-6.35589a4.35482,4.35482,0,0,0-2.44482-.865A4.39985,4.39985,0,0,0,277.22852,246.25875Z"/><rect class="cls-1" x="273.84741" y="253.86733" width="2.8811" height="6.0625"/><rect class="cls-1" x="277.22852" y="260.42983" width="3.28809" height="5.84668"/><rect class="cls-1" x="273.84741" y="260.42983" width="2.8811" height="5.84668"/><path class="cls-1" d="M300.32983,247.41689a3.8391,3.8391,0,0,0-3.78-1.158v7.1084h5.06836V250.526A4.38182,4.38182,0,0,0,300.32983,247.41689Z"/><rect class="cls-1" x="296.5498" y="260.42983" width="5.06836" height="5.84668"/><rect class="cls-1" x="296.5498" y="253.86733" width="5.06836" height="6.0625"/><rect class="cls-1" x="293.16968" y="260.42983" width="2.88013" height="5.84668"/><path class="cls-1" d="M293.16968,250.526v2.84131h2.88012v-6.95325a4.34413,4.34413,0,0,0-2.88012,4.11194Z"/><rect class="cls-1" x="293.16968" y="253.86733" width="2.88013" height="6.0625"/><path class="cls-8" d="M238.584,287.39858h5.06836v-2.84131a4.11489,4.11489,0,0,0-5.06836-4.26776Z"/><rect class="cls-8" x="235.2041" y="294.46059" width="2.87988" height="5.84668"/><rect class="cls-8" x="238.58398" y="287.89858" width="5.06836" height="6.06201"/><rect class="cls-8" x="238.58398" y="294.46059" width="5.06836" height="5.84668"/><rect class="cls-8" x="235.2041" y="287.89858" width="2.87988" height="6.06201"/><path class="cls-8" d="M236.4917,281.44765a4.382,4.382,0,0,0-1.2876,3.10962v2.84131H238.084v-6.95386A4.394,4.394,0,0,0,236.4917,281.44765Z"/><rect class="cls-8" x="257.90625" y="294.46059" width="5.06738" height="5.84668"/><rect class="cls-8" x="254.52539" y="294.46059" width="2.88086" height="5.84668"/><rect class="cls-8" x="257.90625" y="287.89858" width="5.06738" height="6.06201"/><path class="cls-8" d="M257.90625,287.39858h5.06738v-2.84131a4.11431,4.11431,0,0,0-5.06738-4.26776Z"/><rect class="cls-8" x="254.52539" y="287.89858" width="2.88086" height="6.06201"/><path class="cls-8" d="M255.81348,281.44771a4.38129,4.38129,0,0,0-1.28809,3.10956v2.84131h2.88086v-6.95386A4.39233,4.39233,0,0,0,255.81348,281.44771Z"/><rect class="cls-8" x="273.84766" y="294.46059" width="2.88086" height="5.84668"/><rect class="cls-8" x="277.22852" y="287.89858" width="3.28809" height="6.06201"/><path class="cls-8" d="M277.22852,280.28951v7.10907h3.28808v-6.35632a4.35449,4.35449,0,0,0-2.44482-.865A4.39905,4.39905,0,0,0,277.22852,280.28951Z"/><rect class="cls-8" x="277.22852" y="294.46059" width="3.28809" height="5.84668"/><rect class="cls-8" x="273.84766" y="287.89858" width="2.88086" height="6.06201"/><path class="cls-8" d="M273.84766,284.55727v2.84131h2.88086v-6.95386a4.34466,4.34466,0,0,0-2.88086,4.11255Z"/><rect class="cls-8" x="293.16992" y="287.89858" width="2.87988" height="6.06201"/><path class="cls-8" d="M293.16992,284.55727v2.84131h2.87988v-6.95367a4.34358,4.34358,0,0,0-2.87988,4.11236Z"/><path class="cls-8" d="M300.32983,281.44771a3.8391,3.8391,0,0,0-3.78-1.158v7.10889h5.06836v-2.84131A4.3825,4.3825,0,0,0,300.32983,281.44771Z"/><rect class="cls-8" x="293.16992" y="294.46059" width="2.87988" height="5.84668"/><rect class="cls-8" x="296.5498" y="294.46059" width="5.06836" height="5.84668"/><rect class="cls-8" x="296.5498" y="287.89858" width="5.06836" height="6.06201"/><path class="cls-1" d="M276.43262,117.22524v2.84131h2.88086v-6.95386a4.34532,4.34532,0,0,0-2.88086,4.11255Z"/><rect class="cls-1" x="279.81348" y="120.56655" width="5.06738" height="6.0625"/><path class="cls-1" d="M283.593,114.11587a3.83916,3.83916,0,0,0-3.77954-1.15839v7.10907h5.06738v-2.84131A4.383,4.383,0,0,0,283.593,114.11587Z"/><rect class="cls-1" x="279.81348" y="127.12905" width="5.06738" height="5.84619"/><rect class="cls-1" x="276.43262" y="127.12905" width="2.88086" height="5.84619"/><rect class="cls-1" x="276.43262" y="120.56655" width="2.88086" height="6.0625"/><rect class="cls-1" x="312.23926" y="120.56655" width="5.06738" height="6.0625"/><rect class="cls-1" x="317.80664" y="120.56655" width="2.88086" height="6.0625"/><rect class="cls-1" x="312.23926" y="127.12905" width="5.06738" height="5.84616"/><path class="cls-1" d="M317.30664,112.95754a4.29487,4.29487,0,0,0-5.06738,4.2677v2.84131h5.06738Z"/><path class="cls-1" d="M319.39917,114.11587a4.39437,4.39437,0,0,0-1.59253-1.00312v6.9538h2.88086v-2.84131A4.3826,4.3826,0,0,0,319.39917,114.11587Z"/><rect class="cls-1" x="317.80664" y="127.12905" width="2.88086" height="5.84613"/><rect class="cls-1" x="341.29883" y="127.12905" width="2.88086" height="5.84613"/><rect class="cls-1" x="341.29883" y="120.56655" width="2.88086" height="6.0625"/><path class="cls-1" d="M342.89136,114.11587a4.39446,4.39446,0,0,0-1.59253-1.00312v6.9538h2.88086v-2.84131A4.38268,4.38268,0,0,0,342.89136,114.11587Z"/><rect class="cls-1" x="335.73145" y="127.12905" width="5.06738" height="5.84616"/><path class="cls-1" d="M340.79883,112.95754a4.29486,4.29486,0,0,0-5.06738,4.2677v2.84131h5.06738Z"/><rect class="cls-1" x="335.73145" y="120.56655" width="5.06738" height="6.0625"/><path class="cls-1" d="M366.38354,114.11587a4.39442,4.39442,0,0,0-1.59252-1.00312v6.9538h2.88086v-2.84131A4.38265,4.38265,0,0,0,366.38354,114.11587Z"/><rect class="cls-1" x="359.22363" y="120.56655" width="5.06738" height="6.0625"/><rect class="cls-1" x="364.79102" y="120.56655" width="2.88086" height="6.0625"/><path class="cls-1" d="M364.291,112.95754a4.295,4.295,0,0,0-5.06739,4.2677v2.84131H364.291Z"/><rect class="cls-1" x="364.79102" y="127.12905" width="2.88086" height="5.84613"/><rect class="cls-1" x="359.22363" y="127.12905" width="5.06738" height="5.84616"/><path class="cls-8" d="M404.77637,67.95815a1.99278,1.99278,0,1,0-3.97583,0,2.24826,2.24826,0,0,0,.08423.58008h3.80737A2.25953,2.25953,0,0,0,404.77637,67.95815Z"/><path class="cls-8" d="M397.2644,80.18813v41.40528c.44947-.00007,1.42237-.00013,2.6272-.00007V80.18813a11.77095,11.77095,0,0,1,.88574-4.68365h-1.59643c-.05.04986-.10376.0957-.15235.1474A6.60706,6.60706,0,0,0,397.2644,80.18813Z"/><path class="cls-8" d="M400.39136,80.18813l.00024,41.40521c.7522,0,1.57031.00007,2.39551.00007V75.50448h-1.46045c-.01392.02844-.029.05346-.04272.08252A11.14339,11.14339,0,0,0,400.39136,80.18813Z"/><path class="cls-8" d="M405.584,121.59334V80.18813a10.94243,10.94243,0,0,0-.94287-4.68365h-1.354v46.08893C404.0791,121.59341,404.8623,121.59334,405.584,121.59334Z"/><path class="cls-8" d="M406.084,121.59334c1.21729-.00006,2.19288,0,2.62793.00007V80.18813a6.60725,6.60725,0,0,0-1.7644-4.53625c-.04858-.0517-.1023-.09754-.15234-.1474h-1.60035a11.73083,11.73083,0,0,1,.88892,4.68365Z"/><rect class="cls-8" x="399.29077" y="69.03817" width="7.74121" height="5.96637"/><path class="cls-3" d="M211.16382,85.96279a25.3312,25.3312,0,0,0,7.8772,4.94946c.26294.10193.439.16352.531.19477.02344-.00794.04444-.0149.07984-.02735.10351-.03637.25634-.09179.45141-.16742.38989-.1513.949-.38354,1.62036-.70581a25.73556,25.73556,0,0,0,4.92285-3.08508,17.951,17.951,0,0,0,7.1377-14.359,14.212,14.212,0,1,0-28.42407,0A17.62812,17.62812,0,0,0,211.16382,85.96279Z"/><path class="cls-8" d="M169.17285,128.17769a4.30049,4.30049,0,0,0,.15357,1.07007c10.0935.55841,19.29516,3.03626,26.2517,6.72187,7.93409,4.20507,12.98316,10.0003,12.99,16.36792-.00684,6.36779-5.05591,12.163-12.99,16.368-7.9414,4.20727-18.80786,6.84118-30.58789,6.84186-11.78076-.00068-22.64746-2.63459-30.58911-6.84186-7.93408-4.205-12.98315-10.00025-12.99-16.368.00684-6.36768,5.05591-12.16285,12.99-16.36792,7.35913-3.89875,17.23194-6.44226,28.01441-6.79554a7.00493,7.00493,0,0,1,.91113-3.35089c-12.32056.24335-23.43628,3.17511-31.55786,7.78974-8.49146,4.825-13.68823,11.45617-13.68506,18.72461-.00317,7.26837,5.1936,13.89959,13.68506,18.72454,8.48608,4.82172,20.2373,7.81421,33.22046,7.81354,12.9834.00067,24.73486-2.99182,33.22095-7.81354,8.49169-4.825,13.68847-11.45617,13.6853-18.72454.00317-7.26844-5.19361-13.89966-13.6853-18.72461-7.29029-4.14234-16.99415-6.92835-27.81519-7.63257a1.90836,1.90836,0,0,1-.48291.28625A2.73782,2.73782,0,0,0,169.17285,128.17769Z"/><path class="cls-8" d="M167.25562,129.16109a6.71836,6.71836,0,0,1-.323-1.97058,5.26593,5.26593,0,0,1,.05468-.75494,2.77413,2.77413,0,0,0-2.241,1.44061,4.49674,4.49674,0,0,0-.45386,1.26117c.23315-.00207.46387-.00976.69775-.00976Q166.12915,129.12768,167.25562,129.16109Z"/><path class="cls-1" d="M125.67358,152.33755c-.00683,6.07794,4.86524,11.76269,12.72388,15.9262,7.42847,3.93726,17.49609,6.4939,28.47363,6.75763,10.97681-.26373,21.04444-2.82037,28.47315-6.75763,7.85864-4.16351,12.731-9.84826,12.72412-15.9262.00684-6.07776-4.86548-11.76252-12.72412-15.92609-6.83692-3.62372-15.90918-6.07941-25.86841-6.65338a10.45748,10.45748,0,0,0,1.56372,2.79144l.08106.10046.11743.13947-.05152.0824.00684-.00159-.10132.15222-.34009.54187-.01513-.0083-1.61866,2.4314a2.47635,2.47635,0,0,1,.31836-2.0376,2.42817,2.42817,0,0,1,.761-.7298,7.67716,7.67716,0,0,1-2.75317-3.5509q-.286-.009-.57325-.0155-1.35168.03249-2.68383.10992a8.8024,8.8024,0,0,0-.07129,1.06366,11.21336,11.21336,0,0,0,.15234,1.82208c.0166.098.0271.148.0271.1482l.03882.18847-.08057.04023L161.669,135.611a2.47386,2.47386,0,0,1,.71191-1.93506,2.42715,2.42715,0,0,1,.96045-.58654,6.97853,6.97853,0,0,1-.90943-3.20343,63.17312,63.17312,0,0,0-24.03442,6.52551C130.53882,140.575,125.66675,146.25979,125.67358,152.33755Zm66.97193-6.43946,2.57324,6.16211,2.44434-6.6206,2.64746-.24219L196.02832,156.048c-1.0293,2.63134-2.0957,3.59277-4.19043,3.78417a4.66757,4.66757,0,0,1-2.832-.66015l1.4707-2.19287a1.62568,1.62568,0,0,0,1.3418.48388c.90039-.08252,1.45215-.53711,1.94824-1.75927l.166-.41944-3.98828-9.13916Zm-5.73438-4.03418,2.53711-.23193v14.48486l-2.53711.23194Zm-14.04,5.8418,2.00293,6.28711,2.35352-6.68506,2.26074-.20654,2.31641,6.29541,2.07715-6.69727,2.57324-.23486-3.36328,10.23389-2.39063.21777-2.37109-6.25342-2.38965,6.689-2.42578.22119-3.2168-9.63184Zm-7.58984.4917a4.64154,4.64154,0,0,1,5.25781,4.68506,5.76407,5.76407,0,0,1-5.25781,5.64551,4.62694,4.62694,0,0,1-5.23828-4.68653A5.74617,5.74617,0,0,1,165.28125,148.19741ZM154.292,149.2018a4.44972,4.44972,0,0,1,5.12891,4.62354v.95508l-7.88574.72119a2.47434,2.47434,0,0,0,2.84863,1.835,3.01865,3.01865,0,0,0,2.46289-1.54834l2.07715,1.023a5.80421,5.80421,0,0,1-4.57617,2.71631,4.50125,4.50125,0,0,1-5.25684-4.66651A5.727,5.727,0,0,1,154.292,149.2018Zm-8.56347-2.50732,2.4082-.21973v13.41846l-2.53613.23193v-9.41162l-4.02637,5.772-3.915-4.95459v9.31982l-2.57324.23535V147.66762l2.51855-.23046,3.98828,5.16845Z"/><path class="cls-1" d="M165.2998,156.11831a3.06193,3.06193,0,0,0,2.72071-3.02393,2.45825,2.45825,0,0,0-2.72071-2.52734,3.04791,3.04791,0,0,0-2.71972,3.02441A2.44818,2.44818,0,0,0,165.2998,156.11831Z"/><path class="cls-1" d="M154.292,151.35219a3.10037,3.10037,0,0,0-2.68359,2.15772l5.29394-.48438A2.25213,2.25213,0,0,0,154.292,151.35219Z"/><path class="cls-1" d="M254.71191,152.72964v5.21374a5.0012,5.0012,0,0,0,2.42774.64661h3.498v-5.86035Z"/><rect class="cls-1" x="261.1377" y="152.72964" width="5.9248" height="5.86035"/><rect class="cls-1" x="267.5625" y="152.72964" width="5.92578" height="5.86035"/><rect class="cls-1" x="267.5625" y="146.36971" width="5.92578" height="5.85992"/><path class="cls-1" d="M260.6377,152.22964v-5.85993h-3.498a5.00166,5.00166,0,0,0-2.42774.64636v5.21357Z"/><polygon class="cls-1" points="279.914 152.23 279.914 146.37 276.596 146.37 273.988 146.37 273.988 152.23 279.914 152.23"/><rect class="cls-1" x="261.1377" y="146.36971" width="5.9248" height="5.85992"/><path class="cls-1" d="M253.56274,157.10824a5.08769,5.08769,0,0,0,.64917.53558v-4.91418h-2.1311v.80175A5.04166,5.04166,0,0,0,253.56274,157.10824Z"/><path class="cls-1" d="M252.08081,151.42788v.80176h2.1311v-4.914a4.93766,4.93766,0,0,0-2.1311,4.11225Z"/><polygon class="cls-1" points="273.988 152.73 273.988 158.59 276.596 158.59 279.914 158.59 279.914 152.73 273.988 152.73"/><path class="cls-1" d="M285.48145,152.22964v-.80176a5.05809,5.05809,0,0,0-5.05762-5.05817h-.00977v5.85993Z"/><path class="cls-1" d="M280.41406,158.59h.00977a5.0584,5.0584,0,0,0,5.05762-5.0586v-.80175h-5.06739Z"/><rect class="cls-1" x="161.37476" y="212.20907" width="4.35962" height="6.33258"/><rect class="cls-1" x="161.37476" y="225.87466" width="4.35962" height="6.33252"/><rect class="cls-1" x="166.23438" y="212.20907" width="6.3042" height="6.33258"/><rect class="cls-1" x="161.37476" y="219.04165" width="4.35962" height="6.33301"/><rect class="cls-1" x="166.23438" y="219.04165" width="6.30432" height="6.33301"/><rect class="cls-1" x="166.23438" y="225.87466" width="6.30444" height="6.33252"/><path class="cls-1" d="M341.07031,75.03792v15.4466l1.481,1.481h13.53662V81.4081A30.6238,30.6238,0,0,0,341.07031,75.03792Z"/><path class="cls-1" d="M356.58789,92.46548v12.83007H367.771a30.65311,30.65311,0,0,0-2.90894-12.83007Z"/><path class="cls-1" d="M356.58789,81.80208v10.1634h8.03418a30.8719,30.8719,0,0,0-5.86133-8.18805Q357.72217,82.73913,356.58789,81.80208Z"/><polygon class="cls-1" points="341.07 104.662 341.704 105.296 348.188 105.296 341.07 98.178 341.07 104.662"/><polygon class="cls-1" points="343.051 92.465 355.881 105.296 356.088 105.296 356.088 92.465 343.051 92.465"/><polygon class="cls-1" points="325.554 89.146 328.374 91.965 334.858 91.965 325.554 82.661 325.554 89.146"/><path class="cls-1" d="M325.05371,82.16128l-1.853-1.853a30.96068,30.96068,0,0,0-3.56836,2.9162l5.42139,5.42108Z"/><path class="cls-1" d="M310.04224,105.29555H321.9187L311.82275,95.2A30.721,30.721,0,0,0,310.04224,105.29555Z"/><path class="cls-1" d="M340.57031,74.97439q-.82544-.09558-1.66357-.14844a30.59556,30.59556,0,0,0-10.80713,2.68774l12.4707,12.47083Z"/><polygon class="cls-1" points="340.57 97.678 335.358 92.465 328.874 92.465 340.57 104.162 340.57 97.678"/><polygon class="cls-7" points="341.07 105.296 341.704 105.296 341.07 104.662 341.07 105.296"/><polygon class="cls-7" points="325.554 91.965 328.374 91.965 325.554 89.146 325.554 91.965"/><path class="cls-7" d="M325.05371,88.64559l-5.42139-5.42108c-.1936.184-.39086.36407-.57983.55292a30.86554,30.86554,0,0,0-5.86133,8.18805h11.86255Z"/><path class="cls-7" d="M313.12305,92.46548v-.367A30.5923,30.5923,0,0,0,311.82275,95.2l10.096,10.09558h3.135V92.46548Z"/><polygon class="cls-7" points="328.874 92.465 325.554 92.465 325.554 105.296 325.997 105.296 340.57 105.296 340.57 104.162 328.874 92.465"/><polygon class="cls-7" points="341.07 91.965 342.551 91.965 341.07 90.485 341.07 91.965"/><polygon class="cls-7" points="341.07 92.465 341.07 98.178 348.188 105.296 355.881 105.296 343.051 92.465 341.07 92.465"/><path class="cls-7" d="M325.55371,82.66128l9.3042,9.3042h5.7124v-1.981l-12.4707-12.47083q-1.37.62274-2.66528,1.3722h.11938Z"/><path class="cls-7" d="M325.05371,79.10482c-.63354.3786-1.25.78174-1.853,1.20349l1.853,1.853Z"/><polygon class="cls-7" points="340.57 92.465 335.358 92.465 340.57 97.678 340.57 92.465"/><polygon class="cls-1" points="352.015 152.73 351.399 152.73 352.015 153.345 352.015 152.73"/><polygon class="cls-1" points="346.591 156.714 346.591 164.821 347.871 166.101 352.015 166.101 352.015 162.138 346.591 156.714"/><polygon class="cls-1" points="346.091 164.321 346.091 156.214 342.606 152.73 340.419 152.73 340.419 158.649 346.091 164.321"/><polygon class="cls-1" points="328.075 155.097 328.075 166.101 333.747 166.101 333.747 160.769 328.075 155.097"/><polygon class="cls-1" points="339.919 152.73 334.5 152.73 339.919 158.149 339.919 152.73"/><polygon class="cls-1" points="329.566 139.69 328.075 139.69 328.075 146.305 334 152.23 339.919 152.23 339.919 150.042 329.566 139.69"/><polygon class="cls-1" points="334.247 166.101 339.079 166.101 334.247 161.269 334.247 166.101"/><polygon class="cls-1" points="340.419 152.23 342.106 152.23 340.419 150.542 340.419 152.23"/><polygon class="cls-1" points="340.419 139.69 340.419 141.75 350.899 152.23 352.015 152.23 352.015 139.69 340.419 139.69"/><polygon class="cls-1" points="339.919 141.25 339.919 139.69 338.359 139.69 339.919 141.25"/><polygon class="cls-7" points="340.419 158.649 340.419 166.101 346.091 166.101 346.091 164.321 340.419 158.649"/><polygon class="cls-7" points="346.591 166.101 347.871 166.101 346.591 164.821 346.591 166.101"/><polygon class="cls-7" points="339.079 166.101 339.919 166.101 339.919 158.149 334.5 152.73 334.247 152.73 334.247 161.269 339.079 166.101"/><polygon class="cls-7" points="328.075 152.23 334 152.23 328.075 146.305 328.075 152.23"/><polygon class="cls-7" points="333.747 160.769 333.747 152.73 328.075 152.73 328.075 155.097 333.747 160.769"/><polygon class="cls-7" points="346.091 152.73 342.606 152.73 346.091 156.214 346.091 152.73"/><polygon class="cls-7" points="352.015 162.138 352.015 153.345 351.399 152.73 346.591 152.73 346.591 156.714 352.015 162.138"/><polygon class="cls-7" points="340.419 150.542 342.106 152.23 350.899 152.23 340.419 141.75 340.419 150.542"/><polygon class="cls-7" points="329.566 139.69 339.919 150.042 339.919 141.25 338.359 139.69 329.566 139.69"/><rect class="cls-1" x="327.28503" y="305.89559" width="19.05078" height="5.05133"/><path class="cls-1" d="M341.502,305.38589H353.0498l-.00073-5.05079H339.12793l.10522,4.35492a1.97723,1.97723,0,0,1,.63013-.11517A2.13177,2.13177,0,0,1,341.502,305.38589Z"/><polygon class="cls-1" points="335.096 300.335 334.359 305.386 338.141 305.386 337.175 300.335 335.096 300.335"/><rect class="cls-1" x="340.71179" y="294.77401" width="19.86829" height="5.05084"/><rect class="cls-1" x="347.42566" y="289.21297" width="13.15442" height="5.05084"/><rect class="cls-1" x="354.13953" y="283.65194" width="6.44055" height="5.05084"/><rect class="cls-1" x="367.57495" y="283.65194" width="5.61536" height="5.05084"/><rect class="cls-1" x="367.57495" y="278.0909" width="12.32898" height="5.05133"/><rect class="cls-1" x="367.57495" y="272.52987" width="19.04187" height="5.05133"/><rect class="cls-1" x="327.72729" y="345.65151" width="19.05066" height="5.12598"/><rect class="cls-1" x="334.36694" y="340.01717" width="19.05078" height="5.12555"/><path class="cls-1" d="M333.49805,362.04653l-.00049-5.126H321.37183a16.46357,16.46357,0,0,1-3.15357,5.126Z"/><path class="cls-1" d="M340.13867,356.41176l-.00049-5.12554H322.915a26.46184,26.46184,0,0,1-1.343,5.12554Z"/><rect class="cls-1" x="340.53589" y="334.38241" width="19.99219" height="5.12604"/><rect class="cls-1" x="347.41113" y="328.74819" width="13.16895" height="5.12549"/><rect class="cls-1" x="354.28589" y="323.11342" width="6.29419" height="5.12598"/><rect class="cls-1" x="367.57495" y="323.11342" width="5.7627" height="5.12598"/><rect class="cls-1" x="367.57495" y="317.47915" width="12.40234" height="5.12549"/><rect class="cls-1" x="367.57495" y="311.84432" width="19.04199" height="5.12604"/><rect class="cls-1" x="327.46375" y="266.92245" width="19.54871" height="5.19244"/><rect class="cls-1" x="334.34851" y="261.2203" width="19.54858" height="5.19196"/><rect class="cls-1" x="341.2323" y="255.51766" width="19.34778" height="5.19244"/><rect class="cls-1" x="348.11707" y="249.81502" width="12.46301" height="5.19244"/><rect class="cls-1" x="355.00183" y="244.11239" width="5.57825" height="5.19244"/><rect class="cls-1" x="367.57495" y="244.11239" width="6.50598" height="5.19244"/><rect class="cls-1" x="367.57495" y="238.17586" width="13.86035" height="5.42633"/><rect class="cls-1" x="326.52332" y="201.85018" width="19.54871" height="4.3902"/><rect class="cls-1" x="333.4071" y="196.14754" width="19.5498" height="5.19244"/><rect class="cls-1" x="340.29187" y="190.44491" width="19.54883" height="5.19244"/><rect class="cls-1" x="347.17651" y="184.74227" width="19.54883" height="5.19244"/><rect class="cls-1" x="354.0614" y="179.03963" width="19.078" height="5.19244"/><polygon class="cls-1" points="360.945 178.529 380.495 178.529 380.495 172.867 366.817 172.867 360.945 172.867 360.945 178.529"/><polygon class="cls-1" points="380.995 172.367 386.866 172.367 386.866 166.704 367.317 166.704 367.317 172.367 380.995 172.367"/><path class="cls-8" d="M203.29785,314.359V305.6578a11.22771,11.22771,0,0,0-6.47754,2.22339Z"/><path class="cls-8" d="M192.2478,316.945a11.283,11.283,0,0,0,11.05,11.28766v-2.59406l-10.84033-10.84119A11.35549,11.35549,0,0,0,192.2478,316.945Z"/><path class="cls-8" d="M195.55762,308.95473a11.2805,11.2805,0,0,0-2.96631,5.26923l10.70654,10.70727v-9.86492l-6.88208-6.88257A11.37917,11.37917,0,0,0,195.55762,308.95473Z"/><path class="cls-8" d="M214.84863,316.945a11.22712,11.22712,0,0,0-1.65649-5.86743l-9.39429,9.39428v7.76081A11.28388,11.28388,0,0,0,214.84863,316.945Z"/><path class="cls-8" d="M211.53833,308.95473a11.26037,11.26037,0,0,0-7.74048-3.29693v14.10669l9.12695-9.1269A11.3752,11.3752,0,0,0,211.53833,308.95473Z"/><path class="cls-1" d="M198.729,361.83852h9.98413c2.97681-3.03937,5.02979-8.75219,5.07789-15.32568H193.65088C193.69922,353.08633,195.7522,358.79915,198.729,361.83852Z"/><path class="cls-8" d="M312.31543,315.06631l-6.88281-6.88233a11.15823,11.15823,0,0,0-3.82447,6.03992l10.70728,10.70733Z"/><path class="cls-8" d="M301.2644,316.945a11.28389,11.28389,0,0,0,11.051,11.28766v-2.59406l-10.84131-10.84119A11.35549,11.35549,0,0,0,301.2644,316.945Z"/><path class="cls-8" d="M320.55542,324.93545a11.2681,11.2681,0,0,0,1.65381-13.85749l-9.3938,9.39386v7.76081A11.25893,11.25893,0,0,0,320.55542,324.93545Z"/><path class="cls-8" d="M312.31543,305.6578a11.22793,11.22793,0,0,0-6.478,2.22357l6.478,6.4776Z"/><path class="cls-8" d="M321.94189,310.638a11.27712,11.27712,0,0,0-9.12646-4.98016v14.10669Z"/><path class="cls-1" d="M302.66748,346.51284c.04834,6.57349,2.10132,12.28631,5.07813,15.32568h9.9851c2.97583-3.03937,5.02881-8.75219,5.07691-15.32568Z"/><path class="cls-8" d="M135.68066,320.81509a5.60312,5.60312,0,0,0-5.60376,5.603,6.98393,6.98393,0,0,0,2.30225,5.23413,10.10391,10.10391,0,0,0,3.14038,1.97278c.07056.02735.12134.04584.16089.05982.03931-.014.09058-.03235.16113-.05982.15479-.06.37744-.15246.64527-.281a10.26478,10.26478,0,0,0,1.96338-1.23047,7.11574,7.11574,0,0,0,2.833-5.69544,5.6031,5.6031,0,0,0-5.60254-5.603Z"/><rect class="cls-8" x="271.66016" y="329.47719" width="8.83484" height="32.56934"/><rect class="cls-8" x="260.91382" y="329.47719" width="10.24634" height="32.56934"/><path class="cls-4" d="M406.39429,237.67586,406.394,215.8124a19.78889,19.78889,0,0,1-5.13134-9.07208H295.16382v30.9356ZM300.37891,211.70913H401.989v20.998H300.37891Z"/><path class="cls-6" d="M294.66357,206.74032h-25.2185l.00024,30.9356h25.21875Zm-5.55249,25.71685-.073.1767-.17676.07324H275.002v-20.998h13.85938l.17676.0733.073.1767Z"/><polygon class="cls-5" points="281.016 243.477 281.017 362.047 287.013 362.047 287.012 243.913 281.016 243.477"/><polygon class="cls-5" points="361.08 362.047 367.075 362.047 367.075 249.728 361.08 249.292 361.08 362.047"/><polygon class="cls-1" points="285.642 218.542 288.611 218.542 288.611 212.209 285.391 212.209 282.307 212.209 282.307 218.542 285.642 218.542"/><polygon class="cls-1" points="282.307 219.042 282.307 225.375 285.642 225.375 288.611 225.375 288.611 219.042 285.642 219.042 282.307 219.042"/><polygon class="cls-1" points="282.307 225.875 282.307 232.207 288.611 232.207 288.611 225.875 285.642 225.875 282.307 225.875"/><rect class="cls-1" x="277.44702" y="219.04165" width="4.35962" height="6.33301"/><rect class="cls-1" x="277.44702" y="212.20907" width="4.35962" height="6.33258"/><rect class="cls-1" x="277.44702" y="225.87466" width="4.35962" height="6.33252"/><rect class="cls-1" x="395.08301" y="225.87466" width="3.27539" height="6.33252"/><rect class="cls-1" x="351.88184" y="212.20907" width="8.14063" height="6.33258"/><rect class="cls-1" x="360.52246" y="212.20907" width="8.13965" height="6.33258"/><polygon class="cls-1" points="360.022 227.409 360.022 225.875 358.489 225.875 360.022 227.409"/><rect class="cls-1" x="377.80273" y="212.20907" width="8.14063" height="6.33258"/><rect class="cls-1" x="369.16211" y="212.20907" width="8.14063" height="6.33258"/><polygon class="cls-1" points="351.382 218.542 351.382 212.209 344.823 212.209 351.156 218.542 351.382 218.542"/><polygon class="cls-1" points="325.961 232.207 327.574 232.207 325.961 230.594 325.961 232.207"/><rect class="cls-1" x="308.68066" y="225.87466" width="8.14063" height="6.33252"/><polygon class="cls-1" points="335.892 218.542 342.364 218.542 336.031 212.209 334.602 212.209 334.602 217.251 335.892 218.542"/><polygon class="cls-1" points="334.102 212.209 329.56 212.209 334.102 216.751 334.102 212.209"/><rect class="cls-1" x="377.80273" y="219.04165" width="8.14063" height="6.33301"/><polygon class="cls-1" points="314.409 219.042 308.681 219.042 308.681 225.375 316.821 225.375 316.821 221.454 314.409 219.042"/><rect class="cls-1" x="360.52246" y="219.04165" width="8.13965" height="6.33301"/><polygon class="cls-1" points="351.882 219.042 351.882 219.268 357.989 225.375 360.022 225.375 360.022 219.042 351.882 219.042"/><polygon class="cls-1" points="343.242 225.375 349.197 225.375 343.242 219.42 343.242 225.375"/><polygon class="cls-1" points="336.392 219.042 342.726 225.375 342.742 225.375 342.742 219.042 336.392 219.042"/><rect class="cls-1" x="369.16211" y="219.04165" width="8.14063" height="6.33301"/><rect class="cls-1" x="395.08301" y="212.20907" width="3.27539" height="6.33258"/><polygon class="cls-1" points="317.321 225.375 320.742 225.375 317.321 221.954 317.321 225.375"/><rect class="cls-1" x="386.44336" y="212.20907" width="8.13965" height="6.33258"/><rect class="cls-1" x="386.44336" y="219.04165" width="8.13965" height="6.33301"/><polygon class="cls-1" points="321.242 225.875 317.321 225.875 317.321 232.207 325.461 232.207 325.461 230.094 321.242 225.875"/><polygon class="cls-1" points="360.522 225.875 360.522 227.909 364.821 232.207 368.662 232.207 368.662 225.875 360.522 225.875"/><rect class="cls-1" x="369.16211" y="225.87466" width="8.14063" height="6.33252"/><rect class="cls-1" x="377.80273" y="225.87466" width="8.14063" height="6.33252"/><rect class="cls-1" x="386.44336" y="225.87466" width="8.13965" height="6.33252"/><polygon class="cls-1" points="351.882 232.207 356.029 232.207 351.882 228.06 351.882 232.207"/><polygon class="cls-1" points="349.697 225.875 343.242 225.875 343.242 225.891 349.558 232.207 351.382 232.207 351.382 227.56 349.697 225.875"/><rect class="cls-1" x="395.08301" y="219.04165" width="3.27539" height="6.33301"/><polygon class="cls-1" points="308.681 218.542 313.909 218.542 308.681 213.313 308.681 218.542"/><rect class="cls-1" x="300.87891" y="225.87466" width="7.30176" height="6.33252"/><polygon class="cls-1" points="308.181 212.813 307.577 212.209 300.879 212.209 300.879 218.542 308.181 218.542 308.181 212.813"/><rect class="cls-1" x="300.87878" y="219.04165" width="7.30188" height="6.33301"/><polygon class="cls-7" points="334.602 219.042 334.602 225.375 342.726 225.375 336.392 219.042 334.602 219.042"/><polygon class="cls-7" points="316.821 219.042 314.409 219.042 316.821 221.454 316.821 219.042"/><rect class="cls-7" x="325.96094" y="219.04165" width="8.14063" height="6.33301"/><polygon class="cls-7" points="334.602 218.542 335.892 218.542 334.602 217.251 334.602 218.542"/><polygon class="cls-7" points="325.461 230.094 325.461 225.875 321.242 225.875 325.461 230.094"/><polygon class="cls-7" points="343.242 232.207 349.558 232.207 343.242 225.891 343.242 232.207"/><polygon class="cls-7" points="334.102 218.542 334.102 216.751 329.56 212.209 325.961 212.209 325.961 218.542 334.102 218.542"/><rect class="cls-7" x="317.32129" y="212.20907" width="8.13965" height="6.33258"/><polygon class="cls-7" points="317.321 219.042 317.321 221.954 320.742 225.375 325.461 225.375 325.461 219.042 317.321 219.042"/><polygon class="cls-7" points="325.961 225.875 325.961 230.594 327.574 232.207 334.102 232.207 334.102 225.875 325.961 225.875"/><rect class="cls-7" x="334.60156" y="225.87466" width="8.14063" height="6.33252"/><polygon class="cls-7" points="308.181 212.209 307.577 212.209 308.181 212.813 308.181 212.209"/><polygon class="cls-7" points="313.909 218.542 316.821 218.542 316.821 212.209 308.681 212.209 308.681 213.313 313.909 218.542"/><polygon class="cls-7" points="360.522 232.207 364.821 232.207 360.522 227.909 360.522 232.207"/><polygon class="cls-7" points="343.242 219.042 343.242 219.42 349.197 225.375 351.382 225.375 351.382 219.042 343.242 219.042"/><polygon class="cls-7" points="351.882 225.375 357.989 225.375 351.882 219.268 351.882 225.375"/><polygon class="cls-7" points="351.156 218.542 344.823 212.209 343.242 212.209 343.242 218.542 351.156 218.542"/><polygon class="cls-7" points="342.742 218.542 342.742 212.209 336.031 212.209 342.364 218.542 342.742 218.542"/><polygon class="cls-7" points="358.489 225.875 351.882 225.875 351.882 228.06 356.029 232.207 360.022 232.207 360.022 227.409 358.489 225.875"/><polygon class="cls-7" points="351.382 227.56 351.382 225.875 349.697 225.875 351.382 227.56"/><path class="cls-3" d="M415.61035,188.37643c-.01074,1.84649,1.491,3.90667,1.8667,4.37182l.08106.10047.11743.13964-.05152.08222.00684-.00159-.09985.15-.34131.5437-.01514-.0083-1.6189,2.43127a2.47524,2.47524,0,0,1,.31836-2.03711,2.4317,2.4317,0,0,1,.76123-.73,7.74551,7.74551,0,0,1-3.26513-6.02979,5.25229,5.25229,0,0,1,.04663-.6903c-.3999.08465-.79224.18847-1.18018.3034a2.80179,2.80179,0,0,0-1.05273,1.07294,6.14444,6.14444,0,0,0-.63037,2.95087,11.21363,11.21363,0,0,0,.15234,1.822c.0166.0979.0271.14795.0271.14813l.03857.18854-.08007.0401-2.585,2.58484a2.47341,2.47341,0,0,1,.71191-1.93457,2.42829,2.42829,0,0,1,.96045-.58667,7.18124,7.18124,0,0,1-.93823-3.666,8.179,8.179,0,0,1,.09863-1.20074,15.38838,15.38838,0,0,0-7.77051,13.40118,19.34051,19.34051,0,0,0,7.03565,15.01129,27.44788,27.44788,0,0,0,8.33569,4.912c.0415.01459.06738.02325.09375.03216.02612-.00891.052-.01757.0935-.03216.1128-.03955.27906-.09985.49122-.18213.42431-.16455,1.03222-.41711,1.7622-.76752a27.98393,27.98393,0,0,0,5.35327-3.35479,19.52675,19.52675,0,0,0,7.76368-15.6189,15.4642,15.4642,0,0,0-15.46387-15.46393c-.02637,0-.05176.00385-.07788.004a1.922,1.922,0,0,1-.2063.1029A2.73782,2.73782,0,0,0,415.61035,188.37643Z"/><polygon class="cls-1" points="422.462 32.438 422.463 42.082 349.343 42.082 349.343 42.332 349.343 42.582 402.719 42.582 403.219 42.582 422.963 42.582 422.963 42.332 422.963 31.938 349.343 31.938 349.343 32.438 422.462 32.438"/><path class="cls-10" d="M256.13281,112.32778H254.291a4.89685,4.89685,0,0,0-4.89649,4.89746v16.24994h11.63574V117.22524A4.898,4.898,0,0,0,256.13281,112.32778Zm4.39746,14.30127h-5.06836v-6.0625h5.06836Zm-8.44922-9.40381a4.34535,4.34535,0,0,1,2.88086-4.11255v6.95386h-2.88086Zm0,3.34131h2.88086v6.0625h-2.88086Zm0,6.5625h2.88086v5.84619h-2.88086Zm8.44922,5.84619h-5.06836v-5.84619h5.06836Zm0-12.90869h-5.06836v-7.10907a4.29616,4.29616,0,0,1,5.06836,4.26776Z"/><path class="cls-10" d="M239.25488,176.86684h-1.84082a4.89718,4.89718,0,0,0-4.89746,4.89746v16.25043h11.6355V181.7643A4.8976,4.8976,0,0,0,239.25488,176.86684Zm4.39746,14.30127H238.584v-6.0625h5.06836Zm-8.44848-9.40381a4.345,4.345,0,0,1,2.88012-4.11248v6.95379h-2.88012Zm0,3.34131H238.084v6.0625h-2.88012Zm0,6.5625H238.084v5.84668h-2.88012Zm8.44848,5.84668H238.584v-5.84668h5.06836Zm0-12.90918H238.584v-7.10907a4.29616,4.29616,0,0,1,5.06836,4.26776Z"/><path class="cls-10" d="M258.57715,176.86684h-1.8418a4.89765,4.89765,0,0,0-4.89746,4.89746v16.25043h11.6355V181.7643A4.8968,4.8968,0,0,0,258.57715,176.86684Zm4.39648,14.30127h-5.06738v-6.0625h5.06738Zm-8.44848-9.40381a4.34588,4.34588,0,0,1,2.8811-4.11255v6.95386h-2.8811Zm0,3.34131h2.8811v6.0625h-2.8811Zm0,6.5625h2.8811v5.84668h-2.8811Zm8.44848,5.84668h-5.06738v-5.84668h5.06738Zm0-12.90918h-5.06738v-7.10907a4.29525,4.29525,0,0,1,5.06738,4.26776Z"/><path class="cls-10" d="M277.89844,176.86684h-1.84082a4.89764,4.89764,0,0,0-4.89746,4.89746v16.25043h11.63549V181.7643A4.89712,4.89712,0,0,0,277.89844,176.86684Zm4.39746,14.30127h-5.06738v-6.0625h5.06738Zm-8.44849-9.40381a4.34586,4.34586,0,0,1,2.88111-4.11255v6.95386h-2.88111Zm0,3.34131h2.88111v6.0625h-2.88111Zm0,6.5625h2.88111v5.84668h-2.88111Zm8.44849,5.84668h-5.06738v-5.84668h5.06738Zm0-12.90918h-5.06738v-7.10907a4.29532,4.29532,0,0,1,5.06738,4.26776Z"/><path class="cls-10" d="M297.2207,176.86684h-1.84082a4.89765,4.89765,0,0,0-4.89746,4.89746v16.25043h11.6355V181.7643A4.8976,4.8976,0,0,0,297.2207,176.86684Zm4.39746,14.30127H296.5498v-6.0625h5.06836Zm-8.44848-9.40381a4.34455,4.34455,0,0,1,2.88012-4.1123v6.95361h-2.88012Zm0,3.34131h2.88012v6.0625h-2.88012Zm0,6.5625h2.88012v5.84668h-2.88012Zm8.44848,5.84668H296.5498v-5.84668h5.06836Zm0-12.90918H296.5498v-7.10882a4.29584,4.29584,0,0,1,5.06836,4.26751Z"/><path class="cls-10" d="M239.25488,212.068h-1.84082a4.89719,4.89719,0,0,0-4.89746,4.89747V233.2159h11.6355V216.96548A4.8976,4.8976,0,0,0,239.25488,212.068Zm4.39746,14.30127H238.584v-6.0625h5.06836Zm-8.44848-9.4038A4.345,4.345,0,0,1,238.084,212.853v6.95379h-2.88012Zm0,3.3413H238.084v6.0625h-2.88012Zm0,6.5625H238.084V232.716h-2.88012Zm8.44848,5.84668H238.584v-5.84668h5.06836Zm0-12.90918H238.584v-7.10907a4.29616,4.29616,0,0,1,5.06836,4.26777Z"/><path class="cls-10" d="M258.57715,212.068h-1.8418a4.89765,4.89765,0,0,0-4.89746,4.89747V233.2159h11.6355V216.96548A4.89681,4.89681,0,0,0,258.57715,212.068Zm4.39648,14.30127h-5.06738v-6.0625h5.06738Zm-8.44848-9.4038a4.34584,4.34584,0,0,1,2.8811-4.11255v6.95385h-2.8811Zm0,3.3413h2.8811v6.0625h-2.8811Zm0,6.5625h2.8811V232.716h-2.8811Zm8.44848,5.84668h-5.06738v-5.84668h5.06738Zm0-12.90918h-5.06738v-7.10907a4.29525,4.29525,0,0,1,5.06738,4.26777Z"/><path class="cls-10" d="M244.1521,266.77645V250.526a4.89729,4.89729,0,0,0-4.89722-4.897h-1.84082a4.89676,4.89676,0,0,0-4.89746,4.897v16.25043h11.6355Zm-8.94824-12.90912H238.084v6.0625h-2.88012Zm2.88012-.5h-2.88012V250.526A4.34455,4.34455,0,0,1,238.084,246.414Zm-2.88012,7.0625H238.084v5.84668h-2.88012Zm8.44848-.5H238.584v-6.0625h5.06836Zm0,6.34668H238.584v-5.84668h5.06836ZM242.364,247.41689a4.38182,4.38182,0,0,1,1.28833,3.10913v2.84131H238.584v-7.10858a3.83984,3.83984,0,0,1,3.78,1.15814Z"/><path class="cls-10" d="M263.47339,266.77645V250.526a4.89634,4.89634,0,0,0-4.89624-4.897h-1.8418a4.89734,4.89734,0,0,0-4.89746,4.897v16.25043h11.6355Zm-8.94824-12.90912h2.8811v6.0625h-2.8811Zm2.8811-.5h-2.8811V250.526a4.34521,4.34521,0,0,1,2.8811-4.11212Zm-2.8811,7.0625h2.8811v5.84668h-2.8811Zm8.44848-.5h-5.06738v-6.0625h5.06738Zm0,6.34668h-5.06738v-5.84668h5.06738Zm-1.28784-18.85962a4.38223,4.38223,0,0,1,1.28784,3.10913v2.84131h-5.06738v-7.10858a3.83955,3.83955,0,0,1,3.77954,1.15814Z"/><path class="cls-10" d="M302.11792,266.77645V250.526a4.89729,4.89729,0,0,0-4.89722-4.897h-1.84082a4.89734,4.89734,0,0,0-4.89746,4.897v16.25043h11.6355Zm-8.94824-12.90912h2.88012v6.0625h-2.88012Zm2.88012-.5h-2.88012V250.526a4.34413,4.34413,0,0,1,2.88012-4.11194Zm-2.88012,7.0625h2.88012v5.84668h-2.88012Zm8.44848-.5H296.5498v-6.0625h5.06836Zm0,6.34668H296.5498v-5.84668h5.06836Zm-1.28833-18.85962a4.38182,4.38182,0,0,1,1.28833,3.10913v2.84131H296.5498v-7.1084a3.8391,3.8391,0,0,1,3.78,1.158Z"/><path class="cls-10" d="M244.15234,300.80727v-16.25a4.89775,4.89775,0,0,0-4.89746-4.89746h-1.84082a4.89691,4.89691,0,0,0-4.89746,4.89746v16.25h11.63574Zm-8.94824-12.90869H238.084v6.062H235.2041Zm2.87988-.5H235.2041v-2.84131a4.344,4.344,0,0,1,2.87988-4.11255Zm-2.87988,7.062H238.084v5.84668H235.2041Zm8.44824-.5H238.584v-6.062h5.06836Zm0,6.34668H238.584v-5.84668h5.06836ZM242.364,281.44771a4.3825,4.3825,0,0,1,1.28833,3.10956v2.84131H238.584v-7.10907a3.83984,3.83984,0,0,1,3.78,1.1582Z"/><path class="cls-10" d="M263.47363,300.80727v-16.25a4.89684,4.89684,0,0,0-4.89648-4.89746h-1.8418a4.89744,4.89744,0,0,0-4.89746,4.89746v16.25h11.63574Zm-8.94824-12.90869h2.88086v6.062h-2.88086Zm2.88086-.5h-2.88086v-2.84131a4.3447,4.3447,0,0,1,2.88086-4.11255Zm-2.88086,7.062h2.88086v5.84668h-2.88086Zm8.44824-.5h-5.06738v-6.062h5.06738Zm0,6.34668h-5.06738v-5.84668h5.06738Zm-1.28784-18.85962a4.38315,4.38315,0,0,1,1.28784,3.10962v2.84131h-5.06738v-7.10907a3.83965,3.83965,0,0,1,3.77954,1.15814Z"/><path class="cls-10" d="M302.11816,300.80727v-16.25a4.89775,4.89775,0,0,0-4.89746-4.89746h-1.84082a4.89744,4.89744,0,0,0-4.89746,4.89746v16.25h11.63574Zm-8.94824-12.90869h2.87988v6.062h-2.87988Zm2.87988-.5h-2.87988v-2.84131a4.34358,4.34358,0,0,1,2.87988-4.11236Zm-2.87988,7.062h2.87988v5.84668h-2.87988Zm8.44824-.5H296.5498v-6.062h5.06836Zm0,6.34668H296.5498v-5.84668h5.06836Zm-1.28833-18.85956a4.3825,4.3825,0,0,1,1.28833,3.10956v2.84131H296.5498v-7.10889a3.8391,3.8391,0,0,1,3.78,1.158Z"/><path class="cls-10" d="M280.4834,112.32778h-1.84082a4.89764,4.89764,0,0,0-4.89746,4.89746v16.24994h11.63574V117.22524A4.89748,4.89748,0,0,0,280.4834,112.32778Zm4.39746,14.30127h-5.06738v-6.0625h5.06738Zm-8.44824-9.40381a4.34532,4.34532,0,0,1,2.88086-4.11255v6.95386h-2.88086Zm0,3.34131h2.88086v6.0625h-2.88086Zm0,6.5625h2.88086v5.84619h-2.88086Zm8.44824,5.84619h-5.06738v-5.84619h5.06738Zm0-12.90869h-5.06738v-7.10907a4.29532,4.29532,0,0,1,5.06738,4.26776Z"/><path class="cls-10" d="M318.47754,112.32778h-1.8418a4.89684,4.89684,0,0,0-4.89648,4.89746v16.24994H323.375V117.22524A4.898,4.898,0,0,0,318.47754,112.32778Zm2.21,4.89746v2.84131h-2.88086v-6.9538a4.346,4.346,0,0,1,2.88086,4.11249Zm-2.88086,3.34131h2.88086v6.0625h-2.88086Zm-5.56738,0h5.06738v6.0625h-5.06738Zm0-3.34131a4.11407,4.11407,0,0,1,5.06738-4.2677v7.109h-5.06738Zm0,9.90381h5.06738v5.84613l-5.06738.00006Zm5.56738,5.84613v-5.84613h2.88086v5.84613Z"/><path class="cls-10" d="M341.96973,112.32778h-1.8418a4.89684,4.89684,0,0,0-4.89648,4.89746v16.24994h11.63574V117.22524A4.898,4.898,0,0,0,341.96973,112.32778Zm2.21,4.89746v2.84131h-2.88086v-6.9538a4.346,4.346,0,0,1,2.88086,4.11249Zm-2.88086,3.34131h2.88086v6.0625h-2.88086Zm-5.56738,0h5.06738v6.0625h-5.06738Zm0-3.34131a4.11407,4.11407,0,0,1,5.06738-4.2677v7.109h-5.06738Zm0,9.90381h5.06738v5.84613l-5.06738.00006Zm5.56738,5.84613v-5.84613h2.88086v5.84613Z"/><path class="cls-10" d="M365.46191,112.32778h-1.84082a4.89718,4.89718,0,0,0-4.89746,4.89746v16.24994h11.63575V117.22524A4.898,4.898,0,0,0,365.46191,112.32778Zm2.21,4.89746v2.84131H364.791v-6.9538a4.346,4.346,0,0,1,2.88086,4.11249Zm-2.88086,3.34131h2.88086v6.0625H364.791Zm-5.56739,0H364.291v6.0625h-5.06739Zm0-3.34131a4.114,4.114,0,0,1,5.06739-4.2677v7.109h-5.06739Zm0,9.90381H364.291v5.84613l-5.06739.00006Zm5.56739,5.84613v-5.84613h2.88086v5.84613Z"/><path class="cls-10" d="M398.864,68.61141l-.073.17682v6.39844c-.04151.04193-.08643.07983-.127.12286a7.10756,7.10756,0,0,0-1.89941,4.8786V121.7878l-.023.05561.073.17675.177.07318h11.97021l.17676-.07324.073-.17669V80.18813a7.10912,7.10912,0,0,0-1.78467-4.74365l.032-.01325.073-.17669V68.78823l-.073-.1767-.17675-.0733H405.21a2.78317,2.78317,0,0,0,.06616-.58008,2.58631,2.58631,0,0,0-2.1062-2.59064.23511.23511,0,0,0,.04883-.11785V42.58211h-.5V65.24966c0,.03149.02271.05285.03345.08062a2.56537,2.56537,0,0,0-2.45142,2.62787,2.7672,2.7672,0,0,0,.06641.58008H399.041Zm1.52735,11.57672a11.14339,11.14339,0,0,1,.89258-4.60113c.01367-.02906.0288-.05408.04272-.08252h1.46045v46.08893c-.8252,0-1.64331-.00007-2.39551-.00007Zm2.89575-4.68365h1.354a10.94243,10.94243,0,0,1,.94287,4.68365v41.40521c-.72168,0-1.50488.00007-2.29687.00007Zm5.4248,4.68365v41.40528c-.435-.00007-1.41064-.00013-2.62793-.00007l-.00024-41.40521a11.73083,11.73083,0,0,0-.88892-4.68365h1.60035c.05.04986.10376.0957.15234.1474A6.60725,6.60725,0,0,1,408.71191,80.18813Zm-7.91137-12.23a1.99278,1.99278,0,1,1,3.97583,0,2.25953,2.25953,0,0,1-.08423.58008h-3.80737A2.24826,2.24826,0,0,1,400.80054,67.95815Zm-1.50977,1.08h7.741l.00049,5.96637h-7.74146Zm1.48657,6.46631a11.77095,11.77095,0,0,0-.88574,4.68365v41.40521c-1.20483-.00006-2.17773,0-2.6272.00007V80.18813a6.60706,6.60706,0,0,1,1.76416-4.53625c.04859-.0517.1023-.09754.15235-.1474Z"/><path class="cls-10" d="M430.62939,362.04653l-.741-11.3457v-4.96271a7.52717,7.52717,0,0,0,3.28247-4.06464,9.61462,9.61462,0,0,0,.54883-3.087c0-.0979-.0022-.15247-.0022-.15576l-.01074-.2392h-.96363v.25a4.64811,4.64811,0,0,1-1.7185,3.64142,6.53576,6.53576,0,0,1-4.19751,1.41083h-.10547a6.47112,6.47112,0,0,1-4.17993-1.41022,4.66009,4.66009,0,0,1-1.70215-3.642v-.25h-.99585l-.01245.23682c-.00025.004-.00293.05944-.00293.1582a9.61143,9.61143,0,0,0,.54858,3.087,7.54079,7.54079,0,0,0,3.17774,3.99592v5.94012l-.30884,9.93494a1.12457,1.12457,0,0,0-.21362-.0351,1.37843,1.37843,0,0,0-1.03443.53711H395.9646V238.17586h10.67993l.17676-.07324.073-.1767V216.30544c.56787.54981,1.14624,1.06134,1.72558,1.52582a27.93672,27.93672,0,0,0,7.75562,4.38654,5.631,5.631,0,0,1-1.29761,3.51519,6.36692,6.36692,0,0,0-.00024,7.95954,5.87288,5.87288,0,0,1,0,7.38531,6.37108,6.37108,0,0,0,0,7.96216,5.87452,5.87452,0,0,1,0,7.38647,6.11925,6.11925,0,0,0-1.397,3.98139h.5a5.60977,5.60977,0,0,1,1.30591-3.69348,6.37129,6.37129,0,0,0,0-7.96228,5.87418,5.87418,0,0,1,0-7.38623,6.37,6.37,0,0,0,0-7.96137,5.87071,5.87071,0,0,1-.00024-7.38348,6.14357,6.14357,0,0,0,1.38916-3.79767,27.88266,27.88266,0,0,0,7.77173-4.39209,20.03051,20.03051,0,0,0,7.95019-16.00885,15.95252,15.95252,0,0,0-15.46753-15.93878,1.9046,1.9046,0,0,0,.43335-1.20233v-4.228a5.66974,5.66974,0,0,1,1.97388,3.63837l.03735.20477h.83057v-.24994a10.82557,10.82557,0,0,0-.68066-3.5061,6.08408,6.08408,0,0,0-1.64649-2.44739,4.65131,4.65131,0,0,0-2.45532-1.06378,2.51764,2.51764,0,0,0-.59424-.07746h-.45215a6.15727,6.15727,0,0,1-3.94018-1.32067,4.33932,4.33932,0,0,1-1.6167-3.40442v-.25h-.24976c-.37231-.00006-.42456-.00006-.4248,0h-.23731l-.01245.23718c-.00024.00391-.00268.05578-.00268.14825a9.03578,9.03578,0,0,0,.51538,2.90107,7.09508,7.09508,0,0,0,2.9812,3.75384v5.23908a5.181,5.181,0,0,0-2.52393,3.50958,15.9586,15.9586,0,0,0-8.396,14.0567,20.425,20.425,0,0,0,.47656,4.418H395.9646V166.27749h.00024V152.47964h-.00024v-.25H383.76343V105.54555a42.91747,42.91747,0,0,0-12.62671-30.4591,54.79177,54.79177,0,0,0-10.85767-21.74866A52.573,52.573,0,0,0,348.417,42.58211H278.91992a55.57674,55.57674,0,0,0-22.25781,28.34467l-.09937.28705.301.04217.04346.00721A42.97543,42.97543,0,0,0,239.897,105.29555h-.00635v60.80518H223.71094v40.13965h-53.0022l.249-26.86548.04712.00067c13.06031-.00067,24.887-3.005,33.468-7.87872,8.57544-4.87049,13.93481-11.6333,13.938-19.1593-.00318-7.52607-5.36255-14.28888-13.938-19.15937-8.58105-4.87372-20.40771-7.87805-33.468-7.87872-.0227,0-.04516.001-.06787.001a1.90565,1.90565,0,0,0,.18872-.81787v-4.22773a5.66892,5.66892,0,0,1,1.97388,3.63813l.03735.20477h.83057v-.24994a10.82557,10.82557,0,0,0-.68066-3.5061,6.08408,6.08408,0,0,0-1.64649-2.44739,4.65163,4.65163,0,0,0-2.45727-1.064,2.5208,2.5208,0,0,0-.59229-.07678h-.45215a6.157,6.157,0,0,1-3.94018-1.32074,4.33978,4.33978,0,0,1-1.6167-3.40484v-.25H162.332c-.37231-.00007-.42456-.00007-.4248,0h-.23755l-.01221.23718c-.00024.0039-.00268.05578-.00268.14825a9.03635,9.03635,0,0,0,.51538,2.90125,7.09365,7.09365,0,0,0,2.9812,3.75366v5.23907a4.50062,4.50062,0,0,0-1.48194,1.261c-12.53442.196-23.85742,3.15119-32.14746,7.85974-8.57544,4.87049-13.93481,11.63324-13.938,19.15937.00318,7.526,5.36255,14.28881,13.938,19.1593,8.35449,4.74518,19.78931,7.70978,32.44019,7.864l-.249,26.87958H153.46191v31.93548h9.88672V362.04653H92.13184v.5H463.90137v-.5ZM381.43555,243.60219H367.575v-5.42633h13.86011Zm-7.3545,5.70264H367.575v-5.19244h6.50586Zm-.89062,39.398H367.575v-5.05084h5.61524Zm6.71387-5.56055H367.575V278.0909h12.32861ZM367.575,272.52987h19.04151l.00073,5.05133H367.575Zm0,50.58355h5.76245l.00049,5.126H367.575Zm0-5.63427h12.4021l.00049,5.12549H367.575Zm0-5.63483H386.6167l.00049,5.126H367.575Zm0-.77875V289.20272h6.11524v-5.56055h6.71386v-5.561h6.71289v-5.55121h8.34766l.00024,38.53564Zm27.88965-39.03564H367.575V249.80477h7.00586v-5.70264h7.35449v-5.92627h13.5293Zm10.23389-81.142a15.528,15.528,0,0,1,3.24072-2.46667,8.179,8.179,0,0,0-.09863,1.20074,7.18124,7.18124,0,0,0,.93823,3.666,2.42829,2.42829,0,0,0-.96045.58667,2.47341,2.47341,0,0,0-.71191,1.93457l2.585-2.58484.08007-.0401-.03857-.18854c0-.00018-.0105-.05023-.0271-.14813a11.21363,11.21363,0,0,1-.15234-1.822,6.14444,6.14444,0,0,1,.63037-2.95087,2.80179,2.80179,0,0,1,1.05273-1.07294c.38794-.11493.78028-.21875,1.18018-.3034a5.25229,5.25229,0,0,0-.04663.6903,7.74551,7.74551,0,0,0,3.26513,6.02979,2.4317,2.4317,0,0,0-.76123.73,2.47524,2.47524,0,0,0-.31836,2.03711l1.6189-2.43127.01514.0083.34131-.5437.09985-.15-.00684.00159.05152-.08222-.11743-.13964-.08106-.10047c-.37573-.46515-1.87744-2.52533-1.8667-4.37182a2.73782,2.73782,0,0,1,.73926-1.91108,1.922,1.922,0,0,0,.2063-.1029c.02612-.00012.05151-.004.07788-.004a15.4642,15.4642,0,0,1,15.46387,15.46393,19.52675,19.52675,0,0,1-7.76368,15.6189,27.98393,27.98393,0,0,1-5.35327,3.35479c-.73.35041-1.33789.603-1.7622.76752-.21216.08228-.37842.14258-.49122.18213-.0415.01459-.06738.02325-.0935.03216-.02637-.00891-.05225-.01757-.09375-.03216a27.44788,27.44788,0,0,1-8.33569-4.912,19.34051,19.34051,0,0,1-7.03565-15.01129A15.41432,15.41432,0,0,1,405.69849,190.8879Zm-4.43579,15.85242a19.78889,19.78889,0,0,0,5.13134,9.07208l.00025,21.86346-111.23047.00006v-30.9356ZM360.52783,334.38241l.00049,5.126H340.53589v-5.126Zm-7.11035,5.63476.00049,5.12555h-19.051v-5.12555Zm-6.63989,5.63434.00073,5.126h-19.051v-5.126Zm-6.63892,10.76025H321.572a26.46184,26.46184,0,0,0,1.343-5.12554h17.22314Zm-22.408,5.42676h-9.9851c-2.97681-3.03937-5.02979-8.75219-5.07813-15.32568h20.14014C322.75952,353.08633,320.70654,358.79915,317.73071,361.83852Zm-93.52-155.23877h44.73462V237.6979H224.21069Zm16.17969-100.80426h57.26685V139.1896H240.39062Zm142.8728,33.39411H298.15723l-.00025-33.39411h85.1062Zm-2.76806,39.33984H360.94531l-.00024-5.66266h19.54956Zm-53.97193,23.32074h19.54859l.00049,4.3902H326.52344Zm6.88379-5.70264h19.54981L352.957,201.34h-19.5498Zm6.88477-5.70263h19.54883l.00024,5.19244H340.292Zm26.43384-.5102H347.17651v-5.19244H366.7251Zm-12.66431-10.89508h19.07788l.00049,5.19245H354.06152Zm13.2561-6.67279-.00024-5.66266h19.54858l.00049,5.66266H367.31738Zm15.80371-6.26611h-5.67187V152.72957h5.67187Zm-6.17187,0h-5.67188V152.72957h5.67188Zm-6.17188,0h-5.67089V152.72957h5.67089Zm-6.17089,0h-5.67188V152.72957h5.67188Zm-6.17188,0h-2.384V152.72957h2.384Zm-60.27734-13.87109v-12.54h29.418v12.54h-12.303v-2.49433a7.53031,7.53031,0,0,0,3.28271-4.06695,9.61551,9.61551,0,0,0,.54859-3.08631c0-.09729-.0022-.15149-.0022-.15478l-.01074-.23914h-.239c-.00024-.00006-.00488-.00006-.47461,0h-.25v.25a4.6488,4.6488,0,0,1-1.7185,3.64166,6.53747,6.53747,0,0,1-4.19849,1.41108h-.10449a6.4698,6.4698,0,0,1-4.18018-1.41047,4.66054,4.66054,0,0,1-1.7019-3.64227v-.25h-.24976c-.50317-.00006-.5083-.00006-.50879,0h-.2373l-.01245.23682c-.00025.004-.00293.05939-.00293.1582a9.612,9.612,0,0,0,.54858,3.087,7.54214,7.54214,0,0,0,3.17774,3.99627v2.56318Zm-34.68506-46.93409a42.35046,42.35046,0,0,1,9.10254-26.04382c.3894.40015.76294.8009,1.1101,1.19891a30.78751,30.78751,0,0,1,3.67554,5.22687c.387.69647.66748,1.27039.85059,1.66919.06933.15082.12036.26746.16235.3653a42.871,42.871,0,0,0-3.863,17.58355Zm15.17212-16.96972.25439-.28516c.00025-.00024.05982-.0675.18994-.20148,1.03784-1.06579,6.37964-6.17675,17.7024-10.73986a42.87336,42.87336,0,0,0-10.74366,28.19622H275.01025A42.37667,42.37667,0,0,1,278.64429,88.32583Zm19.17358-11.625a97.81876,97.81876,0,0,1,15.62647-4.53247,42.9602,42.9602,0,0,0-15.85889,33.12719H286.54736A42.38764,42.38764,0,0,1,297.81787,76.70083Zm27.23584,15.26465H313.19116a30.86554,30.86554,0,0,1,5.86133-8.18805c.189-.18885.38623-.369.57983-.55292a30.96068,30.96068,0,0,1,3.56836-2.9162c.603-.42175,1.21949-.82489,1.853-1.20349V91.96548Zm.38062-13.07959q1.29455-.74872,2.66528-1.3722A30.59556,30.59556,0,0,1,338.90674,74.826q.83826.05145,1.66357.14844V91.96548h-15.0166V78.88589Zm30.65356,13.07959H341.07031V75.03792a30.6238,30.6238,0,0,1,15.01758,6.37018Zm2.67285-8.18805a30.8719,30.8719,0,0,1,5.86133,8.18805h-8.03418V81.80208Q357.72095,82.73813,358.76074,83.77743ZM311.82275,95.2a30.5923,30.5923,0,0,1,1.3003-3.10144v.367h11.93066v12.83007H310.04224A30.721,30.721,0,0,1,311.82275,95.2Zm13.731-2.73449h15.0166v12.83007h-15.0166Zm15.5166,12.19641V92.46548h15.01758v12.83007H341.07031Zm15.51758-12.19641h8.27417a30.65311,30.65311,0,0,1,2.90894,12.83007H356.58789ZM328.0752,155.09682v-2.36725h5.67187v13.37116H328.0752Zm6.17187,6.17188v-8.53913H339.919v13.37116h-5.67188Zm6.17188-2.61963v-5.9195h5.67187v13.37116H340.419Zm6.17187,6.17187V152.72957h5.42383v13.37116h-5.42383Zm5.42383-12.5913H340.419v-12.5401h11.5957Zm-12.0957-10.98v10.98H328.075v-12.5401h11.844Zm-23.9021,24.85107-.2854-4.3714v-8.99976h5.67187v13.37116Zm5.88647-13.37116h5.67188v13.37116h-5.67188ZM272.22168,78.89205a42.85123,42.85123,0,0,0-9.24951,26.4035H251.93506a42.41445,42.41445,0,0,1,12.45679-29.83947q.68261-.68253,1.39721-1.332A27.3773,27.3773,0,0,1,272.22168,78.89205ZM240.39062,139.6896h57.26661v26.41113H240.39062Zm57.76661,13.04h4.73144v13.37116h-4.73144Zm5.23144,0h5.54981v2.87653l-.30884,9.935a1.12457,1.12457,0,0,0-.21362-.0351,1.404,1.404,0,0,0-1.07593.59473h-3.95142Zm8.69092,3.13428h.02173l2.604,9.64746a1.41389,1.41389,0,0,0-1.04394.58942h-3.90161Zm13.66748,10.73682h1.82813v.0293h28.47534v-.0293h10.76684v5.76617h-6.37207v6.17285h-6.88379v5.70264h-6.88476V189.945H339.792v5.70263h-6.88476v5.70264h-6.88379v4.89014H312.949V166.60067ZM312.44873,238.1979v33.832H287.51245v-33.832Zm-.1333,76.16107-6.478-6.4776a11.22793,11.22793,0,0,1,6.478-2.22357Zm-6.88281-6.175,6.88281,6.88233v9.86492L301.60815,314.2239a11.15823,11.15823,0,0,1,3.82447-6.03992Zm-3.9585,6.6134,10.84131,10.84119v2.59406a11.273,11.273,0,0,1-10.84131-13.43525Zm10.97461-42.26745L312.449,305.151a11.78554,11.78554,0,0,0-10.10522,5.91455h-14.8313V272.52993ZM302.0708,311.56557a11.70914,11.70914,0,0,0-1.00537,2.76392l-.02954.02954.01733.01746a11.768,11.768,0,0,0,11.26221,14.35614v9.43206h-24.803V311.56557Zm10.74463,16.66706v-7.76081l9.3938-9.39386a11.27829,11.27829,0,0,1-9.3938,17.15467Zm0-8.46814V305.6578a11.27712,11.27712,0,0,1,9.12646,4.98016Zm82.64893-113.52411H346.572v-4.40045h6.88477v-5.70264h6.88379v-5.70264h6.88476V184.732h6.41406v-5.70264h7.35547v-6.1626h6.3711v-6.26611h8.09839Zm.00048-40.13965H389.793V152.72957h5.67139ZM389.293,152.72957v13.37116h-5.52954V152.72957Zm-33.24243-.49993v-12.54h27.21264l.00025,12.54ZM245.52612,85.26235a42.68017,42.68017,0,0,1,12.05689-13.887,26.67542,26.67542,0,0,1,7.73388,2.5083,42.92813,42.92813,0,0,0-13.88183,31.41186H240.397A42.35472,42.35472,0,0,1,245.52612,85.26235Zm-21.31543,81.33832h88.238v39.49908h-88.238ZM184.781,212.20907h7.302v6.33258h-7.30176Zm34.94726,6.33258h-1.22436v-6.33258h5.207v6.33258Zm3.98267.5v6.333h-5.207v-6.333h5.207Zm-13.84766-.5v-6.33258h8.14063v6.33258Zm8.14063.5v6.333h-8.14063v-6.333Zm-16.78028-.5v-6.33258h8.13965v6.33258Zm8.13965.5v6.333h-8.13965v-6.333Zm-11.61816-.5H192.583v-6.33258h8.14062v6.33258Zm2.97851.5v6.333H192.583v-6.333h8.14062Zm-15.94238,0H192.083v6.333h-7.30176Zm7.30176,6.833v6.33251h-7.30152l-.00024-6.33251Zm.5,0h8.14062v6.33251H192.583Zm8.64062,0h8.13965v6.33251h-8.13965Zm8.63965,4.78546v-4.78546h8.14063v6.33251h-8.14063Zm8.64063-4.78546h5.207v6.33251h-5.207Zm-39.99634-19.13434h45.20337v4.96881H184.28125v20.998h39.42969v4.96875l-45.20337.00006Zm14.16162,47.67376c-.03345.01178-.05322.01831-.07568.02594-.09009-.03064-.2605-.09033-.5149-.189a24.67663,24.67663,0,0,1-7.67382-4.82117,17.19825,17.19825,0,0,1-5.57764-11.254H206.3584a17.586,17.586,0,0,1-6.87573,12.38257,25.07239,25.07239,0,0,1-4.79566,3.00513c-.65381.3139-1.19824.5401-1.57837.6875C192.9187,254.32473,192.76978,254.37868,192.66919,254.41408Zm11.55664-120.80114c8.4917,4.825,13.68848,11.45617,13.6853,18.72461.00318,7.26837-5.1936,13.89959-13.6853,18.72454-7.62085,4.33014-17.87915,7.17719-29.29419,7.71381a63.687,63.687,0,0,0,23.52564-7.27905c8.57543-4.87049,13.93481-11.6333,13.938-19.1593-.00317-7.52607-5.36255-14.28888-13.938-19.15937a63.687,63.687,0,0,0-23.52564-7.279C186.34668,126.43575,196.605,129.2828,204.22583,133.61294Zm-65.82837,34.65081c-7.85864-4.16351-12.73071-9.84826-12.72388-15.9262-.00683-6.07776,4.86524-11.76252,12.72388-15.92609a63.17312,63.17312,0,0,1,24.03442-6.52551,6.97853,6.97853,0,0,0,.90943,3.20343,2.42715,2.42715,0,0,0-.96045.58654,2.47386,2.47386,0,0,0-.71191,1.93506l2.58471-2.58477.08057-.04023-.03882-.18847c0-.00019-.0105-.05023-.0271-.1482a11.21336,11.21336,0,0,1-.15234-1.82208,8.8024,8.8024,0,0,1,.07129-1.06366q1.33154-.07818,2.68383-.10992.28712.00686.57325.0155a7.67716,7.67716,0,0,0,2.75317,3.5509,2.42817,2.42817,0,0,0-.761.7298,2.47635,2.47635,0,0,0-.31836,2.0376l1.61866-2.4314.01513.0083.34009-.54187.10132-.15222-.00684.00159.05152-.0824-.11743-.13947-.08106-.10046a10.45748,10.45748,0,0,1-1.56372-2.79144c9.95923.574,19.03149,3.02966,25.86841,6.65338,7.85864,4.16357,12.731,9.84833,12.72412,15.92609.00684,6.07794-4.86548,11.76269-12.72412,15.9262-7.42871,3.93726-17.49634,6.4939-28.47315,6.75763C155.89355,174.75765,145.82593,172.201,138.39746,168.26375Zm25.895-39.1264a4.49674,4.49674,0,0,1,.45386-1.26117,2.77413,2.77413,0,0,1,2.241-1.44061,5.26593,5.26593,0,0,0-.05468.75494,6.71836,6.71836,0,0,0,.323,1.97058q-1.12684-.0324-2.26539-.0335C164.75635,129.12759,164.52563,129.13528,164.29248,129.13735ZM131.7688,171.06209c-8.49146-4.825-13.68823-11.45617-13.68506-18.72454-.00317-7.26844,5.1936-13.89966,13.68506-18.72461,8.12158-4.61463,19.2373-7.54639,31.55786-7.78974a7.00493,7.00493,0,0,0-.91113,3.35089c-10.78247.35328-20.65528,2.89679-28.01441,6.79554-7.93408,4.20507-12.98315,10.00024-12.99,16.36792.00684,6.36779,5.05591,12.163,12.99,16.368,7.94165,4.20727,18.80835,6.84118,30.58911,6.84186,11.78-.00068,22.64649-2.63459,30.58789-6.84186,7.93409-4.205,12.98316-10.00025,12.99-16.368-.00684-6.36762-5.05591-12.16285-12.99-16.36792-6.95654-3.68561-16.1582-6.16346-26.2517-6.72187a4.30049,4.30049,0,0,1-.15357-1.07007,2.73782,2.73782,0,0,1,.73926-1.91107,1.90836,1.90836,0,0,0,.48291-.28625c10.821.70422,20.5249,3.49023,27.81519,7.63257,8.49169,4.825,13.68847,11.45617,13.6853,18.72461.00317,7.26837-5.19361,13.89959-13.6853,18.72454-8.48609,4.82172-20.23755,7.81421-33.22095,7.81354C152.0061,178.8763,140.25488,175.88381,131.7688,171.06209Zm32.65454,12.46924h5.99609l-.2102,22.709h-5.9961Zm-10.46143,54.14459-.00024-30.9356h24.04565l.00049,30.9356h-24.0459Zm9.88672,124.37061-.00024-118.61084h5.99585l.00049,118.61084Zm34.88037-.208c-2.9768-3.03937-5.02978-8.75219-5.07812-15.32568H213.791c-.0481,6.57349-2.10108,12.28631-5.07789,15.32568Zm10.47193.208c3.071-3.25262,5.09155-9.09778,5.09472-15.78369v-.25h-10.4978V328.73263a11.77528,11.77528,0,0,0,9.75781-18.01862l.13184-.13184-.35376-.35357-.05127.05133a11.79238,11.79238,0,0,0-21.23364,4.04962l-.02954.02948.01733.01746a11.768,11.768,0,0,0,11.26123,14.35614v17.28021H193.14648v.25c.00318,6.68591,2.02369,12.53107,5.09473,15.78369H170.34448V238.17586h7.981a18.08662,18.08662,0,0,0,7.06592,12.77253,25.08789,25.08789,0,0,0,6.94409,3.93121,5.02243,5.02243,0,0,1-1.1582,3.11914,5.73591,5.73591,0,0,0,0,7.16742,5.24084,5.24084,0,0,1,0,6.59277,5.7386,5.7386,0,0,0,0,7.16931,5.24249,5.24249,0,0,1,0,6.59394,5.51333,5.51333,0,0,0-1.25733,3.5849h.5a5.0039,5.0039,0,0,1,1.16626-3.297,5.73921,5.73921,0,0,0,0-7.16974,5.2417,5.2417,0,0,1,0-6.59338,5.73792,5.73792,0,0,0,0-7.16883,5.23886,5.23886,0,0,1,0-6.59137,5.54191,5.54191,0,0,0,1.24951-3.40136,25.07825,25.07825,0,0,0,6.95972-3.937,18.0871,18.0871,0,0,0,7.06543-12.77253h16.8501v99.98883h-.56836v.5h.56836v23.38184Zm-5.40308-41.57471,9.39429-9.39428a11.27852,11.27852,0,0,1-9.39429,17.15509Zm0-.70733V305.6578a11.26037,11.26037,0,0,1,7.74048,3.29693,11.3752,11.3752,0,0,1,1.38647,1.68286Zm-.5-5.40546-6.47754-6.47784a11.22771,11.22771,0,0,1,6.47754-2.22339Zm-6.88208-6.17529,6.88208,6.88257v9.86492L192.59131,314.224a11.15779,11.15779,0,0,1,3.82446-6.04022Zm-3.95825,6.61364,10.84033,10.84119v2.59406a11.273,11.273,0,0,1-10.84033-13.43525Zm64.2749,47.24915H224.21069V338.66469h32.52173Zm4.1814-32.56934h10.24634v32.56934H260.91382Zm10.74634,32.56934V329.47719h8.83471l.00025,32.56934Zm8.85644-33.06934H256.98242l-.177.07319-.073.17681v8.9375H224.21069V311.56557H280.5166Zm0-28.66992h-3.28808v-5.84668h3.28808Zm-6.66894-12.40869h2.88086v6.062h-2.88086Zm0-.5v-2.84131a4.34466,4.34466,0,0,1,2.88086-4.11255v6.95386Zm0,7.062h2.88086v5.84668h-2.88086Zm6.66894-.5h-3.28808v-6.062h3.28808Zm0-6.562h-3.28808v-7.10907a4.39905,4.39905,0,0,1,.84326-.1123,4.35449,4.35449,0,0,1,2.44482.865Zm0-6.96759a4.86223,4.86223,0,0,0-2.61816-.77118h-1.84082a4.89744,4.89744,0,0,0-4.89746,4.89746v16.25h9.35644v10.2583H224.21069V272.52993H280.5166Zm0-14.15448h-3.28808v-5.84668h3.28808Zm-6.66919-12.40918h2.88111v6.0625h-2.88111Zm0-.5V250.526a4.3452,4.3452,0,0,1,2.88111-4.11212v6.95343Zm0,7.0625h2.88111v5.84668h-2.88111Zm6.66919-.5h-3.28808v-6.0625h3.28808Zm0-6.5625h-3.28808v-7.10858a4.39985,4.39985,0,0,1,.84326-.11231,4.35482,4.35482,0,0,1,2.44482.865Zm0-6.96716a4.86218,4.86218,0,0,0-2.61816-.77112h-1.84082a4.89734,4.89734,0,0,0-4.89746,4.897v16.25043h9.35644v5.25348H224.21069v-33.832H280.5166Zm.5,115.64636L281.01636,243.477l5.99585.43555.00049,118.134Zm-.5-124.37061H269.44531l-.00024-30.9356h25.2185l.00049,30.9356H280.5166Zm6.99585,124.37061V338.66469h24.803v7.34815H302.16309v.25c.00317,6.68591,2.02368,12.53107,5.09472,15.78369Zm30.70581,0a16.46357,16.46357,0,0,0,3.15357-5.126h12.12573l.00049,5.126Zm42.36182,0H333.9978v-5.13477h6.64063v-5.63427h6.63965v-5.63477h6.63964v-5.63428h6.66236Zm0-28.17285h-13.1687l-.00049-5.12549h13.16919Zm0-5.63428h-6.29419v-5.126h6.29419Zm0-5.626h-6.79395v5.63477h-6.875v5.63428h-6.875v5.63476h-6.16894v5.63428h-6.63965v5.63477h-4.24a31.903,31.903,0,0,0,.32471-4.52344v-.25h-10.363v-17.287a11.77587,11.77587,0,0,0,10.10986-17.16028h37.521ZM339.12793,300.3351h13.92114l.00073,5.05079H341.502a2.13177,2.13177,0,0,0-1.63867-.811,1.97723,1.97723,0,0,0-.63013.11517Zm-2.89746-4.9331.84839,4.4331h-1.90943l.64722-4.4331Zm-1.87134,9.98389.73731-5.05079h2.07812l.96655,5.05079Zm4.61035-15.78565,1.24707.67151-1.24707,2.20795Zm-7.14209.672,1.27808-.68817v2.95019Zm14.5083,15.62335.00025,5.05133H327.28516l-.00025-5.05133Zm14.24439,5.17H346.83569v-5.17968h6.71387v-5.561h7.03052Zm0-11.24072H340.71191l-.00024-5.05084h19.86841Zm0-5.561h-13.1543l-.00024-5.05085h13.15454Zm0-5.561h-6.44043l-.00025-5.05084h6.44068Zm0-5.55078h-6.94043v5.561h-6.71387v5.561h-6.71387v5.561H339.116l-.12891-5.33929,3.45337-4.41425-2.65527-2.57489-.001.00092a2.77279,2.77279,0,0,0-1.57227-.89288,1.00145,1.00145,0,0,0-.27734-.056H334.1543a1.00372,1.00372,0,0,0-.227.04577,2.76581,2.76581,0,0,0-1.66578.90314l-.001-.001-2.6565,2.57459,3.50147,4.4768v.844h.00976l.126,9.26147a1.98119,1.98119,0,0,0-.56348-.08862,2.1352,2.1352,0,0,0-1.64453.8208h-4.248v5.66992h-3.999c-.0686-.11883-.14087-.23492-.21338-.35107l.13233-.13233-.35376-.35357-.05176.0517a11.778,11.778,0,0,0-9.35034-5.11579V272.52993h14.01465v.0849h20.54858v-.0849h13.06763Zm-6.68335-21.9317.00073,5.19195H334.34863l-.00024-5.19195Zm-6.88452,5.70215.00049,5.19244H327.46387l-.00025-5.19244Zm13.56787,5.10748H347.51245v-5.11774h6.88477V261.21h6.18286Zm0-11.31983H341.23242l-.00024-5.19244h19.3479Zm0-5.70263H348.11719l-.00025-5.19245h12.46314Zm0-5.70264H355.002l-.00024-5.19244h5.57837Zm0-5.69238H354.502v5.70264h-6.88476v5.70263h-6.88477v5.70264h-6.88379v5.70215h-6.88476v5.60742H312.94922l-.00025-33.85407h47.63111Zm6.49512,118.43408h-5.99512l-.00025-112.75415,5.99537.43549Zm.49975,0V328.7394h6.2627v-5.63476h6.63964v-5.63428h6.63965v-5.90479h8.3479v50.481Zm59.12183-10.1792h.02075l2.605,9.6474a1.385,1.385,0,0,0-1.00269.5318h-3.92993Z"/><path class="cls-10" d="M212.18457,87.51131a25.74133,25.74133,0,0,0,7.12939,4.03528,5.16214,5.16214,0,0,1-1.19018,3.20978,5.87893,5.87893,0,0,0-.00024,7.34863,5.38432,5.38432,0,0,1,0,6.774,5.88213,5.88213,0,0,0,0,7.35058,5.38579,5.38579,0,0,1,0,6.775,5.6512,5.6512,0,0,0-1.28956,3.67572h.5a5.14174,5.14174,0,0,1,1.19849-3.3877,5.88286,5.88286,0,0,0,0-7.35107,5.3851,5.3851,0,0,1,0-6.77454,5.88138,5.88138,0,0,0,0-7.35,5.38258,5.38258,0,0,1-.00024-6.77246,5.67678,5.67678,0,0,0,1.28173-3.49219,25.72078,25.72078,0,0,0,7.14576-4.041,18.45487,18.45487,0,0,0,7.32422-14.749,14.7118,14.7118,0,1,0-29.42359,0A18.45416,18.45416,0,0,0,212.18457,87.51131Zm-2.66186-24.79864a14.212,14.212,0,0,1,24.26147,10.04968,17.951,17.951,0,0,1-7.1377,14.359,25.73556,25.73556,0,0,1-4.92285,3.08508c-.67138.32227-1.23047.55451-1.62036.70581-.19507.07563-.3479.13105-.45141.16742-.0354.01245-.0564.01941-.07984.02735-.092-.03125-.26806-.09284-.531-.19477a25.3312,25.3312,0,0,1-7.8772-4.94946,17.62812,17.62812,0,0,1-5.80371-13.20044A14.16741,14.16741,0,0,1,209.52271,62.71267Z"/><polygon class="cls-10" points="141.593 152.606 137.604 147.437 135.086 147.668 135.086 161.086 137.659 160.851 137.659 151.531 141.574 156.485 145.601 150.714 145.601 160.125 148.137 159.893 148.137 146.475 145.729 146.694 141.593 152.606"/><path class="cls-10" d="M154.292,149.2018a5.727,5.727,0,0,0-5.20117,5.65918,4.50125,4.50125,0,0,0,5.25684,4.66651,5.80421,5.80421,0,0,0,4.57617-2.71631l-2.07715-1.023a3.01865,3.01865,0,0,1-2.46289,1.54834,2.47434,2.47434,0,0,1-2.84863-1.835l7.88574-.72119v-.95508A4.44972,4.44972,0,0,0,154.292,149.2018Zm-2.68359,4.30811a3.10037,3.10037,0,0,1,2.68359-2.15772,2.25213,2.25213,0,0,1,2.61035,1.67334Z"/><path class="cls-10" d="M165.28125,148.19741a5.74617,5.74617,0,0,0-5.23828,5.644,4.62694,4.62694,0,0,0,5.23828,4.68653,5.76407,5.76407,0,0,0,5.25781-5.64551A4.64154,4.64154,0,0,0,165.28125,148.19741Zm.01855,7.9209a2.44818,2.44818,0,0,1-2.71972-2.52686,3.04791,3.04791,0,0,1,2.71972-3.02441,2.45825,2.45825,0,0,1,2.72071,2.52734A3.06193,3.06193,0,0,1,165.2998,156.11831Z"/><polygon class="cls-10" points="181.805 153.397 179.488 147.101 177.228 147.308 174.874 153.993 172.871 147.706 170.298 147.941 173.515 157.573 175.94 157.352 178.33 150.663 180.701 156.916 183.092 156.698 186.455 146.464 183.882 146.699 181.805 153.397"/><polygon class="cls-10" points="189.448 141.632 186.911 141.864 186.911 156.349 189.448 156.117 189.448 141.632"/><path class="cls-10" d="M200.31055,145.19741l-2.64746.24219-2.44434,6.6206-2.57324-6.16211-2.70117.24707,3.98828,9.13916-.166.41944c-.49609,1.22216-1.04785,1.67675-1.94824,1.75927a1.62568,1.62568,0,0,1-1.3418-.48388l-1.4707,2.19287a4.66757,4.66757,0,0,0,2.832.66015c2.09473-.1914,3.16113-1.15283,4.19043-3.78417Z"/><path class="cls-10" d="M285.9812,153.53139v-2.10351a5.5575,5.5575,0,0,0-5.55737-5.55811H253.31152a5.55755,5.55755,0,0,0-5.55761,5.55811v2.10351a5.55784,5.55784,0,0,0,5.55761,5.55854h27.11231A5.55779,5.55779,0,0,0,285.9812,153.53139ZM284,147.85122a5.04129,5.04129,0,0,1,1.48145,3.57666v.80176h-5.06739v-5.85993h.00977A5.0404,5.0404,0,0,1,284,147.85122Zm-4.08594-1.48151v5.85993h-5.92578v-5.85993h5.92578Zm-6.42578,5.85993H267.5625v-5.85993h5.92578Zm-6.42578,0h-5.9248v-5.85993h5.9248Zm-6.4248-5.85993v5.85993h-5.92579v-5.21357a5.00166,5.00166,0,0,1,2.42774-.64636Zm-6.42579,11.27411a4.93757,4.93757,0,0,1-2.1311-4.11243v-.80175h2.1311Zm-2.1311-5.41418v-.80176a4.93766,4.93766,0,0,1,2.1311-4.11225v4.914Zm2.6311,5.71374v-5.21374h5.92579V158.59h-3.498A5.0012,5.0012,0,0,1,254.71191,157.94338Zm6.42579-5.21374h5.9248V158.59h-5.9248Zm6.4248,0h5.92578V158.59H267.5625Zm6.42578,5.86035v-5.86035h5.92578V158.59h-5.92578Zm6.43555,0h-.00977v-5.86035h5.06739v.80175a5.0584,5.0584,0,0,1-5.05762,5.0586Z"/><path class="cls-10" d="M172.96582,232.63387l.073-.1767v-20.498l-.073-.1767-.17676-.0733h-13.8584v20.998h13.8584Zm-6.73144-13.59222h6.30419l.00025,6.333h-6.30444Zm6.30419-.5h-6.30419v-6.33258h6.30419Zm-11.16381-6.33258h4.35962v6.33258h-4.35962Zm0,6.83258h4.35962v6.333h-4.35962Zm0,6.833h4.35962v6.33251h-4.35962Zm11.16406,6.33251h-6.30444v-6.33251h6.30444Z"/><path class="cls-10" d="M135.68066,320.31509a6.10289,6.10289,0,0,0-6.10351,6.103,7.61783,7.61783,0,0,0,3.02026,6.08533,10.5865,10.5865,0,0,0,2.81763,1.616,1.98275,1.98275,0,0,1-.44238,1.11456,2.5279,2.5279,0,0,0,0,3.14551,2.03217,2.03217,0,0,1,0,2.57037,2.52912,2.52912,0,0,0,0,3.14636,2.03226,2.03226,0,0,1,0,2.57044,2.439,2.439,0,0,0-.54883,1.57318h.5a2.01564,2.01564,0,0,1,.08423-.57654,6.32108,6.32108,0,0,0,3.6394-.37268,5.22032,5.22032,0,0,0,1.36719-.85425v.44641l-1.23047,14.35248a2.41209,2.41209,0,0,0-.87988-.15362,2.47486,2.47486,0,0,0-1.84961.91162l2.67041-.06793-.00073.00738h1.09082l2.845-9.11621h.62231a8.30291,8.30291,0,0,0,1.38843,2.36865,7.833,7.833,0,0,0,4.427,2.58661,2.445,2.445,0,0,0-.88208,1.325,2.47564,2.47564,0,0,0,.36328,2.02979l.85694-3.28467.00244.00049.00708-.03632.07885-.30255a2.5986,2.5986,0,0,0-.27368.17212,7.629,7.629,0,0,1-4.34448-2.68286,7.90441,7.90441,0,0,1-1.18823-2.17627h1.063V344.82a4.08725,4.08725,0,0,1,1.4602,1.55609,5.00711,5.00711,0,0,1,.46582,3.43555l.14649.03564a5.24393,5.24393,0,0,0-.32325-3.6206,4.62091,4.62091,0,0,0-1.13965-1.49073,3.82834,3.82834,0,0,0-.60961-.41473v-.36749a.921.921,0,0,0-.92066-.92139h-2.99316a.85235.85235,0,0,0-.85254.85156v1.98835a4.78716,4.78716,0,0,1-1.50293,1.123,6.07686,6.07686,0,0,1-3.45459.50464,2.927,2.927,0,0,1,.32446-.54523,2.52912,2.52912,0,0,0,0-3.14636,2.03222,2.03222,0,0,1,0-2.57043,2.529,2.529,0,0,0,0-3.14631,2.03093,2.03093,0,0,1,0-2.56951,2.50845,2.50845,0,0,0,.53223-1.39075,10.55043,10.55043,0,0,0,2.84961-1.62787,7.61945,7.61945,0,0,0,3.01953-6.08533A6.10248,6.10248,0,0,0,135.68066,320.31509Zm2.76954,11.79846a10.26478,10.26478,0,0,1-1.96338,1.23047c-.26783.12854-.49048.221-.64527.281-.07055.02747-.12182.04584-.16113.05982-.03955-.014-.09033-.03247-.16089-.05982a10.10391,10.10391,0,0,1-3.14038-1.97278,6.98393,6.98393,0,0,1-2.30225-5.23413,5.60315,5.60315,0,0,1,11.2063,0A7.11574,7.11574,0,0,1,138.4502,332.11355Z"/><path class="cls-10" d="M312.06055,146.51815a2.68235,2.68235,0,1,0-2.68262-2.68256A2.68232,2.68232,0,0,0,312.06055,146.51815Z"/><path class="cls-10" d="M142.19629,342.05971a2.68237,2.68237,0,1,0-2.68164-2.68261A2.6824,2.6824,0,0,0,142.19629,342.05971Z"/><path class="cls-10" d="M336.22754,280.22134a2.68234,2.68234,0,1,0,2.68237,2.68212A2.68175,2.68175,0,0,0,336.22754,280.22134Z"/><path class="cls-10" d="M168.09668,115.87166a2.5322,2.5322,0,1,0-2.53223-2.53216A2.532,2.532,0,0,0,168.09668,115.87166Z"/><path class="cls-10" d="M289.03809,232.63387l.073-.1767v-20.498l-.073-.1767-.17676-.0733H275.002v20.998h13.85938Zm-6.73145-13.59222h6.3042l.00024,6.333h-6.30444Zm6.3042-6.83258v6.33258h-6.3042v-6.33258h6.3042Zm-11.16382,0h4.35962v6.33258H277.447Zm0,6.83258h4.35962v6.333H277.447Zm0,6.833h4.35962v6.33251H277.447Zm11.16406,6.33245h-6.30444v-6.33245h6.30444Z"/><path class="cls-10" d="M398.6084,232.70711H401.989v-20.998H300.37891v20.998H398.6084Zm-.25-7.33245H395.083v-6.333h3.27539Zm-97.47974-6.333h7.302v6.333h-7.30175Zm7.802,0h8.14063v6.333h-8.14063Zm8.64063,2.91229v-2.91229h8.13965v6.333h-8.13965Zm8.63965-2.91229h8.14062v6.333h-8.14062Zm8.64062,0h8.14063v6.333h-8.14063Zm8.64063.37872v-.37872h8.13965v6.333h-8.13965Zm8.63965-.1524v-.22632h8.14062v6.333h-8.14062Zm8.64062-.22632h8.13965v6.333h-8.13965Zm8.63965,0h8.14062v6.333h-8.14062Zm8.64062,0h8.14063v6.333h-8.14063Zm8.64063,0H394.583v6.333h-8.13965Zm11.915-.5H395.083v-6.33258h3.27539Zm-3.77539,0h-8.13965v-6.33258H394.583Zm-8.63965,0h-8.14063v-6.33258h8.14063Zm-8.64063,0h-8.14062v-6.33258h8.14062Zm-8.64062,0h-8.13965v-6.33258h8.13965Zm-8.63965,0h-8.14062v-6.33258h8.14062Zm-8.64062-6.33258v6.33258h-8.13965v-6.33258h8.13965Zm-8.63965,0v6.33258h-8.14063v-6.33258h8.14063Zm-8.64063,0v6.33258h-8.14062v-6.33258h8.14062Zm-8.64062,6.33258h-8.13965v-6.33258h8.13965Zm-8.63965,0h-8.14063v-6.33258h8.14063Zm-15.94263-6.33258h7.302v6.33258h-7.302Zm.00025,13.66559h7.30175v6.33251h-7.30175Zm7.80175,0h8.14063v6.33251h-8.14063Zm8.64063,0h8.13965v6.33251h-8.13965Zm8.63965,6.33251v-6.33251h8.14062v6.33251h-8.14062Zm8.64062-6.33251h8.14063v6.33251h-8.14063Zm8.64063,6.33251v-6.33251h8.13965v6.33251h-8.13965Zm8.63965,0v-6.33251h8.14062v6.33251h-8.14062Zm8.64062,0v-6.33251h8.13965v6.33251h-8.13965Zm8.63965-6.33251h8.14062v6.33251h-8.14062Zm8.64062,0h8.14063v6.33251h-8.14063Zm8.64063,0H394.583v6.33251h-8.13965Zm8.63965,6.33251v-6.33251h3.27539v6.33251Z"/><path class="cls-10" d="M412.002,173.53774a2.53211,2.53211,0,1,0,2.53223-2.53223A2.53176,2.53176,0,0,0,412.002,173.53774Z"/><path class="cls-10" d="M423.99512,339.839a2.682,2.682,0,1,0,2.68164-2.68262A2.68183,2.68183,0,0,0,423.99512,339.839Z"/><path class="cls-10" d="M315.939,31.93764h.52784a7.38685,7.38685,0,0,0-14.1272,0H315.939Z"/><rect class="cls-10" x="349.34253" y="32.43752" width="73.12012" height="9.64465"/><polygon class="cls-10" points="283.296 42.082 348.843 42.082 348.842 32.438 283.296 32.438 209.676 32.438 209.676 42.082 283.296 42.082"/><path class="cls-1" d="M282.7959,42.58211h66.54663V31.93764H209.17578V42.58211H282.7959ZM209.676,42.08217l-.00049-9.64465H348.84229l.00048,9.64465H209.676Z"/></svg>