<svg id="Layer_1" data-name="Layer 1" xmlns="http://www.w3.org/2000/svg" viewBox="0 0 600 400"><defs><style>.cls-1{fill:#adccbd;}.cls-2{fill:#579578;}.cls-3{isolation:isolate;}.cls-4{fill:#00371d;}.cls-5{fill:#2b7a55;}.cls-11,.cls-12,.cls-13,.cls-14,.cls-15,.cls-16,.cls-17,.cls-18,.cls-5,.cls-6,.cls-7,.cls-8,.cls-9{stroke:#002212;}.cls-10,.cls-11,.cls-12,.cls-13,.cls-14,.cls-15,.cls-16,.cls-17,.cls-18,.cls-5,.cls-6,.cls-7,.cls-8,.cls-9{stroke-linecap:round;stroke-linejoin:round;stroke-width:0.48px;}.cls-10,.cls-6{fill:none;}.cls-7{fill:#82e485;}.cls-8{fill:#f5f9f4;}.cls-9{fill:#ffaa05;}.cls-10{stroke:#82e485;}.cls-11{fill:#f1f5ee;}.cls-12{fill:#b2b9ae;}.cls-13{fill:#fff;}.cls-14{fill:#e2fa9f;}.cls-15{fill:#9ac12f;}.cls-16{fill:#708d22;}.cls-17{fill:#459a2c;}.cls-18{fill:#1d4610;}</style></defs><title>illo_revenue_thumbnail</title><rect class="cls-1" width="600" height="400"/><path class="cls-2" d="M347.16,269c-26.22-15.14-68.58-15.14-94.62,0s-25.91,39.67.3,54.8,68.58,15.14,94.62,0,25.91-39.68-.3-54.81"/><g class="cls-3"><path class="cls-4" d="M334.87,276.18c-19.38-11.2-50.71-11.19-70,0s-19.16,29.33.23,40.52,50.71,11.2,70,0,19.16-29.34-.23-40.53"/></g><path class="cls-5" d="M372.6,184.16H227.4l23.35,110.08c1.06,6.43,5.85,12.7,14.38,17.62,19.38,11.19,50.71,11.2,70,0,8.46-4.91,13.18-11.17,14.18-17.6Z"/><path class="cls-4" d="M369.66,184.16H230.12Q229,185.56,228,187l9.06,42.68a65.11,65.11,0,0,0,8.37,5.71c30.34,17.52,79.37,17.52,109.52,0a64.15,64.15,0,0,0,8-5.43l9-42.75C371.26,186.17,370.5,185.16,369.66,184.16Z"/><path class="cls-6" d="M372.6,184.16H227.4l23.35,110.08c1.06,6.43,5.85,12.7,14.38,17.62,19.38,11.19,50.71,11.2,70,0,8.46-4.91,13.18-11.17,14.18-17.6Z"/><path class="cls-5" d="M377.45,184.28h-1.87c-3.12-8.08-10.12-15.76-21-22-30.34-17.52-79.37-17.52-109.52,0-10.81,6.28-17.72,14-20.74,22h-1.77V194h0c.07,11.48,7.69,23,22.87,31.72,30.34,17.52,79.37,17.52,109.52,0,15.07-8.76,22.57-20.24,22.51-31.72h0Z"/><path class="cls-7" d="M354.58,152.56c-30.34-17.52-79.37-17.52-109.52,0s-30,45.92.36,63.44,79.37,17.52,109.52,0,30-45.92-.36-63.44"/><path class="cls-5" d="M299.75,144.26c-19.84,0-38.4,4.43-52.26,12.49-13,7.54-20.11,17.27-20.09,27.41s7.27,20,20.44,27.65c14,8.05,32.56,12.49,52.42,12.49s38.4-4.44,52.25-12.49c13-7.54,20.11-17.27,20.09-27.42s-7.27-20-20.44-27.64C338.21,148.7,319.6,144.26,299.75,144.26Z"/><path class="cls-4" d="M352.86,269.19C339.3,266.66,321,257,301.44,241.92a1.94,1.94,0,1,0-2.36,3.07c20.08,15.42,38.93,25.37,53.07,28,.54.1,1.06.18,1.58.26l.8-3.79C354,269.39,353.43,269.3,352.86,269.19Z"/><path class="cls-8" d="M365.3,218.63l-1.16,5.48c4.27,7.35,6.52,14,6.53,19.49,0,11.46-9.9,14.16-18.22,14.41-13.51.4-31.72-5.31-51.26-16.08a1.94,1.94,0,1,0-1.87,3.39c19.46,10.73,37.77,16.58,51.79,16.58l1.46,0c14-.42,22-7.08,22-18.28C374.53,236.57,371.32,228,365.3,218.63Z"/><path class="cls-9" d="M350.35,195.55a1.92,1.92,0,0,0,.2-1.25c-.33-1.56-2.79-2.39-5.65-2A77.86,77.86,0,0,0,332.22,187c-.19-.24-.38-.49-.6-.72-2.18-2.39-5-3.39-6.26-2.23a1.9,1.9,0,0,0-.53.91,109.08,109.08,0,0,0-18.67-2.62,5.91,5.91,0,0,0-5.89-2,6.21,6.21,0,0,0-3.35,1.89c-3.65.09-7.24.34-10.75.76-.24-2-1.14-3.57-2.39-3.73-1.56-.2-3.13,1.82-3.69,4.62a90.74,90.74,0,0,0-19.75,5.76c-2.75-1-5.55-.37-6.46,1.58a3.15,3.15,0,0,0-.27,1.74l-.84.46c-6.14,3.57-10.83,7.69-13.89,12.12a58.93,58.93,0,0,0,9,6.28c14,8.05,32.56,12.49,52.42,12.49s38.4-4.44,52.25-12.49a57.35,57.35,0,0,0,8.61-6A39.76,39.76,0,0,0,350.35,195.55Z"/><path class="cls-9" d="M253.88,191.21c1-2.1,4.15-2.69,7.08-1.32s4.52,4.18,3.54,6.28"/><path class="cls-9" d="M295.61,186.75a5.89,5.89,0,0,1,11.48-2.38"/><path class="cls-9" d="M339.06,196.67c-.34-1.69,1.94-3.59,5.11-4.25s6,.19,6.38,1.88"/><path class="cls-9" d="M325.36,184.06c1.28-1.16,4.08-.16,6.26,2.23s2.92,5.27,1.64,6.44"/><path class="cls-9" d="M283.78,179.25c1.71.22,2.78,3,2.37,6.21s-2.11,5.64-3.83,5.42"/><path class="cls-4" d="M354.58,152.56c-.64-.37-1.29-.73-1.95-1.09l-10,14.86L340.24,165q-.06.66-.06,1.35c0,8.54,5.77,18.58,13.19,22.86a13.37,13.37,0,0,0,6.61,2,8.65,8.65,0,0,0,4.34-1.13,8.37,8.37,0,0,0,1.87-1.47l3.21-15.8,3.51-3.51C369.15,163.16,363,157.44,354.58,152.56Z"/><path class="cls-4" d="M245.25,152.56c.64-.37,1.29-.73,1.95-1.09l10,14.86,2.36-1.36q.06.66.06,1.35c0,8.54-5.77,18.58-13.19,22.86a13.34,13.34,0,0,1-6.61,2,8.65,8.65,0,0,1-4.34-1.13,8.37,8.37,0,0,1-1.87-1.47l-3.21-15.8-3.51-3.51C230.69,163.16,236.79,157.44,245.25,152.56Z"/><path class="cls-10" d="M233.77,168a32.28,32.28,0,0,0-3.33,4.79"/><path class="cls-4" d="M257.18,178.93a10.34,10.34,0,0,0-8-3.41l-1-.43-.57,1.34c-.52,1.23,1.3,3.18,4.08,4.36s5.44,1.14,6-.09l.56-1.34Z"/><ellipse class="cls-4" cx="253.17" cy="177.23" rx="2.42" ry="5.46" transform="translate(-8.9 341.01) rotate(-67)"/><path class="cls-4" d="M319.37,156.77V127.72H317c0,8.53-7.59,15.46-16.95,15.46s-16.94-6.93-16.94-15.46h-2.43v29.05h0c0,9.86,8.69,17.88,19.37,17.88s19.37-8,19.37-17.88Z"/><path class="cls-11" d="M280.63,84.17a19.37,19.37,0,0,1,38.74,0v38.74H280.63Z"/><ellipse class="cls-12" cx="300" cy="121.42" rx="19.37" ry="17.88"/><ellipse cx="300" cy="121.42" rx="16.95" ry="15.46"/><path class="cls-12" d="M317,150.47c0,8.54-7.59,15.46-16.95,15.46s-16.95-6.92-16.95-15.46h-2.42c0,9.86,8.69,17.88,19.37,17.88s19.37-8,19.37-17.88Z"/><path class="cls-13" d="M317,121.42c0,8.54-7.59,15.46-16.95,15.46s-16.95-6.92-16.95-15.46h-2.42c0,9.86,8.69,17.88,19.37,17.88s19.37-8,19.37-17.88Z"/><polygon class="cls-11" points="283.05 121.42 280.63 121.42 280.63 150.47 283.05 150.47 283.05 121.42 283.05 121.42"/><path class="cls-11" d="M300,136.88c-9.36,0-16.95-6.92-16.95-15.46v29.05h0c0,8.54,7.59,15.46,16.95,15.46S317,159,317,150.47h0v-29C317,130,309.36,136.88,300,136.88Z"/><polygon class="cls-11" points="316.95 121.42 316.95 121.42 316.95 150.47 319.37 150.47 319.37 121.42 316.95 121.42"/><path class="cls-14" d="M425.18,102.44c0-8.53-5.77-18.57-13.2-22.85-4-2.32-7.89-2.62-11-.86a8.55,8.55,0,0,0-1.86,1.47h0l-36.74,36.74,22.72,31,37.08-37.08h0C424.13,108.93,425.17,106,425.18,102.44Z"/><g class="cls-3"><path class="cls-15" d="M379.25,150.24a13.33,13.33,0,0,1-6.61-2c-7.43-4.29-13.22-14.33-13.2-22.86,0-4.58,1.7-8.06,4.74-9.81s6.95-1.46,11,.85h0c7.42,4.28,13.21,14.32,13.19,22.86,0,4.57-1.7,8.06-4.74,9.81A8.55,8.55,0,0,1,379.25,150.24Z"/><path d="M373.93,118.54c-6.64-3.84-12-.76-12.07,6.87s5.35,16.92,12,20.75,12,.76,12.06-6.87-5.34-16.92-12-20.75"/></g><polygon class="cls-14" points="332.81 154.46 332.81 154.46 361.86 125.41 359.5 124.04 330.45 153.1 330.45 153.1 330.45 153.1 332.81 154.46"/><path class="cls-14" d="M385.91,139.29c0,7.63-5.42,10.71-12.06,6.87s-12-13.12-12-20.75h0l-29.05,29.05c0,7.63,5.35,16.92,12,20.75s12,.76,12.06-6.87l2.36,1.37a15.09,15.09,0,0,0,.4,3.77l25.63-25.62h0a11,11,0,0,0,3-7.2Z"/><path class="cls-15" d="M356.86,168.34c0,7.63-5.42,10.71-12.06,6.87s-12-13.12-12-20.75l-2.36-1.36c0,.44-.06.89-.06,1.35,0,8.53,5.77,18.58,13.2,22.86a13.33,13.33,0,0,0,6.61,2,8.57,8.57,0,0,0,4.34-1.13c2.73-1.57,4.37-4.55,4.68-8.45Z"/><polygon class="cls-14" points="385.91 139.29 385.91 139.29 377.57 147.63 375.6 149.6 356.86 168.34 359.22 169.71 359.22 169.71 388.27 140.65 385.91 139.29"/><path class="cls-16" d="M359.22,169.71a11.14,11.14,0,0,1-2.81,7h0L385.15,148l0,0,.07-.08h0a10.09,10.09,0,0,0,2.69-5h0a14.5,14.5,0,0,0,.33-2.17h0Z"/><path class="cls-17" d="M174.82,102.44c0-8.53,5.77-18.57,13.2-22.85,4-2.32,7.89-2.62,10.95-.86a8.55,8.55,0,0,1,1.86,1.47h0l36.74,36.74-22.72,31-37.08-37.08h0C175.87,108.93,174.83,106,174.82,102.44Z"/><g class="cls-3"><path class="cls-18" d="M216.41,149.11c-3-1.75-4.73-5.24-4.74-9.81,0-8.54,5.77-18.58,13.19-22.86h0c4-2.31,7.9-2.61,11-.85s4.72,5.23,4.74,9.81c0,8.53-5.77,18.57-13.2,22.86a13.33,13.33,0,0,1-6.61,2A8.55,8.55,0,0,1,216.41,149.11Z"/><path d="M226.07,118.54c6.64-3.84,12-.76,12.07,6.87s-5.35,16.92-12,20.75-12,.76-12.06-6.87,5.34-16.92,12-20.75"/></g><polygon class="cls-17" points="267.19 154.46 267.19 154.46 238.14 125.41 240.5 124.04 269.55 153.1 269.55 153.1 269.55 153.1 267.19 154.46"/><path class="cls-17" d="M214.09,139.29c0,7.63,5.42,10.71,12.06,6.87s12-13.12,12-20.75h0l29.05,29.05c0,7.63-5.35,16.92-12,20.75s-12,.76-12.06-6.87l-2.36,1.37a15.09,15.09,0,0,1-.4,3.77l-25.63-25.62h0a11,11,0,0,1-3-7.2Z"/><path class="cls-18" d="M243.14,168.34c0,7.63,5.42,10.71,12.06,6.87s12-13.12,12-20.75l2.36-1.36c0,.44.06.89.06,1.35,0,8.53-5.77,18.58-13.2,22.86a13.33,13.33,0,0,1-6.61,2,8.57,8.57,0,0,1-4.34-1.13c-2.73-1.57-4.37-4.55-4.68-8.45Z"/><polygon class="cls-17" points="214.09 139.29 214.09 139.29 222.43 147.63 224.41 149.6 243.14 168.34 240.78 169.71 240.78 169.71 211.73 140.65 214.09 139.29"/><path class="cls-18" d="M240.78,169.71a11.14,11.14,0,0,0,2.81,7h0L214.85,148l0,0-.07-.08h0a10.09,10.09,0,0,1-2.69-5h0a14.5,14.5,0,0,1-.33-2.17h0Z"/><path class="cls-9" d="M369.6,138.05a10.31,10.31,0,0,0-6.61,5.67l-.84.72,1,1.1c.87,1,3.43.24,5.72-1.72s3.43-4.38,2.57-5.39l-.95-1.1Z"/><ellipse class="cls-9" cx="366.3" cy="140.88" rx="5.46" ry="2.42" transform="translate(-3.44 272.46) rotate(-40.63)"/><ellipse cx="350.79" cy="164.6" rx="4.86" ry="3.92" transform="translate(-33.07 111.67) rotate(-17.29)"/><path class="cls-9" d="M310.15,184.32a10.36,10.36,0,0,0-4.91-7.2l-.62-.91-1.2.82c-1.11.75-.62,3.38,1.08,5.87s4,3.9,5.07,3.15l1.2-.82Z"/><ellipse class="cls-9" cx="307.69" cy="180.72" rx="2.42" ry="5.46" transform="translate(-48.33 204.8) rotate(-34.3)"/><path class="cls-9" d="M297.11,118a9,9,0,0,0-2.3,3.82,8.94,8.94,0,0,0-.47,4.44l-.35,1,1.38.47c1.26.42,3.07-1.55,4-4.41s.7-5.52-.56-5.94l-1.38-.47Z"/><ellipse class="cls-9" cx="295.73" cy="122.12" rx="5.46" ry="2.42" transform="translate(85.91 363.66) rotate(-71.46)"/><path class="cls-9" d="M344.4,164.1c.64,2.07,3.25,3.09,5.81,2.3s4.12-3.12,3.48-5.19l-.43-1.39L344,162.71Z"/><ellipse class="cls-9" cx="348.61" cy="161.27" rx="4.86" ry="3.92" transform="translate(-32.17 110.87) rotate(-17.29)"/><path class="cls-9" d="M243.49,155.92c1.49-1.57,1.11-4.34-.83-6.19s-4.74-2.08-6.23-.51l-1,1.06,7.06,6.69Z"/><ellipse class="cls-9" cx="238.96" cy="153.62" rx="3.92" ry="4.86" transform="translate(-36.95 221.25) rotate(-46.51)"/><path class="cls-9" d="M276.6,194c-.66-2.06-3.27-3.06-5.83-2.24s-4.09,3.16-3.43,5.22l.45,1.39,9.26-3Z"/><ellipse class="cls-9" cx="272.42" cy="196.86" rx="4.86" ry="3.92" transform="translate(-47.24 93.01) rotate(-17.85)"/><path class="cls-9" d="M293,159.37c-.38-.2-1.83,1.78-3.23,4.43s-2.23,4.95-1.85,5.16l1.8.95,5.08-9.58Z"/><ellipse class="cls-9" cx="292.21" cy="165.12" rx="5.42" ry="0.78" transform="translate(9.45 345.95) rotate(-62.07)"/><path class="cls-4" d="M293,167.71c-.38-.2-1.83,1.78-3.23,4.42s-2.23,5-1.85,5.16l1.8,1,5.08-9.58Z"/><ellipse class="cls-4" cx="292.21" cy="173.45" rx="5.42" ry="0.78" transform="translate(2.09 350.37) rotate(-62.07)"/><path class="cls-9" d="M241.21,136.28c.26-.34-1.46-2.09-3.84-3.91s-4.53-3-4.79-2.66l-1.23,1.63L240,137.9Z"/><ellipse class="cls-9" cx="235.66" cy="134.62" rx="0.78" ry="5.42" transform="translate(-14.17 240.64) rotate(-52.73)"/><ellipse class="cls-9" cx="332" cy="201.14" rx="4.43" ry="4.97"/><ellipse class="cls-9" cx="332.97" cy="201.14" rx="4.43" ry="4.97"/><ellipse cx="306.81" cy="141.75" rx="4.86" ry="2.89" transform="translate(-28.26 97.57) rotate(-17.29)"/><ellipse cx="233.8" cy="137.06" rx="2.29" ry="5.42" transform="translate(-16.85 240.13) rotate(-52.73)"/><ellipse cx="235.72" cy="157.04" rx="0.79" ry="4.86" transform="translate(-40.44 219.97) rotate(-46.51)"/><path d="M253.63,172.86c-.23.56.45,1.43,1.67,2.29a19.48,19.48,0,0,0,3-2.17C255.94,172.16,254,172.09,253.63,172.86Z"/><path d="M258.28,173c-.46.4-.93.79-1.42,1.14l-.1.08-.63.43a.41.41,0,0,1-.11.07q-.34.24-.72.45v2.75c.37-.18.74-.37,1.11-.59a22.32,22.32,0,0,0,4.3-3.27c-.43-.23-.89-.45-1.37-.66S258.63,173.1,258.28,173Z"/><path class="cls-9" d="M264.3,172.86a9,9,0,0,0-3.64-2.59,8.92,8.92,0,0,0-4.38-.81l-1-.43-.57,1.33c-.52,1.23,1.31,3.18,4.08,4.36s5.45,1.14,6-.09l.57-1.34Z"/><ellipse class="cls-9" cx="260.29" cy="171.16" rx="2.42" ry="5.46" transform="translate(1.02 343.86) rotate(-67)"/><path class="cls-9" d="M300.58,138.09c.64,2.06,3.24,3.09,5.81,2.29s4.12-3.12,3.48-5.18l-.44-1.39-9.28,2.89Z"/><ellipse class="cls-9" cx="304.79" cy="135.25" rx="4.86" ry="3.92" transform="translate(-26.42 96.67) rotate(-17.29)"/><ellipse cx="372.34" cy="145.98" rx="5.46" ry="2.13" transform="translate(-5.31 277.62) rotate(-40.63)"/><polygon points="350.04 176.86 350.04 179.29 348.9 179.21 350.04 176.86"/><path class="cls-9" d="M347.38,172.87a9.08,9.08,0,0,0-2.3,3.83,8.89,8.89,0,0,0-.47,4.43l-.35,1.05,1.38.46c1.26.42,3.07-1.55,4-4.41s.71-5.52-.55-5.94l-1.38-.46Z"/><ellipse class="cls-9" cx="346" cy="177" rx="5.46" ry="2.42" transform="translate(68.16 448.75) rotate(-71.46)"/><path class="cls-4" d="M359,184.14a10.3,10.3,0,0,0-2.77,8.26l-.35,1,1.37.47c1.27.42,3.07-1.55,4-4.41s.71-5.52-.56-5.95l-1.37-.46Z"/><ellipse class="cls-4" cx="357.61" cy="188.27" rx="5.46" ry="2.42" transform="translate(65.4 467.45) rotate(-71.46)"/><path class="cls-9" d="M292,205.32c-.24-1.37,2.38-3,5.86-3.6s6.49,0,6.74,1.37l-.4-2.26c-.24-1.37-3.26-2-6.74-1.37s-6.1,2.22-5.86,3.6Z"/><path class="cls-9" d="M311,218.33c-1-3.07,1.14-6.47,4.72-7.61a7.44,7.44,0,0,1,4.83.07"/><path class="cls-6" d="M264.76,211.15a8.71,8.71,0,0,1,10.74,4.45"/><path class="cls-10" d="M369.39,172.78a32.28,32.28,0,0,0-3.33-4.79"/><path class="cls-6" d="M380,160.9l2.71-.27"/><path class="cls-6" d="M379.23,165.22l4.87,1.89"/><path class="cls-6" d="M222.49,164.68h-3.25"/></svg>