<?xml version="1.0" encoding="utf-8"?>
<!-- Generator: Adobe Illustrator 24.2.1, SVG Export Plug-In . SVG Version: 6.00 Build 0)  -->
<svg version="1.1" id="Layer_1" xmlns="http://www.w3.org/2000/svg" xmlns:xlink="http://www.w3.org/1999/xlink" x="0px" y="0px"
	 viewBox="0 0 1200 900" style="enable-background:new 0 0 1200 900;" xml:space="preserve">
<style type="text/css">
	.st0{opacity:0.2;fill:#260D14;enable-background:new    ;}
	.st1{fill:#039503;stroke:#000000;stroke-width:0.5;stroke-linecap:round;stroke-linejoin:round;}
	.st2{fill:#026302;stroke:#001E01;stroke-width:0.5;stroke-linecap:round;stroke-linejoin:round;}
	.st3{fill:#013101;stroke:#001E01;stroke-width:0.5;stroke-linecap:round;stroke-linejoin:round;}
	.st4{fill:#CDF4CD;stroke:#000000;stroke-width:0.5;stroke-linecap:round;stroke-linejoin:round;}
	.st5{fill:#04C604;stroke:#000000;stroke-width:0.5;stroke-linecap:round;stroke-linejoin:round;}
	.st6{fill:#9BE89B;stroke:#000000;stroke-width:0.5;stroke-linecap:round;stroke-linejoin:round;stroke-dasharray:2.79;}
	.st7{fill:#CDF4CD;stroke:#000000;stroke-width:0.5;stroke-linecap:round;stroke-linejoin:round;stroke-dasharray:2.79;}
	.st8{fill:none;stroke:#001E01;stroke-width:0.5;stroke-linecap:round;stroke-linejoin:round;stroke-dasharray:2.79;}
	.st9{fill:none;stroke:#001E01;stroke-width:0.5;stroke-linecap:round;stroke-linejoin:round;}
	.st10{fill:#039503;stroke:#000000;stroke-width:0.5;stroke-linecap:round;stroke-linejoin:round;stroke-dasharray:2.79;}
	.st11{fill:#68DD68;stroke:#000000;stroke-width:0.5;stroke-linecap:round;stroke-linejoin:round;}
	.st12{fill:#CDF75D;stroke:#000000;stroke-width:0.5;stroke-linecap:round;stroke-linejoin:round;stroke-miterlimit:4;}
	.st13{fill:#FFAA05;stroke:#000000;stroke-width:0.5;stroke-linecap:round;stroke-linejoin:round;}
	.st14{fill:none;stroke:#000000;stroke-width:0.5;stroke-linecap:round;stroke-linejoin:round;}
	.st15{fill:#FFBF4D;stroke:#000000;stroke-width:0.5;stroke-linecap:round;stroke-linejoin:round;}
	.st16{fill:#9AC12F;stroke:#000000;stroke-width:0.5;stroke-linecap:round;stroke-linejoin:round;}
	.st17{stroke:#000000;stroke-width:0.5;stroke-linecap:round;stroke-linejoin:round;}
	.st18{fill:#CDF75D;stroke:#000000;stroke-width:0.5;stroke-linecap:round;stroke-linejoin:round;}
	.st19{fill:#FFAA08;stroke:#000000;stroke-width:0.5;stroke-linecap:round;stroke-linejoin:round;}
	.st20{fill:#36D136;stroke:#000000;stroke-width:0.5;stroke-linecap:round;stroke-linejoin:round;stroke-dasharray:2.79;}
	.st21{fill:#CDF75D;stroke:#000000;stroke-width:0.5;stroke-linecap:round;stroke-linejoin:round;stroke-miterlimit:4.0006;}
	.st22{fill:#36D136;stroke:#000000;stroke-width:0.5;stroke-linecap:round;stroke-linejoin:round;}
	.st23{fill:#CDF75D;stroke:#000000;stroke-width:0.5016;stroke-linecap:round;stroke-linejoin:round;stroke-miterlimit:4.0125;}
	.st24{fill:#C3F53C;stroke:#000000;stroke-width:0.5;stroke-linecap:round;stroke-linejoin:round;}
	.st25{fill:#CDF75D;stroke:#000000;stroke-width:0.5;stroke-linecap:round;stroke-linejoin:round;stroke-miterlimit:3.9997;}
	.st26{fill:#68DD68;stroke:#000000;stroke-width:0.5;stroke-linecap:round;stroke-linejoin:round;stroke-dasharray:2.79;}
	.st27{fill:#68DD68;stroke:#000000;stroke-width:0.5;stroke-linecap:round;stroke-linejoin:round;stroke-dasharray:2.35;}
	.st28{fill:#C3F53C;stroke:#000000;stroke-width:0.5;stroke-linecap:round;stroke-linejoin:round;stroke-miterlimit:4.0003;}
	.st29{fill:#C3F53C;stroke:#000000;stroke-width:0.5001;stroke-linecap:round;stroke-linejoin:round;stroke-miterlimit:4.0008;}
	.st30{fill:#708D22;stroke:#000000;stroke-width:0.5;stroke-linecap:round;stroke-linejoin:round;}
	.st31{fill:#CDF75D;stroke:#000000;stroke-width:0.5;stroke-linecap:round;stroke-linejoin:round;stroke-miterlimit:3.9994;}
	.st32{fill:#04C604;stroke:#000000;stroke-width:0.5;stroke-linecap:round;stroke-linejoin:round;stroke-dasharray:2.79;}
	.st33{fill:#CDF75D;stroke:#000000;stroke-width:0.5;stroke-linecap:round;stroke-linejoin:round;stroke-miterlimit:4.0003;}
	.st34{fill:#04C604;stroke:#000000;stroke-width:0.5;stroke-linecap:round;stroke-linejoin:round;stroke-dasharray:2.07;}
</style>
<g>
	<polygon class="st0" points="1008.1,643.5 814.2,741.3 620.1,643.5 814.2,545.8 	"/>
	<polygon class="st0" points="561.4,645.5 367.4,743.3 173.4,645.5 367.4,547.7 	"/>
	<g id="_0110_yield">
		<polygon class="st1" points="1008.1,512 1008.1,578.6 814.2,676.4 814.2,609.6 		"/>
		<polygon class="st2" points="620.1,512 620.1,578.6 814.2,676.4 814.2,609.6 		"/>
		<polygon class="st2" points="1008.1,578.6 1008.1,624.5 814.2,722.2 814.2,676.4 		"/>
		<polygon class="st3" points="620.1,578.6 620.1,624.5 814.2,722.2 814.2,676.4 		"/>
		<polyline class="st4" points="1008.1,490.4 1008.1,512 814.2,609.6 814.2,588.2 		"/>
		<polyline class="st5" points="620.1,490.4 620.1,512 814.2,609.6 814.2,588.2 		"/>
		<polygon class="st6" points="1008.1,490.5 814.2,588.3 620.1,490.5 814.2,392.9 		"/>
		<path class="st5" d="M817.5,253.5l-151.8,52.7v181.8l5.2,2.6v7.2c0,2,3.3,3.6,7.4,3.6c3.9,0,7.1-1.5,7.4-3.4l12.2,6.1v6.6
			c0,2,3.3,3.6,7.4,3.6c3.5,0,6.6-1.3,7.3-2.9l17.9,9.1v4.6c0,2,3.3,3.8,7.4,3.8c1.3,0,2.6-0.2,3.9-0.6v8.2c0,2,3.3,3.6,7.4,3.6
			c4.1,0,7.4-1.6,7.4-3.6v-2.9l9.6,4.8v2.9c0,1.8,2.5,3.2,5.6,3.6v8.4c0,2,3.3,3.8,7.4,3.8s7.4-1.6,7.4-3.8v-4.6l10.7,5.4v5.3
			c0,2,3.3,3.8,7.4,3.8c2.4,0.1,4.6-0.6,6.5-2l6.1,3.1L817.5,253.5z"/>
		<path class="st7" d="M969.3,284.7l-151.8,47.9v231.7l11.4-5.8c0.4,0,0.8,0,1.2,0c4.1,0,7.4-1.6,7.4-3.8v-0.7l10.7-5.4
			c0,2,3.3,3.8,7.4,3.8s7.4-1.6,7.4-3.8v-7.4l15.9-8c1.1,1.4,3.8,2.4,6.8,2.4c4.1,0,7.4-1.6,7.4-3.8v-5.8l3.8-1.9l0,0
			c4.1,0,7.4-1.6,7.4-3.8l0,0l9.5-4.8v0.7c0,2,3.3,3.6,7.4,3.6c4.1,0,7.4-1.6,7.4-3.6v-6.6h0.8c4.1,0,7.4-1.6,7.4-3.6V504l4.9-2.5
			c1.3,0.4,2.6,0.6,3.9,0.6c4.1,0,7.4-1.6,7.4-3.6v-2.1c1.2,0.4,2.4,0.5,3.5,0.5c4.1,0,7.4-1.6,7.4-3.6v-2.6l5.2-2.6L969.3,284.7z"
			/>
		<line class="st8" x1="686.5" y1="367.5" x2="686.5" y2="497.2"/>
		<line class="st8" x1="698.8" y1="401.7" x2="698.8" y2="499.7"/>
		<line class="st8" x1="741.6" y1="428.6" x2="741.6" y2="526.7"/>
		<line class="st8" x1="787.7" y1="417.8" x2="787.7" y2="541.1"/>
		<line class="st8" x1="810.3" y1="461" x2="810.3" y2="559"/>
		<line class="st8" x1="959.8" y1="391.8" x2="959.8" y2="489.7"/>
		<line class="st8" x1="939.5" y1="368.9" x2="939.5" y2="466.9"/>
		<line class="st8" x1="925.3" y1="396.6" x2="925.3" y2="494.7"/>
		<line class="st8" x1="874.9" y1="436.4" x2="874.9" y2="534.3"/>
		<line class="st8" x1="836.9" y1="453.5" x2="836.9" y2="551.5"/>
		<line class="st9" x1="729.9" y1="396.8" x2="729.9" y2="497.8"/>
		<line class="st9" x1="798.8" y1="444.9" x2="798.8" y2="546"/>
		<line class="st9" x1="887.9" y1="412.3" x2="887.9" y2="513.4"/>
		<path class="st1" d="M668.6,256.5V494c0,0.8-1.4,1.5-3.1,1.5c-1.6,0-3.1-0.7-3.1-1.5V256.5H668.6z"/>
		<path class="st10" d="M719.9,281.5V519c0,0.8-1.4,1.5-3.1,1.5c-1.6,0-3.1-0.7-3.1-1.5V281.5H719.9z"/>
		<path class="st1" d="M771,307.3v237.5c0,0.8-1.4,1.5-3.1,1.5c-1.6,0-3.1-0.7-3.1-1.5V307.3H771z"/>
		<path class="st11" d="M822.6,332.7v237.4c0,0.8-1.4,1.5-3.1,1.5c-1.6,0-3.1-0.7-3.1-1.5V332.7H822.6z"/>
		<path class="st11" d="M869.3,310v237.4c0,0.8-1.4,1.5-3.1,1.5c-1.6,0-3.2-0.7-3.2-1.5V310H869.3z"/>
		<path class="st11" d="M912.9,286.8v237.5c0,0.8-1.4,1.5-3.1,1.5c-1.6,0-3.1-0.7-3.1-1.5V286.8H912.9z"/>
		<path class="st11" d="M956.6,264.5V502c0,0.8-1.4,1.5-3.1,1.5c-1.6,0-3.1-0.7-3.1-1.5V264.5H956.6z"/>
		
			<ellipse transform="matrix(0.978 -0.2086 0.2086 0.978 -43.428 167.3006)" class="st12" cx="771.5" cy="289.5" rx="3.4" ry="1.8"/>
		<path class="st4" d="M736.2,263.1c0,0,1.1-26,1.1-29.8c0-3.8,9.4-7.9,9.4-7.9l-0.1,15.1L736.2,263.1z"/>
		<path class="st13" d="M743.5,237.7c4.5,21.2,10.4,43.5,26.1,40.1c14.5-3.1,12-26.1,7.4-47.3s-20-56.1-29.3-54.1
			C738.4,178.3,738.9,216.5,743.5,237.7z"/>
		<path class="st14" d="M740.4,206.2c0.8,3.6,7.3,5.4,14.7,3.8s12.6-5.8,11.8-9.4"/>
		<path class="st14" d="M740.9,217.3c0.9,4.1,8.4,6.1,16.7,4.4c8.4-1.8,14.4-6.6,13.5-10.7"/>
		<path class="st14" d="M741.8,228c0.9,4.5,9.2,6.5,18.1,4.6s15.4-7.1,14.5-11.5"/>
		<path class="st14" d="M744.2,241.2c0.9,4.6,9.3,6.8,18.6,4.8c9.3-2,15.9-7.2,14.9-11.8"/>
		<path class="st14" d="M746.8,251.4c0.9,4.6,9.1,6.6,18.1,4.7c9.1-1.9,15.3-6.6,14.6-11.4"/>
		<path class="st15" d="M747.7,176.3c4.7-1.1,10.8,7.3,16.5,18.5c0.5,3.2-4.2,6.8-10.6,8.2s-12.4-0.1-13.1-3.4v-0.1
			C740.9,187.2,743.1,177.3,747.7,176.3z"/>
		<line class="st14" x1="747.7" y1="176.3" x2="769.4" y2="277.8"/>
		<path class="st14" d="M747.7,176.3c0,0,3.9,2.1,13.5,30.8c4.7,14,9.6,35.7,10.9,45.5c1.1,7.9,1.4,15.8,1.1,23.7"/>
		<path class="st14" d="M747.7,176.3c0,0,8.6,1.8,18.2,30.5c4.7,14,10.1,34.2,11.4,44.1c1.6,13.3-0.6,22.1-0.6,22.1"/>
		<path class="st14" d="M747.4,176.5c0,0-2.6,3.5,0.4,33.7c1.4,14.7,5.8,36.5,8.6,46c2.2,7.6,5.3,14.9,9.2,22"/>
		<path class="st14" d="M747.4,176.5c0,0-7.1,5.2-4,35.3c1.4,14.7,4.8,35.4,7.6,45c3.9,12.8,9.6,20,9.6,20"/>
		<path class="st16" d="M775.7,276.8l2.6,12.2c0.4,1.8-2.2,3.9-5.8,4.6c-3.5,0.7-6.7-0.1-7.2-1.9l-2.6-12.2L775.7,276.8z"/>
		
			<ellipse transform="matrix(0.978 -0.2086 0.2086 0.978 -41.1207 166.5857)" class="st12" cx="769.2" cy="278.3" rx="6.6" ry="3.3"/>
		<path class="st11" d="M764.1,281.5c1.9,0.7,4,0.8,6,0.4c1.5-0.4,3.1-0.9,4.4-2l0,0c9.3-6.9,8.7-29.4,4.7-50
			c-1.3-6.9-22,9.4-22.4,16.1c-1.2,16.6,2.1,20.5,4.8,28.6C762.3,277.1,763.1,279.3,764.1,281.5L764.1,281.5z"/>
		<path class="st11" d="M761.5,274.7c-2.6-8.1-3.2-15.9-9.1-35.3l-12.2-10c0.6,21.2,9.2,44.6,21.7,51.1c0.7,0.4,1.4,0.8,2.2,1.1
			C763.1,279.3,762.2,277.1,761.5,274.7z"/>
		<polygon class="st17" points="756.8,246.1 778,238.1 779.8,226.8 759,234.6 		"/>
		<path class="st11" d="M804.9,243.3c-1.9-9.4-24.1-24.8-24.7-24.5c0,0-20.6,15.4-21.2,15.8c1.2-0.6,5.4,1.5,10.1,4
			c13.1,6.9,18.2,11.6,20.7,14.9c2.8,3.9,5.5,14.6,6,20.6C795.8,274.8,806,248.8,804.9,243.3z"/>
		<path class="st14" d="M770,227.2c0,0,6.1,1.6,15.5,8.6c9.4,6.9,11.1,9.3,12.2,11.9c2.1,5.1-0.5,21.1-1.8,25.9"/>
		<path class="st13" d="M728.6,257.2c0,21.7-1.1,44.7-17.2,44.7c-14.8,0-17.2-22.9-17.2-44.7s7.9-59.1,17.3-59.1
			S728.6,235.4,728.6,257.2z"/>
		<path class="st14" d="M725,225.8c0,3.8-6.1,6.8-13.5,6.8c-7.4,0-13.5-3.1-13.5-6.8"/>
		<path class="st14" d="M726.9,236.7c0,4.2-6.9,7.8-15.4,7.8c-8.5,0-15.4-3.4-15.4-7.8"/>
		<path class="st14" d="M728.2,247.3c0,4.6-7.6,8.2-16.7,8.2c-9.1,0-16.5-3.6-16.5-8.2"/>
		<path class="st14" d="M728.6,260.7c0,4.7-7.6,8.6-17.2,8.6c-9.5,0-17.1-3.6-17.1-8.4"/>
		<path class="st14" d="M728.3,271.3c0,4.6-7.5,8.4-16.8,8.4s-16.4-3.3-16.6-8.1"/>
		<path class="st15" d="M711.6,198.1c-4.7,0-9.1,9.4-12.2,21.5c0.2,3.3,5.5,5.8,12.1,5.8s12.1-2.7,12.1-6v-0.1
			C720.5,207.3,716.3,198.1,711.6,198.1z"/>
		<line class="st14" x1="711.6" y1="198.1" x2="711.6" y2="301.9"/>
		<path class="st14" d="M711.6,198.1c0,0-3.3,2.8-6.7,32.9c-1.6,14.7-2,36.8-1.2,46.8c0.6,7.9,2,15.8,4,23.4"/>
		<path class="st14" d="M711.6,198.1c0,0-8,3.5-11.5,33.7c-1.6,14.7-2.7,35.5-1.9,45.5c1.2,13.3,5.2,21.5,5.2,21.5"/>
		<path class="st14" d="M711.9,198.1c0,0,3.3,2.8,6.6,32.9c1.6,14.7,2,36.8,1.2,46.8c-0.6,7.9-2.1,15.8-4.4,23.4"/>
		<path class="st14" d="M711.9,198.1c0,0,7.9,3.5,11.3,33.7c1.6,14.7,2.7,35.5,1.9,45.5c-1.2,13.3-5.3,21.5-5.3,21.5"/>
		<path class="st18" d="M705.2,302.3v12.5c0,1.8,2.9,3.3,6.6,3.3s6.6-1.4,6.6-3.3v-12.5H705.2z"/>
		<ellipse class="st18" cx="711.8" cy="302.3" rx="6.6" ry="3.3"/>
		<path class="st5" d="M717.6,304.4c-1.8,1.1-3.8,1.6-5.9,1.6c-1.6,0-3.2-0.4-4.7-1.1l0,0c-14-6.5-16.1-28.5-13.8-53.1
			c-0.1-6.8-3.8-16-3.8-16s9.5,5.3,13.9,12.5c4,6.7,9.6,14.2,11.5,20.6c4.6,16,4.5,19.7,3.5,28.1c-0.5,4.5-1.1,7.1-1.1,7.2
			L717.6,304.4z"/>
		<path class="st11" d="M718.6,297.2c0.9-8.5,0-11.9-4.5-27.9c-1.9-6.5,5.2-14.4,8.2-23.5c1.9-5.8,4.2-12.1,10.9-14.4
			c0,0-4.5,10.9-3.4,21.8c1.8,18.8,4.8,37.4-10.4,49.7c-0.6,0.6-1.3,1.1-2,1.5C717.7,304.3,718.2,301.7,718.6,297.2z"/>
		<path class="st13" d="M773.1,273.4c0,21.7-1.1,44.7-17.2,44.7c-14.8,0-17.2-22.9-17.2-44.7s7.9-59.1,17.3-59.1
			S773.1,251.7,773.1,273.4z"/>
		<path class="st14" d="M769.6,242.1c0,3.8-6.1,6.8-13.5,6.8s-13.5-3.1-13.5-6.8"/>
		<path class="st14" d="M771.5,253c0,4.2-6.9,7.8-15.4,7.8s-15.4-3.4-15.4-7.8"/>
		<path class="st14" d="M772.8,263.5c0,4.6-7.6,8.2-16.7,8.2s-16.5-3.6-16.5-8.2"/>
		<path class="st14" d="M773.1,277c0,4.7-7.6,8.6-17.2,8.6s-17.1-3.6-17.1-8.4"/>
		<path class="st14" d="M772.8,287.5c0,4.6-7.5,8.4-16.8,8.4s-16.4-3.3-16.6-8.1"/>
		<path class="st15" d="M756.2,214.4c-4.7,0-9.1,9.4-12.2,21.5c0.2,3.3,5.5,5.9,12.1,5.9s12.1-2.7,12.1-6v-0.1
			C765.1,223.5,760.9,214.4,756.2,214.4z"/>
		<line class="st14" x1="756.2" y1="214.4" x2="756.2" y2="318.1"/>
		<path class="st14" d="M756.2,214.4c0,0-3.3,2.8-6.7,32.9c-1.6,14.7-2,36.8-1.2,46.8c0.6,7.9,1.9,15.8,4,23.4"/>
		<path class="st14" d="M756.2,214.4c0,0-8,3.5-11.4,33.7c-1.6,14.7-2.7,35.5-1.9,45.5c1.2,13.3,5.2,21.5,5.2,21.5"/>
		<path class="st14" d="M756.5,214.4c0,0,3.3,2.8,6.6,32.9c1.6,14.7,2,36.8,1.2,46.8c-0.6,7.9-2.1,15.8-4.4,23.4"/>
		<path class="st14" d="M756.5,214.4c0,0,7.9,3.5,11.3,33.7c1.6,14.7,2.7,35.5,1.9,45.5c-1.2,13.3-5.3,21.5-5.3,21.5"/>
		<path class="st18" d="M749.8,318.5V331c0,1.8,2.9,3.3,6.6,3.3c3.6,0,6.6-1.5,6.6-3.3v-12.5H749.8z"/>
		<ellipse class="st18" cx="756.4" cy="318.5" rx="6.6" ry="3.3"/>
		<path class="st11" d="M762.2,320.6c-3.2,1.9-7.1,2.1-10.5,0.6l0,0c-14-6.5-16.1-28.5-13.8-53.1c-0.1-6.9-3.8-16-3.8-16
			s9.5,5.3,13.9,12.5c4,6.7,9.6,14.2,11.5,20.6c4.6,16,4.5,19.7,3.5,28.1C762.7,317.9,762.2,320.5,762.2,320.6L762.2,320.6z"/>
		<path class="st11" d="M763.2,313.4c0.9-8.5,0.1-11.9-4.5-27.9c-1.9-6.5,5.2-14.4,8.2-23.5c1.9-5.8,4.2-12.1,10.9-14.4
			c0,0-4.5,10.9-3.4,21.8c1.8,18.8,4.8,37.4-10.4,49.7c-0.6,0.6-1.3,1.1-2,1.5C762.2,320.5,762.8,317.9,763.2,313.4z"/>
		<ellipse class="st18" cx="953.5" cy="341.3" rx="3.4" ry="1.8"/>
		<path class="st11" d="M982.6,308.1c0,0-6.5-25.3-7.2-28.8c-0.7-3.5-10.8-5.8-10.8-5.8l3.2,14.7L982.6,308.1z"/>
		<path class="st13" d="M970.2,284.7c0,21.7-1.1,44.7-17.2,44.7c-14.8,0-17.2-22.9-17.2-44.7s7.9-59.1,17.3-59.1
			C962.6,225.7,970.2,263.1,970.2,284.7z"/>
		<path class="st14" d="M966.6,253.4c0,3.8-6.1,6.8-13.5,6.8s-13.5-3.1-13.5-6.8"/>
		<path class="st14" d="M968.5,264.4c0,4.2-6.9,7.8-15.4,7.8s-15.4-3.4-15.4-7.8"/>
		<path class="st14" d="M969.8,275c0,4.6-7.6,8.2-16.7,8.2s-16.5-3.6-16.5-8.2"/>
		<path class="st14" d="M970.2,288.4c0,4.7-7.6,8.6-17.2,8.6s-17.1-3.6-17.1-8.4"/>
		<path class="st14" d="M969.8,299c0,4.6-7.5,8.4-16.8,8.4s-16.4-3.3-16.6-8.1"/>
		<path class="st19" d="M953.2,225.8c-4.7,0-9.1,9.4-12.2,21.5c0.2,3.3,5.5,5.8,12.1,5.8s12.1-2.7,12.1-6v-0.1
			C962.1,234.9,957.9,225.8,953.2,225.8z"/>
		<line class="st14" x1="953.2" y1="225.8" x2="953.2" y2="329.4"/>
		<path class="st14" d="M953.2,225.8c0,0-3.3,2.9-6.7,32.9c-1.6,14.7-2,36.8-1.2,46.8c0.6,7.9,1.9,15.8,4,23.4"/>
		<path class="st14" d="M953.2,225.8c0,0-8,3.5-11.5,33.7c-1.6,14.7-2.7,35.7-1.9,45.5c1.2,13.3,5.2,21.5,5.2,21.5"/>
		<path class="st14" d="M953.5,225.8c0,0,3.3,2.9,6.6,32.9c1.6,14.7,2,36.8,1.2,46.8c-0.6,7.9-2.1,15.8-4.4,23.4"/>
		<path class="st14" d="M953.5,225.8c0,0,7.9,3.5,11.3,33.7c1.6,14.7,2.7,35.7,1.9,45.5c-1.2,13.3-5.3,21.5-5.3,21.5"/>
		<path class="st11" d="M946.8,329.8v12.5c0,1.8,2.9,3.3,6.6,3.3c3.6,0,6.6-1.4,6.6-3.3v-12.5H946.8z"/>
		<ellipse class="st18" cx="953.4" cy="329.8" rx="6.6" ry="3.3"/>
		<path class="st11" d="M959.2,332c-1.8,1.1-3.8,1.6-5.9,1.6c-1.6,0-3.2-0.4-4.7-1.1l0,0c-10.5-4.9-14.6-26.9-15.1-48
			c-0.1-7.1,23.4,4.7,25.3,11.2c4.6,16,2.1,20.5,1.3,28.9C959.6,329.3,959.2,331.9,959.2,332L959.2,332z"/>
		<path class="st11" d="M960.2,324.9c0.9-8.5-0.2-16.2,1.5-36.5l10-12.2c3.9,20.8,0.4,45.5-10.6,54.4c-0.6,0.6-1.3,1.1-2,1.5
			C959.2,331.9,959.8,329.3,960.2,324.9z"/>
		<polygon class="st17" points="958.9,295.8 936.5,292.5 932.3,281.8 954.3,285.1 		"/>
		<path class="st11" d="M911.3,303.1c-0.1-9.5,18.4-29.4,19.1-29.2c0,0,23.3,10.8,24,11.1c-1.2-0.4-4.9,2.6-9.1,6
			c-11.3,9.5-15.4,15.3-17.1,18.9c-1.9,4.4-2.4,15.4-1.5,21.4C926.7,332.1,911.3,308.7,911.3,303.1z"/>
		<path class="st14" d="M942,280.1c0,0-5.6,2.9-13.4,11.6s-8.9,11.4-9.5,14.1c-1.1,5.4,4.8,20.5,7.1,24.9"/>
		<ellipse class="st18" cx="666.3" cy="343.6" rx="3.4" ry="1.8"/>
		<path class="st11" d="M637.2,310.3c0,0,6.5-25.2,7.2-28.8c0.7-3.6,10.8-5.8,10.8-5.8l-3.2,14.7L637.2,310.3z"/>
		<path class="st13" d="M649.7,287c0,21.7,1.1,44.7,17.2,44.7c14.8,0,17.2-22.9,17.2-44.7s-7.9-59.1-17.3-59.1
			C657.3,227.9,649.7,265.2,649.7,287z"/>
		<path class="st14" d="M653.2,255.5c0,3.8,6.1,6.8,13.5,6.8c7.4,0,13.5-3.1,13.5-6.8"/>
		<path class="st14" d="M651.3,266.5c0,4.2,6.9,7.8,15.4,7.8c8.5,0,15.4-3.4,15.4-7.8"/>
		<path class="st14" d="M650,277.1c0,4.6,7.6,8.2,16.7,8.2s16.5-3.6,16.5-8.2"/>
		<path class="st14" d="M649.7,290.5c0,4.7,7.6,8.6,17.2,8.6s17.1-3.6,17.1-8.4"/>
		<path class="st14" d="M650,301.1c0,4.6,7.5,8.4,16.8,8.4s16.4-3.3,16.6-8.1"/>
		<path class="st15" d="M666.6,227.9c4.7,0,9.1,9.4,12.2,21.5c-0.2,3.3-5.5,5.9-12.1,5.9s-12-2.7-12-6.1v-0.1
			C657.7,237.1,661.9,227.9,666.6,227.9z"/>
		<line class="st14" x1="666.6" y1="227.9" x2="666.6" y2="331.7"/>
		<path class="st14" d="M666.6,227.9c0,0,3.3,2.9,6.7,32.9c1.6,14.7,2,36.8,1.2,46.8c-0.6,7.9-1.9,15.8-4,23.4"/>
		<path class="st14" d="M666.6,227.9c0,0,8,3.5,11.4,33.7c1.6,14.7,2.7,35.5,1.9,45.5c-1.2,13.3-5.2,21.5-5.2,21.5"/>
		<path class="st14" d="M666.3,227.9c0,0-3.3,2.9-6.6,32.9c-1.6,14.7-2,36.8-1.2,46.8c0.6,7.9,2.1,15.8,4.4,23.4"/>
		<path class="st14" d="M666.3,227.9c0,0-7.9,3.5-11.3,33.7c-1.6,14.7-2.7,35.5-1.9,45.5c1.2,13.3,5.3,21.5,5.3,21.5"/>
		<path class="st16" d="M673,331.9v12.5c0,1.8-2.9,3.3-6.6,3.3c-3.6,0-6.6-1.5-6.6-3.3v-12.5H673z"/>
		<ellipse class="st18" cx="666.4" cy="331.9" rx="6.6" ry="3.3"/>
		<path class="st20" d="M660.6,334.1c3.2,1.9,7.1,2.1,10.5,0.6l0,0c10.5-4.8,14.6-26.9,15.1-47.9c0.1-7.1-23.4,4.7-25.3,11.2
			c-4.6,16-2.1,20.5-1.3,28.9C660,331.4,660.6,334,660.6,334.1z"/>
		<path class="st20" d="M659.6,327c-0.9-8.5,0.2-16.2-1.5-36.5l-10-12.2c-3.9,20.8-0.4,45.5,10.6,54.4c0.6,0.6,1.2,1.1,1.9,1.5
			C660.6,334,660,331.4,659.6,327z"/>
		<polygon class="st17" points="660.9,298 683.3,294.6 687.6,284 665.6,287.2 		"/>
		<path class="st11" d="M708.5,305.2c0.1-9.5-18.4-29.4-19.1-29.2c0,0-23.3,10.8-24,11.1c1.2-0.4,4.9,2.6,9.1,6
			c11.3,9.5,15.4,15.3,17.1,18.9c1.9,4.4,2.4,15.4,1.5,21.4C693.2,334.3,708.5,311,708.5,305.2z"/>
		<path class="st14" d="M677.8,282.3c0,0,5.6,2.9,13.4,11.6s8.9,11.4,9.5,14.1c1.1,5.4-4.8,20.5-7.2,24.9"/>
		<path class="st18" d="M847.7,291.5v12.9c0,1.9,3.1,3.4,6.8,3.4c3.8,0,6.8-1.5,6.8-3.4v-12.9H847.7z"/>
		<ellipse class="st18" cx="854.7" cy="291.5" rx="6.8" ry="3.4"/>
		<path class="st11" d="M863.2,186.7L863.2,186.7c-2.6,5.9-4.8,11.8-6.8,17.9c1.1-13.4-1.6-33.8-1.6-33.8s0.6,0.8,1.6,2.5
			C858.9,177.5,861.3,182.1,863.2,186.7z"/>
		<path class="st11" d="M860.7,293.8c-3.3,2-7.4,2.2-10.9,0.6l0,0c-14.6-6.8-13.5-45.3-11.2-71c0.2-2.7,0.2-5.5,0-8.2
			c-0.8-9.3-2.6-30.7-2.6-30.7s2.6,6,6,14.7c2.6,6.6,5.9,14.8,8.8,23.1c2.9,8,5.6,15.9,7.5,22.7c3.8,13.4,4.9,27.4,3.5,41.3
			C861.4,290.8,860.8,293.7,860.7,293.8L860.7,293.8z"/>
		<path class="st11" d="M861.9,286.3c1.4-13.9,0.4-27.8-3.4-41.2c-1.9-6.7-4.7-14.7-7.5-22.7c0,0,2.2-8.2,5.4-17.8
			c2-6.1,4.2-12,6.8-17.9l0,0c0.9-2,1.9-3.9,2.9-5.8c0,0,1.5,13.9,1.5,19.3c0.1,3.9,0.5,7.9,1.1,11.8c2.6,18.6,8.4,66.4-6.1,80.1
			c-0.6,0.6-1.3,1.2-2,1.6C860.7,293.7,861.3,290.8,861.9,286.3z"/>
		<path class="st11" d="M854.1,171.6c0.4-0.5,0.6-0.8,0.6-0.8s2.7,20.4,1.6,33.8c-3.2,9.5-5.4,17.8-5.4,17.8
			c-3.1-8.2-6.2-16.5-8.8-23.1C844.4,189.4,848.4,180.1,854.1,171.6z"/>
		<path class="st11" d="M843.1,215.4c4.7,12.5,8.2,22.7,10.5,30.5c5.1,17.9,3.8,41.2,2.7,49.5"/>
		<path class="st11" d="M865.6,223.1c2.1,20.7,3.2,48.5-3.3,63.4"/>
		<path class="st18" d="M787.4,303.6v12.9c0,1.9,3.1,3.4,6.8,3.4c3.8,0,6.8-1.5,6.8-3.4v-12.9H787.4z"/>
		<ellipse class="st18" cx="794.2" cy="303.6" rx="6.8" ry="3.4"/>
		<path class="st18" d="M802.7,198.8L802.7,198.8c-2.6,5.9-4.8,11.8-6.8,17.9c1.1-13.4-1.6-33.8-1.6-33.8s0.6,0.8,1.6,2.5
			C798.5,189.6,800.8,194.1,802.7,198.8z"/>
		<path class="st11" d="M800.3,305.9c-1.8,1.2-3.9,1.8-6.1,1.6c-1.6,0-3.3-0.4-4.8-1.1l0,0c-14.6-6.8-13.5-45.3-11.2-71
			c0.2-2.7,0.2-5.5,0-8.2c-0.8-9.3-2.6-30.7-2.6-30.7s2.6,6,6,14.7c2.6,6.6,5.9,14.8,8.8,23.1c2.9,8,5.6,15.9,7.5,22.7
			c3.6,13.4,4.8,27.4,3.4,41.2C800.8,303,800.2,305.7,800.3,305.9L800.3,305.9z"/>
		<path class="st11" d="M801.4,298.4c1.4-13.8,0.4-27.8-3.4-41.2c-1.9-6.7-4.7-14.7-7.5-22.7c0,0,2.2-8.2,5.4-17.8
			c2-6.1,4.2-12,6.8-17.9l0,0c0.9-2,1.9-3.9,2.9-5.8c0,0,1.4,13.9,1.5,19.3c0.1,3.9,0.5,7.9,1.1,11.8c2.6,18.6,8.4,66.4-6.1,80.1
			c-0.6,0.6-1.3,1.2-2,1.6C800.3,305.8,800.9,303,801.4,298.4z"/>
		<path class="st11" d="M793.6,183.8c0.4-0.5,0.6-0.8,0.6-0.8s2.7,20.4,1.6,33.8c-3.2,9.5-5.4,17.8-5.4,17.8
			c-2.9-8.2-6.2-16.5-8.8-23.1C784,201.5,788,192.1,793.6,183.8z"/>
		<path class="st11" d="M782.7,227.5c4.7,12.5,8.2,22.7,10.5,30.5c5.1,17.9,3.8,41.2,2.7,49.5"/>
		<path class="st11" d="M805.1,235.2c2.1,20.7,3.2,48.5-3.3,63.4"/>
		<path class="st13" d="M805.7,292.7c0,21.7-1.1,44.7-17.2,44.7c-14.8,0-17.2-22.9-17.2-44.7s7.9-59.1,17.3-59.1
			C798.1,233.7,805.7,271.1,805.7,292.7z"/>
		<path class="st14" d="M802.1,261.4c0,3.8-6.1,6.8-13.5,6.8c-7.4,0-13.5-3.1-13.5-6.8"/>
		<path class="st14" d="M804,272.4c0,4.2-6.9,7.8-15.4,7.8c-8.5,0-15.4-3.4-15.4-7.8"/>
		<path class="st14" d="M805.3,283c0,4.6-7.6,8.2-16.7,8.2s-16.5-3.6-16.5-8.2"/>
		<path class="st14" d="M805.7,296.4c0,4.7-7.6,8.6-17.2,8.6s-17.1-3.6-17.1-8.4"/>
		<path class="st14" d="M805.4,306.8c0,4.6-7.5,8.4-16.8,8.4s-16.4-3.3-16.6-8.1"/>
		<path class="st15" d="M788.7,233.7c-4.7,0-9.1,9.4-12.2,21.5c0.2,3.2,5.5,5.8,12.1,5.8s12.1-2.7,12.1-6v-0.1
			C797.6,242.9,793.4,233.7,788.7,233.7z"/>
		<line class="st14" x1="788.7" y1="233.7" x2="788.7" y2="337.4"/>
		<path class="st14" d="M788.7,233.7c0,0-3.3,2.9-6.7,32.9c-1.6,14.7-2,37-1.2,46.8c0.6,7.9,1.9,15.8,4,23.4"/>
		<path class="st14" d="M788.7,233.7c0,0-8,3.5-11.4,33.7c-1.6,14.7-2.7,35.7-1.9,45.5c1.2,13.3,5.2,21.5,5.2,21.5"/>
		<path class="st14" d="M789.1,233.7c0,0,3.3,2.9,6.6,32.9c1.6,14.7,2,37,1.2,46.8c-0.6,7.9-2.1,15.8-4.4,23.4"/>
		<path class="st14" d="M789.1,233.7c0,0,7.9,3.5,11.3,33.7c1.6,14.7,2.7,35.7,1.9,45.5c-1.2,13.3-5.3,21.5-5.3,21.5"/>
		<path class="st11" d="M782.3,337.8v12.5c0,1.8,2.9,3.3,6.6,3.3c3.6,0,6.6-1.5,6.6-3.3v-12.5H782.3z"/>
		<ellipse class="st18" cx="788.9" cy="337.8" rx="6.6" ry="3.3"/>
		<path class="st11" d="M794.8,340c-1.8,1.1-3.8,1.6-5.9,1.6c-1.6,0-3.2-0.4-4.7-0.9l0,0c-14-6.5-16.7-43.4-14.4-68
			c0.2-2.6,0.2-5.3,0-7.9c-0.8-8.9-3.1-28.9-3.1-28.9c4.4,3.6,7.8,8.4,10,13.7c2.6,6.4,5.6,14.2,8.5,22.1c2.8,7.6,5.4,15.3,7.2,21.8
			c3.5,12.8,4.6,26.2,3.2,39.5C795.4,337.2,794.8,339.9,794.8,340L794.8,340z"/>
		<path class="st11" d="M795.7,332.9c1.4-13.3,0.4-26.7-3.2-39.5c-1.9-6.5-0.1-19.1,2.9-28.2c1.9-5.8,1.3-23.2,5.2-26.8
			c1.6-1.6,3.3-3.3,4.7-5.2c0,0-3.1,14.2-2.9,19.4c0.1,4.1,0.2,12.1,0.6,13.4c4.6,18.4,8.8,60.5-6.4,72.7c-0.6,0.6-1.2,1.1-1.9,1.5
			C794.8,339.9,795.4,337.2,795.7,332.9z"/>
		<path class="st11" d="M799.5,272.2c2,19.9,3.1,46.5-3.2,60.8"/>
		<path class="st13" d="M830.8,216.4c0,21.7-1.1,44.7-17.2,44.7c-14.8,0-17.2-22.9-17.2-44.7s7.9-59.1,17.3-59.1
			S830.8,194.7,830.8,216.4z"/>
		<path class="st14" d="M827.1,185.1c0,3.8-6.1,6.8-13.5,6.8c-7.4,0-13.5-3.1-13.5-6.8"/>
		<path class="st14" d="M829,196c0,4.2-6.9,7.8-15.4,7.8c-8.5,0-15.4-3.4-15.4-7.8"/>
		<path class="st14" d="M830.3,206.6c0,4.6-7.6,8.2-16.7,8.2s-16.6-3.6-16.6-8.2"/>
		<path class="st14" d="M830.8,220c0,4.7-7.6,8.6-17.2,8.6s-17.1-3.6-17.1-8.4"/>
		<path class="st14" d="M830.4,230.6c0,4.6-7.5,8.4-16.7,8.4c-9.2,0-16.4-3.3-16.6-8.1"/>
		<path class="st15" d="M813.7,157.3c-4.7,0-9.1,9.4-12.2,21.5c0.4,3.2,5.5,5.9,12.1,5.9s12.1-2.7,12.1-6v-0.1
			C822.7,166.6,818.4,157.3,813.7,157.3z"/>
		<line class="st14" x1="813.7" y1="157.3" x2="813.7" y2="261.1"/>
		<path class="st14" d="M813.7,157.3c0,0-3.3,2.8-6.7,32.9c-1.6,14.7-2,36.8-1.2,46.8c0.6,7.9,1.9,15.8,4,23.4"/>
		<path class="st14" d="M813.7,157.3c0,0-8,3.5-11.5,33.7c-1.6,14.7-2.7,35.7-1.9,45.5c1.2,13.3,5.2,21.5,5.2,21.5"/>
		<path class="st14" d="M814.1,157.3c0,0,3.3,2.8,6.6,32.9c1.6,14.7,2,36.8,1.2,46.8c-0.6,7.9-2.1,15.8-4.4,23.4"/>
		<path class="st14" d="M814.1,157.3c0,0,7.9,3.5,11.3,33.7c1.6,14.7,2.7,35.7,1.9,45.5c-1.1,13.3-5.3,21.5-5.3,21.5"/>
		<path class="st11" d="M807.4,261.4v12.5c0,1.8,2.9,3.3,6.6,3.3s6.6-1.5,6.6-3.3v-12.5H807.4z"/>
		<ellipse class="st18" cx="814" cy="261.4" rx="6.6" ry="3.3"/>
		<path class="st11" d="M819.7,263.7c-1.8,1.1-3.8,1.6-5.9,1.6c-1.6,0-3.2-0.4-4.7-1.1l0,0c-14-6.5-16.7-43.4-14.4-68
			c0.2-2.6,0.2-5.3,0-7.9c-0.8-8.9-3.1-28.9-3.1-28.9c4.4,3.6,7.8,8.4,10.1,13.7c2.6,6.4,5.6,14.2,8.5,22.1
			c2.8,7.6,5.4,15.3,7.3,21.8c3.5,12.8,4.6,26.2,3.2,39.5C820.6,258.8,820.2,261.3,819.7,263.7L819.7,263.7z"/>
		<path class="st11" d="M820.8,256.5c1.4-13.3,0.4-26.7-3.2-39.5c-1.9-6.5-0.1-19.1,2.9-28.2c1.9-5.8,1.3-23.2,5.2-26.8
			c1.8-1.6,3.3-3.3,4.7-5.2c0,0-3.1,14.2-2.9,19.4c0.1,4.1,0.2,12.1,0.6,13.4c4.6,18.4,8.8,60.5-6.4,72.7c-0.6,0.6-1.3,1.1-2,1.5
			C820.2,261.3,820.6,259,820.8,256.5z"/>
		<path class="st18" d="M824.6,195.9c2,19.9,3.1,46.5-3.2,60.8"/>
		<path class="st13" d="M845.7,243.8c0,21.7-1.1,44.7-17.2,44.7c-14.8,0-17.2-22.9-17.2-44.7s7.9-59.1,17.3-59.1
			C838.1,184.7,845.7,222.1,845.7,243.8z"/>
		<path class="st14" d="M842.2,212.5c0,3.8-6.1,6.8-13.5,6.8s-13.5-3.1-13.5-6.8"/>
		<path class="st14" d="M844.1,223.4c0,4.2-6.9,7.8-15.4,7.8c-8.5,0-15.4-3.4-15.4-7.8"/>
		<path class="st14" d="M845.4,234c0,4.6-7.6,8.2-16.7,8.2s-16.6-3.6-16.6-8.2"/>
		<path class="st14" d="M845.7,247.3c0,4.7-7.6,8.6-17.2,8.6c-9.5,0-17.1-3.6-17.1-8.4"/>
		<path class="st14" d="M845.4,257.9c0,4.6-7.5,8.4-16.7,8.4s-16.4-3.3-16.6-8.1"/>
		<path class="st15" d="M828.8,184.7c-4.7,0-9.1,9.4-12.2,21.5c0.2,3.3,5.5,5.9,12.1,5.9s12-2.8,12-6.1v-0.1
			C837.7,194,833.5,184.7,828.8,184.7z"/>
		<line class="st14" x1="828.8" y1="184.7" x2="828.8" y2="288.5"/>
		<path class="st14" d="M828.8,184.7c0,0-3.3,2.8-6.7,32.9c-1.6,14.7-2,36.8-1.2,46.8c0.6,7.9,1.9,15.8,4,23.4"/>
		<path class="st14" d="M828.8,184.7c0,0-8,3.5-11.5,33.7c-1.6,14.7-2.7,35.5-1.9,45.5c1.2,13.3,5.2,21.5,5.2,21.5"/>
		<path class="st14" d="M829.1,184.7c0,0,3.3,2.8,6.6,32.9c1.6,14.7,2,36.8,1.2,46.8c-0.6,7.9-2,15.8-4.4,23.4"/>
		<path class="st14" d="M829.1,184.7c0,0,7.9,3.5,11.3,33.7c1.6,14.7,2.7,35.5,1.9,45.5c-1.1,13.3-5.3,21.5-5.3,21.5"/>
		<path class="st18" d="M822.4,288.8v12.5c0,1.8,2.9,3.3,6.6,3.3s6.6-1.5,6.6-3.3v-12.5H822.4z"/>
		<ellipse class="st18" cx="828.9" cy="288.8" rx="6.6" ry="3.3"/>
		<path class="st11" d="M834.8,291.1c-3.2,1.9-7.1,2.1-10.5,0.6l0,0c-14-6.5-16.1-28.5-13.8-53.1c0-6.9-3.8-16-3.8-16
			s9.5,5.3,13.9,12.5c4,6.7,9.6,14.2,11.5,20.6c4.6,16,4.5,19.7,3.5,28.1C835.6,286.3,835.3,288.6,834.8,291.1L834.8,291.1z"/>
		<path class="st11" d="M835.8,283.8c0.9-8.5,0-11.9-4.5-27.9c-1.9-6.5,5.2-14.4,8.2-23.5c1.9-5.8,4.2-12.1,10.9-14.4
			c0,0-4.5,10.9-3.4,21.8c1.8,18.8,4.8,37.4-10.4,49.7c-0.6,0.6-1.3,1.1-2,1.5C835.3,288.6,835.6,286.3,835.8,283.8z"/>
		<ellipse class="st18" cx="882.4" cy="290" rx="3.4" ry="1.8"/>
		<path class="st4" d="M911.5,256.8c0,0-6.5-25.3-7.2-28.8c-0.7-3.5-10.8-5.8-10.8-5.8l3.2,14.7L911.5,256.8z"/>
		<path class="st13" d="M899,233.5c0,21.7-1.1,44.7-17.2,44.7c-14.8,0-17.2-22.9-17.2-44.7s7.9-59.1,17.3-59.1
			C891.4,174.5,899,211.8,899,233.5z"/>
		<path class="st14" d="M895.5,202.1c0,3.8-6.1,6.8-13.5,6.8c-7.4,0-13.5-3.1-13.5-6.8"/>
		<path class="st14" d="M897.4,213.1c0,4.2-6.9,7.8-15.4,7.8c-8.5,0-15.4-3.4-15.4-7.8"/>
		<path class="st14" d="M898.7,223.6c0,4.6-7.6,8.2-16.7,8.2c-9.1,0-16.5-3.6-16.5-8.2"/>
		<path class="st14" d="M899,237.1c0,4.7-7.6,8.6-17.2,8.6s-17.1-3.6-17.1-8.4"/>
		<path class="st14" d="M898.7,247.7c0,4.6-7.5,8.4-16.8,8.4s-16.4-3.3-16.6-8.1"/>
		<path class="st15" d="M882.1,174.5c-4.7,0-9.1,9.4-12.2,21.5c0.2,3.2,5.5,5.8,12.1,5.8c6.6,0,12.1-2.7,12.1-6v-0.1
			C891,183.6,886.8,174.5,882.1,174.5z"/>
		<line class="st14" x1="882.1" y1="174.5" x2="882.1" y2="278.1"/>
		<path class="st14" d="M882.1,174.5c0,0-3.3,2.8-6.7,32.9c-1.6,14.7-2,36.8-1.2,46.8c0.6,7.9,1.9,15.8,4,23.5"/>
		<path class="st14" d="M882.1,174.5c0,0-8,3.5-11.5,33.7c-1.6,14.7-2.7,35.7-1.9,45.5c1.2,13.3,5.2,21.5,5.2,21.5"/>
		<path class="st14" d="M882.4,174.5c0,0,3.3,2.8,6.6,32.9c1.6,14.7,2,36.8,1.2,46.8c-0.6,7.9-2.1,15.8-4.4,23.4"/>
		<path class="st14" d="M882.4,174.5c0,0,7.9,3.5,11.3,33.7c1.6,14.7,2.7,35.7,1.9,45.5c-1.2,13.3-5.3,21.5-5.3,21.5"/>
		<path class="st18" d="M875.7,278.6v12.5c0,1.8,2.9,3.3,6.6,3.3c3.6,0,6.6-1.5,6.6-3.3v-12.5H875.7z"/>
		<ellipse class="st18" cx="882.3" cy="278.6" rx="6.6" ry="3.3"/>
		<path class="st11" d="M888.1,280.7c-1.8,1.1-3.8,1.6-5.9,1.6c-1.6,0-3.2-0.4-4.7-0.9l0,0c-10.5-4.8-14.6-26.9-15.1-47.9
			c-0.1-7.1,23.4,4.7,25.3,11.2c4.6,16,2.1,20.5,1.3,28.9C888.7,278,888.1,280.6,888.1,280.7L888.1,280.7z"/>
		<path class="st11" d="M889.2,273.5c0.9-8.5-0.2-16.2,1.5-36.5l10-12.2c3.9,20.8,0.4,45.5-10.6,54.4c-0.6,0.6-1.3,1.1-2,1.5
			C888.1,280.6,888.7,278,889.2,273.5z"/>
		<polygon class="st17" points="887.9,244.6 865.4,241.2 861.1,230.6 883.3,233.8 		"/>
		<path class="st11" d="M840.1,251.8c-0.1-9.5,18.4-29.4,19.1-29.2c0,0,23.3,10.8,24,11.1c-1.2-0.4-4.9,2.6-9.1,6
			c-11.3,9.5-15.4,15.3-17.1,18.9c-1.9,4.4-2.4,15.4-1.5,21.4C855.5,280.8,840.2,257.5,840.1,251.8z"/>
		<path class="st14" d="M870.9,228.8c0,0-5.6,2.9-13.4,11.6s-8.9,11.4-9.5,14.1c-1.1,5.4,4.8,20.5,7.1,24.9"/>
		<ellipse class="st18" cx="832.9" cy="348.9" rx="3.4" ry="1.8"/>
		<path class="st11" d="M862,315.6c0,0-6.5-25.2-7.2-28.8c-0.7-3.6-10.8-5.8-10.8-5.8l3.2,14.7L862,315.6z"/>
		<path class="st13" d="M849.5,292.3c0,21.7-1.1,44.7-17.2,44.7c-14.8,0-17.2-23.1-17.2-44.7s7.9-59.1,17.3-59.1
			C841.9,233.2,849.5,270.6,849.5,292.3z"/>
		<path class="st14" d="M846,261c0,3.8-6.1,6.8-13.5,6.8c-7.4,0-13.5-3.1-13.5-6.8"/>
		<path class="st14" d="M847.9,271.9c0,4.2-6.9,7.8-15.4,7.8c-8.5,0-15.4-3.4-15.4-7.8"/>
		<path class="st14" d="M849.1,282.5c0,4.6-7.6,8.2-16.7,8.2c-9.1,0-16.5-3.6-16.5-8.2"/>
		<path class="st14" d="M849.5,295.9c0,4.7-7.6,8.6-17.2,8.6s-17.1-3.6-17.1-8.4"/>
		<path class="st14" d="M849.1,306.4c0,4.6-7.5,8.4-16.8,8.4s-16.4-3.3-16.6-8.1"/>
		<path class="st15" d="M832.6,233.2c-4.7,0-9.1,9.4-12.2,21.5c0.2,3.3,5.5,5.8,12.1,5.8s12.1-2.7,12.1-6v-0.1
			C841.5,242.5,837.3,233.2,832.6,233.2z"/>
		<line class="st14" x1="832.6" y1="233.2" x2="832.6" y2="337"/>
		<path class="st14" d="M832.6,233.2c0,0-3.3,2.9-6.7,32.9c-1.6,14.7-2,36.8-1.2,46.8c0.6,7.9,1.9,15.8,4,23.4"/>
		<path class="st14" d="M832.6,233.2c0,0-8,3.5-11.4,33.7c-1.6,14.7-2.7,35.5-1.9,45.5c1.2,13.3,5.2,21.5,5.2,21.5"/>
		<path class="st14" d="M832.9,233.2c0,0,3.3,2.9,6.6,32.9c1.6,14.7,2,36.8,1.2,46.8c-0.6,7.9-2.1,15.8-4.4,23.4"/>
		<path class="st14" d="M832.9,233.2c0,0,7.9,3.5,11.3,33.7c1.6,14.7,2.7,35.5,1.9,45.5c-1.2,13.3-5.3,21.5-5.3,21.5"/>
		<path class="st11" d="M826.2,337.3v12.5c0,1.8,2.9,3.3,6.6,3.3c3.6,0,6.6-1.4,6.6-3.3v-12.5H826.2z"/>
		<ellipse class="st18" cx="832.8" cy="337.3" rx="6.6" ry="3.3"/>
		<path class="st11" d="M838.6,339.6c-1.8,1.1-3.8,1.6-5.9,1.6c-1.6,0-3.2-0.4-4.7-1.1l0,0c-10.5-4.9-14.6-26.9-15.1-48
			c-0.1-7.1,23.4,4.7,25.3,11.2c4.6,16,2.1,20.5,1.3,28.9C839,336.7,838.4,339.4,838.6,339.6L838.6,339.6z"/>
		<path class="st11" d="M839.6,332.4c0.9-8.5-0.2-16.2,1.5-36.5l9.9-12.4c3.9,20.8,0.4,45.5-10.6,54.4c-0.6,0.6-1.3,1.1-2,1.5
			C838.6,339.4,839.1,336.7,839.6,332.4z"/>
		<polygon class="st17" points="838.3,303.3 815.8,300 811.6,289.3 833.6,292.5 		"/>
		<path class="st11" d="M790.7,310.6c-0.1-9.5,18.4-29.4,19.1-29.2c0,0,23.3,10.8,24,11.1c-1.2-0.4-4.9,2.6-9.1,6
			c-11.3,9.5-15.4,15.3-17.1,18.9c-1.9,4.4-2.4,15.4-1.5,21.4C806,339.6,790.7,316.3,790.7,310.6z"/>
		<path class="st14" d="M821.4,287.5c0,0-5.6,2.9-13.4,11.6c-7.8,8.7-8.9,11.4-9.5,14.1c-1.1,5.4,4.8,20.5,7.1,24.9"/>
		<path class="st11" d="M746.4,338c0,0-6.5-25.2-7.2-28.8s-10.8-5.8-10.8-5.8l3.2,14.7L746.4,338z"/>
		<path class="st13" d="M734.1,314.7c0,21.7-1.1,44.7-17.2,44.7c-14.8,0-17.2-22.9-17.2-44.7s7.9-59.1,17.3-59.1
			C726.4,255.7,734.1,293,734.1,314.7z"/>
		<path class="st14" d="M730.4,283.3c0,3.8-6.1,6.8-13.5,6.8c-7.4,0-13.5-3.1-13.5-6.8"/>
		<path class="st14" d="M732.3,294.3c0,4.2-6.9,7.8-15.4,7.8c-8.5,0-15.4-3.4-15.4-7.8"/>
		<path class="st14" d="M733.6,304.8c0,4.6-7.6,8.2-16.7,8.2s-16.5-3.6-16.5-8.2"/>
		<path class="st14" d="M734.1,318.3c0,4.7-7.6,8.6-17.2,8.6c-9.5,0-17.1-3.6-17.1-8.4"/>
		<path class="st14" d="M733.6,328.9c0,4.6-7.5,8.4-16.8,8.4s-16.4-3.3-16.6-8.1"/>
		<path class="st15" d="M717,255.7c-4.7,0-9.1,9.4-12.2,21.5c0.2,3.2,5.5,5.8,12.1,5.8s12.1-2.7,12.1-6v-0.1
			C725.9,264.8,721.7,255.7,717,255.7z"/>
		<line class="st14" x1="717" y1="255.7" x2="717" y2="359.4"/>
		<path class="st14" d="M717,255.7c0,0-3.3,2.9-6.7,32.9c-1.6,14.7-2,37-1.2,46.8c0.6,7.9,1.9,15.8,4,23.4"/>
		<path class="st14" d="M717,255.7c0,0-8,3.5-11.5,33.7c-1.6,14.7-2.7,35.7-1.9,45.5c1.2,13.3,5.2,21.5,5.2,21.5"/>
		<path class="st14" d="M717.3,255.7c0,0,3.3,2.9,6.6,32.9c1.6,14.7,2,37,1.2,46.8c-0.6,7.9-2.1,15.8-4.4,23.4"/>
		<path class="st14" d="M717.3,255.7c0,0,7.9,3.5,11.3,33.7c1.6,14.7,2.7,35.7,1.9,45.5c-1.2,13.3-5.3,21.5-5.3,21.5"/>
		<ellipse class="st18" cx="717.2" cy="359.8" rx="6.6" ry="3.3"/>
		<path class="st20" d="M723,361.9c-3.2,1.9-7.1,2.1-10.5,0.6l0,0c-10.5-4.8-14.6-26.9-15.1-47.9c-0.1-7.1,23.4,4.7,25.3,11.2
			c4.6,16,2.1,20.5,1.3,28.9C723.6,359.2,723,361.8,723,361.9z"/>
		<path class="st20" d="M724.1,354.7c0.9-8.5-0.2-16.2,1.5-36.5l10-12.2c3.9,20.8,0.4,45.5-10.6,54.4c-0.6,0.6-1.3,1.1-2,1.5
			C723,361.8,723.6,359.2,724.1,354.7z"/>
		<polygon class="st17" points="722.8,325.8 700.4,322.4 696.2,311.8 718.2,315 		"/>
		<path class="st11" d="M675.1,333c-0.1-9.5,18.4-29.4,19.1-29.2c0,0,23.3,10.8,24,11.1c-1.2-0.4-4.9,2.6-9.1,6
			c-11.3,9.5-15.4,15.3-17.1,18.9c-1.9,4.4-2.4,15.4-1.5,21.4C690.5,362,675.1,338.7,675.1,333z"/>
		<path class="st14" d="M705.8,310c0,0-5.6,2.9-13.4,11.6s-8.9,11.4-9.5,14.1c-1.1,5.4,4.8,20.5,7.1,24.9"/>
		
			<ellipse transform="matrix(0.9916 -0.1297 0.1297 0.9916 -44.74 103.7061)" class="st21" cx="773.9" cy="395.4" rx="3.4" ry="1.8"/>
		<path class="st11" d="M753.6,391.3c0,0-10-12.1-6-26.8c0.9-3.5,4.8-9.1,4.8-9.1L763,370L753.6,391.3z"/>
		<path class="st13" d="M750.2,341.4c2.8,21.5,6.9,44.1,22.8,42.1c14.7-1.9,14-25.1,11.2-46.6c-2.8-21.5-15.4-57.5-24.8-56.4
			C749.9,281.8,747.4,320,750.2,341.4z"/>
		<path class="st14" d="M749.7,309.9c0.5,3.6,6.8,5.9,14.4,4.9c7.5-0.9,13.1-4.7,12.6-8.5"/>
		<path class="st14" d="M749.2,321c0.6,4.2,7.9,6.7,16.4,5.6s14.8-5.4,14.4-9.6"/>
		<path class="st14" d="M749.2,331.7c0.6,4.6,8.6,7.2,17.7,6s15.9-5.8,15.3-10.4"/>
		<path class="st14" d="M750.7,345c0.6,4.7,8.7,7.5,18.1,6.2c9.4-1.3,16.4-5.9,15.8-10.6"/>
		<path class="st14" d="M752.4,355.4c0.6,4.6,8.5,7.3,17.8,6.1s15.8-5.3,15.4-10.2"/>
		<path class="st15" d="M759.4,280.7c4.7-0.6,10.2,8.1,14.9,19.8c0.1,3.3-4.7,6.5-11.2,7.3c-6.5,0.8-12.4-1.2-12.8-4.5v-0.1
			C751.7,291.1,754.7,281.3,759.4,280.7z"/>
		<line class="st14" x1="759.4" y1="280.7" x2="772.8" y2="383.6"/>
		<path class="st14" d="M759.4,280.7c0,0,3.6,2.5,10.9,31.8c3.5,14.4,6.7,36.4,7.3,46.2c0.5,7.9,0.1,15.9-0.9,23.7"/>
		<path class="st14" d="M759.4,280.7c0,0,8.5,2.5,15.8,31.9c3.5,14.4,7.3,34.9,7.8,45c0.6,13.4-2.4,22-2.4,22"/>
		<path class="st14" d="M759,280.7c0,0-2.9,3.3-2.4,33.5c0.2,14.7,2.8,36.8,4.9,46.6c1.6,7.8,4.1,15.4,7.4,22.7"/>
		<path class="st14" d="M759,280.7c0,0-7.4,4.6-6.8,34.8c0.2,14.7,2,35.7,4,45.4c2.8,13.1,8,20.7,8,20.7"/>
		<path class="st22" d="M779.2,383.1l1.6,12.4c0.2,1.8-2.5,3.6-6.1,4.1s-6.7-0.6-6.9-2.4l-1.6-12.4L779.2,383.1z"/>
		
			<ellipse transform="matrix(0.9916 -0.1297 0.1297 0.9916 -43.2847 103.4581)" class="st21" cx="772.7" cy="384.1" rx="6.6" ry="3.3"/>
		<path class="st22" d="M767.1,386.9c1.9,0.8,4,1.2,6,0.8c1.6-0.2,3.2-0.7,4.5-1.6l0,0c9.8-6.2,8.5-12,8.7-23.8
			c0,0-22.9,11.2-21.1,19.4C766.4,386.2,767.1,386.9,767.1,386.9L767.1,386.9z"/>
		<path class="st20" d="M765.2,379.9c-1.9-3.4-3.4-6.9-4.7-10.6l-9.5-11.8c2.4,13.4,2.1,20.7,14.1,28.1c0.7,0.5,1.4,0.9,2.1,1.3
			C767,384.5,766.4,382,765.2,379.9z"/>
		<polygon class="st17" points="765.7,380.5 786.9,372.3 790,364.5 768.5,370.5 		"/>
		<path class="st11" d="M813.6,382.9c-1.2-9.5-22-26.7-22.7-26.4c0,0-21.8,13.8-22.4,14.1c1.2-0.6,5.3,1.9,9.8,4.8
			c12.5,8,17.3,13.1,19.4,16.6c2.5,4.1,4.4,15.1,4.4,21.1C802.1,413.6,814.3,388.5,813.6,382.9z"/>
		<path class="st14" d="M780.1,364c0,0,5.9,2.2,14.8,9.8c8.9,7.5,10.4,10.1,11.3,12.8c1.8,5.2-2.1,20.9-3.8,25.7"/>
		
			<ellipse transform="matrix(7.974884e-02 -0.9968 0.9968 7.974884e-02 537.8411 1196.1279)" class="st23" cx="916.7" cy="306.8" rx="1.8" ry="3.4"/>
		<path class="st24" d="M895,301.3c0,0-7.3-13.9-0.2-27.4c1.8-3.3,6.6-7.9,6.6-7.9l7.4,16.5L895,301.3z"/>
		<path class="st13" d="M902.1,251.9c-1.8,21.7-2.4,44.6,13.5,45.9c14.8,1.2,18.9-21.7,20.6-43.2s-3.2-59.5-12.6-60.3
			C914.2,193.6,903.7,230.2,902.1,251.9z"/>
		<path class="st14" d="M908.1,220.9c-0.2,3.8,5.5,7.2,12.9,7.8c7.4,0.6,13.8-2,14-5.6"/>
		<path class="st14" d="M905.4,231.7c-0.4,4.2,6.2,8.2,14.8,8.9c8.6,0.7,15.7-2.2,16-6.5"/>
		<path class="st14" d="M903.3,242.1c-0.4,4.6,6.9,8.8,16,9.5c9.1,0.7,16.8-2.4,17.2-6.9"/>
		<path class="st14" d="M901.7,255.4c-0.4,4.7,6.9,9.2,16.5,9.9c9.5,0.7,17.3-2.4,17.7-7.1"/>
		<path class="st14" d="M901.3,266c-0.4,4.6,6.8,8.9,16.1,9.6c9.3,0.7,16.6-2,17.2-6.8"/>
		<path class="st15" d="M923.6,194.3c4.7,0.4,8.4,10.1,10.5,22.4c-0.5,3.2-6,5.4-12.5,4.8c-6.5-0.6-11.9-3.6-11.5-6.9v-0.1
			C914,202.8,918.9,194,923.6,194.3z"/>
		<line class="st14" x1="923.6" y1="194.3" x2="915.5" y2="297.8"/>
		<path class="st14" d="M923.6,194.3c0,0,3.1,3.2,4.1,33.4c0.5,14.7-0.9,37-2.5,46.8c-1.2,7.9-3.2,15.5-5.8,22.9"/>
		<path class="st14" d="M923.6,194.3c0,0,7.8,4.2,8.8,34.5c0.5,14.7,0,35.8-1.6,45.5c-2.1,13.2-6.8,21.1-6.8,21.1"/>
		<path class="st14" d="M923.3,194.2c0,0-3.5,2.6-9.2,32.4c-2.8,14.5-4.8,36.6-4.8,46.6c0,8,0.8,15.9,2.5,23.7"/>
		<path class="st14" d="M923.3,194.2c0,0-8.1,2.9-13.9,32.7c-2.8,14.5-5.5,35.3-5.4,45.3c0.1,13.4,3.6,21.9,3.6,21.9"/>
		<path class="st18" d="M921.9,298.6l-0.9,12.5c-0.1,1.8-3.2,3.1-6.8,2.8c-3.6-0.2-6.5-2-6.4-3.8l0.9-12.5L921.9,298.6z"/>
		
			<ellipse transform="matrix(7.846314e-02 -0.9969 0.9969 7.846314e-02 546.105 1187.203)" class="st25" cx="915.2" cy="298.2" rx="3.3" ry="6.6"/>
		<path class="st18" d="M909.3,299.8c3.1,2.1,6.9,2.7,10.4,1.4l0,0c10.8-4,10.8-10,13.4-21.4c0,0-24.8,6.1-24.6,14.7
			C908.7,299,909.3,299.8,909.3,299.8L909.3,299.8z"/>
		<path class="st18" d="M908.8,292.6c-1.2-3.8-2-7.5-2.5-11.4l-6.9-13.4c-0.5,13.7-2.1,20.7,8,30.4c0.6,0.6,1.2,1.2,1.9,1.6
			C909.6,297.4,909.5,295,908.8,292.6z"/>
		<polygon class="st17" points="909.2,293.3 931.6,289.5 936.2,282.6 914,284.1 		"/>
		<path class="st11" d="M955.5,305.4c0.8-9.5-16-30.7-16.7-30.6c0,0-24.1,8.9-24.7,9.2c1.3-0.2,4.7,2.9,8.6,6.7
			c10.6,10.4,14.2,16.5,15.5,20.2c1.5,4.5,1.1,15.5-0.1,21.4C937.9,333.2,955.1,311.2,955.5,305.4z"/>
		<path class="st14" d="M926.7,280.1c0,0,5.3,3.4,12.5,12.6s8,12,8.4,14.8c0.7,5.4-6.4,20-9.1,24.4"/>
		<path class="st18" d="M875.7,333.9v12.9c0,1.9,3.1,3.4,6.8,3.4c3.8,0,6.8-1.5,6.8-3.4v-12.9H875.7z"/>
		<ellipse class="st18" cx="882.7" cy="333.9" rx="6.8" ry="3.4"/>
		<path class="st11" d="M891.2,229.2L891.2,229.2c-2.6,5.9-4.8,11.8-6.8,17.9c1.1-13.4-1.6-33.8-1.6-33.8s0.6,0.8,1.6,2.5
			C887,220,889.3,224.5,891.2,229.2z"/>
		<path class="st11" d="M888.7,336.3c-1.8,1.2-3.9,1.8-6.1,1.6c-1.6,0-3.3-0.4-4.8-1.1l0,0c-14.6-6.8-13.5-45.3-11.2-71
			c0.2-2.7,0.2-5.5,0-8.2c-0.8-9.3-2.6-30.7-2.6-30.7s2.6,6,6,14.7c2.6,6.6,5.9,14.8,8.8,23.1c2.9,8,5.6,15.9,7.5,22.7
			c3.6,13.4,4.8,27.4,3.4,41.2C889.3,333.2,888.7,336,888.7,336.3L888.7,336.3z"/>
		<path class="st11" d="M889.9,328.7c1.4-13.8,0.4-27.8-3.4-41.2c-1.9-6.7-4.7-14.7-7.5-22.7c0,0,2.2-8.2,5.4-17.8
			c2-6.1,4.2-12,6.8-17.9l0,0c0.9-2,1.9-3.9,2.9-5.8c0,0,1.5,13.9,1.5,19.4c0.1,3.9,0.5,7.9,1.1,11.8c2.6,18.6,8.4,66.4-6.1,80.1
			c-0.6,0.6-1.3,1.2-2,1.6C888.8,336.1,889.4,333.3,889.9,328.7z"/>
		<path class="st11" d="M882.1,214.1c0.4-0.5,0.6-0.8,0.6-0.8s2.7,20.2,1.6,33.8c-3.2,9.5-5.4,17.8-5.4,17.8
			c-3.1-8.2-6.2-16.5-8.8-23.1C872.4,231.9,876.6,222.6,882.1,214.1z"/>
		<path class="st11" d="M871.2,257.9c4.7,12.5,8.2,22.7,10.5,30.5c5.1,17.9,3.8,41.2,2.7,49.5"/>
		<path class="st11" d="M893.6,265.5c2.1,20.7,3.2,48.5-3.3,63.4"/>
		<ellipse class="st18" cx="908.7" cy="353.7" rx="3.4" ry="1.8"/>
		<path class="st11" d="M929.2,354c0,0,8.2-13.3,2.4-27.3c-1.4-3.4-5.8-8.4-5.8-8.4l-8.5,15.8L929.2,354z"/>
		<path class="st13" d="M926.2,304.1c0,21.7-1.1,44.7-16.8,44.7c-14.6,0-16.8-22.9-16.8-44.7s7.6-59.1,16.9-59.1
			S926.2,282.4,926.2,304.1z"/>
		<path class="st14" d="M922.7,272.8c0,3.8-6,6.8-13.3,6.8c-7.3,0-13.3-3.1-13.3-6.8"/>
		<path class="st14" d="M924.5,283.7c0,4.2-6.8,7.8-15.2,7.8c-8.4,0-15.2-3.4-15.2-7.8"/>
		<path class="st14" d="M925.8,294.3c0,4.6-7.4,8.2-16.5,8.2c-9.1,0-16.2-3.6-16.2-8.2"/>
		<path class="st14" d="M926.2,307.7c0,4.7-7.5,8.6-16.8,8.6s-16.7-3.6-16.7-8.4"/>
		<path class="st14" d="M925.8,318.3c0,4.6-7.4,8.4-16.5,8.4c-9.1,0-16-3.3-16.4-8.1"/>
		<path class="st15" d="M909.5,245.1c-4.7,0-8.9,9.4-12,21.5c0.2,3.3,5.4,5.9,11.9,5.9c6.5,0,11.9-2.7,11.9-6v-0.1
			C918.2,254.2,914.1,245.1,909.5,245.1z"/>
		<line class="st14" x1="909.5" y1="245.1" x2="909.5" y2="348.9"/>
		<path class="st14" d="M909.5,245.1c0,0-3.3,2.9-6.6,32.9c-1.6,14.7-2,36.8-1.2,46.8c0.6,7.9,1.9,15.8,3.9,23.4"/>
		<path class="st14" d="M909.5,245.1c0,0-7.9,3.5-11.3,33.7c-1.6,14.7-2.7,35.5-1.9,45.5c1.2,13.3,5.1,21.5,5.1,21.5"/>
		<path class="st14" d="M909.9,245.1c0,0,3.2,2.9,6.5,32.9c1.6,14.7,1.9,36.8,1.2,46.8c-0.6,8-2,15.8-4.4,23.4"/>
		<path class="st14" d="M909.9,245.1c0,0,7.8,3.5,11.1,33.7c1.6,14.7,2.6,35.5,1.8,45.5c-1.1,13.3-5.2,21.5-5.2,21.5"/>
		<path class="st11" d="M903.3,349.2v12.5c0,1.8,2.9,3.3,6.5,3.3s6.5-1.5,6.5-3.3v-12.5H903.3z"/>
		<path class="st11" d="M915.4,351.3c-1.8,1.1-3.6,1.6-5.6,1.6c-1.5,0-3.2-0.4-4.6-1.1l0,0c-10.2-4.9-9.8-10.8-11.4-22.5
			c0,0,20.5,8.4,19.7,16.8C913.3,346.4,915.4,351.2,915.4,351.3L915.4,351.3z"/>
		<path class="st11" d="M913.3,346.4c1.4-4.2,6.4-4.6,9.3-11.3c2.9-6.7,3.3-15.5,3.3-15.5c-0.6,13.7,2.2,21.4-8.5,30.4
			c-0.6,0.6-1.3,1.1-1.9,1.5C915.4,351.2,913.3,346.4,913.3,346.4z"/>
		<polygon class="st17" points="913.3,346.4 894.3,339.4 890.3,332.1 912,335.3 		"/>
		<path class="st11" d="M888.5,324.3c0,0,22.8,10.8,23.5,11.1c-1.2-0.4-4.8,2.6-8.9,6c-11.1,9.5-25.7,17.1-25.7,17.1
			C874.1,350.7,887.7,324,888.5,324.3z"/>
		<path class="st14" d="M899.9,330.4c0,0-5.5,2.9-13.2,11.6c-7.6,8.7-8.7,13.7-9.3,16.4"/>
		<ellipse class="st22" cx="818.8" cy="401.6" rx="3.4" ry="1.8"/>
		<path class="st11" d="M839.3,401.9c0,0,8.2-13.3,2.4-27.3c-1.4-3.4-5.8-8.4-5.8-8.4l-8.5,15.8L839.3,401.9z"/>
		<path class="st13" d="M836.3,352c0,21.7-1.1,44.7-16.8,44.7c-14.6,0-16.8-22.9-16.8-44.7s7.6-59.1,16.9-59.1
			S836.3,330.4,836.3,352z"/>
		<path class="st14" d="M832.7,320.7c0,3.8-6,6.8-13.3,6.8s-13.3-3.1-13.3-6.8"/>
		<path class="st14" d="M834.6,331.7c0,4.2-6.8,7.8-15.2,7.8s-15.2-3.4-15.2-7.8"/>
		<path class="st14" d="M835.8,342.3c0,4.6-7.4,8.2-16.5,8.2s-16.2-3.6-16.2-8.2"/>
		<path class="st14" d="M836.3,355.7c0,4.7-7.5,8.6-16.8,8.6s-16.7-3.6-16.7-8.4"/>
		<path class="st14" d="M835.8,366.3c0,4.6-7.4,8.4-16.5,8.4s-16-3.3-16.4-8.1"/>
		<path class="st15" d="M819.6,293c-4.7,0-8.9,9.4-12,21.5c0.2,3.3,5.4,5.9,11.9,5.9c6.5,0,11.9-2.7,11.9-6v-0.2
			C828.3,302.3,824.2,293,819.6,293z"/>
		<line class="st14" x1="819.6" y1="293" x2="819.6" y2="396.8"/>
		<path class="st14" d="M819.6,293c0,0-3.3,2.9-6.6,32.9c-1.6,14.7-2,37-1.2,46.8c0.6,7.9,1.9,15.8,3.9,23.4"/>
		<path class="st14" d="M819.6,293c0,0-7.9,3.5-11.3,33.7c-1.6,14.7-2.7,35.5-1.9,45.5c1.1,13.3,5.1,21.5,5.1,21.5"/>
		<path class="st14" d="M820,293c0,0,3.2,2.9,6.5,32.9c1.6,14.7,1.9,37,1.2,46.8c-0.6,7.9-2,15.8-4.2,23.4"/>
		<path class="st14" d="M820,293c0,0,7.8,3.5,11.1,33.7c1.6,14.7,2.6,35.5,1.8,45.5c-1.1,13.3-5.2,21.5-5.2,21.5"/>
		<path class="st20" d="M825.5,399.3c-1.6,1.1-3.6,1.6-5.6,1.6c-1.5,0-3.2-0.4-4.6-1.1l0,0c-10.4-4.8-9.8-10.7-11.5-22.5
			c0,0,20.5,8.4,19.7,16.9C823.4,394.4,825.5,399.2,825.5,399.3L825.5,399.3z"/>
		<path class="st11" d="M823.4,394.4c1.4-4.2,6.4-4.6,9.3-11.3c2.9-6.7,3.3-15.5,3.3-15.5c-0.6,13.7,2.2,21.5-8.5,30.4
			c-0.6,0.6-1.3,1.1-1.9,1.5C825.5,399.2,823.4,394.4,823.4,394.4z"/>
		<polygon class="st17" points="823.4,394.4 804.4,387.3 800.4,380 822.1,383.2 		"/>
		<path class="st11" d="M798.5,372.2c0,0,22.8,10.8,23.5,11.1c-1.2-0.4-4.8,2.6-8.9,6c-11.1,9.5-25.7,17.1-25.7,17.1
			C784.2,398.6,797.8,371.9,798.5,372.2z"/>
		<path class="st14" d="M810,378.4c0,0-5.5,2.9-13.2,11.6c-7.6,8.7-8.7,13.7-9.3,16.4"/>
		<ellipse class="st18" cx="865" cy="381.2" rx="3.4" ry="1.8"/>
		<path class="st13" d="M882.4,331.7c0,21.7-1.1,44.7-16.8,44.7c-14.6,0-16.8-22.9-16.8-44.7s7.6-59.1,16.9-59.1
			S882.4,309.9,882.4,331.7z"/>
		<path class="st14" d="M878.9,300.3c0,3.8-6,6.8-13.3,6.8s-13.2-3.1-13.2-6.8"/>
		<path class="st14" d="M880.8,311.2c0,4.2-6.8,7.8-15.2,7.8s-15.2-3.4-15.2-7.8"/>
		<path class="st14" d="M882.1,321.8c0,4.6-7.4,8.2-16.5,8.2s-16.2-3.6-16.2-8.2"/>
		<path class="st14" d="M882.4,335.2c0,4.7-7.5,8.6-16.8,8.6s-16.7-3.6-16.7-8.4"/>
		<path class="st14" d="M882.1,345.8c0,4.6-7.4,8.4-16.5,8.4s-16-3.3-16.4-8.1"/>
		<path class="st15" d="M865.9,272.6c-4.7,0-8.9,9.4-12,21.5c0.2,3.3,5.4,5.8,11.9,5.8c6.5,0,11.9-2.7,11.9-6v-0.1
			C874.6,281.8,870.4,272.6,865.9,272.6z"/>
		<line class="st14" x1="865.9" y1="272.6" x2="865.9" y2="376.3"/>
		<path class="st14" d="M865.9,272.6c0,0-3.3,2.9-6.6,32.9c-1.6,14.7-2,36.8-1.2,46.8c0.6,7.9,1.9,15.8,3.9,23.4"/>
		<path class="st14" d="M865.9,272.6c0,0-7.9,3.5-11.3,33.7c-1.6,14.7-2.7,35.5-1.9,45.5c1.1,13.3,5.1,21.5,5.1,21.5"/>
		<path class="st14" d="M866.2,272.6c0,0,3.2,2.9,6.5,32.9c1.6,14.7,1.9,36.8,1.2,46.8c-0.6,7.9-2,15.8-4.2,23.4"/>
		<path class="st14" d="M866.2,272.6c0,0,7.8,3.5,11.1,33.7c1.6,14.7,2.6,35.5,1.8,45.5c-1.1,13.3-5.2,21.5-5.2,21.5"/>
		<path class="st22" d="M859.5,376.6v12.5c0,1.8,2.9,3.3,6.5,3.3s6.5-1.4,6.5-3.3v-12.5H859.5z"/>
		<path class="st11" d="M871.7,378.9c-1.8,1.1-3.6,1.6-5.6,1.6c-1.5,0-3.2-0.4-4.6-1.1l0,0c-10.4-4.9-20.5-20.8-22.1-32.5
			c0,0,31.2,18.4,30.4,26.9C869.6,373.9,871.7,378.7,871.7,378.9L871.7,378.9z"/>
		<path class="st11" d="M869.5,373.9c1.4-4.2,6.4-4.6,9.3-11.3s3.3-15.5,3.3-15.5c-0.6,13.7,2.2,21.5-8.5,30.4
			c-0.6,0.6-1.3,1.1-1.9,1.5C871.7,378.7,869.5,373.9,869.5,373.9z"/>
		<polyline class="st20" points="957.2,350.2 994.2,304.5 969.4,308 947.4,353.6 		"/>
		<polygon class="st17" points="962.6,321.2 980.6,321.2 994.2,304.5 969.4,308 		"/>
		<line class="st14" x1="956.9" y1="344.2" x2="980.6" y2="309.9"/>
		<path class="st11" d="M1019.7,367.1c1.6-6.2,10.1-30.5,8.6-36.7c-3.2-13.1-33.3-32.5-34.1-32.2c0,0-24,9.6-24.7,9.9
			c1.4-0.5,5.4,1.6,10.5,4.9c12.9,8.6,25.4,18.9,26.5,23.4c1.5,6.1,2,24.2,1.8,31.3c-0.2,5.2,8.5,19.4,13.1,26.4
			c0.5,0.7,1.8-0.2,1.5-1.2C1021.1,385.3,1018.5,371.5,1019.7,367.1z"/>
		<path class="st14" d="M983.3,302.5c0,0,6.8,2.4,16.9,10.8c8.5,7.2,17.3,16.5,17.8,18.4c2.1,8.6-3.3,29.5-3.3,35.5
			s7.3,27.1,7.3,27.1"/>
		<polyline class="st20" points="675.7,367.9 636.5,322.4 667.1,326.9 685.9,369.6 		"/>
		<polygon class="st17" points="673.6,341.9 653.5,341.3 636.5,322.4 667.1,326.9 		"/>
		<line class="st14" x1="676.9" y1="362.6" x2="653.5" y2="329.2"/>
		<path class="st11" d="M607.3,352c-0.1-13.3,28.2-37.7,29.2-37.4c0,0,29.7,12,30.6,12.2c-1.8-0.5-6.9,3.5-12.7,8.4
			c-15.8,13.2-21.5,21.2-23.8,26.4c-2.7,6.1-3.2,21.5-2.1,29.8C628.7,392.3,607.3,359.9,607.3,352z"/>
		<path class="st14" d="M650,320c0,0-7.8,4.1-18.6,16.1c-10.7,11.9-12.4,15.8-13.2,19.7c-1.5,7.4,6.7,28.5,9.9,34.7"/>
		<polyline class="st20" points="744.4,395 705.2,349.4 735.9,353.9 754.7,396.8 		"/>
		<polygon class="st17" points="742.3,369 722.2,368.4 705.2,349.4 735.9,353.9 		"/>
		<line class="st14" x1="745.6" y1="389.7" x2="722.2" y2="356.3"/>
		<path class="st11" d="M676,379.1c-0.1-13.3,28.2-37.8,29.2-37.4c0,0,29.7,12,30.6,12.2c-1.8-0.5-6.9,3.5-12.7,8.4
			c-15.8,13.2-21.5,21.2-23.8,26.4c-2.7,6.1-3.2,21.4-2.1,29.8C697.5,419.3,676,387,676,379.1z"/>
		<path class="st14" d="M718.8,347.1c0,0-7.8,4.1-18.6,16.1c-10.7,11.9-12.4,15.8-13.2,19.7c-1.5,7.4,6.7,28.5,9.9,34.7"/>
		<polyline class="st20" points="901.4,392.8 944.2,347.2 910.7,351.6 890.2,394.4 		"/>
		<polygon class="st17" points="903.6,366.6 925.8,366 944.2,347.2 910.7,351.6 		"/>
		<line class="st14" x1="900.1" y1="387.3" x2="925.8" y2="353.9"/>
		<path class="st11" d="M976.2,376.7c0.1-13.3-30.9-37.8-32-37.4c0,0-32.5,12-33.5,12.2c1.9-0.5,7.5,3.5,13.9,8.4
			c17.2,13.2,23.5,21.2,26,26.4c2.9,6.1,3.5,21.4,2.4,29.8C952.8,417.1,976.2,384.6,976.2,376.7z"/>
		<path class="st14" d="M929.5,344.7c0,0,8.5,4.1,20.4,16.1c11.7,11.9,13.5,15.8,14.5,19.7c1.6,7.5-7.3,28.5-10.8,34.7"/>
		<polyline class="st20" points="836.7,424.9 888.1,370.3 848,375.6 823.3,426.9 		"/>
		<polygon class="st17" points="839.5,393.6 866,392.9 888.1,370.3 848,375.6 		"/>
		<line class="st14" x1="835.3" y1="418.4" x2="866" y2="378.4"/>
		<path class="st11" d="M926.6,405.7c0.1-15.9-37.1-45.2-38.4-44.8c0,0-39,14.4-40.1,14.7c2.2-0.6,9.1,4.2,16.6,10.1
			c20.6,15.9,28.2,25.4,31.2,31.7c3.5,7.3,4.2,47.7,2.8,57.5C898.5,475.9,926.5,415.1,926.6,405.7z"/>
		<path class="st14" d="M870.4,367.5c0,0,10.2,4.8,24.5,19.4c14,14.2,16.2,18.9,17.3,23.5c2,8.9-8.7,56-12.9,63.4"/>
		<polyline class="st20" points="805.1,429 768.4,383.3 793,387 814.8,432.4 		"/>
		<polygon class="st17" points="799.7,400.2 782,400.2 768.4,383.3 793,387 		"/>
		<line class="st14" x1="805.4" y1="423.1" x2="782" y2="388.7"/>
		<path class="st11" d="M735.7,459.1c-1.6-6.2-10-37.1-8.5-43.3c3.2-13.1,40.5-39.1,41.3-38.8c0,0,23.8,9.6,24.5,9.9
			c-1.4-0.5-5.3,1.6-10.4,4.9c-12.9,8.6-32.7,25.5-33.9,30c-1.5,6.2-2,30.8-1.6,37.9c0.2,5.2-8.5,19.4-12.9,26.4
			c-0.5,0.7-1.8-0.2-1.5-1.2C734.3,477.4,736.9,463.5,735.7,459.1z"/>
		<path class="st14" d="M779.2,381.5c-8.5,5.3-16.6,11.2-24.4,17.4c-8.4,7.2-17.2,16.5-17.7,18.4c-2.1,8.6,3.3,36.1,3.3,42.1
			s-7.3,27.1-7.3,27.1"/>
		<polygon class="st1" points="561.4,514 561.4,580.6 367.4,678.4 367.4,611.6 		"/>
		<polygon class="st2" points="173.4,514 173.4,580.6 367.4,678.4 367.4,611.6 		"/>
		<polygon class="st2" points="561.4,580.6 561.4,626.5 367.4,724.2 367.4,678.4 		"/>
		<polygon class="st3" points="173.4,580.6 173.4,626.5 367.4,724.2 367.4,678.4 		"/>
		<polyline class="st4" points="561.4,492.4 561.4,514 367.4,611.6 367.4,590.2 		"/>
		<polyline class="st5" points="173.4,492.4 173.4,514 367.4,611.6 367.4,590.2 		"/>
		<polygon class="st6" points="561.4,492.5 367.4,590.3 173.4,492.5 367.4,394.8 		"/>
		<line class="st8" x1="238.6" y1="404.3" x2="238.6" y2="490.3"/>
		<line class="st8" x1="250.3" y1="454.3" x2="250.3" y2="508.4"/>
		<line class="st8" x1="286.2" y1="468.3" x2="286.2" y2="522.5"/>
		<line class="st8" x1="333.7" y1="453" x2="333.7" y2="532.4"/>
		<line class="st8" x1="360" y1="459.1" x2="360" y2="557.1"/>
		<line class="st8" x1="467.5" y1="419.3" x2="467.5" y2="517.4"/>
		<line class="st8" x1="520.4" y1="433.9" x2="520.4" y2="488.1"/>
		<line class="st8" x1="489.1" y1="410.8" x2="489.1" y2="465"/>
		<line class="st8" x1="430.1" y1="393.5" x2="430.1" y2="447.7"/>
		<line class="st8" x1="398" y1="395.3" x2="398" y2="545.4"/>
		<path class="st26" d="M378.3,271.2v165.1c0,0.8-1.4,1.5-3.1,1.5s-3.1-0.7-3.1-1.5V271.2H378.3z"/>
		<ellipse class="st18" cx="375.3" cy="271.2" rx="3.1" ry="1.5"/>
		<path class="st11" d="M370.9,270.2l-0.2,8.5c0,1.2,1.9,2.4,4.5,2.4c2.6,0,4.5-0.8,4.6-2.1l0.2-8.5L370.9,270.2z"/>
		<path class="st13" d="M384.6,244.9c0.2,12.9-0.1,26.7-9.6,26.8c-8.8,0.2-10.6-13.5-10.8-26.5c-0.2-12.9,3.9-35.3,9.5-35.4
			C379.3,209.8,384.3,232,384.6,244.9z"/>
		<path class="st14" d="M382,226.4c0,2.2-3.5,4.1-8,4.2c-4.5,0.1-8.1-1.6-8.1-3.9"/>
		<path class="st14" d="M383.3,232.8c0,2.6-4,4.7-9.1,4.8c-5.1,0.1-9.3-1.9-9.3-4.4"/>
		<path class="st14" d="M384.2,239.2c0,2.7-4.5,5.1-9.9,5.2c-5.4,0.1-9.9-2-10-4.7"/>
		<path class="st15" d="M373.7,210c-2.8,0.1-5.3,5.8-7.1,12.9c0.2,1.9,3.4,3.4,7.3,3.3c3.9-0.1,7.2-1.8,7.2-3.8l0,0
			C379.1,215.4,376.4,209.9,373.7,210z"/>
		<line class="st14" x1="373.7" y1="210" x2="375" y2="271.9"/>
		<path class="st14" d="M373.7,210c0,0-2,1.8-3.5,19.8c-0.7,9.3-0.8,18.6-0.1,27.9c0.5,4.7,1.4,9.3,2.7,13.9"/>
		<path class="st14" d="M373.7,210c0,0-4.7,2.2-6.4,20.2c-0.8,8.8-1.2,21.3-0.6,27.2c0.4,4.5,1.5,8.7,3.4,12.8"/>
		<path class="st14" d="M374,210c0,0,2,1.6,4.4,19.5c1.2,9.3,1.5,18.6,1.3,27.9c-0.2,4.7-1.1,9.4-2.4,14"/>
		<path class="st14" d="M374,210c0,0,4.7,2,7.2,19.9c1.2,8.7,2.1,21.2,1.8,27.1c-0.2,4.5-1.2,8.8-2.9,12.9"/>
		
			<ellipse transform="matrix(0.9998 -2.181239e-02 2.181239e-02 0.9998 -5.8469 8.248)" class="st21" cx="375.2" cy="272.1" rx="3.9" ry="2"/>
		<path class="st26" d="M378.7,273.3c-1.1,0.7-2.2,1.1-3.4,1.1c-0.9,0-1.9-0.1-2.8-0.6l0,0c-8.5-3.6-10.5-25.7-9.4-40.4
			c0.1-1.5,0.1-3.2-0.1-4.7c-0.6-5.3-2.5-14.4-2.5-14.4c2.9,0.4,5.4,2.4,6.5,5.1c1.6,3.8,3.5,8.4,5.3,13.1c1.8,4.5,3.4,9.1,4.6,12.8
			c2.2,7.6,3.1,15.7,2.5,23.5C379.1,270.4,378.9,271.9,378.7,273.3L378.7,273.3z"/>
		<path class="st11" d="M379.1,269c0.7-7.9-0.1-15.9-2.5-23.5c-1.2-3.8,5.3-27.5,5.4-24.5c0.1,2.5,0.4,7.3,0.5,8
			c2.9,10.8,6,35.9-2.8,43.4c-0.4,0.4-0.7,0.7-1.2,0.9C378.9,271.9,379,270.5,379.1,269z"/>
		<polyline class="st27" points="377.3,350 393.3,319.8 379.6,324.6 372.1,353.1 		"/>
		<polygon class="st17" points="377.1,333 387.4,330.9 393.3,319.8 379.6,324.6 		"/>
		<line class="st14" x1="376.6" y1="346.6" x2="386.1" y2="324.4"/>
		<path class="st11" d="M414.9,352.6c0.2-3.8,2.4-18.6,0.8-21.9c-3.3-7.1-22.6-14.8-23.1-14.6c0,0-12.6,8.2-13.1,8.5
			c0.7-0.4,3.3,0.4,6.5,1.6c8.4,3.4,16.7,8,17.8,10.4c1.5,3.4,3.9,13.7,4.5,17.7c0.5,2.9,7.1,10.1,10.5,13.5
			c0.4,0.4,0.9-0.4,0.7-0.8C417.7,363,414.7,355.3,414.9,352.6z"/>
		<path class="st14" d="M386.9,319.9c0,0,4.1,0.6,10.8,4.2c5.6,3.1,11.8,7.4,12.2,8.5c2.1,4.7,1.4,17.3,2.1,20.7
			c0.7,3.4,7.2,14.6,7.2,14.6"/>
		<path class="st11" d="M274.5,324.1v149.8c0,0.8-1.4,1.5-3.1,1.5s-3.1-0.7-3.1-1.5V324.1H274.5z"/>
		<ellipse class="st24" cx="271.5" cy="324.1" rx="3.1" ry="1.5"/>
		<path class="st11" d="M267.5,321.8l0.1,7.5c0,1.1,1.8,2,4,1.9c2.2-0.1,4-0.9,4-2l-0.1-7.5L267.5,321.8z"/>
		
			<ellipse transform="matrix(0.9999 -1.657801e-02 1.657801e-02 0.9999 -5.2957 4.543)" class="st28" cx="271.4" cy="321.7" rx="4" ry="2"/>
		<path class="st11" d="M275.4,261.1L275.4,261.1c-1.4,3.4-2.7,6.8-3.8,10.4c0.5-7.8-1.3-19.5-1.3-19.5s0.4,0.5,0.9,1.4
			C272.8,255.8,274.2,258.4,275.4,261.1z"/>
		<path class="st11" d="M274.9,323c-1.1,0.7-2.2,1.1-3.5,1.1c-0.9,0-1.9-0.1-2.8-0.6l0,0c-8.5-3.8-8.2-26-7.1-40.8
			c0.1-1.5,0.1-3.2,0-4.7l-1.8-17.8c0,0,1.5,3.4,3.6,8.5c1.6,3.8,3.5,8.5,5.3,13.2c1.8,4.7,3.4,9.2,4.6,13.1
			c2.2,7.8,3.1,15.8,2.4,23.8C275.4,321.3,275,323,274.9,323L274.9,323z"/>
		<path class="st11" d="M275.5,318.6c0.7-8-0.1-16.1-2.4-23.8c-1.2-3.9-2.8-8.5-4.6-13.1c0,0,1.2-4.8,2.9-10.4
			c1.1-3.5,2.4-6.9,3.8-10.4l0,0c0.5-1.2,1.1-2.2,1.6-3.4c0,0,0.9,8,1.1,11.2c0.1,2.5,0.6,6,0.7,6.8c1.8,10.7,5.4,38.2-2.7,46.4
			c-0.4,0.4-0.7,0.7-1.2,0.9C274.9,322.9,275.2,321.3,275.5,318.6z"/>
		<path class="st11" d="M269.9,252.5l0.4-0.5c0,0,1.8,11.8,1.3,19.5c-1.8,5.5-2.9,10.4-2.9,10.4c-1.8-4.7-3.8-9.4-5.3-13.2
			C264.5,262.8,266.8,257.4,269.9,252.5z"/>
		<path class="st11" d="M264.1,277.8c2.8,7.2,4.9,13.1,6.4,17.5c3.1,10.2,2.6,23.8,2,28.6"/>
		<path class="st11" d="M418.3,308.7v149.8c0,0.8-1.4,1.5-3.1,1.5s-3.1-0.7-3.1-1.5V308.7H418.3z"/>
		<ellipse class="st24" cx="415.3" cy="308.7" rx="3.1" ry="1.5"/>
		<path class="st24" d="M411.2,306.3l0.1,7.5c0,1.1,1.8,2,4,1.9c2.2-0.1,4-0.9,4-2l-0.1-7.5L411.2,306.3z"/>
		
			<ellipse transform="matrix(0.9998 -1.999600e-02 1.999600e-02 0.9998 -6.0054 8.3906)" class="st29" cx="416.6" cy="304.5" rx="4" ry="2"/>
		<path class="st24" d="M418.7,307.4c-1.1,0.7-2.2,1.1-3.5,1.1c-0.9,0-1.9-0.1-2.8-0.6l0,0c-8.5-3.8-8.2-26-7.1-40.8
			c0.1-1.5,0.1-3.2,0-4.7c-0.6-5.4-0.2-14.2,1.8-9.3c1.6,3.8,3.5,8.5,5.3,13.2s3.4,9.2,4.6,13.1c2.2,7.8,3.1,15.8,2.4,23.8
			C419.2,304.6,419,306,418.7,307.4L418.7,307.4z"/>
		<path class="st24" d="M419.3,303.1c0.7-8-0.1-16.1-2.4-23.8c-1.2-3.9-2.8-8.5-4.6-13.1c0,0,1.2-4.8,2.9-10.4
			c1.1-3.5,6.5-5.8,6.6-2.6c0.1,2.2,0.4,4.5,0.7,6.8c1.8,10.7,5.4,38.2-2.7,46.4c-0.4,0.4-0.7,0.7-1.2,0.9
			C418.9,306,419.2,304.6,419.3,303.1z"/>
		<path class="st15" d="M415.5,255.3c-1.8,5.5-3.2,10.9-3.2,10.9c-1.8-4.7-2.4-6.1-3.9-9.9C409.6,252.4,413,252.4,415.5,255.3z"/>
		<path class="st24" d="M407.7,262.4c0.8,9.5,2.4,18.1,3.6,22.6c3.1,10.2,5.2,18.7,4.7,23.5"/>
		<path class="st24" d="M420.9,266.6c1.4,11.9,2.4,28-1.3,36.7"/>
		<polyline class="st11" points="413.5,378.9 396.4,359 409.7,361 418,379.6 		"/>
		<polygon class="st17" points="412.6,367.5 403.7,367.2 396.4,359 409.7,361 		"/>
		<line class="st14" x1="414" y1="376.5" x2="403.7" y2="361.9"/>
		<path class="st11" d="M383.7,371.9c0-5.8,12.2-16.4,12.7-16.2c0,0,12.9,5.2,13.3,5.3c-0.7-0.2-3.1,1.5-5.5,3.6
			c-6.8,5.8-9.3,9.2-10.4,11.4c-1.2,2.6-7.1,20.6-6.6,24.2C387.4,400.8,383.7,375.3,383.7,371.9z"/>
		<path class="st14" d="M402.3,358c-3.1,1.9-5.8,4.2-8.1,7.1c-4.6,5.2-5.4,6.8-5.8,8.6c-0.7,3.3-2.7,23.7-1.4,26.4"/>
		<path class="st26" d="M327.6,280.7v193.6c0,0.8-1.4,1.5-3.1,1.5s-3.1-0.7-3.1-1.5V280.7H327.6z"/>
		<ellipse class="st18" cx="324.4" cy="280.7" rx="3.1" ry="1.5"/>
		<path class="st5" d="M345.8,308.1v193.6c0,0.8-1.4,1.5-3.1,1.5s-3.1-0.7-3.1-1.5V308.1H345.8z"/>
		<ellipse class="st18" cx="342.7" cy="308.1" rx="3.1" ry="1.5"/>
		<path class="st5" d="M338.3,314.1l-0.2,8.5c0,1.2,1.9,2.4,4.5,2.4c2.6,0,4.5-0.8,4.6-2.1l0.2-8.5L338.3,314.1z"/>
		<path class="st11" d="M361.4,298.7c0,0-6.2-17.1-7.1-19.4c-0.8-2.4-8-3.2-8-3.2l3.3,9.9L361.4,298.7z"/>
		<path class="st13" d="M351.3,283.5c1.5,15.1,2.4,31.1-8.7,32.1c0,0-13.5-14.7-15.1-29.8c-1.5-15.1,1.3-41.4,7.8-42.1
			C341.7,243.1,349.7,268.5,351.3,283.5z"/>
		<path class="st14" d="M346.4,262c0.2,2.6-3.8,5.2-8.9,5.6c-5.2,0.5-9.5-1.2-9.9-3.8"/>
		<path class="st14" d="M348.6,269.4c0.4,2.9-4.2,5.9-10.1,6.5s-10.9-1.3-11.2-4.2"/>
		<path class="st14" d="M350.2,276.7c0.4,3.2-4.7,6.2-11.1,6.9c-6.4,0.7-11.8-1.4-12-4.6"/>
		<path class="st15" d="M335.3,243.8c-3.3,0.4-5.6,7.2-6.9,15.8c0.4,2.2,4.2,3.6,8.8,3.2c4.6-0.5,8.2-2.7,8-5.1l0,0
			C342.1,249.5,338.5,243.5,335.3,243.8z"/>
		<line class="st14" x1="335.3" y1="243.8" x2="342.6" y2="315.7"/>
		<path class="st14" d="M335.3,243.8c0,0-2.1,2.2-2.4,23.3c0,10.8,0.8,21.8,2.5,32.5c0.9,5.4,2.5,10.7,4.4,15.9"/>
		<path class="st14" d="M335.3,243.8c0,0-5.3,3.1-5.5,24.1c-0.1,10.2,0.6,24.8,1.9,31.7"/>
		<path class="st14" d="M335.5,243.8c0,0,2.5,1.8,6.9,22.4c2.1,10.7,3.5,21.4,4.1,32.4c0.1,5.5-0.4,11.1-1.3,16.5"/>
		<path class="st14" d="M335.5,243.8c0,0,5.8,1.9,10.1,22.5c2.1,10,4.4,24.5,4.5,31.4c0.2,5.2-0.6,10.4-2.1,15.3"/>
		<path class="st11" d="M346.9,317c-1.2,0.8-2.5,1.4-3.9,1.5c-1.2,0.1-4.1-1.2-5.2-1.5c0,0-10.2-16.4-12-30.9
			c-0.6-4.8,16.6,1.6,18.2,5.9c4.2,10.8,2.9,14,2.9,20C347.1,313.6,347.1,315.3,346.9,317L346.9,317z"/>
		<path class="st11" d="M347.1,311.9c0-5.9,1.6-8.8,1.4-22.9l3.1-11.6c4.1,14.1,1.9,30.2-3.4,38.4c-0.4,0.5-0.7,0.8-1.3,1.2
			C347.1,315.3,347.1,313.6,347.1,311.9z"/>
		<polygon class="st17" points="344.2,291.9 328.4,291.2 324.8,284.1 340.2,284.8 		"/>
		<path class="st11" d="M311.7,300.4c-0.7-6.6,10.6-21.7,11.2-21.5c0,0,16.9,5.9,17.4,6c-0.9-0.1-3.3,2.1-5.9,4.8
			c-7.2,7.4-9.6,11.6-10.5,14.4c-1.1,3.2-0.5,10.8,0.5,14.9C324.4,319.3,312.2,304.3,311.7,300.4z"/>
		<path class="st14" d="M331.4,282.3c0,0-3.6,2.4-8.5,8.9s-5.4,8.5-5.5,10.5c-0.4,3.8,4.7,13.9,6.7,16.7"/>
		<path class="st5" d="M345.6,356.7c2.7-8.1,7.9-18.9,9.2-28.8c0,0-16.5,7.1-15.8,14.2c0,0,0.5,17.4,0.5,17.5"/>
		<polygon class="st17" points="339.1,342.3 354.3,336.3 357.5,330.1 340.1,332.9 		"/>
		<path class="st11" d="M359,323.6c0,0-18.4,9.2-18.8,9.3c0.9-0.4,3.9,2.2,7.2,5.1c6.4,5.4,13.2,10.2,20.6,14.4
			C370.6,345.8,359.6,323.3,359,323.6z"/>
		<path class="st14" d="M349.8,328.7c0,0,4.4,2.5,10.6,9.8c6.2,7.3,7.1,11.5,7.5,13.8"/>
		<polyline class="st30" points="340.3,414.4 320.4,389.7 333.7,391.7 345.5,416.3 		"/>
		<polygon class="st17" points="337.4,398.9 327.7,398.9 320.4,389.7 333.7,391.7 		"/>
		<line class="st14" x1="340.4" y1="411.2" x2="327.7" y2="392.6"/>
		<path class="st11" d="M313.6,428.5c-0.9-3.4-5.4-20-4.6-23.4c1.8-7.1,10.9-18.9,11.4-18.8c0,0,12.8,5.3,13.2,5.4
			c-0.7-0.2-2.8,0.9-5.5,2.7c-6.9,4.6-6.8,11.6-7.3,14c-0.8,3.4-1.1,16.7-0.9,20.5c0.1,2.8-4.6,10.5-6.9,14.2
			c-0.2,0.5-0.9-0.1-0.8-0.6C312.9,438.4,314.3,430.9,313.6,428.5z"/>
		<path class="st14" d="M326.3,388.6c0,0-0.5,1.5-5.9,6.1c-4.6,3.9-5.6,10-5.9,11.1c-1.2,4.6,1.8,19.5,1.8,22.8s-3.9,14.6-3.9,14.6"
			/>
		<path class="st26" d="M506.2,306.5v193.6c0,0.8-1.4,1.5-3.1,1.5s-3.1-0.7-3.1-1.5V306.5H506.2z"/>
		<ellipse class="st18" cx="503.2" cy="306.5" rx="3.1" ry="1.5"/>
		<path class="st11" d="M498.8,335.1l-0.2,8.5c0,1.2,2,2.4,4.5,2.4c2.5,0,4.5-0.8,4.6-2.1l0.2-8.5L498.8,335.1z"/>
		<path class="st11" d="M523.9,325.2c0,0-3.2-17.5-3.5-20c-0.4-2.5-7.2-4.5-7.2-4.5l1.4,10.1L523.9,325.2z"/>
		<path class="st13" d="M516.6,308.6c-1.1,14.8-2.9,30.5-13.9,29.7c-10.1-0.7-10.6-16.6-9.5-31.4c1.1-14.8,8.2-39.9,14.7-39.4
			S517.7,293.8,516.6,308.6z"/>
		<path class="st14" d="M515.7,287.1c-0.2,2.6-4.5,4.4-9.5,4c-5.1-0.4-9.1-2.7-8.9-5.3"/>
		<path class="st14" d="M516.5,294.6c-0.2,2.9-5.1,4.9-10.9,4.5c-5.9-0.5-10.4-3.2-10.1-6"/>
		<path class="st14" d="M516.8,301.9c-0.2,3.1-5.6,5.3-11.9,4.8c-6.2-0.5-11.1-3.4-10.8-6.5"/>
		<path class="st14" d="M516.5,311.1c-0.2,3.3-5.6,5.4-12.1,4.9c-6.5-0.5-11.4-3.4-11.2-6.6"/>
		<path class="st14" d="M515.7,318.3c-0.2,3.2-5.5,5.3-11.9,4.9c-6.4-0.4-10.9-3.1-10.9-6.4"/>
		<path class="st15" d="M507.9,267.4c-3.3-0.2-6.7,6-9.4,14.1c0,2.2,3.5,4.2,8,4.6c4.5,0.4,8.4-1.3,8.6-3.5l0,0
			C513.5,274.1,511.2,267.7,507.9,267.4z"/>
		<line class="st14" x1="507.9" y1="267.4" x2="502.7" y2="338.3"/>
		<path class="st14" d="M507.9,267.4c0,0-2.5,1.8-6.2,22.2c-1.9,10.6-2.9,21.2-3.2,31.9c0,5.4,0.6,10.8,1.5,16.2"/>
		<path class="st14" d="M507.9,267.4c0,0-5.6,2-9.5,22.4c-1.9,9.9-3.6,24.1-3.5,30.9c0,5.1,0.8,10.1,2.5,14.9"/>
		<path class="st14" d="M508.2,267.4c0,0,2.1,2.1,2.9,22.8c0.2,10.7-0.2,21.4-1.5,32c-0.8,5.4-2.2,10.7-4.1,15.8"/>
		<path class="st14" d="M508.2,267.4c0,0,5.2,2.8,6,23.5c0.4,10.1,0,24.5-0.9,31.2c-0.7,5.1-2.4,10-4.7,14.5"/>
		
			<ellipse transform="matrix(7.289875e-02 -0.9973 0.9973 7.289875e-02 128.3541 815.2495)" class="st31" cx="502.7" cy="338.6" rx="2.2" ry="4.5"/>
		<path class="st11" d="M506.7,340.4c-2.2,1.2-4.9,1.2-7.2-0.1l0,0c-6.9-3.9-8.7-19.1-7.9-33.5c0.2-4.8,15.8,4.4,16.7,8.8
			c2.4,11.2,0.5,14.1-0.6,19.9C507.5,337.1,507.2,338.7,506.7,340.4L506.7,340.4z"/>
		<path class="st11" d="M507.8,335.4c1.1-5.8,0.6-11.1,2.8-24.8l7.4-7.9c1.6,14.5-2,31.2-9.9,36.6c-0.5,0.4-0.9,0.7-1.4,0.9
			C507.2,338.7,507.5,337.1,507.8,335.4z"/>
		<polygon class="st17" points="508.4,315.6 493.2,312.3 490.8,304.7 505.8,308 		"/>
		<path class="st7" d="M475.4,318.3c0.5-6.6,14-19.2,14.5-18.9c0,0,15.4,8.6,15.8,8.7c-0.8-0.4-3.5,1.5-6.5,3.6
			c-8.2,5.9-11.3,9.6-12.6,12.1c-1.5,2.9-2.4,10.5-2.1,14.6C484.5,338.7,475.2,322,475.4,318.3z"/>
		<path class="st14" d="M497.6,304c0,0-4,1.8-9.8,7.3s-6.7,7.3-7.2,9.2c-1.1,3.6,2.2,14.2,3.6,17.4"/>
		<polyline class="st27" points="506,378.7 527.5,352.2 513.2,354.3 500.2,380.7 		"/>
		<polygon class="st17" points="509.2,361.9 519.7,361.9 527.5,352.2 513.2,354.3 		"/>
		<line class="st14" x1="505.9" y1="375.3" x2="519.7" y2="355.3"/>
		<path class="st11" d="M542.4,388.6c0.9-3.6,5.9-17.8,5.1-21.3c-1.9-7.6-19.4-18.9-19.9-18.8c0,0-14,5.6-14.4,5.8
			c0.8-0.2,3.2,0.9,6.1,2.9c7.5,4.9,14.8,11.1,15.4,13.7c0.9,3.6,1.2,14.1,0.9,18.2c-0.1,3.1,4.9,11.3,7.6,15.3
			c0.2,0.5,0.9-0.1,0.9-0.7C543.2,399.2,541.7,391.2,542.4,388.6z"/>
		<path class="st14" d="M521.2,351.1c0,0,4,1.4,9.8,6.4c4.9,4.1,10.1,9.5,10.4,10.7c1.2,4.9-2,17.2-2,20.7c0,3.5,4.2,15.8,4.2,15.8"
			/>
		<path class="st32" d="M229.6,299.2v193.6c0,0.8-1.4,1.5-3.1,1.5s-3.1-0.7-3.1-1.5V299.2H229.6z"/>
		<ellipse class="st18" cx="226.4" cy="299.2" rx="3.1" ry="1.5"/>
		<path class="st5" d="M222,347.1l-0.2,8.5c0,1.2,1.9,2.4,4.5,2.4c2.6,0,4.5-0.9,4.6-2.1l0.2-8.5L222,347.1z"/>
		<path class="st11" d="M204.3,333.1c0,0,2.7-18.7,3.1-21.4c0.4-2.7,7.4-4.9,7.4-4.9l-1.2,10.8L204.3,333.1z"/>
		<path class="st13" d="M211.6,315.3c1.6,15.7,4.1,32.2,15.8,31.1c10.7-1.1,10.7-17.9,9.1-33.5c-1.6-15.7-10.1-42.1-16.9-41.4
			C212.6,272.1,209.9,299.6,211.6,315.3z"/>
		<path class="st14" d="M211.8,292.4c0.2,2.7,4.8,4.5,10.4,3.9s9.5-3.2,9.3-5.9"/>
		<path class="st14" d="M211.2,300.4c0.4,3.1,5.5,5.1,11.8,4.5s10.8-3.6,10.6-6.7"/>
		<path class="st14" d="M211.1,308.1c0.4,3.3,6.1,5.4,12.7,4.7c6.6-0.7,11.6-3.9,11.3-7.2"/>
		<path class="st14" d="M211.8,317.9c0.4,3.4,6.2,5.6,13.1,4.9s12-3.9,11.6-7.3"/>
		<path class="st14" d="M212.9,325.4c0.4,3.3,6,5.5,12.7,4.8c6.7-0.7,11.5-3.5,11.4-7.2"/>
		<path class="st15" d="M219.3,271.3c3.4-0.4,7.3,6.1,10.5,14.6c0,2.4-3.5,4.6-8.2,5.2s-8.9-1.1-9.2-3.5v-0.1
			C213.6,278.6,215.9,271.7,219.3,271.3z"/>
		<line class="st14" x1="219.3" y1="271.3" x2="227.1" y2="346.3"/>
		<path class="st14" d="M219.3,271.3c0,0,2.6,1.9,7.3,23.3c2.4,11.2,3.8,22.4,4.5,33.8c0.1,5.8-0.2,11.5-1.1,17.2"/>
		<path class="st14" d="M219.3,271.3c0,0,6.1,2,10.8,23.4c2.4,10.5,4.7,25.5,4.8,32.7c0.2,5.4-0.5,10.8-2.1,16"/>
		<path class="st14" d="M219.1,271.3c0,0-2.1,2.4-2.4,24.4c0,11.3,0.9,22.7,2.7,33.9c1.1,5.6,2.7,11.3,4.9,16.6"/>
		<path class="st14" d="M219.1,271.3c0,0-5.4,3.2-5.6,25.2c-0.1,10.7,0.7,25.9,2.1,33.1c0.9,5.3,2.7,10.5,5.4,15.2"/>
		<ellipse transform="matrix(0.9946 -0.1035 0.1035 0.9946 -34.656 25.3549)" class="st25" cx="227" cy="346.6" rx="4.8" ry="2.4"/>
		<path class="st5" d="M223,348.6c1.3,0.7,2.8,0.9,4.4,0.7c1.2-0.1,2.4-0.5,3.3-1.1l0,0c7.2-4.4,8.6-20.6,7.3-35.8
			c-0.5-5.1-16.6,5.2-17.4,10c-2.1,11.9,0,14.9,1.3,21.1C222.4,346.6,223,348.5,223,348.6z"/>
		<path class="st5" d="M221.7,343.4c-1.3-6-1.1-11.8-3.9-26.2l-8.1-8.1c-1.3,15.4,3.2,32.9,11.8,38.5c0.5,0.4,1.1,0.7,1.5,0.9
			C223,348.5,222.4,346.6,221.7,343.4z"/>
		<polygon class="st17" points="220.5,322.4 236.4,318.3 238.6,310.3 223,314.3 		"/>
		<path class="st11" d="M255.5,324.1c-0.7-6.9-15.4-19.9-16-19.7c0,0-16,9.5-16.5,9.8c0.8-0.4,3.8,1.5,7.1,3.6
			c8.8,6,12.4,9.9,13.8,12.5c1.8,3.1,2.8,10.9,2.7,15.3C246.5,346.2,255.8,328.1,255.5,324.1z"/>
		<path class="st14" d="M231.6,309.8c0,0,4.2,1.6,10.6,7.4c6.4,5.8,7.3,7.5,7.9,9.5c1.2,3.8-1.9,15.2-3.3,18.6"/>
		<polyline class="st5" points="222,394.3 193.2,360.7 215.7,363.9 229.6,395.5 		"/>
		<polygon class="st17" points="220.4,375.1 205.6,374.6 193.2,360.7 215.7,363.9 		"/>
		<line class="st14" x1="222.9" y1="390.3" x2="205.6" y2="365.7"/>
		<path class="st11" d="M171.6,382.5c-0.1-9.8,20.8-27.8,21.5-27.5c0,0,21.9,8.8,22.5,9.1c-1.3-0.4-5.1,2.6-9.3,6.2
			c-11.6,9.8-15.9,15.7-17.5,19.4c-2,4.5-2.4,15.8-1.5,21.9C187.3,412.2,171.7,388.3,171.6,382.5z"/>
		<path class="st14" d="M203.1,359c0,0-5.8,2.9-13.8,11.9c-8,8.9-9.2,11.6-9.6,14.5c-1.1,5.5,4.9,20.9,7.3,25.5"/>
		<path class="st32" d="M307.2,347v193.6c0,0.8-1.4,1.5-3.1,1.5s-3.1-0.7-3.1-1.5V347H307.2z"/>
		<ellipse class="st18" cx="304.2" cy="347" rx="3.1" ry="1.5"/>
		<path class="st5" d="M299.5,377.8l-0.2,8.5c0,1.2,1.9,2.4,4.5,2.4c2.6,0,4.5-0.8,4.6-2.1l0.2-8.5L299.5,377.8z"/>
		<path class="st13" d="M312.5,346.7c1.8,14.4,3.1,29.8-7.6,31.1c-9.9,1.2-13.3-13.9-15.2-28.2c-1.9-14.4,0.2-39.9,6.5-40.6
			C302.4,308.3,310.7,332.4,312.5,346.7z"/>
		<path class="st14" d="M307.5,326.3c0.4,2.5-3.4,4.9-8.4,5.6c-4.9,0.7-9.3-0.8-9.5-3.4"/>
		<path class="st14" d="M309.7,333.3c0.4,2.8-4,5.8-9.5,6.5s-10.6-1.1-10.8-3.8"/>
		<path class="st14" d="M311.4,340.3c0.4,3.1-4.4,6.1-10.4,6.9c-6,0.8-11.3-1.1-11.6-4.1"/>
		<path class="st14" d="M312.8,349.1c0.4,3.2-4.4,6.4-10.7,7.2c-6.4,0.8-11.6-1.1-12-4.1"/>
		<path class="st14" d="M313.5,356.2c0.4,3.1-4.2,6.2-10.5,6.9c-6.2,0.7-11.1-0.8-11.8-4"/>
		<path class="st15" d="M296.3,309c-3.2,0.4-5.3,6.9-6.4,15.3c0.5,2.1,4.1,3.4,8.5,2.8s7.8-2.8,7.5-5.1v-0.1
			C303,314.4,299.4,308.6,296.3,309z"/>
		<line class="st14" x1="296.3" y1="309" x2="305" y2="377.8"/>
		<path class="st14" d="M296.3,309c0,0-2,2.2-1.8,22.5c0.2,10.5,1.3,20.8,3.2,31.2c1.1,5.2,2.6,10.2,4.6,15.2"/>
		<path class="st14" d="M296.3,309c0,0-5.1,3.1-4.8,23.3c0.1,9.9,1.2,23.9,2.6,30.4c0.9,4.9,2.7,9.6,5.3,13.9"/>
		<path class="st14" d="M296.5,309c0,0,2.4,1.6,7.2,21.3c2.4,10.2,3.9,20.5,4.7,30.9c0.2,5.3,0,10.6-0.9,15.9"/>
		<path class="st14" d="M296.5,309c0,0,5.5,1.6,10.4,21.4c2.4,9.6,4.8,23.4,5.1,30c0.4,4.9-0.2,10-1.8,14.7"/>
		
			<ellipse transform="matrix(0.9921 -0.1257 0.1257 0.9921 -45.0852 41.3527)" class="st33" cx="305.1" cy="377.9" rx="4.5" ry="2.2"/>
		<path class="st11" d="M309.2,379c-2,1.5-4.6,2-6.9,1.3l0,0c-9.9-3.2-14.7-27.4-15.2-43.9c0-1.8-0.2-3.5-0.6-5.2
			c-1.3-5.9-4.5-18.9-4.5-18.9c3.2,2.1,5.9,4.9,7.8,8.2c2.2,4,4.9,8.9,7.5,14c2.5,4.8,4.8,9.6,6.6,13.8c3.4,8.2,5.3,16.9,5.4,25.9
			C309.4,377.1,309.2,378.9,309.2,379L309.2,379z"/>
		<path class="st11" d="M309.2,374.2c-0.2-8.9-2-17.7-5.4-25.9c-1.8-4.1-1.6-12.7-0.5-18.9c0.8-4-1.1-15.5,1.2-18.2
			c0.9-1.2,1.9-2.5,2.7-3.8c0,0-0.8,9.6-0.4,13.1c0.4,2.7,1.2,8,1.5,8.8c4.6,11.8,10.9,39.3,1.9,48.7c-0.4,0.5-0.7,0.8-1.2,1.2
			C309.2,378.9,309.4,377.1,309.2,374.2z"/>
		<path class="st11" d="M306.7,333.6c2.9,12.9,5.9,30.6,3.1,40.6"/>
		<polyline class="st5" points="300.9,402.4 273,370 294.8,373.2 308.1,403.6 		"/>
		<polygon class="st17" points="299.4,383.9 285,383.5 273,370 294.8,373.2 		"/>
		<line class="st14" x1="301.6" y1="398.6" x2="285" y2="374.9"/>
		<path class="st11" d="M252.2,391.1c-0.1-9.4,20-26.8,20.8-26.6c0,0,21.1,8.5,21.8,8.7c-1.2-0.4-4.9,2.6-8.9,6
			c-11.2,9.4-15.3,15.1-16.9,18.7c-1.9,4.4-11.5,33.8-10.7,39.7C258.2,438.2,252.3,396.6,252.2,391.1z"/>
		<path class="st14" d="M282.5,368.4c0,0-5.5,2.9-13.2,11.5s-8.8,11.2-9.4,14c-1.1,5.3-4.5,38.7-2.2,43.2"/>
		<path class="st18" d="M449.6,336.1v193.6c0,0.8-1.4,1.5-3.1,1.5s-3.1-0.7-3.1-1.5V336.1H449.6z"/>
		<path class="st13" d="M459.4,310.6c-0.5,14.7-1.6,30.4-12.5,30c-10.1-0.2-11.2-16-10.7-30.7s6.5-40,12.9-39.8
			C455.6,270.4,459.8,295.9,459.4,310.6z"/>
		<path class="st14" d="M457.5,289.3c-0.1,2.6-4.2,4.5-9.3,4.4c-5.1-0.1-9.2-2.4-9.1-4.8"/>
		<path class="st14" d="M458.6,296.7c-0.1,2.9-4.8,5.1-10.6,4.9c-5.8-0.1-10.5-2.6-10.4-5.5"/>
		<path class="st14" d="M459.3,304c-0.1,3.1-5.3,5.4-11.5,5.3c-6.2-0.1-11.2-2.8-11.1-5.9"/>
		<path class="st14" d="M459.3,313.1c-0.1,3.2-5.4,5.6-11.8,5.5c-6.4-0.1-11.5-2.8-11.4-6"/>
		<path class="st14" d="M458.8,320.3c-0.1,3.2-5.3,5.5-11.5,5.4c-6.2-0.1-11.1-2.6-11.2-5.9"/>
		<path class="st15" d="M448.9,270.1c-3.2-0.1-6.4,6.2-8.7,14.4c0.1,2.2,3.6,4.1,8.1,4.2c4.5,0.1,8.2-1.6,8.4-3.9v-0.1
			C454.8,276.6,452.2,270.2,448.9,270.1z"/>
		<line class="st14" x1="448.9" y1="270.1" x2="446.9" y2="340.6"/>
		<path class="st14" d="M448.9,270.1c0,0-2.4,1.9-5.3,22.2c-1.4,10.5-2,21.2-1.8,31.8c0.2,5.4,1.1,10.7,2.2,16"/>
		<path class="st14" d="M448.9,270.1c0,0-5.5,2.2-8.5,22.6c-1.4,9.9-2.6,24.1-2.2,30.8c0.2,5.1,1.3,10,3.1,14.7"/>
		<path class="st14" d="M449.3,270.2c0,0,2.1,2,3.9,22.5c0.7,10.6,0.7,21.2-0.1,31.8c-0.6,5.4-1.8,10.7-3.4,15.8"/>
		<path class="st14" d="M449.3,270.2c0,0,5.3,2.6,6.9,23.1c0.8,10,1.2,24.2,0.4,30.9c-0.5,5.1-1.9,10-4,14.6"/>
		<path class="st18" d="M442.6,340.7l-0.2,8.5c0,1.2,1.9,2.4,4.5,2.4c2.6,0,4.5-0.9,4.6-2.1l0.2-8.5L442.6,340.7z"/>
		
			<ellipse transform="matrix(2.914068e-02 -0.9996 0.9996 2.914068e-02 93.4552 777.8007)" class="st33" cx="447.1" cy="340.8" rx="2.2" ry="4.5"/>
		<path class="st18" d="M450.9,342.5c-2.2,1.3-4.8,1.3-7.2,0.2l0,0c-9.4-4.7-10.4-19.7-8.2-36.4c0.1-4.7-2.2-10.9-2.2-10.9
			s6.4,3.8,9.2,8.8c2.6,4.7,6.2,9.9,7.4,14.2c2.8,10.9,2.6,13.4,1.9,19.2C451.6,339.3,451.4,341,450.9,342.5L450.9,342.5z"/>
		<path class="st18" d="M451.8,337.7c0.7-5.8,0.2-8.1-2.5-19.1c-1.2-4.5,3.8-9.6,6-15.8c1.4-3.9,3.1-8.1,7.8-9.5
			c-1.9,4.7-2.8,9.6-2.7,14.7c0.8,12.8,2.5,25.5-8,33.5c-0.5,0.4-0.9,0.7-1.4,1.1C451.3,341,451.6,339.3,451.8,337.7z"/>
		<path class="st24" d="M449.5,387.5c2.7-8.1,7.9-18.9,9.2-28.8c0,0-16.5,7.1-15.8,14.2c0,0,1.1,16.7,1.1,16.8"/>
		<polygon class="st17" points="442.9,372.9 458.1,367 461.3,360.9 444,363.6 		"/>
		<path class="st24" d="M462.8,354.3c0,0-18.4,9.2-18.8,9.3c0.9-0.4,3.9,2.2,7.2,5.1c6.4,5.4,13.2,10.2,20.6,14.4
			C474.3,376.5,463.4,354,462.8,354.3z"/>
		<path class="st14" d="M453.6,359.4c0,0,4.4,2.5,10.6,9.8c6.2,7.3,7.1,11.5,7.5,13.8"/>
		<polyline class="st18" points="450.9,425.1 479.8,394.5 457.3,397.6 443.5,426.2 		"/>
		<polygon class="st17" points="452.6,407.6 467.3,407.2 479.8,394.5 457.3,397.6 		"/>
		<line class="st14" x1="450.1" y1="421.5" x2="467.3" y2="399.1"/>
		<path class="st24" d="M501.2,414.4c0.1-8.9-20.7-25.3-21.4-25.1c0,0-21.8,8-22.5,8.2c1.3-0.4,5.1,2.4,9.3,5.6
			c11.5,8.8,15.8,14.2,17.4,17.7c2,4.1,2.4,14.4,1.5,19.9C485.4,441.4,501.2,419.7,501.2,414.4z"/>
		<path class="st14" d="M469.8,393c0,0,5.8,2.7,13.7,10.8c7.9,8.1,9.1,10.6,9.6,13.2c1.1,4.9-4.9,19.1-7.3,23.3"/>
		<path class="st1" d="M372.2,374.6v193.6c0,0.8-1.4,1.5-3.1,1.5s-3.1-0.7-3.1-1.5V374.6H372.2z"/>
		<ellipse class="st18" cx="369" cy="374.6" rx="3.1" ry="1.5"/>
		<path class="st1" d="M364.7,421.5l-0.2,8.5c0,1.2,1.9,2.4,4.5,2.4s4.5-0.8,4.6-2.1l0.2-8.5L364.7,421.5z"/>
		<path class="st24" d="M384.3,426.2c0,0,6.1-9.9,1.8-20.2c-1.2-2.2-2.6-4.4-4.2-6.2l-6.4,11.6L384.3,426.2z"/>
		<path class="st13" d="M382.1,389.2c0,16-0.8,33.1-12.5,33.1c-10.7,0-12.5-17.1-12.5-33.1s5.6-43.7,12.6-43.7
			S382.1,373.2,382.1,389.2z"/>
		<path class="st14" d="M379.5,366c0,2.8-4.4,4.9-9.9,4.9s-9.9-2.2-9.9-4.9"/>
		<path class="st14" d="M380.9,374.2c0,3.2-5.1,5.8-11.2,5.8c-6.1,0-11.2-2.6-11.2-5.8"/>
		<path class="st14" d="M381.9,382c0,3.4-5.5,6.1-12.1,6.1s-12-2.7-12-6.1"/>
		<path class="st14" d="M382.1,391.9c0,3.5-5.5,6.4-12.5,6.4c-6.9,0-12.4-2.7-12.4-6.2"/>
		<path class="st14" d="M381.9,399.7c0,3.4-5.4,6.2-12.2,6.2c-6.8,0-11.9-2.4-12-6"/>
		<path class="st15" d="M369.9,345.6c-3.4,0-6.6,6.9-8.8,15.9c0.2,2.4,4,4.2,8.8,4.2s8.8-2,8.8-4.5l0,0
			C376.3,352.4,373.3,345.6,369.9,345.6z"/>
		<line class="st14" x1="369.9" y1="345.6" x2="369.9" y2="422.3"/>
		<path class="st14" d="M369.9,345.6c0,0-2.5,2.1-4.9,24.4c-1.2,11.5-1.4,23.1-0.8,34.6c0.5,5.9,1.4,11.6,2.8,17.3"/>
		<path class="st14" d="M369.9,345.6c0,0-5.9,2.6-8.4,24.9c-1.2,10.8-2,26.4-1.4,33.7c0.4,5.5,1.6,10.8,3.8,15.9"/>
		<path class="st14" d="M370.1,345.6c0,0,2.4,2.1,4.8,24.4c1.1,11.5,1.4,23.1,0.8,34.6c-0.5,5.9-1.5,11.6-3.2,17.3"/>
		<path class="st14" d="M370.1,345.6c0,0,5.8,2.7,8.1,24.9c1.2,10.8,2,26.4,1.4,33.7c-0.4,5.5-1.6,10.8-3.9,15.9"/>
		<path class="st34" d="M374.1,424.2c-2.4,1.4-5.2,1.6-7.6,0.5l0,0c-7.6-3.6-7.3-8-8.5-16.6c0,0,15.2,6.2,14.5,12.5
			C372.6,420.5,374.2,424.1,374.1,424.2L374.1,424.2z"/>
		<path class="st34" d="M372.6,420.5c1.1-3.2,4.7-3.4,6.9-8.4c1.4-3.6,2.2-7.5,2.5-11.5c-0.5,10.1,1.6,15.9-6.2,22.4
			c-0.5,0.5-0.9,0.8-1.4,1.2C374.2,424.2,372.6,420.5,372.6,420.5z"/>
		<polygon class="st17" points="372.6,420.5 358.6,415.3 355.6,409.9 371.6,412.3 		"/>
		<path class="st24" d="M354.2,404.2c0,0,16.9,8,17.4,8.2c-0.9-0.2-3.6,1.9-6.6,4.5c-5.9,4.8-12.2,9.1-18.9,12.7
			C343.6,423.7,353.7,403.9,354.2,404.2z"/>
		<path class="st14" d="M362.7,408.6c0,0-4.1,2.1-9.8,8.6s-6.5,10.1-6.8,12.2"/>
		<polyline class="st1" points="372.2,484.9 398,457.6 377.9,460.2 365.5,486 		"/>
		<polygon class="st17" points="373.6,469.2 386.9,468.9 398,457.6 377.9,460.2 		"/>
		<line class="st14" x1="371.5" y1="481.7" x2="386.9" y2="461.6"/>
		<path class="st5" d="M417.3,475.4c0.1-8-18.6-22.7-19.3-22.5c0,0-19.5,7.2-20.1,7.4c1.2-0.4,4.6,2.1,8.4,5.1
			c10.4,8,14.1,12.7,15.7,15.9c1.8,3.6,2.1,23.9,1.4,28.8C403.2,510.5,417.2,480.1,417.3,475.4z"/>
		<path class="st14" d="M389.2,456.1c0,0,5.2,2.5,12.2,9.6c7.1,7.2,8.1,9.5,8.7,11.8c1.1,4.5-4.4,28.1-6.5,31.8"/>
	</g>
</g>
</svg>
